<?xml version="1.0" encoding="UTF-8"?>
<svg id="Layer_2" data-name="Layer 2" xmlns="http://www.w3.org/2000/svg" viewBox="0 0 83.56 43.16">
  <defs>
    <style>
      .cls-1 {
        fill: #54c8e8;
        opacity: .8;
      }
    </style>
  </defs>
  <g id="export">
    <path class="cls-1" d="M31.58,0h-10C9.71,0,0,9.71,0,21.58s9.71,21.58,21.58,21.58h60.55v-19.31c-.01-1.56,0-3.19.04-4.83.01-.62.03-1.25.05-1.88.04-1.3.1-2.6.17-3.93.03-.52.05-1.04.09-1.56.11-1.71.24-3.43.39-5.17.01-.15.02-.3.04-.45.18-1.99.4-3.98.64-5.96,0-.02,0-.05,0-.07H31.58Z"/>
  </g>
</svg>