<?xml version="1.0" encoding="UTF-8"?>
<svg id="Layer_2" data-name="Layer 2" xmlns="http://www.w3.org/2000/svg" viewBox="0 0 79.86 38.65">
  <defs>
    <style>
      .cls-1 {
        fill: #f2a8dc;
        opacity: .7;
      }
    </style>
  </defs>
  <g id="export">
    <path class="cls-1" d="M60.54,0H0c.03.12.06.26.09.38.26,1.08.53,2.19.79,3.34.07.28.13.55.2.84.31,1.38.62,2.79.92,4.24.09.42.17.84.26,1.26.55,2.71,1.08,5.51,1.56,8.34.34,2.02.66,4.04.94,6.06.03.23.06.45.09.67.23,1.65.43,3.29.61,4.91.07.61.12,1.2.18,1.8.12,1.25.22,2.47.31,3.68.05.67.09,1.33.12,1.98.02.37.06.77.07,1.13h54.4c10.63,0,19.32-8.7,19.32-19.32S71.16,0,60.54,0Z"/>
  </g>
</svg>