<?xml version="1.0" encoding="UTF-8"?>
<svg id="Layer_2" data-name="Layer 2" xmlns="http://www.w3.org/2000/svg" viewBox="0 0 32.88 43.16">
  <defs>
    <style>
      .cls-1 {
        fill: #b1b2b2;
        opacity: .88;
      }
    </style>
  </defs>
  <g id="export">
    <path class="cls-1" d="M32.82,20.28C32.14,9.01,22.73,0,11.3,0H0s0,.03,0,.04c.34,2.02.66,4.04.94,6.06.03.23.06.45.09.67.23,1.65.43,3.29.61,4.91.07.61.12,1.2.18,1.8.12,1.25.22,2.47.31,3.68.05.67.09,1.33.12,1.98.09,1.63.15,3.24.15,4.75v19.26h8.89c9.27,0,17.2-5.94,20.24-14.19.85-2.31,1.34-4.8,1.34-7.39,0-.44-.04-.87-.07-1.3Z"/>
  </g>
</svg>