<?xml version="1.0" encoding="UTF-8"?>
<svg id="Layer_2" data-name="Layer 2" xmlns="http://www.w3.org/2000/svg" viewBox="0 0 59.19 38.65">
  <defs>
    <style>
      .cls-1 {
        fill: #f7c17c;
        opacity: .8;
      }
    </style>
  </defs>
  <g id="export">
    <path class="cls-1" d="M19.32,0C10.48,0,2.99,6.03.72,14.19c-.46,1.64-.72,3.36-.72,5.14,0,.53.04,1.06.08,1.59.82,9.89,9.15,17.74,19.24,17.74h35.2c-.03-.88-.02-1.74.02-2.58.02-.46.06-.9.1-1.35.04-.46.09-.92.14-1.37.06-.43.11-.86.18-1.28.08-.49.18-.96.27-1.43.11-.51.22-1.01.34-1.5.13-.54.27-1.07.42-1.59.1-.33.19-.65.29-.97.14-.45.28-.9.42-1.33.09-.26.17-.52.26-.77.21-.63.43-1.24.63-1.82.88-2.49,1.58-4.45,1.58-5.98V0H19.32Z"/>
  </g>
</svg>