<?xml version="1.0" encoding="UTF-8"?>
<svg id="Layer_2" data-name="Layer 2" xmlns="http://www.w3.org/2000/svg" viewBox="0 0 59.84 38.65">
  <defs>
    <style>
      .cls-1 {
        fill: #d49a51;
        opacity: .9;
      }
    </style>
  </defs>
  <g id="export">
    <path class="cls-1" d="M59.76,17.74C58.94,7.85,50.61,0,40.52,0H3.95c.3,1.03.65,2.12,1.03,3.25.18.53.36,1.09.54,1.66.12.38.24.76.36,1.16.06.2.12.41.18.61.98,3.25,1.84,6.98,1.89,11.05.03,2.41-.19,4.92-.9,7.53-1.36,5.04-3.83,9.5-7.06,13.38h40.52c10.63,0,19.32-8.7,19.32-19.32h0c0-.54-.04-1.06-.08-1.59Z"/>
  </g>
</svg>