<?xml version="1.0" encoding="UTF-8"?>
<svg id="Layer_2" data-name="Layer 2" xmlns="http://www.w3.org/2000/svg" viewBox="0 0 35.64 29.82">
  <defs>
    <style>
      .cls-1 {
        fill: #d3d3d3;
        opacity: .81;
      }
    </style>
  </defs>
  <g id="export">
    <path class="cls-1" d="M20.73,0H0c1.14,1.79,2.02,3.52,2.64,5.24.99,2.73,2.27,7.16,3.57,12.47.26,1.08.53,2.19.79,3.34.07.28.13.55.2.84.31,1.38.62,2.79.92,4.24.09.42.17.84.26,1.26.16.81.33,1.61.49,2.43h11.86c7.38,0,13.53-5.44,14.7-12.5.13-.79.21-1.59.21-2.41,0-8.2-6.71-14.91-14.91-14.91Z"/>
  </g>
</svg>