<?xml version="1.0" encoding="UTF-8"?>
<svg id="Layer_2" data-name="Layer 2" xmlns="http://www.w3.org/2000/svg" viewBox="0 0 55.5 38.65">
  <defs>
    <style>
      .cls-1 {
        fill: #a6a7a7;
        opacity: .89;
      }
    </style>
  </defs>
  <g id="export">
    <path class="cls-1" d="M37.71,0h-18.39C9.02,0,.55,8.18.05,18.37c-.02.32-.05.63-.05.96,0,10.63,8.7,19.32,19.32,19.32h31.28c0-.42.03-.85.04-1.27.01-.62.03-1.25.05-1.88.04-1.3.1-2.6.17-3.93.03-.52.05-1.04.09-1.56.11-1.71.24-3.43.39-5.17.01-.15.02-.3.04-.45.18-1.99.4-3.98.64-5.96.29-2.34.63-4.66,1.01-6.94.06-.34.12-.67.18-1.01.15-.84.3-1.68.46-2.51.23-1.19.47-2.37.73-3.52.01-.06.03-.12.04-.18.32-1.43.67-2.82,1.03-4.17.01-.04.02-.08.03-.12h-17.79Z"/>
  </g>
</svg>