<?xml version="1.0" encoding="UTF-8"?>
<svg id="Layer_2" data-name="Layer 2" xmlns="http://www.w3.org/2000/svg" viewBox="0 0 175.35 182.37">
  <defs>
    <style>
      .cls-1 {
        fill: #bcbdbd;
      }

      .cls-2 {
        fill: #e5e1e6;
      }

      .cls-3 {
        fill: #f6f5f7;
      }
    </style>
  </defs>
  <g id="export">
    <g>
      <path class="cls-1" d="M35.72,173.98c5.21.55,10.24.36,14.55-.61-3.14-10.66-1.41-17.13,1.34-26.19-5,11.93-8.91,20.64-15.88,26.8Z"/>
      <path class="cls-1" d="M125.72,150.45c1.61,6.05,2.4,14.58-.05,22.91,4.3.97,9.33,1.16,14.53.61-6.31-5.58-10.12-13.27-14.49-23.52Z"/>
      <path class="cls-1" d="M57.5,174.73c1.35.95,2.8,1.76,4.29,2.49-3.52-9.92-8.73-27.9-9.8-30.11,2.96,15.2,1.04,22.32,5.51,27.62Z"/>
      <path class="cls-1" d="M118.68,174.39c4.49-5.67,1.62-11.14,5.14-26.99-1.28,3.07-6.2,19.99-9.61,29.63,1.94-.83,3.52-1.71,4.47-2.64Z"/>
      <path class="cls-3" d="M19.45,45.21c1.11-.99,2.25-1.92,3.43-2.78,1.81-1.32,3.69-2.5,5.62-3.5.64-.34,1.31-.66,1.98-.97,1.33-.61,2.71-1.16,4.1-1.63,1.42-.48,2.86-.88,4.29-1.2,2.94-.65,5.96-.98,8.98-.98s6.04.33,8.98.98c1.43.32,2.87.72,4.27,1.19,1.4.47,2.78,1.02,4.11,1.63.67.31,1.33.63,1.98.97,1.92,1,3.8,2.18,5.6,3.49,1.19.87,2.33,1.8,3.43,2.78,4.94,4.42,8.93,9.97,11.73,16.16,1.58-3.52,3.56-6.83,5.87-9.84.79-1.02,1.62-2.02,2.49-2.97l.2-.22c1.01-1.09,2.06-2.13,3.16-3.12.57-.51,1.13-.99,1.71-1.45,1.11-.91,2.32-1.79,3.54-2.6,6.96-4.58,14.96-7.01,23.14-7.01,5.27,0,10.43.99,15.34,2.94,2.03.81,4.02,1.78,5.93,2.91,1.26.74,2.49,1.56,3.68,2.42,1.19.87,2.33,1.8,3.43,2.78,2.39,2.14,4.54,4.58,6.48,7.22-.92-4.13-2.15-8.11-3.7-11.91C149.41,16.45,126.8,0,87.81,0,51.94,0,30.03,17.7,18.24,39.12c-2.72,4.94-4.9,10.08-6.59,15.25,2.23-3.38,4.81-6.49,7.8-9.16Z"/>
      <path class="cls-2" d="M171.86,124.69v-22.18c-.44,0-.89-.05-1.34-.15-.54-.12-1.04-.32-1.52-.57-6.87,17.33-22.65,29.18-40.95,29.18s-32.82-11.11-40.1-27.3c-7.3,16.18-22.68,27.3-40.13,27.3s-34.08-11.86-40.95-29.19c-.42.22-.86.39-1.33.51-.51.13-1.02.19-1.52.19-.09,0-.18-.03-.27-.04v21.8c0,9.01-5.85,18.25-2.94,29.23,3.62,13.69,19.49,18.85,34.91,20.48,6.97-6.16,10.88-14.87,15.88-26.8.05-.17.36-.25.39-.08,1.07,2.21,6.28,20.2,9.8,30.11,8.82,4.34,19.54,5.15,25.96,5.15s19.1-2.21,26.46-5.34c3.41-9.64,8.34-26.56,9.61-29.63.07-.32.13-.62.21-.96.04-.18.35-.13.42.03.46,1.13.89,2.5,1.28,3.97,4.37,10.25,8.18,17.94,14.49,23.52,15.4-1.63,32.52-5.94,34.66-19.94,2.03-13.32-3-20.63-3-29.34Z"/>
    </g>
  </g>
</svg>