<?xml version="1.0" encoding="UTF-8"?>
<svg id="Layer_2" data-name="Layer 2" xmlns="http://www.w3.org/2000/svg" viewBox="0 0 171.31 70.61">
  <defs>
    <style>
      .cls-1 {
        fill: none;
      }

      .cls-2 {
        fill: #b1aee9;
      }

      .cls-3 {
        fill: #55c7e1;
      }

      .cls-4 {
        fill: #4ec9e0;
      }

      .cls-5 {
        fill: #ee9eef;
      }

      .cls-6 {
        fill: #e99fef;
      }

      .cls-7 {
        fill: #acb0e9;
      }

      .cls-8 {
        fill: #ef9def;
      }

      .cls-9 {
        fill: #70c0e3;
      }

      .cls-10 {
        fill: #d2a5ed;
      }

      .cls-11 {
        fill: #9bb4e7;
      }

      .cls-12 {
        fill: #6fc0e3;
      }

      .cls-13 {
        fill: #73bfe4;
      }

      .cls-14 {
        fill: #76bee4;
      }

      .cls-15 {
        fill: #75bee4;
      }

      .cls-16 {
        fill: #daa3ed;
      }

      .cls-17 {
        fill: #b8acea;
      }

      .cls-18 {
        fill: #82bbe5;
      }

      .cls-19 {
        fill: #f39cf0;
      }

      .cls-20 {
        fill: #90b7e6;
      }

      .cls-21 {
        fill: #9eb3e8;
      }

      .cls-22 {
        fill: #9cb4e8;
      }

      .cls-23 {
        fill: #a3b2e8;
      }

      .cls-24 {
        fill: #ea9fef;
      }

      .cls-25 {
        fill: #bbacea;
      }

      .cls-26 {
        fill: #93b6e7;
      }

      .cls-27 {
        fill: #6bc1e3;
      }

      .cls-28 {
        fill: #c1aaeb;
      }

      .cls-29 {
        fill: #61c4e2;
      }

      .cls-30 {
        fill: #d0a6ec;
      }

      .cls-31 {
        fill: #5dc5e1;
      }

      .cls-32 {
        fill: #6ec0e3;
      }

      .cls-33 {
        fill: #bfaaeb;
      }

      .cls-34 {
        fill: #eb9eef;
      }

      .cls-35 {
        fill: #d8a4ed;
      }

      .cls-36 {
        fill: #8eb8e6;
      }

      .cls-37 {
        fill: #c3a9eb;
      }

      .cls-38 {
        fill: #94b6e7;
      }

      .cls-39 {
        fill: #c5a9eb;
      }

      .cls-40 {
        fill: #f49cf0;
      }

      .cls-41 {
        fill: #5ac6e1;
      }

      .cls-42 {
        fill: #92b6e7;
      }

      .cls-43 {
        fill: #4fc9e0;
      }

      .cls-44 {
        fill: #ec9eef;
      }

      .cls-45 {
        fill: #f69bf0;
      }

      .cls-46 {
        fill: #a8b1e9;
      }

      .cls-47 {
        fill: #83bbe5;
      }

      .cls-48 {
        fill: #7dbce5;
      }

      .cls-49 {
        fill: #98b5e7;
      }

      .cls-50 {
        fill: #c8a8ec;
      }

      .cls-51 {
        fill: #d9a3ed;
      }

      .cls-52 {
        fill: #b4adea;
      }

      .cls-53 {
        fill: #c7a8ec;
      }

      .cls-54 {
        fill: #52c8e0;
      }

      .cls-55 {
        fill: #b3aeea;
      }

      .cls-56 {
        fill: #a0b3e8;
      }

      .cls-57 {
        fill: #8db8e6;
      }

      .cls-58 {
        fill: #fa9af1;
      }

      .cls-59 {
        fill: #59c6e1;
      }

      .cls-60 {
        fill: #aeafe9;
      }

      .cls-61 {
        fill: #b7adea;
      }

      .cls-62 {
        fill: #77bee4;
      }

      .cls-63 {
        fill: #d1a6ed;
      }

      .cls-64 {
        fill: #e4a0ee;
      }

      .cls-65 {
        fill: #99b5e7;
      }

      .cls-66 {
        fill: #f59cf0;
      }

      .cls-67 {
        fill: #f19df0;
      }

      .cls-68 {
        fill: #62c4e2;
      }

      .cls-69 {
        fill: #8cb8e6;
      }

      .cls-70 {
        fill: #cfa6ec;
      }

      .cls-71 {
        fill: #8bb8e6;
      }

      .cls-72 {
        fill: #a9b0e9;
      }

      .cls-73 {
        fill: #56c7e1;
      }

      .cls-74 {
        fill: #96b5e7;
      }

      .cls-75 {
        fill: #fe99f1;
      }

      .cls-76 {
        fill: #b5adea;
      }

      .cls-77 {
        fill: #7abde4;
      }

      .cls-78 {
        fill: #e5a0ee;
      }

      .cls-79 {
        fill: #7ebce5;
      }

      .cls-80 {
        fill: #d3a5ed;
      }

      .cls-81 {
        fill: #f09df0;
      }

      .cls-82 {
        fill: #51c8e0;
      }

      .cls-83 {
        fill: #f29df0;
      }

      .cls-84 {
        fill: #58c6e1;
      }

      .cls-85 {
        fill: #afafe9;
      }

      .cls-86 {
        fill: #57c7e1;
      }

      .cls-87 {
        fill: #5fc4e2;
      }

      .cls-88 {
        fill: #b0afe9;
      }

      .cls-89 {
        fill: #dba3ee;
      }

      .cls-90 {
        fill: #7bbde4;
      }

      .cls-91 {
        fill: #bdabeb;
      }

      .cls-92 {
        fill: #e0a1ee;
      }

      .cls-93 {
        fill: #9fb3e8;
      }

      .cls-94 {
        fill: #dea2ee;
      }

      .cls-95 {
        fill: #f89bf0;
      }

      .cls-96 {
        fill: #72bfe3;
      }

      .cls-97 {
        fill: #a1b2e8;
      }

      .cls-98 {
        fill: #84bae5;
      }

      .cls-99 {
        fill: #6cc1e3;
      }

      .cls-100 {
        fill: #68c2e3;
      }

      .cls-101 {
        fill: #f79bf0;
      }

      .cls-102 {
        fill: #81bbe5;
      }

      .cls-103 {
        fill: #79bde4;
      }

      .cls-104 {
        fill: #dda2ee;
      }

      .cls-105 {
        fill: #a7b1e9;
      }

      .cls-106 {
        fill: #7fbce5;
      }

      .cls-107 {
        fill: #95b6e7;
      }

      .cls-108 {
        fill: #67c2e2;
      }

      .cls-109 {
        fill: #53c8e0;
      }

      .cls-110 {
        fill: #b2aeea;
      }

      .cls-111 {
        fill: #87b9e6;
      }

      .cls-112 {
        fill: #fd9af1;
      }

      .cls-113 {
        fill: #8fb7e6;
      }

      .cls-114 {
        fill: #fc9af1;
      }

      .cls-115 {
        fill: #7cbce4;
      }

      .cls-116 {
        fill: #bcabeb;
      }

      .cls-117 {
        fill: #6dc1e3;
      }

      .cls-118 {
        fill: #cca7ec;
      }

      .cls-119 {
        fill: #cba7ec;
      }

      .cls-120 {
        fill: #91b7e6;
      }

      .cls-121 {
        fill: #abb0e9;
      }

      .cls-122 {
        fill: #5ec5e2;
      }

      .cls-123 {
        fill: #54c7e1;
      }

      .cls-124 {
        fill: #63c3e2;
      }

      .cls-125 {
        fill: #c6a9eb;
      }

      .cls-126 {
        fill: #e2a1ee;
      }

      .cls-127 {
        fill: #e6a0ef;
      }

      .cls-128 {
        fill: #78bee4;
      }

      .cls-129 {
        fill: #d5a4ed;
      }

      .cls-130 {
        fill: #b9acea;
      }

      .cls-131 {
        fill: #aab0e9;
      }

      .cls-132 {
        fill: #60c4e2;
      }

      .cls-133 {
        fill: #66c2e2;
      }

      .cls-134 {
        fill: #caa7ec;
      }

      .cls-135 {
        fill: #6ac1e3;
      }

      .cls-136 {
        fill: #dfa2ee;
      }

      .cls-137 {
        fill: #97b5e7;
      }

      .cls-138 {
        fill: #65c3e2;
      }

      .cls-139 {
        fill: #a2b2e8;
      }

      .cls-140 {
        fill: #cea6ec;
      }

      .cls-141 {
        fill: #69c2e3;
      }

      .cls-142 {
        fill: #c2aaeb;
      }

      .cls-143 {
        fill: #8ab9e6;
      }

      .cls-144 {
        fill: #c9a8ec;
      }

      .cls-145 {
        fill: #50c8e0;
      }

      .cls-146 {
        fill: #adafe9;
      }

      .cls-147 {
        fill: #9ab4e7;
      }

      .cls-148 {
        fill: #71bfe3;
      }

      .cls-149 {
        fill: #c4a9eb;
      }

      .cls-150 {
        fill: #86bae5;
      }

      .cls-151 {
        fill: #d6a4ed;
      }

      .cls-152 {
        fill: #80bbe5;
      }

      .cls-153 {
        fill: #88b9e6;
      }

      .cls-154 {
        fill: #d4a5ed;
      }

      .cls-155 {
        fill: #74bfe4;
      }

      .cls-156 {
        fill: #64c3e2;
      }

      .cls-157 {
        fill: #c0aaeb;
      }

      .cls-158 {
        fill: #cda7ec;
      }

      .cls-159 {
        fill: #ff99f1;
      }

      .cls-160 {
        fill: #d7a4ed;
      }

      .cls-161 {
        fill: #d49a51;
      }

      .cls-162 {
        fill: #89b9e6;
      }

      .cls-163 {
        fill: #beabeb;
      }

      .cls-164 {
        fill: #ed9eef;
      }

      .cls-165 {
        fill: #baacea;
      }

      .cls-166 {
        fill: #a4b2e8;
      }

      .cls-167 {
        fill: #e7a0ef;
      }

      .cls-168 {
        fill: #e3a1ee;
      }

      .cls-169 {
        fill: #e1a1ee;
      }

      .cls-170 {
        fill: #e89fef;
      }

      .cls-171 {
        fill: #dca3ee;
      }

      .cls-172 {
        fill: #f99bf0;
      }

      .cls-173 {
        fill: #b6adea;
      }

      .cls-174 {
        fill: #f7c17c;
      }

      .cls-175 {
        fill: #fb9af1;
      }

      .cls-176 {
        fill: #a5b1e8;
      }

      .cls-177 {
        fill: #9db3e8;
      }

      .cls-178 {
        fill: #85bae5;
      }

      .cls-179 {
        fill: #5cc5e1;
      }

      .cls-180 {
        fill: #5bc5e1;
      }
    </style>
  </defs>
  <g id="export">
    <g>
      <g>
        <path class="cls-161" d="M79.49,36.33l-1.26-7.46s.17-.27.58-.64c-2.68-7.1-7.58-13.1-13.85-17.17,6.97,5.74,11.41,14.44,11.41,24.17,0,17.29-14.02,31.31-31.31,31.31s-31.31-14.02-31.31-31.31c0-6.78,2.16-13.05,5.82-18.17-4.06,4.5-6.97,10.05-8.29,16.19,0,1.18,0,3.26-.07,5.42,0,0-.21.09-.55.23,1.8,17.81,16.84,31.71,35.13,31.71s33.82-14.37,35.19-32.61c-.05-.67-.13-1.34-.21-2-.39.1-.8.2-1.26.33Z"/>
        <path class="cls-161" d="M160.49,33.24c-1.68-7.81-5.94-14.66-11.85-19.61,5.36,5.62,8.66,13.22,8.66,21.6,0,17.29-14.02,31.31-31.31,31.31s-31.31-14.02-31.31-31.31c0-8.38,3.3-15.98,8.66-21.6-4.44,3.72-7.95,8.52-10.13,13.99.6.3.89.52.89.52,0,0-.4,9.01-2.09,8.48-.31-.1-.67-.21-1.04-.32-.07.57-.13,1.14-.17,1.71-.04-.59-.06-1.19-.07-1.79,0,0,0,0-.02,0,.48,19.08,16.09,34.4,35.28,34.4s33.32-13.9,35.13-31.71c-.34-.14-.55-.23-.55-.23-.07-2.16-.08-4.25-.07-5.42Z"/>
        <path class="cls-161" d="M19.56,17.06c-3.66,5.12-5.82,11.39-5.82,18.17,0,17.29,14.02,31.31,31.31,31.31s31.31-14.02,31.31-31.31c0-9.73-4.44-18.43-11.41-24.17-5.52-3.58-12.1-5.67-19.18-5.67-10.4,0-19.75,4.5-26.21,11.66Z"/>
        <path class="cls-161" d="M103.34,13.63c-5.36,5.62-8.66,13.22-8.66,21.6,0,17.29,14.02,31.31,31.31,31.31s31.31-14.02,31.31-31.31c0-8.38-3.3-15.98-8.66-21.6-6.13-5.14-14.03-8.23-22.65-8.23s-16.52,3.1-22.65,8.24Z"/>
        <path class="cls-174" d="M80.75,36.01c.09.66.16,1.32.21,2h0c.05-.68.07-1.38.09-2.07-.1.02-.2.05-.3.07Z"/>
        <path class="cls-174" d="M45.77,5.39c7.07,0,13.66,2.08,19.18,5.67,6.27,4.07,11.17,10.07,13.85,17.17.3-.27.75-.6,1.36-.91-1.78-7.68-6.05-14.4-11.93-19.26-.87-.72-1.78-1.4-2.72-2.03-1.41-.95-2.89-1.8-4.43-2.55-.51-.25-1.04-.48-1.56-.71-1.06-.45-2.14-.84-3.24-1.19-1.11-.34-2.23-.63-3.38-.87-2.3-.47-4.68-.72-7.12-.72s-4.82.25-7.12.72c-1.15.24-2.28.53-3.38.87-1.11.34-2.19.74-3.24,1.19-.53.22-1.05.46-1.56.71-1.54.74-3.02,1.6-4.43,2.55-.94.63-1.85,1.31-2.72,2.03-7.14,5.9-11.92,14.55-12.72,24.33.42-.1.67-.14.67-.14,0,0,0,.37,0,.99,1.32-6.14,4.23-11.69,8.29-16.19,6.46-7.16,15.81-11.66,26.21-11.66Z"/>
        <path class="cls-174" d="M93.21,27.62c2.18-5.47,5.69-10.27,10.13-13.99,6.13-5.14,14.03-8.24,22.65-8.24s16.52,3.1,22.65,8.23c5.91,4.95,10.17,11.8,11.85,19.61,0-.61,0-.99,0-.99,0,0,.25.05.67.16-.56-6.93-3.12-13.3-7.11-18.52-1.64-2.15-3.52-4.11-5.61-5.83-.87-.72-1.78-1.4-2.72-2.03-.94-.63-1.91-1.22-2.91-1.77-1.5-.82-3.07-1.52-4.69-2.12-3.79-1.39-7.87-2.14-12.14-2.14-6.7,0-12.97,1.87-18.31,5.11-.97.59-1.91,1.22-2.82,1.9-.45.34-.9.69-1.33,1.05-.87.72-1.71,1.48-2.51,2.28-.02.02-.04.04-.05.06-.72.73-1.42,1.49-2.08,2.28-3.42,4.09-5.93,8.98-7.22,14.33.65.21,1.15.42,1.53.61Z"/>
        <path class="cls-174" d="M90.8,38c.04-.57.1-1.15.17-1.71-.08-.02-.16-.05-.25-.07.02.6.03,1.2.07,1.79Z"/>
        <path class="cls-174" d="M90.97,36.29c.37.11.73.22,1.04.32,1.69.53,2.09-8.48,2.09-8.48,0,0-.29-.23-.89-.52-.38-.19-.89-.4-1.53-.61-1.35-.43-3.3-.82-5.93-.82-2.39,0-4.08.45-5.24.97-.12.05-.24.11-.34.16h0c-.61.31-1.05.64-1.36.91-.41.37-.58.64-.58.64l1.26,7.46c.46-.12.88-.23,1.26-.33.1-.03.2-.05.3-.07,0,0,0,0,.01,0,1.41-.35,2.4-.55,3.35-.64.44-.04.87-.06,1.34-.06.27,0,.57.02.87.06,1.29.14,2.8.54,4.09.93,0,0,.01,0,.02,0,.08.03.16.05.25.07Z"/>
        <path class="cls-174" d="M161.17,32.42c-.42-.11-.67-.16-.67-.16,0,0,0,.37,0,.99,0,1.18,0,3.26.07,5.42,0,0,.21.09.55.23,1.47.63,5.57,2.48,7.62,4.23.49.42.88.84,1.06,1.23v4.79s3.5-7.55-.16-11.71c-2.89-3.28-6.9-4.6-8.47-5.01Z"/>
        <path class="cls-174" d="M1.96,44.35c.96-2.01,6.86-4.67,8.68-5.45.34-.14.55-.23.55-.23.07-2.16.08-4.24.07-5.42,0-.62,0-.99,0-.99,0,0-.25.04-.67.14h0c-1.61.36-5.78,1.57-8.71,4.61-.12.13-.25.25-.36.38-3.08,3.5-.68,9.4.17,11.21.16.34.27.55.27.55v-4.79Z"/>
      </g>
      <g>
        <polygon class="cls-174" points="90.8 38 90.8 38 90.8 38 90.8 38"/>
        <path class="cls-174" d="M90.71,36.21c.02.6.05,1.19.09,1.78-.04-.59-.06-1.18-.07-1.78,0,0,0,0-.02,0Z"/>
        <g>
          <path class="cls-4" d="M125.99,5.39c-1.67,0-3.32.12-4.93.35h9.86c-1.61-.23-3.26-.35-4.93-.35Z"/>
          <path class="cls-43" d="M130.92,5.74h-9.86c-.68.09-1.34.21-2.01.35h13.87c-.66-.13-1.33-.25-2.01-.35Z"/>
          <path class="cls-145" d="M132.93,6.09h-13.87c-.52.1-1.04.22-1.55.35h16.97c-.51-.13-1.03-.24-1.55-.35Z"/>
          <path class="cls-82" d="M134.48,6.43h-16.97c-.44.11-.87.22-1.3.35h19.56c-.43-.12-.86-.24-1.3-.35Z"/>
          <path class="cls-54" d="M135.77,6.78h-19.56c-.38.11-.76.22-1.14.35h21.85c-.38-.12-.76-.24-1.14-.35Z"/>
          <path class="cls-109" d="M136.91,7.12h-21.85c-.34.11-.67.23-1,.35h23.84c-.33-.12-.66-.24-1-.35Z"/>
          <path class="cls-123" d="M137.91,7.47h-23.84c-.31.11-.61.23-.92.35h25.67c-.3-.12-.61-.23-.92-.35Z"/>
          <path class="cls-3" d="M138.83,7.81h-25.67c-.29.11-.58.22-.87.35h27.41c-.29-.12-.58-.23-.87-.35Z"/>
          <path class="cls-73" d="M139.7,8.16h-27.41c-.26.11-.52.23-.77.35h28.96c-.26-.12-.51-.24-.77-.35Z"/>
          <path class="cls-86" d="M140.47,8.5h-28.96c-.25.11-.5.23-.75.35h30.46c-.25-.12-.5-.23-.75-.35Z"/>
          <path class="cls-84" d="M141.22,8.85h-30.46c-.23.11-.46.23-.69.35h31.84c-.23-.12-.46-.23-.69-.35Z"/>
          <path class="cls-59" d="M141.91,9.19h-31.84c-.22.11-.45.23-.67.35h33.19c-.22-.12-.45-.23-.67-.35Z"/>
          <path class="cls-41" d="M142.59,9.54h-33.19c-.21.11-.42.23-.62.35h34.43c-.21-.12-.41-.23-.62-.35Z"/>
          <path class="cls-180" d="M143.21,9.89h-34.43c-.2.11-.41.23-.61.35h35.66c-.2-.12-.41-.23-.61-.35Z"/>
          <path class="cls-179" d="M143.82,10.23h-35.66c-.19.11-.38.23-.56.35h36.79c-.19-.12-.37-.23-.56-.35Z"/>
          <path class="cls-31" d="M144.39,10.58h-36.79c-.19.12-.38.23-.56.35h37.92c-.19-.12-.38-.23-.56-.35Z"/>
          <path class="cls-122" d="M144.95,10.92h-37.92c-.18.11-.35.23-.52.35h38.96c-.17-.12-.34-.23-.52-.35Z"/>
          <path class="cls-87" d="M145.47,11.27h-38.96c-.17.11-.34.23-.51.35h39.98c-.17-.12-.34-.23-.51-.35Z"/>
          <path class="cls-132" d="M145.98,11.61h-39.98c-.17.11-.33.23-.49.35h40.97c-.16-.12-.33-.23-.49-.35Z"/>
          <path class="cls-29" d="M146.48,11.96h-40.97c-.16.11-.31.23-.47.35h41.91c-.16-.12-.31-.23-.47-.35Z"/>
          <path class="cls-68" d="M146.95,12.3h-41.91c-.16.12-.32.23-.47.35h42.85c-.15-.12-.31-.23-.47-.35Z"/>
          <path class="cls-124" d="M147.42,12.65h-42.85c-.15.11-.29.23-.43.35h43.72c-.15-.11-.29-.23-.43-.35Z"/>
          <path class="cls-156" d="M147.85,12.99h-43.72c-.14.11-.29.23-.43.35h44.58c-.14-.12-.29-.23-.43-.35Z"/>
          <path class="cls-138" d="M148.64,13.63c-.12-.1-.24-.19-.36-.29h-44.58c-.12.1-.24.19-.36.29-.02.02-.03.04-.05.06h45.4s-.03-.04-.05-.06Z"/>
          <path class="cls-133" d="M148.69,13.69h-45.4c-.11.11-.21.23-.31.35h46.03c-.11-.11-.21-.23-.31-.35Z"/>
          <path class="cls-108" d="M149.01,14.03h-46.03c-.11.11-.21.23-.31.35h46.66c-.1-.12-.21-.23-.31-.35Z"/>
          <path class="cls-100" d="M149.32,14.38h-46.66c-.1.12-.21.23-.31.35h47.29c-.1-.12-.21-.23-.31-.35Z"/>
          <path class="cls-141" d="M149.64,14.72h-47.29c-.1.11-.19.23-.29.35h47.86c-.1-.11-.19-.23-.29-.35Z"/>
          <path class="cls-135" d="M149.92,15.07h-47.86c-.1.11-.19.23-.29.35h48.44c-.09-.12-.19-.23-.29-.35Z"/>
          <path class="cls-27" d="M150.21,15.41h-48.44c-.09.12-.19.23-.29.35h49.01c-.09-.12-.19-.23-.29-.35Z"/>
          <path class="cls-99" d="M150.5,15.76h-49.01c-.09.11-.18.23-.27.35h49.54c-.09-.11-.18-.23-.27-.35Z"/>
          <path class="cls-117" d="M150.76,16.1h-49.54c-.09.11-.17.23-.26.35h50.06c-.09-.12-.17-.23-.26-.35Z"/>
          <path class="cls-32" d="M151.02,16.45h-50.06c-.09.12-.18.23-.26.35h50.58c-.09-.12-.17-.23-.26-.35Z"/>
          <path class="cls-12" d="M151.28,16.79h-50.58c-.08.11-.17.23-.25.35h51.08c-.08-.12-.17-.23-.25-.35Z"/>
          <path class="cls-9" d="M151.53,17.14h-51.08c-.08.11-.16.23-.24.35h51.56c-.08-.11-.16-.23-.24-.35Z"/>
          <path class="cls-148" d="M151.77,17.48h-51.56c-.08.11-.16.23-.24.35h52.03c-.08-.12-.16-.23-.24-.35Z"/>
          <path class="cls-96" d="M152.01,17.83h-52.03c-.08.12-.16.23-.24.35h52.5c-.08-.12-.16-.23-.24-.35Z"/>
          <path class="cls-13" d="M152.24,18.18h-52.5c-.07.11-.14.23-.21.35h52.93c-.07-.11-.14-.23-.21-.35Z"/>
          <path class="cls-155" d="M152.46,18.52h-52.93c-.07.11-.14.23-.21.35h53.36c-.07-.12-.14-.23-.21-.35Z"/>
          <path class="cls-15" d="M152.67,18.87h-53.36c-.07.12-.14.23-.21.35h53.78c-.07-.12-.14-.23-.21-.35Z"/>
          <path class="cls-14" d="M152.88,19.21h-53.78c-.07.12-.14.23-.21.35h54.2c-.07-.12-.14-.23-.21-.35Z"/>
          <path class="cls-62" d="M153.09,19.56h-54.2c-.07.11-.13.23-.19.35h54.58c-.06-.11-.13-.23-.19-.35Z"/>
          <path class="cls-128" d="M153.28,19.9h-54.58c-.06.11-.13.23-.19.35h54.96c-.06-.12-.13-.23-.19-.35Z"/>
          <g>
            <path class="cls-1" d="M157.3,35.23c0-5.43-1.39-10.53-3.83-14.98-.06-.12-.13-.23-.19-.35-.06-.11-.13-.23-.19-.35-.07-.12-.14-.23-.21-.35-.07-.12-.14-.23-.21-.35-.07-.12-.14-.23-.21-.35-.07-.11-.14-.23-.21-.35-.08-.12-.16-.23-.24-.35-.08-.12-.16-.23-.24-.35-.08-.11-.16-.23-.24-.35-.08-.12-.17-.23-.25-.35-.09-.12-.17-.23-.26-.35s-.17-.23-.26-.35c-.09-.11-.18-.23-.27-.35-.09-.12-.19-.23-.29-.35-.09-.12-.19-.23-.29-.35-.1-.11-.19-.23-.29-.35-.1-.12-.21-.23-.31-.35-.1-.12-.21-.23-.31-.35-.11-.11-.21-.23-.31-.35-.02-.02-.03-.04-.05-.06-.12-.1-.24-.19-.36-.29-.14-.12-.29-.23-.43-.35-.15-.11-.29-.23-.43-.35-.15-.12-.31-.23-.47-.35-.16-.12-.31-.23-.47-.35-.16-.12-.33-.23-.49-.35-.17-.12-.34-.23-.51-.35-.17-.12-.34-.23-.52-.35-.19-.12-.38-.23-.56-.35-.19-.12-.37-.23-.56-.35-.2-.12-.41-.23-.61-.35-.21-.12-.41-.23-.62-.35-.22-.12-.45-.23-.67-.35-.23-.12-.46-.23-.69-.35-.25-.12-.5-.23-.75-.35-.26-.12-.51-.24-.77-.35-.29-.12-.58-.23-.87-.35-.3-.12-.61-.23-.92-.35-.33-.12-.66-.24-1-.35-.38-.12-.76-.24-1.14-.35-.43-.12-.86-.24-1.3-.35-.51-.13-1.03-.24-1.55-.35-.66-.13-1.33-.25-2.01-.35-1.61-.23-3.26-.35-4.93-.35s-3.32.12-4.93.35c-.68.09-1.34.21-2.01.35-.52.1-1.04.22-1.55.35-.44.11-.87.22-1.3.35-.38.11-.76.22-1.14.35-.34.11-.67.23-1,.35-.31.11-.61.23-.92.35-.29.11-.58.22-.87.35-.26.11-.52.23-.77.35-.25.11-.5.23-.75.35-.23.11-.46.23-.69.35-.22.11-.45.23-.67.35-.21.11-.42.23-.62.35-.2.11-.41.23-.61.35-.19.11-.38.23-.56.35-.19.12-.38.23-.56.35-.18.11-.35.23-.52.35-.17.11-.34.23-.51.35-.17.11-.33.23-.49.35-.16.11-.31.23-.47.35-.16.12-.32.23-.47.35-.15.11-.29.23-.43.35-.14.11-.29.23-.43.35-.12.1-.24.19-.36.29-.02.02-.03.04-.05.06-.11.11-.21.23-.31.35s-.21.23-.31.35c-.1.12-.21.23-.31.35-.1.11-.19.23-.29.35-.1.11-.19.23-.29.35s-.19.23-.29.35c-.09.11-.18.23-.27.35-.09.11-.17.23-.26.35-.09.12-.18.23-.26.35-.08.11-.17.23-.25.35-.08.11-.16.23-.24.35-.08.11-.16.23-.24.35-.08.12-.16.23-.24.35-.07.11-.14.23-.21.35-.07.11-.14.23-.21.35-.07.12-.14.23-.21.35-.07.12-.14.23-.21.35-.07.11-.13.23-.19.35-.06.11-.13.23-.19.35-2.43,4.45-3.83,9.55-3.83,14.98s1.4,10.6,3.86,15.07h54.89c2.46-4.47,3.86-9.61,3.86-15.07Z"/>
            <path class="cls-63" d="M153.43,50.3h-54.89c.06.12.13.23.2.35h54.49c.07-.12.13-.23.2-.35Z"/>
            <path class="cls-10" d="M153.24,50.65h-54.49c.07.12.13.23.2.35h54.09c.07-.11.13-.23.2-.35Z"/>
            <path class="cls-80" d="M153.04,50.99h-54.09c.07.11.13.23.2.35h53.69c.07-.11.13-.23.2-.35Z"/>
            <path class="cls-154" d="M99.14,51.34c.07.12.14.23.21.35h53.27c.07-.12.14-.23.21-.35h-53.69Z"/>
            <path class="cls-154" d="M157.3,51.68v-.05s-.02.03-.03.05h.03Z"/>
            <path class="cls-129" d="M99.58,52.03h52.82c.07-.12.15-.23.22-.35h-53.27c.07.12.15.23.22.35Z"/>
            <path class="cls-151" d="M99.8,52.37h52.38c.07-.11.15-.23.22-.35h-52.82c.07.12.15.23.22.35Z"/>
            <path class="cls-160" d="M100.02,52.72h51.94c.08-.11.15-.23.22-.35h-52.38c.07.11.15.23.22.35Z"/>
            <path class="cls-35" d="M100.27,53.06h51.45c.08-.12.17-.23.24-.35h-51.94c.08.12.16.23.24.35Z"/>
            <path class="cls-51" d="M100.51,53.41h50.96c.08-.11.16-.23.25-.35h-51.45c.08.12.16.23.25.35Z"/>
            <path class="cls-16" d="M100.76,53.75h50.47c.08-.11.16-.23.25-.35h-50.96c.08.11.16.23.25.35Z"/>
            <path class="cls-89" d="M101.01,54.1h49.95c.09-.11.17-.23.26-.35h-50.47c.08.12.17.23.26.35Z"/>
            <path class="cls-171" d="M101.29,54.45h49.41c.09-.12.18-.23.27-.35h-49.95c.09.12.18.23.27.35Z"/>
            <path class="cls-104" d="M101.56,54.79h48.87c.09-.11.18-.23.27-.35h-49.41c.09.12.18.23.27.35Z"/>
            <path class="cls-94" d="M101.83,55.14h48.33c.09-.11.18-.23.27-.35h-48.87c.09.11.18.23.27.35Z"/>
            <path class="cls-136" d="M102.13,55.48h47.73c.1-.12.2-.23.3-.35h-48.33c.1.12.2.23.3.35Z"/>
            <path class="cls-92" d="M102.43,55.83h47.13c.1-.11.2-.23.3-.35h-47.73c.1.12.2.23.3.35Z"/>
            <path class="cls-169" d="M102.73,56.17h46.53c.1-.11.2-.23.3-.35h-47.13c.1.11.2.23.3.35Z"/>
            <path class="cls-126" d="M103.05,56.52h45.89c.11-.12.21-.23.32-.35h-46.53c.1.12.21.23.32.35Z"/>
            <path class="cls-168" d="M103.38,56.86h45.23c.11-.11.22-.23.33-.35h-45.89c.11.12.22.23.33.35Z"/>
            <path class="cls-64" d="M103.7,57.21h44.57c.11-.11.22-.23.33-.35h-45.23c.11.11.22.23.33.35Z"/>
            <path class="cls-78" d="M104.05,57.55h43.88c.12-.11.23-.23.35-.35h-44.57c.11.12.23.23.35.35Z"/>
            <path class="cls-127" d="M104.41,57.9h43.15c.12-.12.24-.23.36-.35h-43.88c.12.12.24.23.36.35Z"/>
            <path class="cls-167" d="M104.78,58.25h42.43c.12-.11.24-.23.36-.35h-43.15c.12.12.24.23.36.35Z"/>
            <path class="cls-170" d="M105.16,58.59h41.67c.13-.11.26-.23.38-.35h-42.43c.13.12.25.23.38.35Z"/>
            <path class="cls-6" d="M105.56,58.94h40.87c.13-.11.27-.23.4-.35h-41.67c.13.12.27.23.4.35Z"/>
            <path class="cls-24" d="M105.96,59.28h40.07c.14-.11.27-.23.4-.35h-40.87c.13.11.26.23.4.35Z"/>
            <path class="cls-34" d="M106.38,59.63h39.22c.14-.11.29-.23.43-.35h-40.07c.14.12.28.23.43.35Z"/>
            <path class="cls-44" d="M106.82,59.97h38.34c.15-.11.29-.23.44-.35h-39.22c.15.12.29.23.44.35Z"/>
            <path class="cls-164" d="M107.26,60.32h37.46c.15-.11.29-.23.44-.35h-38.34c.15.11.29.23.44.35Z"/>
            <path class="cls-5" d="M107.75,60.66h36.49c.16-.12.33-.23.49-.35h-37.46c.16.12.32.23.49.35Z"/>
            <path class="cls-8" d="M108.23,61.01h35.51c.16-.11.32-.23.49-.35h-36.49c.16.12.32.23.49.35Z"/>
            <path class="cls-81" d="M108.75,61.35h34.49c.17-.11.34-.23.51-.35h-35.51c.17.12.34.23.51.35Z"/>
            <path class="cls-67" d="M109.28,61.7h33.41c.18-.11.36-.23.54-.35h-34.49c.18.12.36.23.54.35Z"/>
            <path class="cls-83" d="M109.83,62.04h32.32c.18-.11.36-.23.55-.35h-33.41c.18.12.36.23.55.35Z"/>
            <path class="cls-19" d="M110.43,62.39h31.12c.2-.11.4-.23.6-.35h-32.32c.2.12.4.23.6.35Z"/>
            <path class="cls-40" d="M111.03,62.74h29.92c.2-.11.4-.23.6-.35h-31.12c.2.12.4.23.6.35Z"/>
            <path class="cls-66" d="M111.7,63.08h28.58c.22-.11.45-.23.67-.35h-29.92c.22.12.45.23.67.35Z"/>
            <path class="cls-45" d="M112.38,63.43h27.23c.23-.11.45-.23.67-.35h-28.58c.22.12.45.24.67.35Z"/>
            <path class="cls-101" d="M113.14,63.77h25.71c.25-.11.51-.22.76-.35h-27.23c.25.12.51.23.76.35Z"/>
            <path class="cls-95" d="M113.91,64.12h24.16c.26-.11.52-.23.78-.35h-25.71c.26.12.52.24.78.35Z"/>
            <path class="cls-172" d="M114.79,64.46h22.41c.29-.11.59-.22.88-.35h-24.16c.29.12.58.23.88.35Z"/>
            <path class="cls-58" d="M115.74,64.81h20.51c.32-.11.63-.23.95-.35h-22.41c.31.12.63.23.95.35Z"/>
            <path class="cls-175" d="M116.77,65.15h18.44c.35-.11.69-.23,1.04-.35h-20.51c.34.12.69.24,1.04.35Z"/>
            <path class="cls-114" d="M117.99,65.5h16.01c.41-.11.81-.22,1.22-.35h-18.44c.4.12.81.24,1.22.35Z"/>
            <path class="cls-112" d="M119.44,65.84h13.09c.49-.1.97-.22,1.46-.35h-16.01c.48.13.97.24,1.46.35Z"/>
            <path class="cls-75" d="M121.34,66.19h9.3c.64-.1,1.27-.21,1.9-.35h-13.09c.63.13,1.26.25,1.9.35Z"/>
            <path class="cls-159" d="M125.99,66.54c1.58,0,3.13-.12,4.65-.35h-9.3c1.52.23,3.07.35,4.65.35Z"/>
            <g>
              <path class="cls-1" d="M98.75,50.65c.07.12.13.23.2.35.07.11.13.23.2.35.07.12.14.23.21.35.07.12.15.23.22.35.07.12.15.23.22.35s.15.23.22.35c.08.12.16.23.24.35.08.12.16.23.25.35.08.11.16.23.25.35.08.12.17.23.26.35.09.12.18.23.27.35.09.12.18.23.27.35s.18.23.27.35c.1.12.2.23.3.35.1.12.2.23.3.35.1.11.2.23.3.35.1.12.21.23.32.35.11.12.22.23.33.35.11.11.22.23.33.35.11.12.23.23.35.35.12.12.24.23.36.35s.24.23.36.35c.13.12.25.23.38.35.13.12.27.23.4.35.13.11.26.23.4.35.14.12.28.23.43.35.15.12.29.23.44.35.15.11.29.23.44.35.16.12.32.23.49.35s.32.23.49.35c.17.12.34.23.51.35.18.12.36.23.54.35.18.12.36.23.55.35.2.12.4.23.6.35.2.12.4.23.6.35.22.12.45.23.67.35.22.12.45.24.67.35.25.12.51.23.76.35.26.12.52.24.78.35.29.12.58.23.88.35.31.12.63.23.95.35.34.12.69.24,1.04.35.4.12.81.24,1.22.35.48.13.97.24,1.46.35.63.13,1.26.25,1.9.35,1.52.23,3.07.35,4.65.35s3.13-.12,4.65-.35c.64-.1,1.27-.21,1.9-.35.49-.1.97-.22,1.46-.35.41-.11.81-.22,1.22-.35.35-.11.69-.23,1.04-.35.32-.11.63-.23.95-.35.29-.11.59-.22.88-.35.26-.11.52-.23.78-.35.25-.11.51-.22.76-.35.23-.11.45-.23.67-.35.22-.11.45-.23.67-.35.2-.11.4-.23.6-.35.2-.11.4-.23.6-.35.18-.11.36-.23.55-.35.18-.11.36-.23.54-.35.17-.11.34-.23.51-.35.16-.11.32-.23.49-.35s.33-.23.49-.35c.15-.11.29-.23.44-.35.15-.11.29-.23.44-.35.14-.11.29-.23.43-.35.14-.11.27-.23.4-.35.13-.11.27-.23.4-.35.13-.11.26-.23.38-.35.12-.11.24-.23.36-.35s.24-.23.36-.35c.12-.11.23-.23.35-.35.11-.11.22-.23.33-.35.11-.11.22-.23.33-.35.11-.12.21-.23.32-.35.1-.11.2-.23.3-.35.1-.11.2-.23.3-.35.1-.12.2-.23.3-.35.09-.11.18-.23.27-.35.09-.11.18-.23.27-.35.09-.12.18-.23.27-.35.09-.11.17-.23.26-.35.08-.11.16-.23.25-.35.08-.11.16-.23.25-.35.08-.12.17-.23.24-.35.08-.11.15-.23.22-.35s.15-.23.22-.35c.07-.12.15-.23.22-.35.07-.12.14-.23.21-.35.07-.11.13-.23.2-.35.07-.11.13-.23.2-.35.07-.12.13-.23.2-.35h-54.89c.06.12.13.23.2.35Z"/>
              <path class="cls-1" d="M153.47,20.25c-.06-.12-.13-.23-.19-.35-.06-.11-.13-.23-.19-.35-.07-.12-.14-.23-.21-.35-.07-.12-.14-.23-.21-.35-.07-.12-.14-.23-.21-.35-.07-.11-.14-.23-.21-.35-.08-.12-.16-.23-.24-.35-.08-.12-.16-.23-.24-.35-.08-.11-.16-.23-.24-.35-.08-.12-.17-.23-.25-.35-.09-.12-.17-.23-.26-.35s-.17-.23-.26-.35c-.09-.11-.18-.23-.27-.35-.09-.12-.19-.23-.29-.35-.09-.12-.19-.23-.29-.35-.1-.11-.19-.23-.29-.35-.1-.12-.21-.23-.31-.35-.1-.12-.21-.23-.31-.35-.11-.11-.21-.23-.31-.35-.02-.02-.03-.04-.05-.06-.12-.1-.24-.19-.36-.29-.14-.12-.29-.23-.43-.35-.15-.11-.29-.23-.43-.35-.15-.12-.31-.23-.47-.35-.16-.12-.31-.23-.47-.35-.16-.12-.33-.23-.49-.35-.17-.12-.34-.23-.51-.35-.17-.12-.34-.23-.52-.35-.19-.12-.38-.23-.56-.35-.19-.12-.37-.23-.56-.35-.2-.12-.41-.23-.61-.35-.21-.12-.41-.23-.62-.35-.22-.12-.45-.23-.67-.35-.23-.12-.46-.23-.69-.35-.25-.12-.5-.23-.75-.35-.26-.12-.51-.24-.77-.35-.29-.12-.58-.23-.87-.35-.3-.12-.61-.23-.92-.35-.33-.12-.66-.24-1-.35-.38-.12-.76-.24-1.14-.35-.43-.12-.86-.24-1.3-.35-.51-.13-1.03-.24-1.55-.35-.66-.13-1.33-.25-2.01-.35-1.61-.23-3.26-.35-4.93-.35s-3.32.12-4.93.35c-.68.09-1.34.21-2.01.35-.52.1-1.04.22-1.55.35-.44.11-.87.22-1.3.35-.38.11-.76.22-1.14.35-.34.11-.67.23-1,.35-.31.11-.61.23-.92.35-.29.11-.58.22-.87.35-.26.11-.52.23-.77.35-.25.11-.5.23-.75.35-.23.11-.46.23-.69.35-.22.11-.45.23-.67.35-.21.11-.42.23-.62.35-.2.11-.41.23-.61.35-.19.11-.38.23-.56.35-.19.12-.38.23-.56.35-.18.11-.35.23-.52.35-.17.11-.34.23-.51.35-.17.11-.33.23-.49.35-.16.11-.31.23-.47.35-.16.12-.32.23-.47.35-.15.11-.29.23-.43.35-.14.11-.29.23-.43.35-.12.1-.24.19-.36.29-.02.02-.03.04-.05.06-.11.11-.21.23-.31.35s-.21.23-.31.35c-.1.12-.21.23-.31.35-.1.11-.19.23-.29.35-.1.11-.19.23-.29.35s-.19.23-.29.35c-.09.11-.18.23-.27.35-.09.11-.17.23-.26.35-.09.12-.18.23-.26.35-.08.11-.17.23-.25.35-.08.11-.16.23-.24.35-.08.11-.16.23-.24.35-.08.12-.16.23-.24.35-.07.11-.14.23-.21.35-.07.11-.14.23-.21.35-.07.12-.14.23-.21.35-.07.12-.14.23-.21.35-.07.11-.13.23-.19.35-.06.11-.13.23-.19.35-.06.11-.11.23-.18.35h55.31c-.06-.11-.11-.23-.18-.35Z"/>
              <path class="cls-77" d="M153.65,20.59h-55.31c-.06.11-.12.23-.18.35h55.67c-.06-.11-.11-.23-.18-.35Z"/>
              <path class="cls-90" d="M153.82,20.94h-55.67c-.06.11-.12.23-.18.35h56.02c-.06-.12-.12-.23-.18-.35Z"/>
              <path class="cls-115" d="M154,21.28h-56.02c-.06.12-.12.23-.18.35h56.37c-.06-.12-.12-.23-.18-.35Z"/>
              <path class="cls-48" d="M154.18,21.63h-56.37c-.06.12-.12.23-.17.35h56.71c-.05-.12-.12-.23-.17-.35Z"/>
              <path class="cls-79" d="M154.35,21.98h-56.71c-.05.11-.1.23-.15.35h57.01c-.05-.11-.1-.23-.15-.35Z"/>
              <path class="cls-106" d="M154.5,22.32h-57.01c-.05.11-.1.23-.15.35h57.31c-.05-.11-.1-.23-.15-.35Z"/>
              <path class="cls-152" d="M154.65,22.67h-57.31c-.05.11-.1.23-.15.35h57.61c-.05-.12-.1-.23-.15-.35Z"/>
              <path class="cls-102" d="M154.8,23.01h-57.61c-.05.12-.1.23-.15.35h57.91c-.05-.12-.1-.23-.15-.35Z"/>
              <path class="cls-18" d="M154.95,23.36h-57.91c-.05.12-.1.23-.15.35h58.21c-.05-.12-.1-.23-.15-.35Z"/>
              <path class="cls-47" d="M155.1,23.7h-58.21c-.05.11-.08.23-.13.35h58.46c-.04-.11-.08-.23-.13-.35Z"/>
              <path class="cls-98" d="M155.22,24.05h-58.46c-.04.11-.08.23-.13.35h58.71c-.04-.11-.08-.23-.13-.35Z"/>
              <path class="cls-178" d="M155.35,24.39h-58.71c-.04.11-.08.23-.13.35h58.96c-.04-.12-.08-.23-.13-.35Z"/>
              <path class="cls-150" d="M155.47,24.74h-58.96c-.04.12-.09.23-.13.35h59.21c-.04-.12-.08-.23-.13-.35Z"/>
              <path class="cls-111" d="M155.6,25.08h-59.21c-.04.12-.09.23-.12.35h59.46c-.04-.12-.09-.23-.12-.35Z"/>
              <path class="cls-153" d="M155.72,25.43h-59.46c-.04.11-.07.23-.11.35h59.68c-.04-.11-.07-.23-.11-.35Z"/>
              <path class="cls-162" d="M155.83,25.78h-59.68c-.04.11-.07.23-.1.35h59.88c-.03-.11-.07-.23-.1-.35Z"/>
              <path class="cls-143" d="M155.93,26.12h-59.88c-.03.11-.07.23-.1.35h60.08c-.03-.12-.07-.23-.1-.35Z"/>
              <path class="cls-71" d="M156.03,26.47h-60.08c-.03.12-.07.23-.1.35h60.29c-.03-.12-.07-.23-.1-.35Z"/>
              <path class="cls-69" d="M156.13,26.81h-60.29c-.03.12-.07.23-.1.35h60.49c-.03-.12-.07-.23-.1-.35Z"/>
              <path class="cls-57" d="M156.24,27.16h-60.49c-.03.12-.06.23-.09.35h60.67c-.03-.12-.06-.23-.09-.35Z"/>
              <path class="cls-36" d="M156.33,27.5h-60.67c-.03.11-.05.23-.08.35h60.83c-.03-.11-.05-.23-.08-.35Z"/>
              <path class="cls-113" d="M156.41,27.85h-60.83c-.03.11-.05.23-.08.35h60.99c-.03-.11-.05-.23-.08-.35Z"/>
              <path class="cls-20" d="M156.49,28.19h-60.99c-.03.11-.05.23-.08.35h61.14c-.03-.12-.05-.23-.08-.35Z"/>
              <path class="cls-120" d="M156.56,28.54h-61.14c-.03.12-.05.23-.08.35h61.3c-.02-.12-.05-.23-.08-.35Z"/>
              <path class="cls-42" d="M156.64,28.88h-61.3c-.02.12-.06.23-.08.35h61.46c-.02-.12-.05-.23-.08-.35Z"/>
              <path class="cls-26" d="M156.72,29.23h-61.46c-.02.11-.04.23-.06.35h61.57c-.02-.11-.04-.23-.06-.35Z"/>
              <path class="cls-38" d="M156.78,29.57h-61.57c-.02.11-.04.23-.06.35h61.68c-.02-.11-.03-.23-.06-.35Z"/>
              <path class="cls-107" d="M156.83,29.92h-61.68c-.02.11-.04.23-.06.35h61.8c-.02-.12-.04-.23-.06-.35Z"/>
              <path class="cls-74" d="M156.89,30.27h-61.8c-.02.12-.04.23-.06.35h61.91c-.02-.12-.04-.23-.06-.35Z"/>
              <path class="cls-137" d="M156.95,30.61h-61.91c-.02.12-.04.23-.06.35h62.02c-.02-.12-.04-.23-.06-.35Z"/>
              <path class="cls-49" d="M157,30.96h-62.02c-.02.12-.04.23-.05.35h62.12c-.01-.12-.03-.23-.05-.35Z"/>
              <path class="cls-65" d="M157.05,31.3h-62.12c-.01.11-.02.23-.03.35h62.19c-.01-.11-.02-.23-.03-.35Z"/>
              <path class="cls-147" d="M157.08,31.65h-62.19c-.01.11-.02.23-.03.35h62.25c-.01-.11-.02-.23-.03-.35Z"/>
              <path class="cls-11" d="M157.12,31.99h-62.25c-.01.11-.02.23-.03.35h62.32c-.01-.12-.02-.23-.03-.35Z"/>
              <path class="cls-22" d="M157.15,32.34h-62.32c-.01.12-.02.23-.03.35h62.38c0-.12-.02-.23-.03-.35Z"/>
              <path class="cls-177" d="M157.18,32.68h-62.38c0,.12-.03.23-.03.35h62.45c0-.12-.02-.23-.03-.35Z"/>
              <path class="cls-21" d="M157.22,33.03h-62.45c0,.12-.02.23-.02.35h62.5c0-.12-.01-.23-.02-.35Z"/>
              <path class="cls-93" d="M157.24,33.37h-62.5c0,.11,0,.23-.01.35h62.52c0-.11,0-.23-.01-.35Z"/>
              <path class="cls-56" d="M157.25,33.72h-62.52c0,.11,0,.23-.01.35h62.54c0-.11,0-.23-.01-.35Z"/>
              <path class="cls-97" d="M157.26,34.07h-62.54c0,.12,0,.23-.01.35h62.56c0-.12,0-.23-.01-.35Z"/>
              <path class="cls-139" d="M157.27,34.41h-62.56c0,.12,0,.23-.01.35h62.58c0-.12,0-.23-.01-.35Z"/>
              <path class="cls-23" d="M157.28,34.76h-62.58c0,.12-.01.23-.01.35h62.61c0-.12,0-.23-.01-.35Z"/>
              <path class="cls-166" d="M157.3,35.23s0-.08,0-.13h-62.61s0,.08,0,.13c0,.07,0,.15,0,.22h62.6c0-.07,0-.15,0-.22Z"/>
              <path class="cls-176" d="M157.29,35.45h-62.6c0,.12,0,.23.01.35h62.58c0-.12.01-.23.01-.35Z"/>
              <path class="cls-105" d="M157.28,35.79h-62.58c0,.12,0,.23.01.35h62.56c0-.12,0-.23.01-.35Z"/>
              <path class="cls-46" d="M157.27,36.14h-62.56c0,.12,0,.23.01.35h62.53c0-.11,0-.23.01-.35Z"/>
              <path class="cls-72" d="M157.26,36.48h-62.53c0,.11,0,.23.01.35h62.51c0-.11,0-.23.01-.35Z"/>
              <path class="cls-131" d="M157.25,36.83h-62.51c0,.11,0,.23.01.35h62.49c0-.11,0-.23.01-.35Z"/>
              <path class="cls-121" d="M157.24,37.17h-62.49c0,.12.02.23.03.35h62.43c0-.12.02-.23.03-.35Z"/>
              <path class="cls-7" d="M157.21,37.52h-62.43c0,.12.02.23.03.35h62.37c0-.12.02-.23.03-.35Z"/>
              <path class="cls-146" d="M157.18,37.87h-62.37c0,.12.02.23.03.35h62.3c.01-.12.02-.23.03-.35Z"/>
              <path class="cls-60" d="M157.14,38.21h-62.3c.01.12.02.23.03.35h62.23c.01-.11.02-.23.03-.35Z"/>
              <path class="cls-85" d="M157.11,38.56h-62.23c.01.11.02.23.03.35h62.17c.01-.11.02-.23.03-.35Z"/>
              <path class="cls-88" d="M157.08,38.9h-62.17c.01.11.02.23.03.35h62.1c.01-.11.02-.23.03-.35Z"/>
              <path class="cls-2" d="M157.04,39.25h-62.1c.02.12.04.23.05.35h61.99c.02-.12.04-.23.05-.35Z"/>
              <path class="cls-110" d="M156.99,39.59h-61.99c.02.12.04.23.06.35h61.88c.02-.12.04-.23.06-.35Z"/>
              <path class="cls-55" d="M156.93,39.94h-61.88c.02.12.04.23.06.35h61.77c.02-.12.04-.23.06-.35Z"/>
              <path class="cls-52" d="M156.88,40.28h-61.77c.02.12.04.23.06.35h61.66c.02-.11.04-.23.06-.35Z"/>
              <path class="cls-76" d="M156.82,40.63h-61.66c.02.11.03.23.06.35h61.55c.02-.11.04-.23.06-.35Z"/>
              <path class="cls-173" d="M156.76,40.97h-61.55c.02.11.04.23.06.35h61.42c.02-.11.04-.23.06-.35Z"/>
              <path class="cls-61" d="M156.7,41.32h-61.42c.02.12.05.23.08.35h61.26c.02-.12.06-.23.08-.35Z"/>
              <path class="cls-17" d="M156.62,41.66h-61.26c.02.12.05.23.08.35h61.11c.03-.12.05-.23.08-.35Z"/>
              <path class="cls-130" d="M156.55,42.01h-61.11c.03.12.05.23.08.35h60.95c.03-.11.05-.23.08-.35Z"/>
              <path class="cls-165" d="M156.47,42.36h-60.95c.03.11.05.23.08.35h60.79c.03-.11.05-.23.08-.35Z"/>
              <path class="cls-25" d="M156.39,42.7h-60.79c.03.11.05.23.08.35h60.64c.03-.11.05-.23.08-.35Z"/>
              <path class="cls-116" d="M156.31,43.05h-60.64c.03.12.06.23.1.35h60.45c.03-.12.07-.23.1-.35Z"/>
              <path class="cls-91" d="M156.21,43.39h-60.45c.03.12.07.23.1.35h60.24c.03-.12.07-.23.1-.35Z"/>
              <path class="cls-163" d="M156.11,43.74h-60.24c.03.12.07.23.1.35h60.04c.03-.12.07-.23.1-.35Z"/>
              <path class="cls-33" d="M156.01,44.08h-60.04c.03.12.07.23.1.35h59.84c.04-.11.07-.23.1-.35Z"/>
              <path class="cls-157" d="M155.91,44.43h-59.84c.04.11.07.23.1.35h59.63c.04-.11.07-.23.1-.35Z"/>
              <path class="cls-28" d="M155.81,44.77h-59.63c.04.12.07.23.11.35h59.41c.04-.11.07-.23.11-.35Z"/>
              <path class="cls-142" d="M155.7,45.12h-59.41c.04.12.09.23.13.35h59.16c.04-.12.09-.23.13-.35Z"/>
              <path class="cls-37" d="M155.57,45.46h-59.16c.04.12.08.23.13.35h58.91c.04-.12.09-.23.13-.35Z"/>
              <path class="cls-149" d="M155.45,45.81h-58.91c.04.12.08.23.13.35h58.66c.04-.11.08-.23.13-.35Z"/>
              <path class="cls-39" d="M155.32,46.16h-58.66c.04.11.08.23.13.35h58.41c.04-.11.08-.23.13-.35Z"/>
              <path class="cls-125" d="M155.2,46.5h-58.41c.04.11.08.23.13.35h58.15c.05-.11.08-.23.13-.35Z"/>
              <path class="cls-53" d="M155.07,46.85h-58.15c.05.12.1.23.15.35h57.85c.05-.12.1-.23.15-.35Z"/>
              <path class="cls-50" d="M154.92,47.19h-57.85c.05.12.1.23.15.35h57.55c.05-.12.1-.23.15-.35Z"/>
              <path class="cls-144" d="M154.77,47.54h-57.55c.05.12.1.23.15.35h57.25c.05-.11.1-.23.15-.35Z"/>
              <path class="cls-134" d="M154.62,47.88h-57.25c.05.11.1.23.15.35h56.95c.05-.11.1-.23.15-.35Z"/>
              <path class="cls-119" d="M154.47,48.23h-56.95c.05.11.1.23.15.35h56.65c.05-.11.1-.23.15-.35Z"/>
              <path class="cls-118" d="M154.32,48.57h-56.65c.06.12.12.23.18.35h56.3c.06-.12.12-.23.18-.35Z"/>
              <path class="cls-158" d="M154.14,48.92h-56.3c.06.12.12.23.18.35h55.95c.06-.12.12-.23.18-.35Z"/>
              <path class="cls-140" d="M153.96,49.26h-55.95c.06.12.12.23.18.35h55.59c.06-.11.12-.23.18-.35Z"/>
              <path class="cls-70" d="M153.79,49.61h-55.59c.06.11.12.23.18.35h55.24c.06-.11.12-.23.18-.35Z"/>
              <path class="cls-30" d="M98.37,49.95c.06.11.11.23.18.35h54.89c.06-.11.12-.23.18-.35h-55.24Z"/>
              <g>
                <path class="cls-1" d="M157.28,34.76c0-.12,0-.23-.01-.35,0-.12,0-.23-.01-.35,0-.11,0-.23-.01-.35s0-.23-.01-.35c0-.12-.01-.23-.02-.35,0-.12-.02-.23-.03-.35,0-.12-.02-.23-.03-.35-.01-.12-.02-.23-.03-.35-.01-.11-.02-.23-.03-.35-.01-.11-.02-.23-.03-.35-.01-.12-.03-.23-.05-.35-.02-.12-.04-.23-.06-.35-.02-.12-.04-.23-.06-.35s-.04-.23-.06-.35-.03-.23-.06-.35c-.02-.11-.04-.23-.06-.35-.02-.12-.05-.23-.08-.35-.02-.12-.05-.23-.08-.35-.03-.12-.05-.23-.08-.35-.03-.11-.05-.23-.08-.35s-.05-.23-.08-.35c-.03-.12-.06-.23-.09-.35-.03-.12-.07-.23-.1-.35-.03-.12-.07-.23-.1-.35s-.07-.23-.1-.35c-.03-.11-.07-.23-.1-.35-.04-.11-.07-.23-.11-.35-.04-.12-.09-.23-.12-.35-.04-.12-.08-.23-.13-.35s-.08-.23-.13-.35c-.04-.11-.08-.23-.13-.35-.04-.11-.08-.23-.13-.35-.05-.12-.1-.23-.15-.35-.05-.12-.1-.23-.15-.35-.05-.12-.1-.23-.15-.35-.05-.11-.1-.23-.15-.35s-.1-.23-.15-.35c-.05-.12-.12-.23-.17-.35-.06-.12-.12-.23-.18-.35-.06-.12-.12-.23-.18-.35-.06-.11-.11-.23-.18-.35h-55.31c-.06.11-.12.23-.18.35-.06.11-.12.23-.18.35-.06.12-.12.23-.18.35-.06.12-.12.23-.17.35-.05.11-.1.23-.15.35s-.1.23-.15.35c-.05.11-.1.23-.15.35-.05.12-.1.23-.15.35-.05.12-.1.23-.15.35-.05.11-.08.23-.13.35-.04.11-.08.23-.13.35-.04.11-.08.23-.13.35s-.09.23-.13.35c-.04.12-.09.23-.12.35-.04.11-.07.23-.11.35-.04.11-.07.23-.1.35-.03.11-.07.23-.1.35s-.07.23-.1.35c-.03.12-.07.23-.1.35-.03.12-.06.23-.09.35-.03.11-.05.23-.08.35s-.05.23-.08.35c-.03.11-.05.23-.08.35-.03.12-.05.23-.08.35-.02.12-.06.23-.08.35-.02.11-.04.23-.06.35-.02.11-.04.23-.06.35s-.04.23-.06.35-.04.23-.06.35c-.02.12-.04.23-.06.35-.02.12-.04.23-.05.35-.01.11-.02.23-.03.35-.01.11-.02.23-.03.35-.01.11-.02.23-.03.35-.01.12-.02.23-.03.35,0,.12-.03.23-.03.35,0,.12-.02.23-.02.35,0,.11,0,.23-.01.35s0,.23-.01.35c0,.12,0,.23-.01.35,0,.12,0,.23-.01.35,0,.12-.01.23-.01.35,0,.04,0,.08,0,.13,0,.07,0,.15,0,.22,0,.12,0,.23.01.35,0,.12,0,.23.01.35,0,.12,0,.23.01.35,0,.11,0,.23.01.35s0,.23.01.35c0,.12.02.23.03.35,0,.12.02.23.03.35,0,.12.02.23.03.35.01.12.02.23.03.35.01.11.02.23.03.35.01.11.02.23.03.35.02.12.04.23.05.35.02.12.04.23.06.35.02.12.04.23.06.35.02.12.04.23.06.35s.03.23.06.35c.02.11.04.23.06.35.02.12.05.23.08.35s.05.23.08.35c.03.12.05.23.08.35.03.11.05.23.08.35.03.11.05.23.08.35.03.12.06.23.1.35.03.12.07.23.1.35.03.12.07.23.1.35s.07.23.1.35c.04.11.07.23.1.35.04.12.07.23.11.35.04.12.09.23.13.35.04.12.08.23.13.35s.08.23.13.35c.04.11.08.23.13.35.04.11.08.23.13.35.05.12.1.23.15.35.05.12.1.23.15.35.05.12.1.23.15.35.05.11.1.23.15.35s.1.23.15.35c.06.12.12.23.18.35.06.12.12.23.18.35.06.12.12.23.18.35.06.11.12.23.18.35.06.11.11.23.18.35.06.12.13.23.2.35.07.12.13.23.2.35.07.11.13.23.2.35.07.12.14.23.21.35.07.12.15.23.22.35.07.12.15.23.22.35s.15.23.22.35c.08.12.16.23.24.35.08.12.16.23.25.35.08.11.16.23.25.35.08.12.17.23.26.35.09.12.18.23.27.35.09.12.18.23.27.35s.18.23.27.35c.1.12.2.23.3.35.1.12.2.23.3.35.1.11.2.23.3.35.1.12.21.23.32.35.11.12.22.23.33.35.11.11.22.23.33.35.11.12.23.23.35.35.12.12.24.23.36.35s.24.23.36.35c.13.12.25.23.38.35.13.12.27.23.4.35.13.11.26.23.4.35.14.12.28.23.43.35.15.12.29.23.44.35.15.11.29.23.44.35.16.12.32.23.49.35s.32.23.49.35c.17.12.34.23.51.35.18.12.36.23.54.35.18.12.36.23.55.35.2.12.4.23.6.35.2.12.4.23.6.35.22.12.45.23.67.35.22.12.45.24.67.35.25.12.51.23.76.35.26.12.52.24.78.35.29.12.58.23.88.35.31.12.63.23.95.35.34.12.69.24,1.04.35.4.12.81.24,1.22.35.48.13.97.24,1.46.35.63.13,1.26.25,1.9.35,1.52.23,3.07.35,4.65.35s3.13-.12,4.65-.35c.64-.1,1.27-.21,1.9-.35.49-.1.97-.22,1.46-.35.41-.11.81-.22,1.22-.35.35-.11.69-.23,1.04-.35.32-.11.63-.23.95-.35.29-.11.59-.22.88-.35.26-.11.52-.23.78-.35.25-.11.51-.22.76-.35.23-.11.45-.23.67-.35.22-.11.45-.23.67-.35.2-.11.4-.23.6-.35.2-.11.4-.23.6-.35.18-.11.36-.23.55-.35.18-.11.36-.23.54-.35.17-.11.34-.23.51-.35.16-.11.32-.23.49-.35s.33-.23.49-.35c.15-.11.29-.23.44-.35.15-.11.29-.23.44-.35.14-.11.29-.23.43-.35.14-.11.27-.23.4-.35.13-.11.27-.23.4-.35.13-.11.26-.23.38-.35.12-.11.24-.23.36-.35s.24-.23.36-.35c.12-.11.23-.23.35-.35.11-.11.22-.23.33-.35.11-.11.22-.23.33-.35.11-.12.21-.23.32-.35.1-.11.2-.23.3-.35.1-.11.2-.23.3-.35.1-.12.2-.23.3-.35.09-.11.18-.23.27-.35.09-.11.18-.23.27-.35.09-.12.18-.23.27-.35.09-.11.17-.23.26-.35.08-.11.16-.23.25-.35.08-.11.16-.23.25-.35.08-.12.17-.23.24-.35.08-.11.15-.23.22-.35s.15-.23.22-.35c.07-.12.15-.23.22-.35.07-.12.14-.23.21-.35.07-.11.13-.23.2-.35.07-.11.13-.23.2-.35.07-.12.13-.23.2-.35.06-.11.12-.23.18-.35.06-.11.12-.23.18-.35.06-.11.12-.23.18-.35.06-.12.12-.23.18-.35.06-.12.12-.23.18-.35.05-.11.1-.23.15-.35s.1-.23.15-.35c.05-.11.1-.23.15-.35.05-.12.1-.23.15-.35.05-.12.1-.23.15-.35.05-.11.08-.23.13-.35.04-.11.08-.23.13-.35.04-.11.08-.23.13-.35s.09-.23.13-.35c.04-.12.09-.23.13-.35.04-.11.07-.23.11-.35.04-.11.07-.23.1-.35.04-.11.07-.23.1-.35s.07-.23.1-.35c.03-.12.07-.23.1-.35.03-.12.07-.23.1-.35.03-.11.05-.23.08-.35.03-.11.05-.23.08-.35.03-.11.05-.23.08-.35.03-.12.05-.23.08-.35s.06-.23.08-.35c.02-.11.04-.23.06-.35.02-.11.04-.23.06-.35s.04-.23.06-.35c.02-.12.04-.23.06-.35.02-.12.04-.23.06-.35.02-.12.04-.23.05-.35.01-.11.02-.23.03-.35.01-.11.02-.23.03-.35.01-.11.02-.23.03-.35.01-.12.02-.23.03-.35,0-.12.02-.23.03-.35,0-.12.02-.23.03-.35,0-.11,0-.23.01-.35s0-.23.01-.35c0-.11,0-.23.01-.35,0-.12,0-.23.01-.35,0-.12.01-.23.01-.35,0-.07,0-.15,0-.22,0-.04,0-.08,0-.13,0-.12,0-.23-.01-.35Z"/>
                <path class="cls-1" d="M153.28,19.9c-.06-.11-.13-.23-.19-.35-.07-.12-.14-.23-.21-.35-.07-.12-.14-.23-.21-.35-.07-.12-.14-.23-.21-.35-.07-.11-.14-.23-.21-.35-.08-.12-.16-.23-.24-.35-.08-.12-.16-.23-.24-.35-.08-.11-.16-.23-.24-.35-.08-.12-.17-.23-.25-.35-.09-.12-.17-.23-.26-.35s-.17-.23-.26-.35c-.09-.11-.18-.23-.27-.35-.09-.12-.19-.23-.29-.35-.09-.12-.19-.23-.29-.35-.1-.11-.19-.23-.29-.35-.1-.12-.21-.23-.31-.35-.1-.12-.21-.23-.31-.35-.11-.11-.21-.23-.31-.35-.02-.02-.03-.04-.05-.06-.12-.1-.24-.19-.36-.29-.14-.12-.29-.23-.43-.35-.15-.11-.29-.23-.43-.35-.15-.12-.31-.23-.47-.35-.16-.12-.31-.23-.47-.35-.16-.12-.33-.23-.49-.35-.17-.12-.34-.23-.51-.35-.17-.12-.34-.23-.52-.35-.19-.12-.38-.23-.56-.35-.19-.12-.37-.23-.56-.35-.2-.12-.41-.23-.61-.35-.21-.12-.41-.23-.62-.35-.22-.12-.45-.23-.67-.35-.23-.12-.46-.23-.69-.35-.25-.12-.5-.23-.75-.35-.26-.12-.51-.24-.77-.35-.29-.12-.58-.23-.87-.35-.3-.12-.61-.23-.92-.35-.33-.12-.66-.24-1-.35-.38-.12-.76-.24-1.14-.35-.43-.12-.86-.24-1.3-.35-.51-.13-1.03-.24-1.55-.35-.66-.13-1.33-.25-2.01-.35-1.61-.23-3.26-.35-4.93-.35s-3.32.12-4.93.35c-.68.09-1.34.21-2.01.35-.52.1-1.04.22-1.55.35-.44.11-.87.22-1.3.35-.38.11-.76.22-1.14.35-.34.11-.67.23-1,.35-.31.11-.61.23-.92.35-.29.11-.58.22-.87.35-.26.11-.52.23-.77.35-.25.11-.5.23-.75.35-.23.11-.46.23-.69.35-.22.11-.45.23-.67.35-.21.11-.42.23-.62.35-.2.11-.41.23-.61.35-.19.11-.38.23-.56.35-.19.12-.38.23-.56.35-.18.11-.35.23-.52.35-.17.11-.34.23-.51.35-.17.11-.33.23-.49.35-.16.11-.31.23-.47.35-.16.12-.32.23-.47.35-.15.11-.29.23-.43.35-.14.11-.29.23-.43.35-.12.1-.24.19-.36.29-.02.02-.03.04-.05.06-.11.11-.21.23-.31.35s-.21.23-.31.35c-.1.12-.21.23-.31.35-.1.11-.19.23-.29.35-.1.11-.19.23-.29.35s-.19.23-.29.35c-.09.11-.18.23-.27.35-.09.11-.17.23-.26.35-.09.12-.18.23-.26.35-.08.11-.17.23-.25.35-.08.11-.16.23-.24.35-.08.11-.16.23-.24.35-.08.12-.16.23-.24.35-.07.11-.14.23-.21.35-.07.11-.14.23-.21.35-.07.12-.14.23-.21.35-.07.12-.14.23-.21.35-.07.11-.13.23-.19.35-.06.11-.13.23-.19.35h54.96c-.06-.12-.13-.23-.19-.35Z"/>
                <path class="cls-103" d="M153.47,20.25h-54.96c-.06.11-.11.23-.18.35h55.31c-.06-.11-.11-.23-.18-.35Z"/>
              </g>
            </g>
          </g>
        </g>
      </g>
      <g>
        <path class="cls-54" d="M45.77,5.39c-1.53,0-3.03.11-4.51.3h8.95c-1.46-.18-2.93-.3-4.44-.3Z"/>
        <path class="cls-109" d="M50.21,5.69h-8.95c-.74.09-1.48.21-2.21.35h13.37c-.73-.14-1.47-.26-2.22-.35Z"/>
        <path class="cls-123" d="M52.43,6.04h-13.37c-.55.11-1.09.22-1.63.35h16.66c-.55-.13-1.1-.25-1.66-.35Z"/>
        <path class="cls-3" d="M54.09,6.4h-16.66c-.46.11-.91.23-1.36.35h19.37c-.45-.13-.9-.24-1.35-.35Z"/>
        <path class="cls-73" d="M55.44,6.75h-19.37c-.39.11-.78.23-1.16.35h21.69c-.38-.12-.77-.24-1.16-.35Z"/>
        <path class="cls-86" d="M56.59,7.1h-21.69c-.34.11-.68.23-1.02.35h23.75c-.34-.12-.69-.24-1.04-.35Z"/>
        <path class="cls-84" d="M57.63,7.46h-23.75c-.33.12-.65.23-.97.35h25.69c-.32-.13-.65-.24-.97-.35Z"/>
        <path class="cls-59" d="M58.6,7.81h-25.69c-.28.11-.56.24-.84.35h27.37c-.28-.12-.55-.24-.84-.35Z"/>
        <path class="cls-41" d="M59.44,8.17h-27.37c-.28.12-.56.23-.84.35h29.04c-.28-.12-.56-.24-.84-.35Z"/>
        <path class="cls-180" d="M60.28,8.52h-29.04c-.25.11-.49.24-.73.35h30.53c-.25-.12-.5-.24-.75-.35Z"/>
        <path class="cls-179" d="M61.03,8.87h-30.53c-.24.12-.49.23-.73.35h31.95c-.23-.12-.46-.24-.7-.35Z"/>
        <path class="cls-31" d="M61.73,9.23h-31.95c-.22.11-.45.23-.67.35h33.32c-.23-.12-.46-.24-.7-.35Z"/>
        <path class="cls-122" d="M62.42,9.58H29.11c-.22.12-.43.23-.64.35h34.61c-.22-.12-.43-.24-.65-.35Z"/>
        <path class="cls-87" d="M63.07,9.93H28.47c-.21.12-.42.23-.63.35h35.83c-.2-.12-.39-.24-.59-.35Z"/>
        <path class="cls-132" d="M63.66,10.29H27.84c-.19.11-.38.24-.57.35h36.98c-.19-.12-.39-.24-.59-.35Z"/>
        <path class="cls-29" d="M64.25,10.64H27.27c-.19.12-.38.23-.57.35h38.14c-.19-.12-.39-.23-.59-.35Z"/>
        <path class="cls-68" d="M64.95,11.06s-.07-.04-.11-.06H26.7c-.18.12-.36.23-.54.35h39.12c-.11-.1-.22-.2-.33-.29Z"/>
        <path class="cls-124" d="M65.28,11.35H26.16c-.17.12-.34.24-.51.35h40.04c-.14-.12-.27-.24-.41-.35Z"/>
        <path class="cls-156" d="M65.69,11.7H25.65c-.17.12-.34.23-.51.35h40.95c-.13-.12-.27-.24-.41-.35Z"/>
        <path class="cls-138" d="M66.09,12.06H25.14c-.16.12-.32.23-.48.35h41.81c-.13-.12-.25-.24-.38-.35Z"/>
        <path class="cls-133" d="M66.47,12.41H24.66c-.15.12-.3.24-.46.35h42.63c-.12-.12-.24-.24-.36-.35Z"/>
        <path class="cls-108" d="M66.84,12.76H24.21c-.15.12-.31.23-.46.35h43.45c-.12-.12-.24-.24-.36-.35Z"/>
        <path class="cls-100" d="M67.2,13.12H23.75c-.15.12-.29.23-.44.35h44.24c-.12-.12-.23-.24-.35-.35Z"/>
        <path class="cls-141" d="M67.55,13.47H23.31c-.14.12-.27.24-.41.35h44.98c-.11-.12-.22-.24-.33-.35Z"/>
        <path class="cls-135" d="M67.88,13.83H22.9c-.14.12-.28.23-.41.35h45.72c-.11-.12-.22-.24-.33-.35Z"/>
        <path class="cls-27" d="M68.21,14.18H22.49c-.14.12-.27.23-.41.35h46.46c-.11-.12-.22-.23-.33-.35Z"/>
        <path class="cls-99" d="M68.54,14.53H22.08c-.13.11-.25.24-.37.35h47.13c-.1-.12-.2-.24-.3-.35Z"/>
        <path class="cls-117" d="M68.84,14.89H21.71c-.12.12-.25.24-.37.35h47.79c-.1-.12-.19-.24-.29-.35Z"/>
        <path class="cls-32" d="M69.13,15.24H21.34c-.12.12-.25.23-.37.35h48.46c-.1-.12-.2-.24-.29-.35Z"/>
        <path class="cls-12" d="M69.42,15.59H20.96c-.12.12-.23.24-.35.35h49.1c-.09-.12-.19-.24-.29-.35Z"/>
        <path class="cls-9" d="M69.71,15.95H20.61c-.11.12-.22.24-.34.35h49.7c-.09-.12-.17-.24-.26-.35Z"/>
        <path class="cls-148" d="M69.98,16.3H20.28c-.11.12-.22.23-.34.35h50.3c-.09-.12-.17-.24-.26-.35Z"/>
        <path class="cls-96" d="M70.24,16.66H19.94c-.11.12-.23.23-.34.35h50.9c-.09-.12-.18-.24-.26-.35Z"/>
        <path class="cls-13" d="M70.5,17.01H19.61s-.03.03-.05.05c-.07.1-.13.21-.2.31h51.4c-.08-.12-.17-.24-.25-.35Z"/>
        <path class="cls-155" d="M70.76,17.36H19.36c-.08.12-.15.24-.23.35h51.86c-.08-.12-.15-.24-.23-.35Z"/>
        <path class="cls-15" d="M70.99,17.72H19.13c-.08.12-.16.24-.23.35h52.33c-.08-.12-.16-.24-.23-.35Z"/>
        <path class="cls-14" d="M71.23,18.07H18.89c-.08.12-.16.23-.23.35h52.8c-.08-.12-.16-.24-.23-.35Z"/>
        <path class="cls-62" d="M71.46,18.42H18.66c-.08.12-.16.23-.23.35h53.26c-.07-.12-.15-.24-.23-.35Z"/>
        <path class="cls-128" d="M71.69,18.78H18.43c-.07.12-.15.23-.22.35h53.69c-.07-.12-.14-.24-.21-.35Z"/>
        <path class="cls-103" d="M71.89,19.13H18.2c-.07.12-.13.24-.2.35h54.09c-.07-.12-.14-.24-.21-.35Z"/>
        <path class="cls-77" d="M72.1,19.49H18.01c-.07.12-.13.24-.2.35h54.5c-.07-.12-.14-.24-.21-.35Z"/>
        <path class="cls-90" d="M72.31,19.84H17.81c-.07.12-.13.24-.2.35h54.9c-.07-.12-.14-.24-.2-.35Z"/>
        <path class="cls-115" d="M72.51,20.19H17.61c-.07.12-.13.23-.2.35h55.28c-.06-.12-.12-.24-.18-.35Z"/>
        <path class="cls-48" d="M72.7,20.55H17.42c-.06.12-.13.23-.2.35h55.66c-.06-.12-.12-.24-.18-.35Z"/>
        <path class="cls-79" d="M72.88,20.9H17.22c-.06.12-.12.23-.18.35h56.02c-.06-.12-.12-.24-.18-.35Z"/>
        <path class="cls-106" d="M73.06,21.25H17.04c-.06.12-.11.24-.16.35h56.37c-.06-.12-.12-.23-.18-.35Z"/>
        <path class="cls-152" d="M73.24,21.61H16.88c-.06.12-.11.24-.16.35h56.69c-.05-.12-.1-.24-.16-.35Z"/>
        <path class="cls-102" d="M73.41,21.96H16.71c-.06.12-.11.24-.16.35h57.01c-.05-.12-.1-.24-.16-.35Z"/>
        <path class="cls-18" d="M73.56,22.32H16.55c-.05.12-.11.23-.16.35h57.33c-.05-.12-.11-.24-.16-.35Z"/>
        <path class="cls-47" d="M73.72,22.67H16.39c-.05.12-.11.23-.16.35h57.66c-.05-.12-.11-.24-.16-.35Z"/>
        <path class="cls-98" d="M73.88,23.02H16.23c-.05.12-.1.23-.15.35h57.96c-.05-.12-.1-.24-.15-.35Z"/>
        <path class="cls-178" d="M74.03,23.38H16.07c-.05.12-.08.24-.13.35h58.22c-.05-.12-.09-.24-.14-.35Z"/>
        <path class="cls-150" d="M74.17,23.73H15.94c-.05.12-.09.24-.13.35h58.49c-.05-.12-.09-.24-.14-.35Z"/>
        <path class="cls-111" d="M74.3,24.08H15.81c-.04.12-.09.24-.13.35h58.76c-.04-.12-.09-.24-.14-.35Z"/>
        <path class="cls-153" d="M74.44,24.44H15.68c-.04.12-.09.24-.13.35h59.02c-.04-.12-.09-.23-.14-.35Z"/>
        <path class="cls-162" d="M74.57,24.79H15.55c-.04.12-.09.23-.13.35h59.27c-.04-.12-.07-.24-.12-.35Z"/>
        <path class="cls-143" d="M74.69,25.15H15.42c-.04.12-.09.23-.13.35h59.51c-.04-.12-.07-.24-.11-.35Z"/>
        <path class="cls-71" d="M74.8,25.5H15.29c-.04.12-.07.24-.1.35h59.73c-.04-.12-.08-.24-.11-.35Z"/>
        <path class="cls-69" d="M74.92,25.85H15.18c-.04.12-.07.24-.1.35h59.95c-.04-.12-.08-.24-.11-.35Z"/>
        <path class="cls-57" d="M75.03,26.21H15.08c-.04.12-.07.24-.1.35h60.15c-.03-.12-.07-.24-.11-.35Z"/>
        <path class="cls-36" d="M75.14,26.56H14.98c-.03.12-.07.24-.1.35h60.35c-.03-.12-.06-.24-.09-.35Z"/>
        <path class="cls-113" d="M75.23,26.91H14.88c-.03.12-.07.23-.1.35h60.54c-.03-.12-.06-.24-.09-.35Z"/>
        <path class="cls-20" d="M75.32,27.27H14.78c-.03.12-.07.23-.1.35h60.73c-.03-.12-.06-.24-.09-.35Z"/>
        <path class="cls-120" d="M75.41,27.62H14.68c-.03.12-.06.24-.09.35h60.91c-.03-.12-.06-.24-.09-.35Z"/>
        <path class="cls-42" d="M75.51,27.98H14.59c-.03.12-.04.24-.07.35h61.07c-.03-.12-.05-.24-.08-.35Z"/>
        <path class="cls-26" d="M75.59,28.33H14.52c-.03.12-.05.24-.07.35h61.21c-.03-.12-.04-.24-.07-.35Z"/>
        <path class="cls-38" d="M75.66,28.68H14.45c-.03.12-.05.24-.07.35h61.35c-.02-.12-.05-.24-.07-.35Z"/>
        <path class="cls-107" d="M75.73,29.04H14.38c-.02.12-.05.24-.07.35h61.49c-.02-.12-.05-.24-.07-.35Z"/>
        <path class="cls-74" d="M75.8,29.39H14.31c-.02.12-.05.23-.07.35h61.64c-.02-.12-.05-.24-.07-.35Z"/>
        <path class="cls-137" d="M75.87,29.74H14.24c-.02.12-.05.23-.07.35h61.77c-.02-.12-.04-.24-.06-.35Z"/>
        <path class="cls-49" d="M75.93,30.1H14.17c-.02.12-.04.24-.05.35h61.87c-.02-.12-.03-.24-.05-.35Z"/>
        <path class="cls-65" d="M75.98,30.45H14.11c-.02.12-.03.24-.04.35h61.96c-.02-.12-.03-.24-.05-.35Z"/>
        <path class="cls-147" d="M76.03,30.81H14.07c-.02.12-.03.24-.04.35h62.06c-.02-.12-.03-.24-.05-.35Z"/>
        <path class="cls-11" d="M76.08,31.16H14.03c-.02.12-.03.24-.04.35h62.15c-.01-.12-.04-.24-.05-.35Z"/>
        <path class="cls-22" d="M76.13,31.51H13.98c-.01.12-.03.24-.04.35h62.23c-.01-.12-.02-.24-.04-.35Z"/>
        <path class="cls-177" d="M76.17,31.87H13.94c-.01.12-.03.23-.04.35h62.3c-.01-.12-.02-.24-.03-.35Z"/>
        <path class="cls-21" d="M76.2,32.22H13.9c-.01.12-.03.23-.04.35h62.37c0-.12-.02-.24-.03-.35Z"/>
        <path class="cls-93" d="M76.23,32.57H13.86c0,.12-.02.24-.02.35h62.43c0-.12-.02-.24-.03-.35Z"/>
        <path class="cls-56" d="M76.26,32.93H13.83c0,.12,0,.24-.01.35h62.47c0-.12-.02-.24-.03-.35Z"/>
        <path class="cls-97" d="M76.29,33.28H13.82c0,.12,0,.24-.01.35h62.51c0-.12-.01-.24-.02-.35Z"/>
        <path class="cls-139" d="M76.31,33.64H13.8c0,.12,0,.24-.01.35h62.53c0-.12,0-.24-.01-.35Z"/>
        <path class="cls-23" d="M76.32,33.99H13.79c0,.12-.01.24-.01.35h62.55c0-.12,0-.24-.01-.35Z"/>
        <path class="cls-166" d="M76.33,34.34H13.78c0,.12-.01.24-.01.35h62.58c0-.12,0-.24-.01-.35Z"/>
        <path class="cls-176" d="M76.34,34.7H13.76c0,.12-.01.23-.01.35h62.6c0-.12,0-.24-.01-.35Z"/>
        <path class="cls-105" d="M76.35,35.23c0-.06,0-.12,0-.18H13.75c0,.06,0,.12,0,.18s0,.12,0,.18h62.61c0-.06,0-.12,0-.18Z"/>
        <path class="cls-46" d="M76.35,35.4H13.74c0,.12,0,.24,0,.35h62.59c0-.12,0-.24,0-.35Z"/>
        <path class="cls-72" d="M76.34,35.76H13.75c0,.12,0,.24,0,.35h62.57c0-.12,0-.24,0-.35Z"/>
        <path class="cls-131" d="M76.33,36.11H13.76c0,.12,0,.24,0,.35h62.55c0-.12,0-.24,0-.35Z"/>
        <path class="cls-121" d="M76.32,36.47H13.77c0,.12,0,.24,0,.35h62.53c0-.12,0-.24,0-.35Z"/>
        <path class="cls-7" d="M76.31,36.82H13.78c0,.12.02.24.03.35h62.48c0-.12.02-.24.03-.35Z"/>
        <path class="cls-146" d="M76.29,37.17H13.81c0,.12.02.24.03.35h62.43c0-.12.02-.24.03-.35Z"/>
        <path class="cls-60" d="M76.26,37.53H13.83c0,.12.02.24.03.35h62.37c.01-.12.02-.24.03-.35Z"/>
        <path class="cls-85" d="M76.23,37.88H13.86c0,.12.02.24.03.35h62.32c.01-.12.02-.24.03-.35Z"/>
        <path class="cls-88" d="M76.21,38.24H13.89c.01.12.02.24.04.35h62.25c.01-.12.02-.24.04-.35Z"/>
        <path class="cls-2" d="M76.17,38.59H13.92c.01.12.03.24.04.35h62.16c.01-.12.03-.24.04-.35Z"/>
        <path class="cls-110" d="M76.13,38.94H13.97c.01.12.03.24.04.35h62.07c.02-.12.03-.24.04-.35Z"/>
        <path class="cls-55" d="M76.08,39.3H14.01c.02.12.03.24.04.35h61.98c.02-.12.03-.24.04-.35Z"/>
        <path class="cls-52" d="M76.04,39.65H14.06c.02.12.03.24.05.35h61.89c.02-.12.03-.24.05-.35Z"/>
        <path class="cls-76" d="M75.99,40H14.1c.02.12.04.24.06.35h61.76c.02-.12.05-.23.06-.35Z"/>
        <path class="cls-173" d="M75.93,40.36H14.17c.02.12.04.24.06.35h61.64c.02-.12.04-.24.06-.35Z"/>
        <path class="cls-61" d="M75.87,40.71H14.23c.02.12.04.24.06.35h61.51c.02-.12.04-.24.06-.35Z"/>
        <path class="cls-17" d="M75.8,41.07H14.29c.02.12.04.24.06.35h61.38c.02-.12.04-.24.06-.35Z"/>
        <path class="cls-130" d="M75.74,41.42H14.36c.02.12.05.24.08.35h61.23c.03-.12.05-.24.08-.35Z"/>
        <path class="cls-165" d="M75.66,41.77H14.43c.03.12.05.24.08.35h61.07c.03-.12.06-.24.08-.35Z"/>
        <path class="cls-25" d="M75.58,42.13H14.51c.03.12.05.24.08.35h60.91c.03-.12.06-.24.08-.35Z"/>
        <path class="cls-116" d="M75.5,42.48H14.59c.03.12.05.24.08.35h60.74c.03-.12.05-.24.08-.35Z"/>
        <path class="cls-91" d="M75.42,42.83H14.68c.03.12.06.24.09.35h60.57c.03-.12.06-.24.09-.35Z"/>
        <path class="cls-163" d="M75.33,43.19H14.76c.03.12.07.24.1.35h60.37c.03-.12.07-.23.1-.35Z"/>
        <path class="cls-33" d="M75.23,43.54H14.86c.03.12.07.24.1.35h60.16c.03-.12.07-.24.1-.35Z"/>
        <path class="cls-157" d="M75.13,43.9H14.97c.03.12.07.24.1.35h59.96c.04-.12.07-.24.1-.35Z"/>
        <path class="cls-28" d="M75.03,44.25H15.07c.04.12.07.24.1.35h59.76c.04-.12.07-.24.1-.35Z"/>
        <path class="cls-142" d="M74.93,44.6H15.17c.04.12.08.24.12.35h59.52c.04-.12.08-.23.12-.35Z"/>
        <path class="cls-37" d="M74.81,44.96H15.29c.04.12.08.24.12.35h59.28c.04-.12.08-.24.12-.35Z"/>
        <path class="cls-149" d="M74.69,45.31H15.41c.04.12.08.24.12.35h59.04c.04-.12.08-.24.12-.35Z"/>
        <path class="cls-39" d="M74.57,45.66H15.53c.04.12.08.24.12.35h58.8c.04-.12.08-.24.12-.35Z"/>
        <path class="cls-125" d="M74.45,46.02H15.65c.04.12.09.24.14.35h58.52c.05-.12.1-.23.14-.35Z"/>
        <path class="cls-53" d="M74.31,46.37H15.79c.05.12.09.24.14.35h58.24c.05-.12.09-.24.14-.35Z"/>
        <path class="cls-50" d="M74.17,46.73H15.93c.05.12.09.24.14.35h57.96c.05-.12.09-.24.14-.35Z"/>
        <path class="cls-144" d="M74.03,47.08H16.07c.05.12.09.24.14.35h57.68c.05-.12.09-.24.14-.35Z"/>
        <path class="cls-134" d="M73.89,47.43H16.21c.05.12.11.24.16.35h57.36c.05-.12.11-.23.16-.35Z"/>
        <path class="cls-119" d="M73.73,47.79H16.37c.05.12.11.24.16.35h57.04c.05-.12.11-.24.16-.35Z"/>
        <path class="cls-118" d="M73.57,48.14H16.53c.05.12.11.24.16.35h56.72c.05-.12.11-.24.16-.35Z"/>
        <path class="cls-158" d="M73.41,48.49H16.69c.06.12.11.24.16.35h56.39c.06-.12.11-.24.16-.35Z"/>
        <path class="cls-140" d="M73.24,48.85H16.85c.06.12.12.24.18.35h56.03c.06-.12.12-.23.18-.35Z"/>
        <path class="cls-70" d="M73.06,49.2H17.03c.06.12.12.24.18.35h55.67c.06-.12.12-.24.18-.35Z"/>
        <path class="cls-30" d="M72.88,49.56H17.21c.06.12.12.24.18.35h55.31c.06-.12.12-.24.18-.35Z"/>
        <path class="cls-63" d="M72.7,49.91H17.4c.06.12.12.24.19.35h54.93c.06-.12.13-.24.19-.35Z"/>
        <path class="cls-10" d="M72.51,50.26H17.58c.07.12.14.24.2.35h54.52c.07-.12.14-.23.2-.35Z"/>
        <path class="cls-80" d="M72.31,50.62H17.79c.07.12.13.24.2.35h54.12c.07-.12.14-.24.2-.35Z"/>
        <path class="cls-154" d="M72.11,50.97H17.99c.07.12.13.24.2.35h53.71c.07-.12.13-.24.2-.35Z"/>
        <path class="cls-129" d="M71.9,51.32H18.19c.07.12.14.24.22.35h53.27c.07-.12.15-.23.22-.35Z"/>
        <path class="cls-151" d="M71.68,51.68H18.41c.07.12.15.24.23.35h52.82c.08-.12.15-.23.23-.35Z"/>
        <path class="cls-160" d="M71.46,52.03H18.64c.08.12.15.24.23.35h52.37c.08-.12.15-.24.23-.35Z"/>
        <path class="cls-35" d="M71.23,52.39H18.86c.08.12.15.24.23.35h51.91c.08-.12.15-.24.23-.35Z"/>
        <path class="cls-51" d="M71,52.74H19.09c.08.12.17.23.25.35h51.41c.08-.12.17-.23.25-.35Z"/>
        <path class="cls-16" d="M70.75,53.09H19.34c.08.12.17.24.25.35h50.91c.08-.12.17-.23.25-.35Z"/>
        <path class="cls-89" d="M70.5,53.45H19.6c.08.12.17.24.25.35h50.4c.09-.12.17-.24.25-.35Z"/>
        <path class="cls-171" d="M70.25,53.8H19.85c.09.12.18.24.27.35h49.87c.09-.12.18-.23.27-.35Z"/>
        <path class="cls-104" d="M69.98,54.15H20.11c.09.12.19.24.28.35h49.31c.09-.12.19-.23.28-.35Z"/>
        <path class="cls-94" d="M69.7,54.51H20.39c.09.12.18.24.28.35h48.76c.09-.12.19-.24.28-.35Z"/>
        <path class="cls-136" d="M69.43,54.86H20.67c.09.12.19.24.28.35h48.19c.1-.12.19-.24.28-.35Z"/>
        <path class="cls-92" d="M69.14,55.22H20.95c.1.12.21.24.31.35h47.58c.1-.12.21-.23.31-.35Z"/>
        <path class="cls-169" d="M68.84,55.57H21.26c.1.12.2.24.31.35h46.96c.1-.12.21-.24.31-.35Z"/>
        <path class="cls-126" d="M68.53,55.92H21.57c.1.12.2.24.31.35h46.35c.1-.12.2-.24.31-.35Z"/>
        <path class="cls-168" d="M68.22,56.28H21.87c.11.12.23.23.34.35h45.68c.11-.12.23-.23.34-.35Z"/>
        <path class="cls-64" d="M67.89,56.63H22.21c.11.12.22.24.34.35h45c.11-.12.23-.23.34-.35Z"/>
        <path class="cls-78" d="M67.55,56.98H22.55c.11.12.22.24.34.35h44.33c.12-.12.22-.24.34-.35Z"/>
        <path class="cls-127" d="M67.21,57.34H22.88c.12.12.25.24.37.35h43.59c.12-.12.25-.23.37-.35Z"/>
        <path class="cls-167" d="M66.84,57.69H23.25c.12.12.25.24.37.35h42.85c.12-.12.25-.23.37-.35Z"/>
        <path class="cls-170" d="M66.47,58.05H23.62c.12.12.24.24.37.35h42.11c.13-.11.25-.24.37-.35Z"/>
        <path class="cls-6" d="M66.1,58.4H23.99c.13.12.27.23.41.35h41.29c.14-.12.27-.23.41-.35Z"/>
        <path class="cls-24" d="M65.69,58.75H24.4c.14.12.27.24.41.35h40.47c.14-.12.27-.23.41-.35Z"/>
        <path class="cls-34" d="M65.29,59.11H24.81c.14.12.28.24.42.35h39.64c.14-.12.28-.24.42-.35Z"/>
        <path class="cls-44" d="M64.87,59.46H25.23c.15.12.3.24.45.35h38.74c.15-.12.3-.23.45-.35Z"/>
        <path class="cls-164" d="M64.42,59.81H25.68c.15.12.3.24.45.35h37.84c.15-.12.3-.24.45-.35Z"/>
        <path class="cls-5" d="M63.97,60.17H26.13c.16.12.32.24.48.35h36.88c.16-.12.32-.23.48-.35Z"/>
        <path class="cls-8" d="M63.49,60.52H26.61c.16.12.33.24.5.35h35.89c.17-.12.33-.23.5-.35Z"/>
        <path class="cls-81" d="M62.99,60.88H27.1c.17.12.33.24.5.35h34.88c.17-.11.34-.24.5-.35Z"/>
        <path class="cls-67" d="M62.49,61.23H27.61c.18.12.37.24.55.35h33.78c.18-.12.37-.23.55-.35Z"/>
        <path class="cls-83" d="M61.94,61.58H28.16c.18.12.37.24.55.35h32.67c.19-.11.37-.24.55-.35Z"/>
        <path class="cls-19" d="M61.39,61.94H28.71c.2.12.4.24.6.35h31.47c.2-.12.4-.23.6-.35Z"/>
        <path class="cls-40" d="M60.78,62.29h-31.47c.2.12.41.24.62.35h30.24c.21-.11.41-.23.62-.35Z"/>
        <path class="cls-66" d="M60.17,62.64h-30.24c.22.12.44.24.67.35h28.9c.22-.12.45-.23.67-.35Z"/>
        <path class="cls-45" d="M59.5,63h-28.9c.23.12.46.24.69.35h27.52c.23-.11.46-.23.69-.35Z"/>
        <path class="cls-101" d="M58.81,63.35h-27.52c.25.12.5.24.76.35h26.01c.25-.12.51-.23.76-.35Z"/>
        <path class="cls-95" d="M58.05,63.71h-26.01c.26.12.52.24.78.35h24.44c.26-.11.52-.23.78-.35Z"/>
        <path class="cls-172" d="M57.27,64.06h-24.44c.29.12.59.24.89.35h22.66c.3-.12.6-.23.89-.35Z"/>
        <path class="cls-58" d="M56.38,64.41h-22.66c.32.12.63.24.95.35h20.75c.32-.11.64-.23.95-.35Z"/>
        <path class="cls-175" d="M55.43,64.77h-20.75c.35.12.69.24,1.05.35h18.66c.35-.11.7-.23,1.05-.35Z"/>
        <path class="cls-114" d="M54.38,65.12h-18.66c.41.13.82.24,1.24.35h16.18c.42-.11.83-.23,1.24-.35Z"/>
        <path class="cls-112" d="M53.14,65.47h-16.18c.49.13.98.25,1.47.35h13.24c.49-.11.99-.22,1.47-.35Z"/>
        <path class="cls-75" d="M51.67,65.83h-13.24c.63.14,1.26.26,1.91.35h9.43c.64-.1,1.28-.22,1.91-.35Z"/>
        <path class="cls-159" d="M40.33,66.18c1.54.23,3.11.35,4.71.35s3.18-.12,4.71-.35h-9.43Z"/>
      </g>
    </g>
  </g>
</svg>