<?xml version="1.0" encoding="UTF-8"?>
<svg id="Layer_2" data-name="Layer 2" xmlns="http://www.w3.org/2000/svg" xmlns:xlink="http://www.w3.org/1999/xlink" viewBox="0 0 175.35 182.37">
  <defs>
    <style>
      .cls-1 {
        fill: none;
      }

      .cls-2 {
        fill: #bcbdbd;
      }

      .cls-3 {
        fill: url(#linear-gradient-2);
      }

      .cls-4 {
        fill: url(#linear-gradient);
      }

      .cls-5 {
        fill: #e5e1e6;
      }

      .cls-6 {
        fill: #f6f5f7;
      }

      .cls-7 {
        fill: #d49a51;
      }

      .cls-8 {
        fill: #f7c17c;
      }
    </style>
    <linearGradient id="linear-gradient" x1="47.11" y1="51.08" x2="47.11" y2="113.7" gradientUnits="userSpaceOnUse">
      <stop offset="0" stop-color="#4ec9e0"/>
      <stop offset="1" stop-color="#ff99f1"/>
    </linearGradient>
    <linearGradient id="linear-gradient-2" x1="128.06" y1="52.56" x2="128.06" y2="113.7" xlink:href="#linear-gradient"/>
  </defs>
  <g id="export">
    <g>
      <g>
        <g id="Logo_3" data-name="Logo 3">
          <path class="cls-1" d="M88.68,82.45c-.3-.03-.6-.06-.87-.06.28,0,.58.03.87.06Z"/>
          <path class="cls-1" d="M87.81,82.39c-.47,0-.9.02-1.34.06.47-.04.92-.06,1.34-.06Z"/>
          <path class="cls-1" d="M170.8,90.29c.23.25.46.51.67.78.14.18.27.32.39.45-.19-.39-.57-.8-1.06-1.23Z"/>
          <path class="cls-1" d="M82.57,74.32c-.12.04-.23.09-.35.14,0,0,0,.02,0,.03.11-.06.23-.11.34-.16Z"/>
          <path class="cls-7" d="M63.14,50.64c1.54.74,3.02,1.6,4.43,2.55-1.41-.95-2.89-1.8-4.43-2.55Z"/>
          <path class="cls-7" d="M82.22,74.48h0s0-.02,0-.03c-1.78-7.67-6.05-14.38-11.92-19.23,5.88,4.85,10.15,11.58,11.93,19.26Z"/>
          <path class="cls-7" d="M58.34,48.75c1.11.34,2.19.74,3.24,1.19-1.06-.45-2.14-.84-3.24-1.19Z"/>
          <path class="cls-7" d="M54.95,47.88c1.15.24,2.28.53,3.38.87-1.11-.34-2.23-.63-3.38-.87Z"/>
          <path class="cls-7" d="M28.1,53.19c1.41-.95,2.89-1.8,4.43-2.55-1.54.74-3.02,1.6-4.43,2.55Z"/>
          <path class="cls-7" d="M34.09,49.94c1.06-.45,2.14-.84,3.24-1.19-1.11.34-2.19.74-3.24,1.19Z"/>
          <path class="cls-7" d="M25.38,55.23c-7.14,5.9-11.92,14.55-12.72,24.33h0c.8-9.78,5.57-18.44,12.72-24.33Z"/>
          <path class="cls-7" d="M37.34,48.75c1.11-.34,2.23-.63,3.38-.87-1.15.24-2.28.53-3.38.87Z"/>
          <path class="cls-7" d="M81.55,83.5l-1.26-7.46s.17-.27.58-.64c-2.68-7.1-7.58-13.1-13.85-17.17,6.97,5.74,11.41,14.44,11.41,24.17,0,17.29-14.02,31.31-31.31,31.31s-31.31-14.02-31.31-31.31c0-6.78,2.16-13.05,5.82-18.17-4.06,4.5-6.97,10.05-8.29,16.19,0,1.18,0,3.26-.07,5.42,0,0-.21.09-.55.23,1.8,17.81,16.84,31.71,35.13,31.71s33.82-14.37,35.19-32.61c-.05-.67-.13-1.34-.21-2-.39.1-.8.2-1.26.33Z"/>
          <path class="cls-7" d="M83.03,85.17c.05-.69.09-1.38.1-2.07,0,0,0,0-.01,0-.02.69-.03,1.39-.09,2.07Z"/>
          <path class="cls-7" d="M162.56,80.41c-1.68-7.81-5.94-14.66-11.85-19.61,5.36,5.62,8.66,13.22,8.66,21.6,0,17.29-14.02,31.31-31.31,31.31s-31.31-14.02-31.31-31.31c0-8.38,3.3-15.98,8.66-21.6-4.44,3.72-7.95,8.52-10.13,13.99.6.3.89.52.89.52,0,0-.4,9.01-2.09,8.48-.31-.1-.67-.21-1.04-.32-.07.57-.13,1.14-.17,1.71-.04-.59-.06-1.19-.07-1.79,0,0,0,0-.02,0,.48,19.08,16.09,34.4,35.28,34.4s33.32-13.9,35.13-31.71c-.34-.14-.55-.23-.55-.23-.07-2.16-.08-4.25-.07-5.42Z"/>
          <path class="cls-7" d="M156.12,61.06c-1.64-2.15-3.52-4.11-5.61-5.83,2.09,1.72,3.97,3.68,5.61,5.83Z"/>
          <path class="cls-7" d="M103.09,57.5c.8-.8,1.64-1.56,2.51-2.28-.87.72-1.71,1.48-2.51,2.28Z"/>
          <path class="cls-7" d="M100.96,59.84c.66-.79,1.35-1.55,2.08-2.28-.72.73-1.42,1.49-2.08,2.28Z"/>
          <path class="cls-7" d="M147.8,53.19c.94.63,1.85,1.31,2.72,2.03-.87-.72-1.78-1.4-2.72-2.03Z"/>
          <path class="cls-7" d="M140.2,49.31c1.62.59,3.19,1.3,4.69,2.12-1.5-.82-3.07-1.52-4.69-2.12Z"/>
          <path class="cls-7" d="M21.63,64.22c-3.66,5.12-5.82,11.39-5.82,18.17,0,17.29,14.02,31.31,31.31,31.31s31.31-14.02,31.31-31.31c0-9.73-4.44-18.43-11.41-24.17-5.52-3.58-12.1-5.67-19.18-5.67-10.4,0-19.75,4.5-26.21,11.66Z"/>
          <path class="cls-4" d="M21.63,64.22c-3.66,5.12-5.82,11.39-5.82,18.17,0,17.29,14.02,31.31,31.31,31.31s31.31-14.02,31.31-31.31c0-9.73-4.44-18.43-11.41-24.17-5.52-3.58-12.1-5.67-19.18-5.67-10.4,0-19.75,4.5-26.21,11.66Z"/>
          <path class="cls-7" d="M105.4,60.79c-5.36,5.62-8.66,13.22-8.66,21.6,0,17.29,14.02,31.31,31.31,31.31s31.31-14.02,31.31-31.31c0-8.38-3.3-15.98-8.66-21.6-6.13-5.14-14.03-8.23-22.65-8.23s-16.52,3.1-22.65,8.24Z"/>
          <path class="cls-3" d="M105.4,60.79c-5.36,5.62-8.66,13.22-8.66,21.6,0,17.29,14.02,31.31,31.31,31.31s31.31-14.02,31.31-31.31c0-8.38-3.3-15.98-8.66-21.6-6.13-5.14-14.03-8.23-22.65-8.23s-16.52,3.1-22.65,8.24Z"/>
          <path class="cls-8" d="M82.82,83.17c.09.66.16,1.32.21,2h0c.05-.68.07-1.38.09-2.07-.1.02-.2.05-.3.07Z"/>
          <path class="cls-8" d="M47.84,52.56c7.07,0,13.66,2.08,19.18,5.67,6.27,4.07,11.17,10.07,13.85,17.17.3-.27.75-.6,1.36-.91-1.78-7.68-6.05-14.4-11.93-19.26-.87-.72-1.78-1.4-2.72-2.03-1.41-.95-2.89-1.8-4.43-2.55-.51-.25-1.04-.48-1.56-.71-1.06-.45-2.14-.84-3.24-1.19-1.11-.34-2.23-.63-3.38-.87-2.3-.47-4.68-.72-7.12-.72s-4.82.25-7.12.72c-1.15.24-2.28.53-3.38.87-1.11.34-2.19.74-3.24,1.19-.53.22-1.05.46-1.56.71-1.54.74-3.02,1.6-4.43,2.55-.94.63-1.85,1.31-2.72,2.03-7.14,5.9-11.92,14.55-12.72,24.33.42-.1.67-.14.67-.14,0,0,0,.37,0,.99,1.32-6.14,4.23-11.69,8.29-16.19,6.46-7.16,15.81-11.66,26.21-11.66Z"/>
          <path class="cls-8" d="M95.27,74.78c2.18-5.47,5.69-10.27,10.13-13.99,6.13-5.14,14.03-8.24,22.65-8.24s16.52,3.1,22.65,8.23c5.91,4.95,10.17,11.8,11.85,19.61,0-.61,0-.99,0-.99,0,0,.25.05.67.16-.56-6.93-3.12-13.3-7.11-18.52-1.64-2.15-3.52-4.11-5.61-5.83-.87-.72-1.78-1.4-2.72-2.03-.94-.63-1.91-1.22-2.91-1.77-1.5-.82-3.07-1.52-4.69-2.12-3.79-1.39-7.87-2.14-12.14-2.14-6.7,0-12.97,1.87-18.31,5.11-.97.59-1.91,1.22-2.82,1.9-.45.34-.9.69-1.33,1.05-.87.72-1.71,1.48-2.51,2.28-.02.02-.04.04-.05.06-.72.73-1.42,1.49-2.08,2.28-3.42,4.09-5.93,8.98-7.22,14.33.65.21,1.15.42,1.53.61Z"/>
          <path class="cls-8" d="M92.86,85.17c.04-.57.1-1.15.17-1.71-.08-.02-.16-.05-.25-.07.02.6.03,1.2.07,1.79Z"/>
          <path class="cls-8" d="M93.03,83.46c.37.11.73.22,1.04.32,1.69.53,2.09-8.48,2.09-8.48,0,0-.29-.23-.89-.52-.38-.19-.89-.4-1.53-.61-1.35-.43-3.3-.82-5.93-.82-2.39,0-4.08.45-5.24.97-.12.05-.24.11-.34.16h0c-.61.31-1.05.64-1.36.91-.41.37-.58.64-.58.64l1.26,7.46c.46-.12.88-.23,1.26-.33.1-.03.2-.05.3-.07,0,0,0,0,.01,0,1.41-.35,2.4-.55,3.35-.64.44-.04.87-.06,1.34-.06.27,0,.57.02.87.06,1.29.14,2.8.54,4.09.93,0,0,.01,0,.02,0,.08.03.16.05.25.07Z"/>
          <path class="cls-8" d="M163.24,79.58c-.42-.11-.67-.16-.67-.16,0,0,0,.37,0,.99,0,1.18,0,3.26.07,5.42,0,0,.21.09.55.23,1.47.63,5.57,2.48,7.62,4.23.49.42.88.84,1.06,1.23v4.79s3.5-7.55-.16-11.71c-2.89-3.28-6.9-4.6-8.47-5.01Z"/>
          <path class="cls-8" d="M4.03,91.52c.96-2.01,6.86-4.67,8.68-5.45.34-.14.55-.23.55-.23.07-2.16.08-4.24.07-5.42,0-.62,0-.99,0-.99,0,0-.25.04-.67.14h0c-1.61.36-5.78,1.57-8.71,4.61-.12.13-.25.25-.36.38-3.08,3.5-.68,9.4.17,11.21.16.34.27.55.27.55v-4.79Z"/>
        </g>
        <path class="cls-8" d="M92.86,85.17c0-.08.02-.17.03-.25-.02-.36-.07-.72-.08-1.09.01.45.02.9.06,1.34Z"/>
      </g>
      <g>
        <path class="cls-2" d="M35.72,173.98c5.21.55,10.24.36,14.55-.61-3.14-10.66-1.41-17.13,1.34-26.19-5,11.93-8.91,20.64-15.88,26.8Z"/>
        <path class="cls-2" d="M125.72,150.45c1.61,6.05,2.4,14.58-.05,22.91,4.3.97,9.33,1.16,14.53.61-6.31-5.58-10.12-13.27-14.49-23.52Z"/>
      </g>
      <path class="cls-2" d="M57.5,174.73c1.35.95,2.8,1.76,4.29,2.49-3.52-9.92-8.73-27.9-9.8-30.11,2.96,15.2,1.04,22.32,5.51,27.62Z"/>
      <path class="cls-2" d="M118.68,174.39c4.49-5.67,1.62-11.14,5.14-26.99-1.28,3.07-6.2,19.99-9.61,29.63,1.94-.83,3.52-1.71,4.47-2.64Z"/>
      <path class="cls-6" d="M19.45,45.21c1.11-.99,2.25-1.92,3.43-2.78,1.81-1.32,3.69-2.5,5.62-3.5.64-.34,1.31-.66,1.98-.97,1.33-.61,2.71-1.16,4.1-1.63,1.42-.48,2.86-.88,4.29-1.2,2.94-.65,5.96-.98,8.98-.98s6.04.33,8.98.98c1.43.32,2.87.72,4.27,1.19,1.4.47,2.78,1.02,4.11,1.63.67.31,1.33.63,1.98.97,1.92,1,3.8,2.18,5.6,3.49,1.19.87,2.33,1.8,3.43,2.78,3.7,3.32,6.88,7.27,9.41,11.65,1.02,1.77,3.61,1.76,4.63,0,1.07-1.86,2.26-3.63,3.56-5.31.79-1.02,1.62-2.02,2.49-2.97l.2-.22c1.01-1.09,2.06-2.13,3.16-3.12.57-.51,1.13-.99,1.71-1.45,1.11-.91,2.32-1.79,3.54-2.6,6.96-4.58,14.96-7.01,23.14-7.01,5.27,0,10.43.99,15.34,2.94,2.03.81,4.02,1.78,5.93,2.91,1.26.74,2.49,1.56,3.68,2.42,1.19.87,2.33,1.8,3.43,2.78,1.4,1.25,2.71,2.61,3.95,4.04.62.72,1.78.1,1.53-.81-.76-2.72-1.66-5.36-2.7-7.92C149.41,16.45,126.8,0,87.81,0,51.94,0,30.03,17.7,18.24,39.12c-1.72,3.12-3.22,6.31-4.52,9.55-.38.94.86,1.67,1.51.9,1.31-1.55,2.71-3.01,4.22-4.35Z"/>
      <path class="cls-5" d="M171.86,124.69v-20.77c0-.77-.57-1.39-1.32-1.56,0,0,0,0-.01,0-.08-.02-.16-.04-.24-.06-.77-.21-1.55.18-1.87.91-7.15,16.55-22.57,27.76-40.36,27.76-14.45,0-27.44-7.59-35.62-19.37-2.19-3.15-6.77-3.15-8.96,0-8.2,11.78-21.21,19.38-35.64,19.38-17.8,0-33.22-11.22-40.37-27.77-.32-.74-1.12-1.11-1.9-.91,0,0-.01,0-.02,0-.51.13-1.02.19-1.52.19-.09,0-.18-.03-.27-.04v21.8c0,9.01-5.85,18.25-2.94,29.23,3.57,13.48,19,18.69,34.19,20.4.46.05.92-.1,1.26-.41,6.64-6.13,10.47-14.69,15.34-26.31.05-.17.36-.25.39-.08,1.05,2.17,6.07,19.46,9.58,29.49.14.4.43.73.82.91,8.7,4.09,19.09,4.86,25.36,4.86s18.36-2.08,25.8-5.07c.42-.17.74-.51.89-.93,3.39-9.73,8.13-25.97,9.38-28.97.07-.32.13-.62.21-.96.04-.18.35-.13.42.03.45,1.11.87,2.43,1.25,3.87.02.07.04.14.07.21,4.23,9.91,7.94,17.41,13.91,22.93.34.31.8.46,1.25.41,15.21-1.69,31.84-6.07,33.94-19.86,2.03-13.32-3-20.63-3-29.34Z"/>
    </g>
  </g>
</svg>