<?xml version="1.0" encoding="UTF-8"?>
<svg id="Layer_2" data-name="Layer 2" xmlns="http://www.w3.org/2000/svg" viewBox="0 0 70.57 73.39">
  <defs>
    <style>
      .cls-1 {
        fill: #e5e1e6;
      }
    </style>
  </defs>
  <g id="Working_Layer" data-name="Working Layer">
    <g>
      <path class="cls-1" d="M1.51,38.53c.06.14.11.22.11.22v-1.93c.39-.81,2.76-1.88,3.49-2.19.72,7.17,6.78,12.76,14.14,12.76s13.61-5.78,14.16-13.12h0c.02-.28.03-.55.04-.83.57-.14.96-.22,1.35-.26.18-.02.35-.02.54-.02.11,0,.23,0,.35.02.52.06,1.13.22,1.65.37,0,.06.01.12.01.18,0,.18,0,.36.02.54,0-.03,0-.07.01-.1.51,7.39,6.64,13.23,14.15,13.23s13.41-5.59,14.14-12.76c.59.25,2.24,1,3.07,1.7.09.1.19.2.27.31.06.07.11.13.16.18v1.93s1.41-3.04-.06-4.71c-1.16-1.32-2.78-1.85-3.41-2.02-.23-2.79-1.26-5.35-2.86-7.45-.66-.87-1.42-1.65-2.26-2.35-.35-.29-.72-.56-1.09-.82-.38-.26-.77-.49-1.17-.71-.6-.33-1.23-.61-1.89-.85-1.52-.56-3.17-.86-4.89-.86-2.7,0-5.22.75-7.37,2.06-.39.24-.77.49-1.13.77-.18.14-.36.28-.54.42-.35.29-.69.6-1.01.92,0,0-.01.02-.02.02-.29.29-.57.6-.84.92-1.38,1.65-2.39,3.61-2.91,5.77-.54-.17-1.33-.33-2.39-.33-.96,0-1.64.18-2.11.39-.05.02-.09.04-.14.06-.05-.2-.11-.39-.16-.59-.05-.18-.09-.37-.15-.55-.07-.21-.15-.41-.23-.61-.06-.16-.11-.33-.18-.48-.09-.22-.19-.42-.29-.63-.07-.14-.13-.29-.2-.42-.11-.21-.23-.4-.34-.6-.08-.13-.15-.27-.23-.4-.14-.22-.28-.42-.43-.63-.07-.11-.14-.22-.22-.32-.16-.21-.32-.41-.49-.61-.08-.09-.15-.19-.23-.29-.2-.22-.41-.44-.62-.65-.06-.06-.11-.13-.18-.18-.27-.27-.56-.52-.86-.77-.35-.29-.72-.56-1.09-.82-.57-.38-1.16-.73-1.78-1.03-.21-.1-.42-.19-.63-.28-.43-.18-.86-.34-1.31-.48-.45-.14-.9-.26-1.36-.35-.92-.19-1.88-.29-2.86-.29s-1.94.1-2.86.29c-.46.09-.92.21-1.36.35-.44.14-.88.3-1.31.48-.21.09-.42.18-.63.28-.62.3-1.22.64-1.78,1.03-.38.26-.74.53-1.09.82-2.88,2.37-4.8,5.86-5.12,9.79-.65.15-2.33.63-3.5,1.85-.05.05-.1.1-.15.15-1.24,1.41-.27,3.78.07,4.51Z"/>
      <path class="cls-1" d="M7.83,18.2c.45-.4.9-.77,1.38-1.12.73-.53,1.48-1,2.26-1.41.26-.14.53-.27.8-.39.54-.25,1.09-.47,1.65-.65.57-.19,1.15-.35,1.73-.48,1.18-.26,2.4-.4,3.61-.4s2.43.13,3.62.4c.57.13,1.15.29,1.72.48.56.19,1.12.41,1.65.66.27.12.54.25.8.39.77.4,1.53.88,2.25,1.4.48.35.94.72,1.38,1.12,1.99,1.78,3.6,4.01,4.72,6.5.64-1.42,1.43-2.75,2.36-3.96.32-.41.65-.81,1-1.2l.08-.09c.41-.44.83-.86,1.27-1.26.23-.2.46-.4.69-.59.45-.36.93-.72,1.43-1.04,2.8-1.85,6.02-2.82,9.31-2.82,2.12,0,4.2.4,6.17,1.18.82.32,1.62.72,2.39,1.17.51.3,1,.63,1.48.98.48.35.94.72,1.38,1.12.96.86,1.83,1.85,2.61,2.91-.37-1.66-.87-3.27-1.49-4.79C60.13,6.62,51.03,0,35.34,0,20.9,0,12.08,7.12,7.34,15.74c-1.09,1.99-1.97,4.06-2.65,6.14.9-1.36,1.94-2.61,3.14-3.68Z"/>
      <path class="cls-1" d="M69.17,41.26c-.18,0-.36-.02-.54-.06-.22-.05-.42-.13-.61-.23-2.76,6.97-9.12,11.74-16.48,11.74s-13.21-4.47-16.14-10.99c-2.94,6.51-9.13,10.99-16.15,10.99s-13.72-4.77-16.48-11.75c-.17.09-.35.16-.54.2-.2.05-.41.08-.61.08-.04,0-.07-.01-.11-.01v8.78c0,3.63-2.36,7.34-1.19,11.76,1.46,5.51,7.84,7.59,14.05,8.24,2.1.22,4.12.15,5.85-.25-1.26-4.29-.57-6.89.54-10.54.02-.07.14-.1.16-.03,1.19,6.12.42,8.98,2.22,11.12.54.38,1.13.71,1.73,1,3.55,1.75,7.87,2.07,10.45,2.07s7.69-.89,10.65-2.15c.78-.33,1.42-.69,1.8-1.06,1.81-2.28.65-4.48,2.07-10.86.03-.13.05-.25.08-.39.02-.07.14-.05.17.01.18.46.36,1.01.51,1.6.65,2.44.96,5.87-.02,9.22,1.73.39,3.76.47,5.85.25,6.2-.66,13.09-2.39,13.95-8.02.82-5.36-1.21-8.3-1.21-11.81v-8.93Z"/>
    </g>
  </g>
</svg>