<?xml version="1.0" encoding="UTF-8"?>
<svg id="Layer_2" data-name="Layer 2" xmlns="http://www.w3.org/2000/svg" xmlns:xlink="http://www.w3.org/1999/xlink" viewBox="0 0 132.53 128.49">
  <defs>
    <style>
      .cls-1 {
        fill: none;
      }

      .cls-2 {
        fill: #8accc7;
      }

      .cls-3 {
        fill: #fbaf59;
      }

      .cls-4 {
        clip-path: url(#clippath);
      }
    </style>
    <clipPath id="clippath">
      <rect class="cls-1" x="0" y="0" width="132.52" height="128.49"/>
    </clipPath>
  </defs>
  <g id="Layer_1-2" data-name="Layer 1">
    <g class="cls-4">
      <path class="cls-2" d="M48.44,108.31h-16.14c-1.35,0-2.69,0-3.36-.67-.67-.67-2.02-1.35-2.69-2.69l-13.46-23.54h10.09l6.73,13.45h15.47v-6.72h-11.43l-6.73-13.46H9.42L0,57.85v-4.04c0-.67,0-1.35.67-3.36l9.42-16.82h17.49l6.73-13.46h11.43v-6.73h-15.47l-6.73,13.46h-10.09L26.91,3.36c0-1.35,1.35-2.02,2.69-2.69,1.35-.67,2.02-.67,3.36-.67h16.14c2.02,0,3.36,0,4.71,2.02,1.35,2.02,2.02,2.69,2.02,4.71v26.91h-10.09l-6.73,6.72h16.82v20.18h-14.8l-6.72-13.46h-15.47l-6.73,6.73h18.16l6.72,13.46h18.84v9.42c-1.35,2.69-2.02,5.38-2.69,8.75-.67,3.36-.67,6.05-.67,9.42v6.05c0,2.02,0,4.04,1.35,6.05,0,0-1.35,1.35-2.02,1.35h-3.36ZM61.89,65.93v-24.89h16.82l-6.73-6.72h-10.09V7.4c0-2.02,0-3.36,2.02-4.71,1.35-1.35,2.69-2.02,4.71-2.02h16.15c1.35,0,2.69,0,3.36.67s2.02,1.35,2.69,2.69l13.46,23.55h-10.09l-6.73-13.46h-15.47v6.73h11.44l6.72,13.46h17.49l10.09,17.49c-2.69-1.35-6.05-2.02-9.42-2.69-3.36-.67-6.05-1.35-9.42-1.35-7.4,0-14.8,1.35-20.85,4.71-6.05,3.36-12.11,7.4-16.15,13.46"/>
      <path class="cls-3" d="M107.47,92.26c-4.21,4.13-5.18,6.55-5.22,10.67h-6.73c.04-2.95,0-7.74,4.71-12.11,4.71-4.36,4.6-5.63,4.71-7.4.11-1.77-.36-4.55-5.38-4.71-5.03-.16-6.73,5.38-6.73,5.38,0,0-3.38-1.51-6.05-2.69.48-3.79,4.6-7.17,7.32-8.36,2.73-1.19,10.64-3.08,15.08,3.54,4.43,6.62,2.49,11.55-1.71,15.68M98.89,117.05c-2.6,0-4.71-2.11-4.71-4.71s2.11-4.71,4.71-4.71,4.71,2.11,4.71,4.71-2.11,4.71-4.71,4.71M98.89,61.22c-18.58,0-33.63,15.06-33.63,33.63s15.06,33.64,33.63,33.64,33.63-15.06,33.63-33.64-15.06-33.63-33.63-33.63"/>
    </g>
  </g>
</svg>