<?xml version="1.0" encoding="UTF-8"?>
<svg id="Layer_2" data-name="Layer 2" xmlns="http://www.w3.org/2000/svg" viewBox="0 0 137.77 142.06">
  <defs>
    <style>
      .cls-1 {
        fill: #fff;
      }
    </style>
  </defs>
  <g id="Layer_1-2" data-name="Layer 1">
    <g>
      <path class="cls-1" d="M80.49,111.05l.9-35.81s-.33-5.53,6.19-8.38c5.51-2.41,19.84-8.79,24.1-10.69.2-.09.37.16.22.32-.81.85-1.82,2.32-1.81,4.35.01,3.39.25,63.14.25,63.14,0,0,0,1.07-1.13,1.75-1.06.64-26.04,14.63-29.06,16.32-.13.07-.29-.03-.29-.18l.63-30.81Z"/>
      <path class="cls-1" d="M27.94,46l32.08,15.95s5.15,2.04,4.98,9.15c-.14,6.02-.42,21.69-.5,26.36,0,.22-.3.27-.38.07-.43-1.09-1.33-2.63-3.18-3.48-3.08-1.42-57.33-26.46-57.33-26.46,0,0-.97-.45-1.11-1.76C2.37,64.59.26,36.03,0,32.59c-.01-.15.15-.25.29-.19l27.65,13.6Z"/>
      <path class="cls-1" d="M111.3,32.42l-30.97,18.01s-4.54,3.18-10.38-.88c-4.67-3.24-16.48-11.33-21.02-14.43-.34-.23-.15-.76.26-.72,1.09.1,2.47-.02,3.83-.86C55.9,31.75,106.67.24,106.67.24c0,0,.91-.56,2.08.04,1.07.55,24.71,13.74,28.82,16.03.27.15.27.53,0,.69l-26.27,15.43Z"/>
    </g>
  </g>
</svg>