<?xml version="1.0" encoding="UTF-8"?>
<svg id="Layer_2" data-name="Layer 2" xmlns="http://www.w3.org/2000/svg" xmlns:xlink="http://www.w3.org/1999/xlink" viewBox="0 0 151.3 158.01">
  <defs>
    <style>
      .cls-1 {
        fill: none;
      }

      .cls-2 {
        fill: #8accc7;
      }

      .cls-3 {
        clip-path: url(#clippath-1);
      }

      .cls-4 {
        fill: #ffe5c2;
      }

      .cls-5 {
        clip-path: url(#clippath);
      }

      .cls-6 {
        fill: #ffb057;
      }
    </style>
    <clipPath id="clippath">
      <rect class="cls-1" width="151.3" height="158.01"/>
    </clipPath>
    <clipPath id="clippath-1">
      <rect class="cls-1" width="151.3" height="158.01"/>
    </clipPath>
  </defs>
  <g id="Layer_1-2" data-name="Layer 1">
    <g>
      <g class="cls-5">
        <path class="cls-4" d="M149.71,92.73c2.26,2.05,2.23,6.1-.9,8.78-16.45,9.3-32.19,19.31-48.65,27.18-12.88.72-27.19-1.43-39.35,0-12.16,1.43-4.29,1.43-6.44,3.58l-27.9-27.89c4.3-3.58,7.16-10.01,12.16-10.01,7.87-.72,17.17,0,25.04,0,4.29,0,5.72,5.01,10.73,5.72,7.87.72,17.89-1.43,25.04,0,7.16,1.43,6.44,10.73,0,11.45-6.44.72-14.31-.72-20.03,0-5.72.72-3.58,5,0,5.72,10.73-1.43,24.32,4.29,30.05-7.15,10.73-5.01,22.53-12.68,30.76-17.88.77-.48,1.74-1.05,2.86-1.43,1.55-.5,4.31-.15,6.63,1.95"/>
      </g>
      <polygon class="cls-4" points="0 121.53 37.2 158.01 55.09 140.13 17.89 102.94 0 121.53"/>
      <g class="cls-3">
        <path class="cls-2" d="M135.27,2.96h0c-3.94-3.94-10.39-3.94-14.34,0l-6.83,6.83c-.34.34-.34.9,0,1.24l9.53,9.53,3.56,3.56c.08.09.18.15.29.2.21.08.45.08.66,0,.1-.05.2-.11.29-.2l3.34-3.34,3.19-3.18.31-.31c3.94-3.94,3.94-10.39,0-14.33"/>
        <path class="cls-6" d="M125.53,25.78l-4.89-4.89-8.21-8.2c-.17-.17-.39-.26-.62-.26s-.45.08-.62.26l-7.34,7.34c-.26.24-.5.49-.73.75-.06.07-.13.14-.19.21-1.19,1.36-1.96,2.87-2.35,4.41-.04.15-.07.29-.1.43-.02.06-.02.12-.03.18-.62,3.25.41,6.59,2.79,8.97.26.26.52.5.8.72.09.07.18.13.27.2.2.15.39.29.6.42.09.06.18.1.26.16.22.13.44.26.67.37.06.03.11.05.17.08.23.11.46.19.71.26,0,0-.59-.21,0,0,4.76,1.31,8.12.54,11.19-2.52l7.65-7.65c.08-.08.15-.18.19-.29.13-.32.07-.7-.19-.95"/>
        <path class="cls-2" d="M133.91,46.91h0c-4.9-2.65-11.09-.81-13.74,4.09l-4.6,8.5c-.23.43-.07.96.36,1.19l11.85,6.42,4.43,2.4c.11.05.22.09.34.1.23.02.46-.05.63-.19.09-.07.17-.16.23-.27l2.25-4.15,2.15-3.96.21-.39c2.65-4.9.81-11.08-4.09-13.74"/>
        <path class="cls-6" d="M131.09,71.57l-6.08-3.29-10.21-5.52c-.21-.11-.45-.13-.67-.07-.21.07-.41.21-.52.42l-4.95,9.13c-.18.31-.34.62-.49.92-.04.08-.08.17-.12.25-.75,1.64-1.06,3.31-1,4.9,0,.15.01.29.02.44,0,.06.02.12.02.18.33,3.29,2.27,6.2,5.24,7.81.32.17.64.33.97.46.1.04.21.07.31.11.23.09.46.17.69.24.1.03.2.05.3.07.25.07.5.13.75.17.06.01.12.02.18.03.24.04.5.05.75.05,0,0-.63-.04,0,0,4.93-.1,7.94-1.8,10-5.6l5.15-9.52c.06-.11.09-.22.1-.33.03-.34-.13-.68-.46-.86"/>
        <path class="cls-2" d="M60.33,38.34h0c-4.05,3.83-4.23,10.27-.4,14.33l6.64,7.02c.33.35.89.37,1.24.03l9.79-9.26,3.66-3.46c.09-.08.15-.18.2-.29.09-.21.1-.45.02-.66-.04-.11-.1-.21-.18-.29l-3.24-3.43-3.09-3.27-.31-.32c-3.83-4.05-10.28-4.23-14.33-.4"/>
        <path class="cls-6" d="M82.88,48.71l-5.02,4.75-8.43,7.97c-.18.17-.27.39-.28.62,0,.23.07.45.24.63l7.13,7.55c.24.27.48.52.73.75.07.07.13.13.2.19,1.32,1.23,2.81,2.04,4.34,2.47.14.04.29.08.43.12.06.02.12.02.18.03,3.24.71,6.6-.22,9.05-2.54.26-.25.51-.51.74-.78.07-.08.13-.18.21-.26.15-.19.3-.38.44-.58.06-.09.11-.18.16-.26.14-.21.27-.43.39-.65.03-.05.05-.11.08-.16.11-.22.2-.46.28-.7,0,0-.23.58,0,0,1.45-4.71.77-8.1-2.21-11.24l-7.44-7.86c-.08-.09-.18-.15-.29-.2-.31-.14-.69-.08-.96.16"/>
      </g>
    </g>
  </g>
</svg>