<?xml version="1.0" encoding="UTF-8"?>
<svg id="Layer_2" data-name="Layer 2" xmlns="http://www.w3.org/2000/svg" viewBox="0 0 83.44 83.77">
  <defs>
    <style>
      .cls-1 {
        fill: #ededed;
      }
    </style>
  </defs>
  <g id="export">
    <path class="cls-1" d="M73.17,49.69h0c2.76,0,5,2.24,5,5v12.09c0,9.35-7.65,17-17,17H17c-9.35,0-17-7.65-17-17V22.6C0,13.25,7.65,5.6,17,5.6h12.04c2.76,0,5,2.24,5,5h0c0,2.76-2.24,5-5,5h-12.04c-3.85,0-7,3.15-7,7v44.17c0,3.85,3.15,7,7,7h44.17c3.85,0,7-3.15,7-7v-12.09c0-2.76,2.24-5,5-5ZM40.24,42.82c1.73,1.73,4.22,3.26,6.72.77s26.45-26.88,26.45-26.88v13.29c0,1.77,1.96,4.76,4.76,4.76s5.27-1.92,5.27-4.61V5.6c0-3.62-2.11-5.6-5.27-5.6h-24.78c-3.55,0-4.7,4.61-4.7,5.6s.96,4.19,4.7,4.19h13.15l-26.3,26.11c-1.83,1.83-1.73,5.18,0,6.91Z"/>
  </g>
</svg>