<?xml version="1.0" encoding="UTF-8"?>
<svg id="Layer_2" data-name="Layer 2" xmlns="http://www.w3.org/2000/svg" viewBox="0 0 151.53 106.95">
  <defs>
    <style>
      .cls-1 {
        fill: none;
      }

      .cls-2 {
        fill: #b1aee9;
      }

      .cls-3 {
        fill: #55c7e1;
      }

      .cls-4 {
        fill: #4ec9e0;
      }

      .cls-5 {
        fill: #ee9eef;
      }

      .cls-6 {
        fill: #e99fef;
      }

      .cls-7 {
        fill: #acb0e9;
      }

      .cls-8 {
        fill: #ef9def;
      }

      .cls-9 {
        fill: #70c0e3;
      }

      .cls-10 {
        fill: #d2a5ed;
      }

      .cls-11 {
        fill: #9bb4e7;
      }

      .cls-12 {
        fill: #6fc0e3;
      }

      .cls-13 {
        fill: #73bfe4;
      }

      .cls-14 {
        fill: #76bee4;
      }

      .cls-15 {
        fill: #75bee4;
      }

      .cls-16 {
        fill: #daa3ed;
      }

      .cls-17 {
        fill: #b8acea;
      }

      .cls-18 {
        fill: #82bbe5;
      }

      .cls-19 {
        fill: #f39cf0;
      }

      .cls-20 {
        fill: #d6d6d6;
      }

      .cls-21 {
        fill: #90b7e6;
      }

      .cls-22 {
        fill: #9eb3e8;
      }

      .cls-23 {
        fill: #9cb4e8;
      }

      .cls-24 {
        fill: #a3b2e8;
      }

      .cls-25 {
        fill: #ea9fef;
      }

      .cls-26 {
        fill: #bbacea;
      }

      .cls-27 {
        fill: #93b6e7;
      }

      .cls-28 {
        fill: #6bc1e3;
      }

      .cls-29 {
        fill: #c1aaeb;
      }

      .cls-30 {
        fill: #61c4e2;
      }

      .cls-31 {
        fill: #d0a6ec;
      }

      .cls-32 {
        fill: #5dc5e1;
      }

      .cls-33 {
        fill: #bcbdbd;
      }

      .cls-34 {
        fill: #6ec0e3;
      }

      .cls-35 {
        fill: #bfaaeb;
      }

      .cls-36 {
        fill: #eb9eef;
      }

      .cls-37 {
        fill: #d8a4ed;
      }

      .cls-38 {
        fill: #8eb8e6;
      }

      .cls-39 {
        fill: #c3a9eb;
      }

      .cls-40 {
        fill: #858586;
      }

      .cls-41 {
        fill: #94b6e7;
      }

      .cls-42 {
        fill: #c5a9eb;
      }

      .cls-43 {
        fill: #f49cf0;
      }

      .cls-44 {
        fill: #5ac6e1;
      }

      .cls-45 {
        fill: #92b6e7;
      }

      .cls-46 {
        fill: #4fc9e0;
      }

      .cls-47 {
        fill: #ec9eef;
      }

      .cls-48 {
        fill: #f69bf0;
      }

      .cls-49 {
        fill: #a8b1e9;
      }

      .cls-50 {
        fill: #83bbe5;
      }

      .cls-51 {
        fill: #7dbce5;
      }

      .cls-52 {
        fill: #a6a7a7;
      }

      .cls-53 {
        fill: #98b5e7;
      }

      .cls-54 {
        fill: #c8a8ec;
      }

      .cls-55 {
        fill: #d9a3ed;
      }

      .cls-56 {
        fill: #b4adea;
      }

      .cls-57 {
        fill: #c7a8ec;
      }

      .cls-58 {
        fill: #52c8e0;
      }

      .cls-59 {
        fill: #b3aeea;
      }

      .cls-60 {
        fill: #a0b3e8;
      }

      .cls-61 {
        fill: #8db8e6;
      }

      .cls-62 {
        fill: #fa9af1;
      }

      .cls-63 {
        fill: #59c6e1;
      }

      .cls-64 {
        fill: #aeafe9;
      }

      .cls-65 {
        fill: #b7adea;
      }

      .cls-66 {
        fill: #77bee4;
      }

      .cls-67 {
        fill: #d1a6ed;
      }

      .cls-68 {
        fill: #e4a0ee;
      }

      .cls-69 {
        fill: #99b5e7;
      }

      .cls-70 {
        fill: #f59cf0;
      }

      .cls-71 {
        fill: #f19df0;
      }

      .cls-72 {
        fill: #62c4e2;
      }

      .cls-73 {
        fill: #8cb8e6;
      }

      .cls-74 {
        fill: #cfa6ec;
      }

      .cls-75 {
        fill: #8bb8e6;
      }

      .cls-76 {
        fill: #a9b0e9;
      }

      .cls-77 {
        fill: #56c7e1;
      }

      .cls-78 {
        fill: #6f6f70;
      }

      .cls-79 {
        fill: #96b5e7;
      }

      .cls-80 {
        fill: #fe99f1;
      }

      .cls-81 {
        fill: #b5adea;
      }

      .cls-82 {
        fill: #7abde4;
      }

      .cls-83 {
        fill: #e5a0ee;
      }

      .cls-84 {
        fill: #7ebce5;
      }

      .cls-85 {
        fill: #b1b2b2;
      }

      .cls-86 {
        fill: #d3a5ed;
      }

      .cls-87 {
        fill: #f09df0;
      }

      .cls-88 {
        fill: #51c8e0;
      }

      .cls-89 {
        fill: #f29df0;
      }

      .cls-90 {
        fill: #58c6e1;
      }

      .cls-91 {
        fill: #afafe9;
      }

      .cls-92 {
        fill: #e5e1e6;
      }

      .cls-93 {
        fill: #57c7e1;
      }

      .cls-94 {
        fill: #5fc4e2;
      }

      .cls-95 {
        fill: #b0afe9;
      }

      .cls-96 {
        fill: #dba3ee;
      }

      .cls-97 {
        fill: #7bbde4;
      }

      .cls-98 {
        fill: #bdabeb;
      }

      .cls-99 {
        fill: #e0a1ee;
      }

      .cls-100 {
        fill: #9fb3e8;
      }

      .cls-101 {
        fill: #dea2ee;
      }

      .cls-102 {
        fill: #f89bf0;
      }

      .cls-103 {
        fill: #72bfe3;
      }

      .cls-104 {
        fill: #a1b2e8;
      }

      .cls-105 {
        fill: #84bae5;
      }

      .cls-106 {
        fill: #6cc1e3;
      }

      .cls-107 {
        fill: #68c2e3;
      }

      .cls-108 {
        fill: #f79bf0;
      }

      .cls-109 {
        fill: #81bbe5;
      }

      .cls-110 {
        fill: #79bde4;
      }

      .cls-111 {
        fill: #dda2ee;
      }

      .cls-112 {
        fill: #a7b1e9;
      }

      .cls-113 {
        fill: #7fbce5;
      }

      .cls-114 {
        fill: #95b6e7;
      }

      .cls-115 {
        fill: #67c2e2;
      }

      .cls-116 {
        fill: #f6f5f7;
      }

      .cls-117 {
        fill: #53c8e0;
      }

      .cls-118 {
        fill: #b2aeea;
      }

      .cls-119 {
        fill: #87b9e6;
      }

      .cls-120 {
        fill: #e9e9e9;
      }

      .cls-121 {
        fill: #646465;
      }

      .cls-122 {
        fill: #fd9af1;
      }

      .cls-123 {
        fill: #8fb7e6;
      }

      .cls-124 {
        fill: #fc9af1;
      }

      .cls-125 {
        fill: #7cbce4;
      }

      .cls-126 {
        fill: #58595a;
      }

      .cls-127 {
        fill: #bcabeb;
      }

      .cls-128 {
        fill: #6dc1e3;
      }

      .cls-129 {
        fill: #cca7ec;
      }

      .cls-130 {
        fill: #cba7ec;
      }

      .cls-131 {
        fill: #91b7e6;
      }

      .cls-132 {
        fill: #abb0e9;
      }

      .cls-133 {
        fill: #5ec5e2;
      }

      .cls-134 {
        fill: #54c7e1;
      }

      .cls-135 {
        fill: #63c3e2;
      }

      .cls-136 {
        fill: #c6a9eb;
      }

      .cls-137 {
        fill: #e2a1ee;
      }

      .cls-138 {
        fill: #e6a0ef;
      }

      .cls-139 {
        fill: #78bee4;
      }

      .cls-140 {
        fill: #4d4e4f;
      }

      .cls-141 {
        fill: #d5a4ed;
      }

      .cls-142 {
        fill: #b9acea;
      }

      .cls-143 {
        fill: #aab0e9;
      }

      .cls-144 {
        fill: #60c4e2;
      }

      .cls-145 {
        fill: #66c2e2;
      }

      .cls-146 {
        fill: #caa7ec;
      }

      .cls-147 {
        fill: #6ac1e3;
      }

      .cls-148 {
        fill: #dfa2ee;
      }

      .cls-149 {
        fill: #97b5e7;
      }

      .cls-150 {
        fill: #65c3e2;
      }

      .cls-151 {
        fill: #a2b2e8;
      }

      .cls-152 {
        fill: #cea6ec;
      }

      .cls-153 {
        fill: #69c2e3;
      }

      .cls-154 {
        fill: #c2aaeb;
      }

      .cls-155 {
        fill: #8ab9e6;
      }

      .cls-156 {
        fill: #c9a8ec;
      }

      .cls-157 {
        fill: #50c8e0;
      }

      .cls-158 {
        fill: #adafe9;
      }

      .cls-159 {
        fill: #9ab4e7;
      }

      .cls-160 {
        fill: #71bfe3;
      }

      .cls-161 {
        fill: #c4a9eb;
      }

      .cls-162 {
        fill: #86bae5;
      }

      .cls-163 {
        fill: #d6a4ed;
      }

      .cls-164 {
        fill: #80bbe5;
      }

      .cls-165 {
        fill: #88b9e6;
      }

      .cls-166 {
        fill: #d4a5ed;
      }

      .cls-167 {
        fill: #74bfe4;
      }

      .cls-168 {
        fill: #64c3e2;
      }

      .cls-169 {
        fill: #c0aaeb;
      }

      .cls-170 {
        fill: #cda7ec;
      }

      .cls-171 {
        fill: #ff99f1;
      }

      .cls-172 {
        fill: #d7a4ed;
      }

      .cls-173 {
        fill: #d49a51;
      }

      .cls-174 {
        fill: #89b9e6;
      }

      .cls-175 {
        fill: #9b9c9c;
      }

      .cls-176 {
        fill: #beabeb;
      }

      .cls-177 {
        fill: #ed9eef;
      }

      .cls-178 {
        fill: #baacea;
      }

      .cls-179 {
        fill: #a4b2e8;
      }

      .cls-180 {
        fill: #e7a0ef;
      }

      .cls-181 {
        fill: #d3d3d3;
      }

      .cls-182 {
        fill: #e3a1ee;
      }

      .cls-183 {
        fill: #e1a1ee;
      }

      .cls-184 {
        fill: #e89fef;
      }

      .cls-185 {
        fill: #dca3ee;
      }

      .cls-186 {
        fill: #f99bf0;
      }

      .cls-187 {
        fill: #b6adea;
      }

      .cls-188 {
        fill: #f7c17c;
      }

      .cls-189 {
        fill: #fb9af1;
      }

      .cls-190 {
        fill: #a5b1e8;
      }

      .cls-191 {
        fill: #9db3e8;
      }

      .cls-192 {
        fill: #85bae5;
      }

      .cls-193 {
        fill: #5cc5e1;
      }

      .cls-194 {
        fill: #5bc5e1;
      }
    </style>
  </defs>
  <g id="Working_Layer" data-name="Working Layer">
    <g id="logo">
      <g>
        <path class="cls-1" d="M112.95,99.52c-.61-.4-1.36-.6-2.23-.6s-1.65.19-2.28.56c-.74.45-1.12,1.09-1.12,1.93s.33,1.43.99,1.87c.59.4,1.35.6,2.28.6s1.74-.19,2.36-.57c.73-.43,1.09-1.05,1.09-1.86s-.36-1.48-1.09-1.93Z"/>
        <path class="cls-1" d="M69.43,81.82c-1.09-.48-2.36-.72-3.82-.72-1.6,0-2.96.28-4.09.84-1.27.61-2.05,1.5-2.34,2.66h12.7c-.21-1.25-1.03-2.18-2.44-2.79Z"/>
        <path class="cls-1" d="M89.39,81.82c-1.09-.48-2.36-.72-3.82-.72-1.6,0-2.96.28-4.09.84-1.27.61-2.05,1.5-2.34,2.66h12.7c-.21-1.25-1.03-2.18-2.44-2.79Z"/>
        <path class="cls-1" d="M58.6,99.44c-.61-.35-1.4-.53-2.39-.53s-1.75.21-2.36.64c-.68.46-1.03,1.1-1.03,1.92s.34,1.46,1.01,1.91c.61.41,1.41.61,2.38.61s1.78-.21,2.45-.64c.73-.45,1.09-1.08,1.09-1.88,0-.92-.39-1.59-1.16-2.02Z"/>
        <path class="cls-1" d="M129.91,82.16c-1.15-.71-2.7-1.06-4.64-1.06-1.79,0-3.26.38-4.39,1.13-1.25.82-1.87,1.96-1.87,3.4s.62,2.57,1.87,3.38c1.12.72,2.58,1.09,4.39,1.09s3.31-.38,4.56-1.13c1.32-.81,1.97-1.92,1.97-3.33,0-1.55-.63-2.7-1.9-3.48Z"/>
        <path class="cls-1" d="M90.24,99.35c-.6-.29-1.31-.44-2.14-.44-.88,0-1.64.16-2.26.49-.7.37-1.12.9-1.25,1.6h6.91c-.08-.74-.5-1.29-1.26-1.65Z"/>
        <path class="cls-1" d="M79.67,99.33c-.61-.36-1.42-.55-2.41-.55s-1.75.22-2.36.65c-.68.48-1.03,1.13-1.03,1.96s.34,1.49,1.03,1.96c.61.42,1.4.62,2.36.62s1.77-.22,2.44-.65c.74-.47,1.1-1.11,1.1-1.93,0-.93-.38-1.61-1.13-2.06Z"/>
        <path class="cls-1" d="M39.38,99.52c-.61-.4-1.36-.6-2.23-.6s-1.65.19-2.28.56c-.74.45-1.12,1.09-1.12,1.93s.33,1.43.99,1.87c.59.4,1.35.6,2.28.6s1.74-.19,2.36-.57c.73-.43,1.09-1.05,1.09-1.86s-.36-1.48-1.09-1.93Z"/>
        <path class="cls-1" d="M25.52,99.33c-.61-.36-1.42-.55-2.41-.55s-1.75.22-2.36.65c-.68.48-1.03,1.13-1.03,1.96s.34,1.49,1.03,1.96c.61.42,1.4.62,2.36.62s1.77-.22,2.44-.65c.74-.47,1.1-1.11,1.1-1.93,0-.93-.38-1.61-1.13-2.06Z"/>
        <path class="cls-20" d="M28.29,84.85l-3.53-.44c-2.01-.25-3.01-.73-3.01-1.46,0-.59.49-1.06,1.48-1.41.82-.28,1.77-.42,2.84-.42,1.83,0,3.12.25,3.9.74.71.46,1.06,1.22,1.06,2.27h2.27c0-3.24-2.47-4.86-7.4-4.86-1.46,0-2.77.23-3.92.69-1.64.64-2.47,1.64-2.47,2.98,0,1.07.57,1.9,1.7,2.49.82.41,2.01.72,3.58.91,1.1.12,2.2.23,3.28.35,2.06.35,3.08.88,3.08,1.6,0,1.2-1.55,1.8-4.66,1.8-1.97,0-3.38-.28-4.21-.83-.83-.55-1.25-1.44-1.25-2.68h-2.24c0,3.57,2.56,5.35,7.67,5.35,1.64,0,3.03-.18,4.14-.54,1.86-.61,2.79-1.64,2.79-3.11,0-1.89-1.7-3.04-5.11-3.45Z"/>
        <path class="cls-20" d="M53.06,91.63v-8.21c0-1.66-.86-2.88-2.59-3.65-1.23-.56-2.74-.84-4.51-.84-2.48,0-4.4.53-5.75,1.6v-5.62h-2.2v16.72h2.2v-6.91c0-1.3.59-2.3,1.78-3.01,1.04-.64,2.37-.96,4-.96,1.36,0,2.48.21,3.35.64,1.02.49,1.53,1.24,1.53,2.24v7.99h2.2Z"/>
        <path class="cls-20" d="M71.75,87.34c-1.02,1.84-3.1,2.76-6.24,2.76-3.93,0-6.07-1.24-6.41-3.72l15.17-.02v-1.16c0-2.06-.98-3.61-2.94-4.66-1.53-.82-3.44-1.23-5.72-1.23s-4.23.48-5.82,1.43c-1.92,1.13-2.89,2.77-2.89,4.91s.89,3.84,2.66,4.91c1.48.9,3.44,1.36,5.87,1.36,1.74,0,3.27-.23,4.59-.69,1.79-.61,3.13-1.9,4.02-3.87h-2.29ZM61.52,81.94c1.13-.56,2.5-.84,4.09-.84,1.46,0,2.74.24,3.82.72,1.41.61,2.23,1.54,2.44,2.79h-12.7c.3-1.17,1.08-2.06,2.34-2.66Z"/>
        <path class="cls-20" d="M94.22,85.19c0-2.06-.98-3.61-2.94-4.66-1.53-.82-3.44-1.23-5.72-1.23s-4.23.48-5.82,1.43c-1.92,1.13-2.89,2.77-2.89,4.91s.89,3.84,2.66,4.91c1.48.9,3.44,1.36,5.87,1.36,1.74,0,3.27-.23,4.59-.69,1.79-.61,3.13-1.9,4.02-3.87h-2.29c-1.02,1.84-3.1,2.76-6.24,2.76-3.93,0-6.07-1.24-6.41-3.72l15.17-.02v-1.16ZM79.13,84.6c.3-1.17,1.08-2.06,2.34-2.66,1.13-.56,2.5-.84,4.09-.84,1.46,0,2.74.24,3.82.72,1.41.61,2.23,1.54,2.44,2.79h-12.7Z"/>
        <path class="cls-20" d="M110.72,83.86v7.77h2.2v-7.99c0-1.61-.86-2.79-2.59-3.53-1.25-.54-2.75-.81-4.51-.81-2.48,0-4.4.52-5.75,1.55v-1.28h-2.2v12.06h2.2v-6.71c0-1.25.59-2.22,1.78-2.91,1.04-.61,2.37-.91,4-.91,1.36,0,2.48.21,3.35.62,1.02.48,1.53,1.19,1.53,2.15Z"/>
        <path class="cls-20" d="M131.81,91.66h2.2v-12.31h-2.2v1.87c-1.5-1.28-3.63-1.92-6.39-1.92-2.33,0-4.28.49-5.82,1.46-1.83,1.13-2.74,2.76-2.74,4.88s.92,3.72,2.76,4.83c1.55.95,3.44,1.43,5.67,1.43,2.81,0,4.98-.67,6.51-2v1.75ZM129.84,88.97c-1.25.76-2.77,1.13-4.56,1.13s-3.27-.36-4.39-1.09c-1.25-.81-1.87-1.93-1.87-3.38s.62-2.58,1.87-3.4c1.13-.76,2.6-1.13,4.39-1.13,1.94,0,3.49.35,4.64,1.06,1.27.77,1.9,1.93,1.9,3.48,0,1.41-.66,2.52-1.97,3.33Z"/>
        <path class="cls-20" d="M26.65,99.18c-.76-.8-1.92-1.19-3.47-1.19-1.21,0-2.22.26-3.01.79-.93.61-1.39,1.48-1.39,2.61s.46,1.98,1.39,2.6c.8.52,1.78.78,2.95.78,1.56,0,2.73-.42,3.53-1.25v1.12h.96v-8.81h-.96v3.36ZM25.55,103.32c-.67.43-1.48.65-2.44.65s-1.75-.21-2.36-.62c-.68-.47-1.03-1.12-1.03-1.96s.34-1.48,1.03-1.96c.61-.43,1.4-.65,2.36-.65s1.8.18,2.41.55c.75.45,1.13,1.14,1.13,2.06,0,.82-.37,1.47-1.1,1.93Z"/>
        <path class="cls-20" d="M30.03,96v.97c.1.21.25.31.44.31.16,0,.33-.09.52-.26v-1.06c-.22-.17-.39-.26-.52-.26-.16,0-.3.1-.44.3Z"/>
        <rect class="cls-20" x="30.03" y="98.13" width=".96" height="6.49"/>
        <path class="cls-20" d="M40.47,99.26c-.75-.75-1.85-1.13-3.3-1.13-1.19,0-2.17.25-2.96.74-.95.6-1.43,1.45-1.43,2.56s.46,1.92,1.38,2.51c.78.49,1.74.74,2.89.74,1.47,0,2.61-.37,3.41-1.1v.7c0,1.25-1.08,1.88-3.25,1.88-1,0-1.73-.13-2.19-.4-.47-.26-.74-.68-.8-1.24h-.93c.08,1.02.6,1.71,1.56,2.06.64.24,1.43.36,2.36.36,2.8,0,4.21-.89,4.21-2.66v-6.01h-.95v.99ZM39.38,103.31c-.62.38-1.41.57-2.36.57s-1.7-.2-2.28-.6c-.66-.44-.99-1.06-.99-1.87s.37-1.48,1.12-1.93c.63-.37,1.39-.56,2.28-.56s1.62.2,2.23.6c.73.46,1.09,1.1,1.09,1.93s-.36,1.42-1.09,1.86Z"/>
        <path class="cls-20" d="M43.69,96v.97c.1.21.25.31.44.31.16,0,.33-.09.52-.26v-1.06c-.22-.17-.39-.26-.52-.26-.16,0-.3.1-.44.3Z"/>
        <rect class="cls-20" x="43.69" y="98.13" width=".96" height="6.49"/>
        <polygon class="cls-20" points="48.97 96.65 48.02 96.65 48.02 98.51 46.28 98.51 46.28 99.3 48.02 99.3 48.06 104.62 48.97 104.62 48.97 99.3 50.75 99.3 50.75 98.51 48.97 98.51 48.97 96.65"/>
        <path class="cls-20" d="M59.76,99.3c-.76-.78-1.92-1.17-3.47-1.17-1.21,0-2.22.26-3.01.78-.93.6-1.39,1.45-1.39,2.56s.47,1.95,1.4,2.54c.8.5,1.77.75,2.93.75,1.56,0,2.73-.41,3.53-1.22v1.09h.96v-6.48h-.96v1.14ZM58.67,103.35c-.67.42-1.49.64-2.45.64s-1.76-.2-2.38-.61c-.68-.45-1.01-1.09-1.01-1.91s.34-1.46,1.03-1.92c.61-.42,1.4-.64,2.36-.64s1.78.18,2.39.53c.77.43,1.16,1.11,1.16,2.02,0,.8-.36,1.43-1.09,1.88Z"/>
        <rect class="cls-20" x="63.13" y="95.82" width=".96" height="8.8"/>
        <path class="cls-20" d="M80.8,99.18c-.76-.8-1.92-1.19-3.47-1.19-1.21,0-2.22.26-3.01.79-.93.61-1.39,1.48-1.39,2.61s.46,1.98,1.39,2.6c.8.52,1.78.78,2.95.78,1.56,0,2.73-.42,3.53-1.25v1.12h.96v-8.81h-.96v3.36ZM79.69,103.32c-.67.43-1.48.65-2.44.65s-1.75-.21-2.36-.62c-.68-.47-1.03-1.12-1.03-1.96s.34-1.48,1.03-1.96c.61-.43,1.4-.65,2.36-.65s1.8.18,2.41.55c.75.45,1.13,1.14,1.13,2.06,0,.82-.37,1.47-1.1,1.93Z"/>
        <path class="cls-20" d="M91.05,98.79c-.79-.44-1.77-.66-2.96-.66s-2.19.25-3.01.75c-.98.61-1.47,1.47-1.47,2.58s.45,2.01,1.35,2.58c.76.48,1.77.71,3.04.71.91,0,1.7-.12,2.39-.36.91-.32,1.57-.96,2-1.91h-1.01c-.53,1-1.64,1.49-3.34,1.49-2.17,0-3.33-.74-3.48-2.21h8v-.55c0-1.08-.5-1.9-1.51-2.44ZM84.59,101c.13-.69.55-1.22,1.25-1.6.62-.33,1.38-.49,2.26-.49.83,0,1.54.15,2.14.44.76.36,1.18.91,1.26,1.65h-6.91Z"/>
        <path class="cls-20" d="M98.82,101.13l-1.86-.23c-1.11-.15-1.66-.44-1.66-.88,0-.37.28-.66.84-.86.44-.16.95-.23,1.52-.23.97,0,1.67.13,2.1.4.41.25.61.66.61,1.22h1c0-1.62-1.27-2.43-3.8-2.43-.75,0-1.43.12-2.02.36-.82.34-1.23.85-1.23,1.53,0,.55.29.98.87,1.27.42.22,1.04.38,1.86.48.56.06,1.13.12,1.69.18,1.14.19,1.71.51,1.71.96,0,.72-.85,1.08-2.56,1.08-1.06,0-1.81-.15-2.27-.45-.46-.3-.69-.79-.69-1.45h-.99c0,1.81,1.31,2.71,3.93,2.71.86,0,1.57-.1,2.15-.29.93-.32,1.4-.85,1.4-1.6,0-.97-.87-1.56-2.61-1.78Z"/>
        <rect class="cls-20" x="103.61" y="98.13" width=".96" height="6.49"/>
        <path class="cls-20" d="M103.61,96v.97c.1.21.25.31.44.31.16,0,.33-.09.52-.26v-1.06c-.22-.17-.39-.26-.52-.26-.16,0-.3.1-.44.3Z"/>
        <path class="cls-20" d="M114.04,99.26c-.75-.75-1.85-1.13-3.3-1.13-1.19,0-2.17.25-2.96.74-.95.6-1.43,1.45-1.43,2.56s.46,1.92,1.38,2.51c.78.49,1.74.74,2.89.74,1.47,0,2.61-.37,3.41-1.1v.7c0,1.25-1.08,1.88-3.25,1.88-1,0-1.73-.13-2.19-.4-.47-.26-.74-.68-.8-1.24h-.93c.08,1.02.6,1.71,1.56,2.06.64.24,1.43.36,2.36.36,2.8,0,4.21-.89,4.21-2.66v-6.01h-.95v.99ZM112.95,103.31c-.62.38-1.41.57-2.36.57s-1.7-.2-2.28-.6c-.66-.44-.99-1.06-.99-1.87s.37-1.48,1.12-1.93c.63-.37,1.39-.56,2.28-.56s1.62.2,2.23.6c.73.46,1.09,1.1,1.09,1.93s-.36,1.42-1.09,1.86Z"/>
        <path class="cls-20" d="M123.68,98.56c-.64-.29-1.42-.43-2.34-.43-1.4,0-2.44.32-3.12.96v-.82h-.96v6.35h.96v-3.54c0-.72.32-1.27.97-1.66.56-.34,1.28-.51,2.15-.51.74,0,1.34.11,1.8.34.58.28.87.7.87,1.26v4.12h.96v-4.23c0-.83-.44-1.44-1.31-1.83Z"/>
        <path class="cls-20" d="M131.91,101.13l-1.86-.23c-1.11-.15-1.66-.44-1.66-.88,0-.37.28-.66.84-.86.44-.16.95-.23,1.52-.23.97,0,1.67.13,2.1.4.41.25.61.66.61,1.22h1c0-1.62-1.27-2.43-3.8-2.43-.75,0-1.43.12-2.02.36-.82.34-1.23.85-1.23,1.53,0,.55.29.98.87,1.27.42.22,1.04.38,1.86.48.56.06,1.13.12,1.69.18,1.14.19,1.71.51,1.71.96,0,.72-.85,1.08-2.56,1.08-1.06,0-1.81-.15-2.27-.45-.46-.3-.69-.79-.69-1.45h-.99c0,1.81,1.31,2.71,3.93,2.71.86,0,1.57-.1,2.15-.29.93-.32,1.4-.85,1.4-1.6,0-.97-.87-1.56-2.61-1.78Z"/>
      </g>
      <g id="sheena">
        <g id="glasses">
          <g id="Logo_3" data-name="Logo 3">
            <path class="cls-173" d="M73.78,33.6l-.51-3s.07-.11.23-.26c-1.08-2.86-3.05-5.27-5.58-6.91,2.8,2.31,4.59,5.81,4.59,9.73,0,6.96-5.64,12.6-12.6,12.6s-12.6-5.64-12.6-12.6c0-2.73.87-5.25,2.34-7.31-1.63,1.81-2.81,4.04-3.34,6.52,0,.47,0,1.31-.03,2.18,0,0-.09.04-.22.09.72,7.17,6.78,12.76,14.14,12.76s13.61-5.78,14.16-13.12c-.02-.27-.05-.54-.09-.8-.16.04-.32.08-.51.13Z"/>
            <path class="cls-173" d="M106.38,32.36c-.68-3.14-2.39-5.9-4.77-7.89,2.16,2.26,3.48,5.32,3.48,8.69,0,6.96-5.64,12.6-12.6,12.6s-12.6-5.64-12.6-12.6c0-3.37,1.33-6.43,3.48-8.69-1.79,1.5-3.2,3.43-4.08,5.63.24.12.36.21.36.21,0,0-.16,3.63-.84,3.41-.13-.04-.27-.08-.42-.13-.03.23-.05.46-.07.69-.02-.24-.02-.48-.03-.72,0,0,0,0,0,0,.19,7.68,6.47,13.84,14.2,13.84s13.41-5.59,14.14-12.76c-.14-.06-.22-.09-.22-.09-.03-.87-.03-1.71-.03-2.18Z"/>
            <path class="cls-173" d="M49.67,25.85c-1.47,2.06-2.34,4.59-2.34,7.31,0,6.96,5.64,12.6,12.6,12.6s12.6-5.64,12.6-12.6c0-3.92-1.79-7.42-4.59-9.73-2.22-1.44-4.87-2.28-7.72-2.28-4.19,0-7.95,1.81-10.55,4.69Z"/>
            <path class="cls-173" d="M83.38,24.47c-2.16,2.26-3.48,5.32-3.48,8.69,0,6.96,5.64,12.6,12.6,12.6s12.6-5.64,12.6-12.6c0-3.37-1.33-6.43-3.48-8.69-2.47-2.07-5.64-3.31-9.12-3.31s-6.65,1.25-9.12,3.31Z"/>
            <path class="cls-188" d="M74.29,33.47c.04.27.07.53.09.8h0c.02-.28.03-.55.03-.83-.04.01-.08.02-.12.03Z"/>
            <path class="cls-188" d="M60.21,21.15c2.85,0,5.5.84,7.72,2.28,2.52,1.64,4.5,4.05,5.58,6.91.12-.11.3-.24.55-.37-.72-3.09-2.43-5.8-4.8-7.75-.35-.29-.72-.56-1.09-.82-.57-.38-1.16-.73-1.78-1.03-.21-.1-.42-.19-.63-.28-.42-.18-.86-.34-1.31-.48-.44-.14-.9-.26-1.36-.35-.92-.19-1.88-.29-2.86-.29s-1.94.1-2.86.29c-.46.09-.92.21-1.36.35-.44.14-.88.3-1.31.48-.21.09-.42.18-.63.28-.62.3-1.22.64-1.78,1.03-.38.26-.74.53-1.09.82-2.88,2.37-4.8,5.86-5.12,9.79.17-.04.27-.05.27-.05,0,0,0,.15,0,.4.53-2.47,1.7-4.71,3.34-6.52,2.6-2.88,6.36-4.69,10.55-4.69Z"/>
            <path class="cls-188" d="M79.31,30.1c.88-2.2,2.29-4.13,4.08-5.63,2.47-2.07,5.64-3.31,9.12-3.31s6.65,1.25,9.12,3.31c2.38,1.99,4.09,4.75,4.77,7.89,0-.25,0-.4,0-.4,0,0,.1.02.27.06-.23-2.79-1.26-5.35-2.86-7.45-.66-.87-1.42-1.66-2.26-2.35-.35-.29-.72-.56-1.09-.82-.38-.26-.77-.49-1.17-.71-.6-.33-1.23-.61-1.89-.85-1.52-.56-3.17-.86-4.89-.86-2.7,0-5.22.75-7.37,2.06-.39.24-.77.49-1.13.77-.18.14-.36.28-.54.42-.35.29-.69.6-1.01.92,0,0-.01.02-.02.02-.29.29-.57.6-.84.92-1.38,1.65-2.39,3.61-2.91,5.77.26.08.46.17.62.25Z"/>
            <path class="cls-188" d="M78.33,34.28c.02-.23.04-.46.07-.69-.03-.01-.07-.02-.1-.03,0,.24.01.48.03.72Z"/>
            <path class="cls-188" d="M78.4,33.59c.15.05.29.09.42.13.68.21.84-3.41.84-3.41,0,0-.12-.09-.36-.21-.15-.08-.36-.16-.62-.25-.54-.17-1.33-.33-2.39-.33-.96,0-1.64.18-2.11.39-.05.02-.1.04-.14.07h0c-.25.13-.42.26-.55.37-.17.15-.23.26-.23.26l.51,3c.19-.05.35-.09.51-.13.04-.01.08-.02.12-.03,0,0,0,0,0,0,.57-.14.96-.22,1.35-.26.18-.02.35-.02.54-.02.11,0,.23,0,.35.02.52.06,1.13.22,1.65.37,0,0,0,0,0,0,.03.01.07.02.1.03Z"/>
            <path class="cls-188" d="M106.66,32.03c-.17-.04-.27-.06-.27-.06,0,0,0,.15,0,.4,0,.47,0,1.31.03,2.18,0,0,.09.04.22.09.59.25,2.24,1,3.07,1.7.2.17.35.34.43.49v1.93s1.41-3.04-.06-4.71c-1.16-1.32-2.78-1.85-3.41-2.02Z"/>
            <path class="cls-188" d="M42.58,36.83c.39-.81,2.76-1.88,3.49-2.19.14-.06.22-.09.22-.09.03-.87.03-1.71.03-2.18,0-.25,0-.4,0-.4,0,0-.1.02-.27.05h0c-.65.15-2.33.63-3.5,1.85-.05.05-.1.1-.15.15-1.24,1.41-.27,3.78.07,4.51.06.14.11.22.11.22v-1.93Z"/>
          </g>
          <g>
            <path class="cls-58" d="M60.21,21.15c-.6,0-1.19.05-1.77.12h3.56c-.59-.07-1.18-.12-1.79-.12Z"/>
            <path class="cls-117" d="M62,21.27h-3.56c-.29.04-.58.09-.87.14h5.32c-.29-.06-.59-.1-.89-.14Z"/>
            <path class="cls-134" d="M62.89,21.41h-5.32c-.23.04-.46.09-.68.14h6.67c-.22-.05-.44-.1-.67-.14Z"/>
            <path class="cls-3" d="M63.56,21.56h-6.67c-.17.04-.35.09-.52.14h7.73c-.18-.05-.36-.1-.54-.14Z"/>
            <path class="cls-77" d="M64.1,21.7h-7.73c-.17.05-.35.09-.52.14h8.71c-.15-.05-.31-.1-.46-.14Z"/>
            <path class="cls-93" d="M64.57,21.84h-8.71c-.14.04-.27.09-.4.14h9.54c-.14-.05-.28-.1-.42-.14Z"/>
            <path class="cls-90" d="M64.99,21.98h-9.54c-.12.04-.24.1-.36.14h10.29c-.13-.05-.26-.1-.39-.14Z"/>
            <path class="cls-63" d="M65.38,22.12h-10.29c-.12.05-.24.09-.36.14h10.99c-.11-.05-.22-.1-.34-.14Z"/>
            <path class="cls-44" d="M65.72,22.27h-10.99c-.12.05-.24.09-.36.14h11.69c-.11-.05-.22-.09-.34-.14Z"/>
            <path class="cls-194" d="M66.05,22.41h-11.69c-.1.04-.18.1-.28.14h12.27c-.1-.05-.2-.1-.3-.14Z"/>
            <path class="cls-193" d="M66.36,22.55h-12.27c-.09.04-.18.1-.27.14h12.82c-.09-.05-.19-.1-.28-.14Z"/>
            <path class="cls-32" d="M66.64,22.69h-12.82c-.09.05-.18.09-.27.14h13.38c-.09-.05-.19-.09-.28-.14Z"/>
            <path class="cls-133" d="M66.92,22.84h-13.38c-.09.05-.18.09-.27.14h13.92c-.09-.05-.17-.1-.26-.14Z"/>
            <path class="cls-94" d="M67.18,22.98h-13.92c-.09.05-.18.09-.26.14h14.42c-.08-.05-.16-.1-.24-.14Z"/>
            <path class="cls-144" d="M67.41,23.12h-14.42c-.07.04-.14.1-.22.14h14.87c-.08-.05-.16-.1-.24-.14Z"/>
            <path class="cls-30" d="M67.65,23.26h-14.87c-.07.05-.14.1-.22.14h15.32c-.08-.05-.16-.09-.24-.14Z"/>
            <path class="cls-72" d="M67.93,23.43s-.03-.02-.04-.03h-15.32c-.07.05-.14.09-.22.14h15.71s-.08-.08-.13-.12Z"/>
            <path class="cls-135" d="M68.06,23.55h-15.71c-.07.05-.15.09-.22.14h16.08c-.05-.05-.1-.1-.15-.14Z"/>
            <path class="cls-168" d="M68.21,23.69h-16.08c-.07.05-.15.09-.22.14h16.45c-.05-.05-.1-.1-.15-.14Z"/>
            <path class="cls-150" d="M68.37,23.83h-16.45c-.06.05-.13.09-.19.14h16.8c-.05-.05-.1-.1-.15-.14Z"/>
            <path class="cls-145" d="M68.52,23.98h-16.8c-.06.05-.12.1-.17.14h17.13c-.05-.05-.1-.09-.15-.14Z"/>
            <path class="cls-115" d="M68.68,24.12h-17.13c-.06.05-.12.1-.17.14h17.46s-.1-.09-.15-.14Z"/>
            <path class="cls-107" d="M68.83,24.26h-17.46c-.06.05-.12.09-.17.14h17.78s-.1-.09-.14-.14Z"/>
            <path class="cls-153" d="M68.98,24.4h-17.78c-.06.05-.12.09-.17.14h18.08s-.08-.1-.12-.14Z"/>
            <path class="cls-147" d="M69.1,24.54h-18.08c-.06.05-.12.09-.17.14h18.38s-.08-.1-.12-.14Z"/>
            <path class="cls-28" d="M69.23,24.69h-18.38c-.06.05-.12.09-.17.14h18.67s-.08-.1-.12-.14Z"/>
            <path class="cls-106" d="M69.35,24.83h-18.67s-.09.1-.14.14h18.94s-.08-.1-.12-.14Z"/>
            <path class="cls-128" d="M69.48,24.97h-18.94s-.09.1-.14.14h19.21s-.08-.09-.12-.14Z"/>
            <path class="cls-34" d="M69.6,25.11h-19.21s-.09.1-.14.14h19.47s-.08-.09-.12-.14Z"/>
            <path class="cls-12" d="M69.73,25.26h-19.47s-.1.09-.14.14h19.74s-.08-.09-.12-.14Z"/>
            <path class="cls-9" d="M69.85,25.4h-19.74s-.1.09-.14.14h19.98s-.06-.1-.1-.14Z"/>
            <path class="cls-160" d="M69.95,25.54h-19.98s-.1.09-.14.14h20.22s-.06-.1-.1-.14Z"/>
            <path class="cls-103" d="M70.05,25.68h-20.22s-.1.09-.14.14h20.46s-.07-.1-.1-.14Z"/>
            <path class="cls-13" d="M70.15,25.83h-20.46s-.01.01-.02.02c-.03.04-.05.08-.08.12h20.66s-.07-.1-.1-.14Z"/>
            <path class="cls-167" d="M70.25,25.97h-20.66s-.06.1-.09.14h20.86s-.07-.09-.1-.14Z"/>
            <path class="cls-15" d="M70.35,26.11h-20.86s-.06.09-.09.14h21.05s-.07-.09-.1-.14Z"/>
            <polygon class="cls-15" points="72.52 26.11 72.52 26.11 72.52 26.11 72.52 26.11"/>
            <path class="cls-14" d="M70.45,26.25h-21.05s-.06.09-.09.14h21.25s-.07-.09-.1-.14Z"/>
            <path class="cls-66" d="M70.55,26.4h-21.25s-.06.09-.09.14h21.43s-.06-.09-.09-.14Z"/>
            <path class="cls-139" d="M70.64,26.54h-21.43s-.06.09-.09.14h21.6s-.05-.1-.08-.14Z"/>
            <path class="cls-110" d="M70.72,26.68h-21.6s-.05.1-.08.14h21.76s-.05-.1-.08-.14Z"/>
            <path class="cls-82" d="M70.8,26.82h-21.76s-.05.1-.08.14h21.92s-.05-.1-.08-.14Z"/>
            <path class="cls-97" d="M70.88,26.97h-21.92s-.05.09-.08.14h22.07s-.05-.1-.08-.14Z"/>
            <path class="cls-125" d="M70.96,27.11h-22.07s-.05.09-.08.14h22.23s-.05-.09-.08-.14Z"/>
            <polygon class="cls-51" points="47.32 27.25 47.32 27.25 47.32 27.25 47.32 27.25"/>
            <path class="cls-51" d="M71.03,27.25h-22.23s-.05.09-.08.14h22.39s-.05-.09-.08-.14Z"/>
            <path class="cls-84" d="M71.11,27.39h-22.39s-.05.09-.07.14h22.54s-.05-.09-.08-.14Z"/>
            <path class="cls-113" d="M71.19,27.53h-22.54s-.04.1-.07.14h22.68s-.05-.09-.08-.14Z"/>
            <path class="cls-164" d="M71.27,27.68h-22.68s-.04.1-.07.14h22.81s-.04-.1-.06-.14Z"/>
            <path class="cls-109" d="M71.33,27.82h-22.81s-.04.09-.07.14h22.94s-.04-.1-.06-.14Z"/>
            <path class="cls-18" d="M71.39,27.96h-22.94s-.04.09-.07.14h23.06s-.04-.1-.06-.14Z"/>
            <path class="cls-50" d="M71.45,28.1h-23.06s-.05.09-.07.14h23.19s-.04-.1-.06-.14Z"/>
            <path class="cls-105" d="M71.51,28.25h-23.19s-.04.09-.06.14h23.31s-.04-.1-.06-.14Z"/>
            <path class="cls-192" d="M71.57,28.39h-23.31s-.03.1-.05.14h23.42s-.04-.09-.06-.14Z"/>
            <path class="cls-162" d="M71.63,28.53h-23.42s-.03.1-.05.14h23.53s-.04-.09-.06-.14Z"/>
            <path class="cls-119" d="M71.69,28.67h-23.53s-.04.09-.05.14h23.64s-.04-.09-.06-.14Z"/>
            <path class="cls-165" d="M71.75,28.82h-23.64s-.04.09-.05.14h23.75s-.04-.09-.06-.14Z"/>
            <path class="cls-174" d="M71.8,28.96h-23.75s-.04.09-.05.14h23.85s-.03-.1-.04-.14Z"/>
            <path class="cls-155" d="M71.85,29.1h-23.85s-.04.09-.05.14h23.94s-.03-.1-.04-.14Z"/>
            <path class="cls-75" d="M71.89,29.24h-23.94s-.03.1-.04.14h24.03s-.03-.1-.04-.14Z"/>
            <path class="cls-73" d="M71.93,29.39h-24.03s-.03.1-.04.14h24.11s-.03-.1-.04-.14Z"/>
            <path class="cls-61" d="M71.97,29.53h-24.11s-.03.09-.04.14h24.19s-.03-.1-.04-.14Z"/>
            <path class="cls-38" d="M72.01,29.67h-24.19s-.03.09-.04.14h24.27s-.03-.09-.04-.14Z"/>
            <path class="cls-123" d="M72.05,29.81h-24.27s-.03.09-.04.14h24.35s-.03-.09-.04-.14Z"/>
            <path class="cls-21" d="M72.1,29.95h-24.35s-.03.09-.04.14h24.43s-.03-.09-.04-.14Z"/>
            <path class="cls-131" d="M72.14,30.1h-24.43s-.02.09-.04.14h24.51s-.03-.09-.04-.14Z"/>
            <path class="cls-45" d="M72.18,30.24h-24.51s-.02.1-.03.14h24.57s-.02-.09-.03-.14Z"/>
            <path class="cls-27" d="M72.21,30.38h-24.57s-.02.1-.03.14h24.63s-.01-.1-.02-.14Z"/>
            <path class="cls-41" d="M72.24,30.52h-24.63s-.02.09-.03.14h24.68s-.01-.1-.02-.14Z"/>
            <path class="cls-114" d="M72.26,30.67h-24.68s-.02.09-.03.14h24.73s-.02-.1-.02-.14Z"/>
            <path class="cls-79" d="M72.28,30.81h-24.73s-.02.09-.03.14h24.79s-.02-.1-.02-.14Z"/>
            <path class="cls-149" d="M72.31,30.95h-24.79s-.02.09-.03.14h24.84s-.02-.09-.02-.14Z"/>
            <path class="cls-53" d="M72.33,31.09h-24.84s-.01.09-.02.14h24.89s-.02-.09-.02-.14Z"/>
            <path class="cls-69" d="M72.36,31.24h-24.89s-.01.1-.02.14h24.93s-.02-.09-.02-.14Z"/>
            <path class="cls-159" d="M72.38,31.38h-24.93s-.01.1-.02.14h24.97s-.02-.09-.02-.14Z"/>
            <path class="cls-11" d="M72.41,31.52h-24.97s-.01.09-.02.14h25.01s-.02-.09-.02-.14Z"/>
            <path class="cls-23" d="M72.43,31.66h-25.01s-.01.09-.02.14h25.04s0-.1-.01-.14Z"/>
            <path class="cls-191" d="M72.45,31.81h-25.04s-.01.09-.02.14h25.07s0-.1,0-.14Z"/>
            <path class="cls-22" d="M72.45,31.95h-25.07s-.01.09-.02.14h25.09s0-.1,0-.14Z"/>
            <path class="cls-100" d="M72.46,32.09h-25.09s0,.09-.01.14h25.11s0-.1,0-.14Z"/>
            <path class="cls-60" d="M72.47,32.23h-25.11s0,.1,0,.14h25.12s0-.1,0-.14Z"/>
            <path class="cls-104" d="M72.48,32.37h-25.12s0,.1,0,.14h25.14s0-.09,0-.14Z"/>
            <path class="cls-151" d="M72.49,32.52h-25.14s0,.09,0,.14h25.15s0-.09,0-.14Z"/>
            <path class="cls-24" d="M72.49,32.66h-25.15s0,.09,0,.14h25.16s0-.09,0-.14Z"/>
            <path class="cls-179" d="M72.5,32.8h-25.16s0,.09,0,.14h25.18s0-.09,0-.14Z"/>
            <path class="cls-190" d="M72.51,32.94h-25.18s0,.09,0,.14h25.19s0-.09,0-.14Z"/>
            <path class="cls-112" d="M72.52,33.16s0-.05,0-.07h-25.19s0,.05,0,.07,0,.05,0,.07h25.19s0-.05,0-.07Z"/>
            <path class="cls-49" d="M72.52,33.23h-25.19s0,.09,0,.14h25.18s0-.09,0-.14Z"/>
            <path class="cls-76" d="M72.51,33.37h-25.18s0,.09,0,.14h25.16s0-.09,0-.14Z"/>
            <path class="cls-143" d="M72.5,33.51h-25.16s0,.09,0,.14h25.15s0-.09,0-.14Z"/>
            <path class="cls-132" d="M72.5,33.66h-25.15s0,.09,0,.14h25.13s0-.09,0-.14Z"/>
            <path class="cls-7" d="M72.49,33.8h-25.13s0,.1,0,.14h25.12s0-.09,0-.14Z"/>
            <path class="cls-158" d="M72.48,33.94h-25.12s0,.1,0,.14h25.11s0-.1,0-.14Z"/>
            <path class="cls-64" d="M72.48,34.08h-25.11s0,.1,0,.14h25.09s0-.1,0-.14Z"/>
            <path class="cls-91" d="M72.47,34.23h-25.09s0,.1,0,.14h25.08s0-.1,0-.14Z"/>
            <path class="cls-95" d="M72.46,34.37h-25.08s0,.09.01.14h25.05s0-.09.01-.14Z"/>
            <path class="cls-2" d="M72.45,34.51h-25.05s.02.09.02.14h25.01s.02-.09.02-.14Z"/>
            <path class="cls-118" d="M72.43,34.65h-25.01s.02.09.02.14h24.96s.02-.09.02-.14Z"/>
            <path class="cls-59" d="M72.4,34.8h-24.96s.01.09.02.14h24.92s.02-.09.02-.14Z"/>
            <path class="cls-56" d="M72.38,34.94h-24.92s.01.09.02.14h24.88s.01-.09.02-.14Z"/>
            <path class="cls-81" d="M72.36,35.08h-24.88s.01.1.02.14h24.83s.01-.09.02-.14Z"/>
            <path class="cls-187" d="M72.34,35.22h-24.83s.01.1.02.14h24.79s.01-.1.02-.14Z"/>
            <path class="cls-65" d="M72.32,35.36h-24.79s.01.1.02.14h24.74s.01-.1.02-.14Z"/>
            <path class="cls-17" d="M72.3,35.51h-24.74s.01.1.02.14h24.7s.01-.1.02-.14Z"/>
            <path class="cls-142" d="M72.27,35.65h-24.7s.02.09.03.14h24.64s.02-.09.03-.14Z"/>
            <path class="cls-178" d="M72.24,35.79h-24.64s.03.09.04.14h24.57s.03-.09.04-.14Z"/>
            <path class="cls-26" d="M72.21,35.93h-24.57s.03.09.04.14h24.49s.03-.09.04-.14Z"/>
            <path class="cls-127" d="M72.17,36.08h-24.49s.02.09.04.14h24.42s.03-.09.04-.14Z"/>
            <path class="cls-98" d="M72.13,36.22h-24.42s.02.09.04.14h24.35s.02-.09.04-.14Z"/>
            <path class="cls-176" d="M72.1,36.36h-24.35s.02.1.04.14h24.27s.02-.09.04-.14Z"/>
            <path class="cls-35" d="M72.06,36.5h-24.27s.02.1.04.14h24.2s.02-.1.04-.14Z"/>
            <path class="cls-169" d="M72.02,36.65h-24.2s.02.1.04.14h24.13s.02-.1.04-.14Z"/>
            <path class="cls-29" d="M71.99,36.79h-24.13s.02.1.04.14h24.05s.03-.1.04-.14Z"/>
            <path class="cls-154" d="M71.95,36.93h-24.05s.04.09.05.14h23.94s.04-.09.05-.14Z"/>
            <path class="cls-39" d="M71.89,37.07h-23.94s.04.09.05.14h23.84s.04-.09.05-.14Z"/>
            <path class="cls-161" d="M71.84,37.22h-23.84s.04.09.05.14h23.73s.04-.09.05-.14Z"/>
            <path class="cls-42" d="M71.79,37.36h-23.73s.03.09.05.14h23.63s.04-.09.05-.14Z"/>
            <path class="cls-136" d="M71.74,37.5h-23.63s.03.1.05.14h23.53s.03-.09.05-.14Z"/>
            <path class="cls-57" d="M71.69,37.64h-23.53s.03.1.05.14h23.42s.03-.1.05-.14Z"/>
            <path class="cls-54" d="M71.63,37.78h-23.42s.03.1.05.14h23.32s.03-.1.05-.14Z"/>
            <path class="cls-156" d="M71.58,37.93h-23.32s.03.1.05.14h23.21s.03-.1.05-.14Z"/>
            <path class="cls-146" d="M71.53,38.07h-23.21s.05.09.07.14h23.07s.05-.09.07-.14Z"/>
            <path class="cls-130" d="M71.46,38.21h-23.07s.05.09.07.14h22.94s.05-.09.07-.14Z"/>
            <path class="cls-129" d="M71.39,38.35h-22.94s.05.09.07.14h22.8s.05-.09.07-.14Z"/>
            <path class="cls-170" d="M71.32,38.5h-22.8s.05.09.07.14h22.66s.05-.09.07-.14Z"/>
            <path class="cls-152" d="M71.25,38.64h-22.66s.05.1.07.14h22.53s.05-.09.07-.14Z"/>
            <path class="cls-74" d="M71.19,38.78h-22.53s.04.1.07.14h22.39s.05-.1.07-.14Z"/>
            <path class="cls-31" d="M71.12,38.92h-22.39s.04.1.07.14h22.25s.04-.1.07-.14Z"/>
            <path class="cls-67" d="M71.05,39.07h-22.25s.05.1.07.14h22.1s.05-.1.07-.14Z"/>
            <path class="cls-10" d="M70.97,39.21h-22.1s.06.09.09.14h21.93s.06-.09.09-.14Z"/>
            <path class="cls-86" d="M70.89,39.35h-21.93s.06.09.09.14h21.76s.06-.09.09-.14Z"/>
            <path class="cls-166" d="M70.8,39.49h-21.76s.06.09.09.14h21.58s.06-.09.09-.14Z"/>
            <path class="cls-141" d="M70.71,39.64h-21.58s.06.1.09.14h21.41s.06-.09.09-.14Z"/>
            <path class="cls-163" d="M70.63,39.78h-21.41s.06.1.09.14h21.24s.06-.1.09-.14Z"/>
            <path class="cls-172" d="M70.54,39.92h-21.24s.06.1.09.14h21.07s.06-.1.09-.14Z"/>
            <path class="cls-37" d="M70.46,40.06h-21.07s.06.1.09.14h20.89s.06-.1.09-.14Z"/>
            <path class="cls-55" d="M70.37,40.21h-20.89s.07.09.11.14h20.68s.07-.09.11-.14Z"/>
            <path class="cls-16" d="M70.26,40.35h-20.68s.07.09.11.14h20.47s.07-.09.11-.14Z"/>
            <path class="cls-96" d="M70.16,40.49h-20.47s.07.09.11.14h20.25s.07-.09.11-.14Z"/>
            <path class="cls-185" d="M70.05,40.63h-20.25s.07.1.11.14h20.04s.07-.09.11-.14Z"/>
            <path class="cls-111" d="M69.94,40.77h-20.04s.07.1.11.14h19.83s.07-.1.11-.14Z"/>
            <path class="cls-101" d="M69.84,40.92h-19.83s.07.1.11.14h19.61s.07-.1.11-.14Z"/>
            <path class="cls-148" d="M69.73,41.06h-19.61s.07.1.11.14h19.39s.07-.1.11-.14Z"/>
            <path class="cls-99" d="M69.62,41.2h-19.39s.09.09.13.14h19.13s.09-.09.13-.14Z"/>
            <path class="cls-183" d="M69.49,41.34h-19.13s.09.09.13.14h18.87s.09-.09.13-.14Z"/>
            <path class="cls-137" d="M69.36,41.49h-18.87s.09.09.13.14h18.62s.09-.09.13-.14Z"/>
            <path class="cls-182" d="M69.23,41.63h-18.62s.09.1.13.14h18.36s.09-.09.13-.14Z"/>
            <path class="cls-68" d="M69.1,41.77h-18.36s.08.1.13.14h18.1s.09-.1.13-.14Z"/>
            <path class="cls-83" d="M68.97,41.91h-18.1s.08.1.13.14h17.84s.08-.1.13-.14Z"/>
            <path class="cls-138" d="M68.84,42.06h-17.84s.1.09.15.14h17.53c.05-.05.11-.09.15-.14Z"/>
            <path class="cls-180" d="M68.69,42.2h-17.53c.05.05.11.09.16.14h17.22c.05-.05.11-.09.16-.14Z"/>
            <path class="cls-184" d="M68.53,42.34h-17.22c.05.05.1.09.16.14h16.9c.05-.05.11-.09.16-.14Z"/>
            <path class="cls-6" d="M68.37,42.48h-16.9c.05.05.1.1.16.14h16.59c.05-.05.1-.09.16-.14Z"/>
            <path class="cls-25" d="M68.22,42.63h-16.59c.05.05.1.1.16.14h16.28c.05-.05.1-.1.16-.14Z"/>
            <path class="cls-36" d="M68.06,42.77h-16.28c.06.05.11.1.16.14h15.95c.06-.05.11-.1.16-.14Z"/>
            <path class="cls-47" d="M67.9,42.91h-15.95c.06.05.13.09.19.14h15.57c.06-.05.13-.09.19-.14Z"/>
            <path class="cls-177" d="M67.71,43.05h-15.57c.06.05.13.09.19.14h15.19c.06-.05.13-.09.19-.14Z"/>
            <path class="cls-5" d="M67.52,43.19h-15.19c.06.05.13.1.19.14h14.81c.06-.05.13-.09.19-.14Z"/>
            <path class="cls-8" d="M67.33,43.34h-14.81c.06.05.13.1.19.14h14.43c.06-.05.13-.1.19-.14Z"/>
            <path class="cls-87" d="M67.14,43.48h-14.43c.07.05.13.1.2.14h14.04c.07-.05.13-.1.2-.14Z"/>
            <path class="cls-71" d="M66.94,43.62h-14.04c.08.05.16.09.23.14h13.57c.08-.05.16-.09.23-.14Z"/>
            <path class="cls-89" d="M66.71,43.76h-13.57c.08.05.16.09.23.14h13.1c.08-.05.16-.09.23-.14Z"/>
            <path class="cls-19" d="M66.47,43.91h-13.1c.08.05.16.1.23.14h12.63c.08-.05.16-.09.23-.14Z"/>
            <path class="cls-43" d="M66.24,44.05h-12.63c.08.05.15.1.23.14h12.16c.08-.04.16-.1.23-.14Z"/>
            <path class="cls-70" d="M66,44.19h-12.16c.09.05.18.09.28.14h11.61c.09-.05.19-.09.28-.14Z"/>
            <path class="cls-48" d="M65.73,44.33h-11.61c.1.05.2.09.3.14h11.02c.1-.05.2-.09.3-.14Z"/>
            <path class="cls-108" d="M65.43,44.48h-11.02c.1.05.2.1.3.14h10.43c.1-.05.2-.09.3-.14Z"/>
            <path class="cls-102" d="M65.14,44.62h-10.43c.1.05.19.1.3.14h9.84c.1-.04.2-.1.3-.14Z"/>
            <path class="cls-186" d="M64.84,44.76h-9.84c.13.05.26.09.38.14h9.07c.13-.05.26-.09.38-.14Z"/>
            <path class="cls-62" d="M64.46,44.9h-9.07c.13.05.26.1.39.14h8.29c.13-.05.26-.09.39-.14Z"/>
            <path class="cls-189" d="M64.07,45.05h-8.29c.13.05.26.1.39.14h7.51c.13-.04.26-.1.39-.14Z"/>
            <path class="cls-124" d="M63.68,45.19h-7.51c.18.06.37.09.55.14h6.41c.18-.05.37-.09.55-.14Z"/>
            <path class="cls-122" d="M63.13,45.33h-6.41c.18.05.37.1.55.14h5.3c.19-.04.37-.09.55-.14Z"/>
            <path class="cls-80" d="M62.57,45.47h-5.3c.28.06.57.1.86.14h3.59c.29-.04.58-.08.86-.14Z"/>
            <path class="cls-171" d="M58.13,45.62c.59.08,1.18.14,1.79.14s1.21-.06,1.79-.14h-3.59Z"/>
          </g>
          <g>
            <path class="cls-188" d="M78.3,33.55c0,.06.01.12.01.18,0-.06,0-.12,0-.18,0,0,0,0,0,0Z"/>
            <path class="cls-188" d="M78.33,34.28s0-.07.01-.1c-.01-.15-.03-.29-.03-.44,0,.18,0,.36.02.54Z"/>
            <g>
              <path class="cls-4" d="M92.5,21.15c-.64,0-1.27.06-1.89.14h3.78c-.62-.08-1.25-.14-1.89-.14Z"/>
              <path class="cls-46" d="M94.39,21.29h-3.78c-.29.04-.59.08-.88.14h5.53c-.29-.06-.58-.1-.88-.14Z"/>
              <path class="cls-157" d="M95.26,21.43h-5.53c-.21.04-.41.09-.61.14h6.76c-.2-.05-.41-.1-.61-.14Z"/>
              <path class="cls-88" d="M95.88,21.57h-6.76c-.18.04-.36.09-.54.14h7.85c-.18-.05-.36-.09-.54-.14Z"/>
              <path class="cls-58" d="M96.42,21.71h-7.85c-.15.04-.29.09-.43.14h8.71c-.14-.05-.29-.1-.43-.14Z"/>
              <path class="cls-117" d="M96.85,21.85h-8.71c-.14.05-.29.09-.43.14h9.57c-.14-.05-.29-.09-.43-.14Z"/>
              <path class="cls-134" d="M97.29,21.99h-9.57c-.12.04-.24.09-.36.14h10.3c-.12-.05-.24-.09-.36-.14Z"/>
              <path class="cls-3" d="M97.65,22.12h-10.3c-.11.04-.22.09-.33.14h10.96c-.11-.05-.22-.1-.33-.14Z"/>
              <path class="cls-77" d="M97.98,22.26h-10.96c-.11.05-.22.09-.33.14h11.62c-.11-.05-.22-.09-.33-.14Z"/>
              <path class="cls-93" d="M98.31,22.4h-11.62c-.1.05-.21.09-.31.14h12.25c-.1-.05-.21-.09-.31-.14Z"/>
              <path class="cls-90" d="M98.62,22.54h-12.25c-.09.04-.18.09-.26.14h12.78c-.09-.04-.17-.1-.26-.14Z"/>
              <path class="cls-63" d="M98.89,22.68h-12.78c-.09.04-.18.09-.26.14h13.31c-.09-.05-.17-.09-.26-.14Z"/>
              <path class="cls-44" d="M99.15,22.82h-13.31c-.09.05-.18.09-.26.14h13.84c-.09-.05-.18-.09-.26-.14Z"/>
              <path class="cls-194" d="M99.42,22.96h-13.84c-.08.05-.17.09-.26.14h14.35c-.08-.05-.17-.09-.26-.14Z"/>
              <path class="cls-193" d="M99.67,23.1h-14.35c-.07.04-.14.09-.22.14h14.78c-.07-.04-.14-.1-.22-.14Z"/>
              <path class="cls-32" d="M99.89,23.24h-14.78c-.07.04-.14.09-.22.14h15.21c-.07-.05-.14-.09-.22-.14Z"/>
              <path class="cls-133" d="M100.11,23.38h-15.21c-.07.05-.15.09-.22.14h15.65c-.07-.05-.14-.09-.22-.14Z"/>
              <path class="cls-94" d="M100.32,23.52h-15.65c-.07.05-.15.09-.22.14h16.08c-.07-.05-.15-.09-.22-.14Z"/>
              <path class="cls-144" d="M100.54,23.65h-16.08c-.07.05-.13.09-.2.14h16.48c-.07-.05-.13-.09-.2-.14Z"/>
              <path class="cls-30" d="M100.74,23.79h-16.48c-.06.04-.12.09-.18.14h16.84c-.06-.05-.12-.09-.18-.14Z"/>
              <path class="cls-72" d="M100.92,23.93h-16.84c-.06.05-.12.09-.18.14h17.21c-.06-.05-.12-.09-.18-.14Z"/>
              <path class="cls-135" d="M101.1,24.07h-17.21c-.06.05-.12.09-.18.14h17.57c-.06-.05-.12-.09-.18-.14Z"/>
              <path class="cls-168" d="M101.28,24.21h-17.57c-.06.05-.12.09-.18.14h17.93c-.06-.05-.12-.09-.18-.14Z"/>
              <path class="cls-150" d="M101.61,24.47s-.1-.08-.15-.12h-17.93s-.1.08-.15.12c0,0-.01.02-.02.02h18.27s-.01-.02-.02-.02Z"/>
              <path class="cls-145" d="M101.63,24.49h-18.27s-.08.09-.12.14h18.51s-.08-.09-.12-.14Z"/>
              <path class="cls-115" d="M101.75,24.63h-18.51s-.08.09-.12.14h18.75s-.08-.09-.12-.14Z"/>
              <path class="cls-107" d="M101.88,24.77h-18.75s-.08.09-.12.14h19s-.08-.09-.12-.14Z"/>
              <path class="cls-153" d="M102,24.91h-19s-.08.09-.12.14h19.24s-.08-.09-.12-.14Z"/>
              <path class="cls-147" d="M102.12,25.04h-19.24s-.08.09-.12.14h19.48s-.08-.09-.12-.14Z"/>
              <path class="cls-28" d="M102.24,25.18h-19.48s-.08.09-.12.14h19.72s-.08-.09-.12-.14Z"/>
              <path class="cls-106" d="M102.36,25.32h-19.72s-.07.09-.1.14h19.93s-.07-.09-.1-.14Z"/>
              <path class="cls-128" d="M102.46,25.46h-19.93s-.07.09-.1.14h20.13s-.07-.09-.1-.14Z"/>
              <path class="cls-34" d="M102.56,25.6h-20.13s-.07.09-.1.14h20.33s-.07-.09-.1-.14Z"/>
              <path class="cls-12" d="M102.66,25.74h-20.33s-.07.09-.1.14h20.53s-.07-.09-.1-.14Z"/>
              <path class="cls-9" d="M102.76,25.88h-20.53s-.07.09-.1.14h20.73s-.07-.09-.1-.14Z"/>
              <path class="cls-160" d="M102.86,26.02h-20.73s-.07.09-.1.14h20.93s-.07-.09-.1-.14Z"/>
              <path class="cls-103" d="M102.96,26.16h-20.93s-.07.09-.1.14h21.13s-.07-.09-.1-.14Z"/>
              <path class="cls-13" d="M103.06,26.3h-21.13s-.05.09-.08.14h21.29s-.05-.09-.08-.14Z"/>
              <path class="cls-167" d="M103.14,26.43h-21.29s-.05.09-.08.14h21.46s-.05-.09-.08-.14Z"/>
              <path class="cls-15" d="M103.23,26.57h-21.46s-.05.09-.08.14h21.62s-.05-.09-.08-.14Z"/>
              <path class="cls-14" d="M103.31,26.71h-21.62s-.05.09-.08.14h21.78s-.05-.09-.08-.14Z"/>
              <path class="cls-66" d="M103.39,26.85h-21.78s-.05.09-.08.14h21.94s-.05-.09-.08-.14Z"/>
              <path class="cls-139" d="M103.47,26.99h-21.94s-.06.09-.08.14h22.11s-.06-.09-.08-.14Z"/>
              <path class="cls-110" d="M103.55,27.13h-22.11s-.06.09-.08.14h22.27s-.06-.09-.08-.14Z"/>
              <path class="cls-82" d="M103.63,27.27h-22.27s-.05.09-.07.14h22.41s-.05-.09-.07-.14Z"/>
              <path class="cls-97" d="M103.7,27.41h-22.41s-.04.09-.06.14h22.54s-.04-.09-.06-.14Z"/>
              <path class="cls-125" d="M103.77,27.55h-22.54s-.04.09-.06.14h22.67s-.04-.09-.06-.14Z"/>
              <path class="cls-51" d="M103.83,27.69h-22.67s-.04.09-.06.14h22.8s-.04-.09-.06-.14Z"/>
              <path class="cls-84" d="M103.9,27.82h-22.8s-.04.09-.06.14h22.93s-.04-.09-.06-.14Z"/>
              <path class="cls-113" d="M103.96,27.96h-22.93s-.04.09-.06.14h23.06s-.04-.09-.06-.14Z"/>
              <path class="cls-164" d="M104.03,28.1h-23.06s-.04.09-.06.14h23.19s-.04-.09-.06-.14Z"/>
              <path class="cls-109" d="M104.09,28.24h-23.19s-.05.09-.06.14h23.32s-.04-.09-.06-.14Z"/>
              <path class="cls-18" d="M104.16,28.38h-23.32s-.03.09-.05.14h23.42s-.03-.09-.05-.14Z"/>
              <path class="cls-50" d="M104.21,28.52h-23.42s-.03.09-.05.14h23.52s-.03-.09-.05-.14Z"/>
              <path class="cls-105" d="M104.26,28.66h-23.52s-.03.09-.05.14h23.62s-.03-.09-.05-.14Z"/>
              <path class="cls-192" d="M104.31,28.8h-23.62s-.03.09-.05.14h23.72s-.03-.09-.05-.14Z"/>
              <path class="cls-162" d="M104.36,28.94h-23.72s-.03.09-.05.14h23.82s-.03-.09-.05-.14Z"/>
              <path class="cls-119" d="M104.41,29.08h-23.82s-.03.09-.05.14h23.91s-.03-.09-.05-.14Z"/>
              <path class="cls-165" d="M104.46,29.21h-23.91s-.03.09-.05.14h24.01s-.03-.09-.05-.14Z"/>
              <path class="cls-174" d="M104.5,29.35h-24.01s-.03.09-.05.14h24.11s-.03-.09-.05-.14Z"/>
              <path class="cls-155" d="M104.55,29.49h-24.11s-.02.09-.04.14h24.19s-.02-.09-.04-.14Z"/>
              <path class="cls-75" d="M104.59,29.63h-24.19s-.02.09-.03.14h24.26s-.02-.09-.03-.14Z"/>
              <path class="cls-73" d="M104.63,29.77h-24.26s-.02.09-.03.14h24.33s-.02-.09-.03-.14Z"/>
              <path class="cls-61" d="M104.66,29.91h-24.33s-.02.09-.03.14h24.39s-.02-.09-.03-.14Z"/>
              <path class="cls-38" d="M104.7,30.05h-24.39s-.02.09-.03.14h24.46s-.02-.09-.03-.14Z"/>
              <path class="cls-123" d="M104.73,30.19h-24.46s-.02.09-.03.14h24.53s-.02-.09-.03-.14Z"/>
              <path class="cls-21" d="M104.76,30.33h-24.53s-.02.09-.03.14h24.6s-.02-.09-.03-.14Z"/>
              <path class="cls-131" d="M104.8,30.47h-24.6s-.02.09-.03.14h24.67s-.02-.09-.03-.14Z"/>
              <path class="cls-45" d="M104.83,30.6h-24.67s-.02.09-.03.14h24.73s-.02-.09-.03-.14Z"/>
              <path class="cls-27" d="M104.86,30.74h-24.73s-.01.09-.02.14h24.77s-.01-.09-.02-.14Z"/>
              <path class="cls-41" d="M104.88,30.88h-24.77s-.01.09-.02.14h24.81s-.01-.09-.02-.14Z"/>
              <path class="cls-114" d="M104.91,31.02h-24.81s-.01.09-.02.14h24.85s-.01-.09-.02-.14Z"/>
              <path class="cls-79" d="M104.93,31.16h-24.85s-.01.09-.02.14h24.9s-.01-.09-.02-.14Z"/>
              <path class="cls-149" d="M104.95,31.3h-24.9s-.01.09-.02.14h24.94s-.01-.09-.02-.14Z"/>
              <path class="cls-53" d="M104.97,31.44h-24.94s-.01.09-.02.14h24.98s-.01-.09-.02-.14Z"/>
              <path class="cls-69" d="M104.99,31.58h-24.98s-.02.09-.02.14h25.02s-.01-.09-.02-.14Z"/>
              <path class="cls-159" d="M105.01,31.72h-25.02s-.02.09-.02.14h25.06s-.02-.09-.02-.14Z"/>
              <path class="cls-11" d="M105.03,31.86h-25.06s0,.09-.01.14h25.08s0-.09-.01-.14Z"/>
              <path class="cls-23" d="M105.04,31.99h-25.08s0,.09,0,.14h25.1s0-.09,0-.14Z"/>
              <path class="cls-191" d="M105.05,32.13h-25.1s0,.09,0,.14h25.11s0-.09,0-.14Z"/>
              <path class="cls-22" d="M105.05,32.27h-25.11s0,.09,0,.14h25.13s0-.09,0-.14Z"/>
              <path class="cls-100" d="M105.06,32.41h-25.13s0,.09,0,.14h25.14s0-.09,0-.14Z"/>
              <path class="cls-60" d="M105.07,32.55h-25.14s0,.09,0,.14h25.15s0-.09,0-.14Z"/>
              <path class="cls-104" d="M105.07,32.69h-25.15s0,.09,0,.14h25.17s0-.09,0-.14Z"/>
              <path class="cls-151" d="M105.08,32.83h-25.17s0,.09,0,.14h25.18s0-.09,0-.14Z"/>
              <path class="cls-24" d="M105.09,32.97h-25.18s0,.09,0,.14h25.19s0-.09,0-.14Z"/>
              <path class="cls-179" d="M79.9,33.11s0,.03,0,.05c0,.03,0,.06,0,.09h25.19s0-.06,0-.09c0-.02,0-.03,0-.05h-25.19Z"/>
              <path class="cls-190" d="M79.91,33.39h25.18s0-.09,0-.14h-25.19s0,.09,0,.14Z"/>
              <path class="cls-112" d="M79.92,33.52h25.16s0-.09,0-.14h-25.18s0,.09,0,.14Z"/>
              <path class="cls-49" d="M79.92,33.66h25.15s0-.09,0-.14h-25.16s0,.09,0,.14Z"/>
              <path class="cls-76" d="M79.93,33.8h25.13s0-.09,0-.14h-25.15s0,.09,0,.14Z"/>
              <path class="cls-143" d="M79.94,33.94h25.12s0-.09,0-.14h-25.13s0,.09,0,.14Z"/>
              <path class="cls-132" d="M79.95,34.08h25.11s0-.09,0-.14h-25.12s0,.09,0,.14Z"/>
              <path class="cls-7" d="M79.95,34.22h25.09s0-.09,0-.14h-25.11s0,.09,0,.14Z"/>
              <path class="cls-158" d="M79.96,34.36h25.08s0-.09,0-.14h-25.09s0,.09,0,.14Z"/>
              <path class="cls-64" d="M79.97,34.5h25.05s0-.09.01-.14h-25.08s0,.09.01.14Z"/>
              <path class="cls-91" d="M79.99,34.64h25.01s.02-.09.02-.14h-25.05s.02.09.02.14Z"/>
              <path class="cls-95" d="M80.01,34.78h24.97s.02-.09.02-.14h-25.01s.02.09.02.14Z"/>
              <path class="cls-2" d="M80.04,34.91h24.93s.02-.09.02-.14h-24.97s.01.09.02.14Z"/>
              <path class="cls-118" d="M80.06,35.05h24.88s.01-.09.02-.14h-24.93s.01.09.02.14Z"/>
              <path class="cls-59" d="M80.08,35.19h24.84s.01-.09.02-.14h-24.88s.01.09.02.14Z"/>
              <path class="cls-56" d="M80.1,35.33h24.8s.01-.09.02-.14h-24.84s.01.09.02.14Z"/>
              <path class="cls-81" d="M80.12,35.47h24.76s.01-.09.02-.14h-24.8s.01.09.02.14Z"/>
              <path class="cls-187" d="M80.14,35.61h24.71s.01-.09.02-.14h-24.76s.01.09.02.14Z"/>
              <path class="cls-65" d="M80.17,35.75h24.66s.02-.09.03-.14h-24.71s.02.09.03.14Z"/>
              <path class="cls-17" d="M80.2,35.89h24.59s.03-.09.04-.14h-24.66s.03.09.04.14Z"/>
              <path class="cls-142" d="M80.24,36.03h24.52s.03-.09.04-.14h-24.59s.02.09.04.14Z"/>
              <path class="cls-178" d="M80.28,36.17h24.45s.02-.09.04-.14h-24.52s.02.09.04.14Z"/>
              <path class="cls-26" d="M80.31,36.3h24.37s.02-.09.04-.14h-24.45s.02.09.04.14Z"/>
              <path class="cls-127" d="M80.35,36.44h24.3s.02-.09.04-.14h-24.37s.02.09.04.14Z"/>
              <path class="cls-98" d="M80.38,36.58h24.23s.02-.09.04-.14h-24.3s.02.09.04.14Z"/>
              <path class="cls-176" d="M80.42,36.72h24.16s.02-.09.04-.14h-24.23s.02.09.04.14Z"/>
              <path class="cls-35" d="M80.45,36.86h24.09s.02-.09.04-.14h-24.16s.02.09.04.14Z"/>
              <path class="cls-169" d="M80.5,37h24s.03-.09.05-.14h-24.09s.03.09.05.14Z"/>
              <path class="cls-29" d="M80.55,37.14h23.89s.04-.09.05-.14h-24s.04.09.05.14Z"/>
              <path class="cls-154" d="M80.6,37.28h23.79s.04-.09.05-.14h-23.89s.03.09.05.14Z"/>
              <path class="cls-39" d="M80.65,37.42h23.69s.03-.09.05-.14h-23.79s.03.09.05.14Z"/>
              <path class="cls-161" d="M80.7,37.56h23.59s.03-.09.05-.14h-23.69s.03.09.05.14Z"/>
              <path class="cls-42" d="M80.75,37.69h23.49s.03-.09.05-.14h-23.59s.03.09.05.14Z"/>
              <path class="cls-136" d="M80.81,37.83h23.39s.03-.09.05-.14h-23.49s.03.09.05.14Z"/>
              <path class="cls-57" d="M80.86,37.97h23.28s.03-.09.05-.14h-23.39s.03.09.05.14Z"/>
              <path class="cls-54" d="M80.91,38.11h23.17s.04-.09.06-.14h-23.28s.04.09.06.14Z"/>
              <path class="cls-156" d="M80.98,38.25h23.04s.05-.09.07-.14h-23.17s.05.09.07.14Z"/>
              <path class="cls-146" d="M81.05,38.39h22.9s.05-.09.07-.14h-23.04s.05.09.07.14Z"/>
              <path class="cls-130" d="M81.11,38.53h22.77s.05-.09.07-.14h-22.9s.04.09.07.14Z"/>
              <path class="cls-129" d="M81.18,38.67h22.64s.04-.09.07-.14h-22.77s.04.09.07.14Z"/>
              <path class="cls-170" d="M81.25,38.81h22.5s.04-.09.07-.14h-22.64s.04.09.07.14Z"/>
              <path class="cls-152" d="M81.31,38.95h22.37s.04-.09.07-.14h-22.5s.04.09.07.14Z"/>
              <path class="cls-74" d="M81.38,39.08h22.23s.04-.09.07-.14h-22.37s.04.09.07.14Z"/>
              <path class="cls-31" d="M81.46,39.22h22.08s.05-.09.07-.14h-22.23s.05.09.07.14Z"/>
              <path class="cls-67" d="M81.54,39.36h21.92s.06-.09.08-.14h-22.08s.06.09.08.14Z"/>
              <path class="cls-10" d="M81.62,39.5h21.75s.06-.09.08-.14h-21.92s.06.09.08.14Z"/>
              <path class="cls-86" d="M81.71,39.64h21.58s.06-.09.08-.14h-21.75s.06.09.08.14Z"/>
              <path class="cls-166" d="M81.79,39.78h21.41s.06-.09.08-.14h-21.58s.06.09.08.14Z"/>
              <path class="cls-141" d="M81.88,39.92h21.24s.06-.09.08-.14h-21.41s.06.09.08.14Z"/>
              <path class="cls-163" d="M81.96,40.06h21.07s.06-.09.08-.14h-21.24s.05.09.08.14Z"/>
              <path class="cls-172" d="M82.05,40.2h20.9s.05-.09.08-.14h-21.07s.05.09.08.14Z"/>
              <path class="cls-37" d="M82.15,40.34h20.7s.07-.09.1-.14h-20.9s.07.09.1.14Z"/>
              <path class="cls-55" d="M82.25,40.47h20.49s.07-.09.1-.14h-20.7s.07.09.1.14Z"/>
              <path class="cls-16" d="M82.36,40.61h20.28s.07-.09.1-.14h-20.49s.07.09.1.14Z"/>
              <path class="cls-96" d="M82.46,40.75h20.07s.07-.09.1-.14h-20.28s.07.09.1.14Z"/>
              <path class="cls-185" d="M82.57,40.89h19.86s.07-.09.1-.14h-20.07s.07.09.1.14Z"/>
              <path class="cls-111" d="M82.67,41.03h19.66s.07-.09.1-.14h-19.86s.07.09.1.14Z"/>
              <path class="cls-101" d="M82.77,41.17h19.45s.07-.09.1-.14h-19.66s.07.09.1.14Z"/>
              <path class="cls-148" d="M82.9,41.31h19.2s.09-.09.13-.14h-19.45s.09.09.13.14Z"/>
              <path class="cls-99" d="M83.03,41.45h18.94s.09-.09.13-.14h-19.2s.09.09.13.14Z"/>
              <path class="cls-183" d="M83.15,41.59h18.69s.09-.09.13-.14h-18.94s.08.09.13.14Z"/>
              <path class="cls-137" d="M83.28,41.73h18.44s.08-.09.13-.14h-18.69s.08.09.13.14Z"/>
              <path class="cls-182" d="M83.41,41.86h18.19s.08-.09.13-.14h-18.44s.08.09.13.14Z"/>
              <path class="cls-68" d="M83.53,42h17.93s.08-.09.13-.14h-18.19s.08.09.13.14Z"/>
              <path class="cls-83" d="M83.67,42.14h17.65s.09-.09.14-.14h-17.93s.09.09.14.14Z"/>
              <path class="cls-138" d="M83.83,42.28h17.35s.1-.09.15-.14h-17.65s.1.09.15.14Z"/>
              <path class="cls-180" d="M83.98,42.42h17.04c.05-.05.1-.09.15-.14h-17.35s.1.09.15.14Z"/>
              <path class="cls-184" d="M84.13,42.56h16.73c.05-.05.1-.09.15-.14h-17.04c.05.05.1.09.15.14Z"/>
              <path class="cls-6" d="M84.28,42.7h16.43c.05-.04.1-.09.15-.14h-16.73c.05.05.1.09.15.14Z"/>
              <path class="cls-25" d="M84.44,42.84h16.12c.05-.04.1-.09.15-.14h-16.43c.05.05.1.09.15.14Z"/>
              <path class="cls-36" d="M84.61,42.98h15.77c.06-.05.12-.09.18-.14h-16.12c.06.05.12.09.18.14Z"/>
              <path class="cls-47" d="M84.8,43.12h15.4c.06-.05.13-.09.19-.14h-15.77c.06.05.12.09.19.14Z"/>
              <path class="cls-177" d="M84.99,43.26h15.03c.06-.05.12-.09.19-.14h-15.4c.06.05.12.09.19.14Z"/>
              <path class="cls-5" d="M85.17,43.39h14.65c.06-.05.12-.09.19-.14h-15.03c.06.05.12.09.19.14Z"/>
              <path class="cls-8" d="M85.36,43.53h14.28c.06-.04.12-.09.19-.14h-14.65c.06.05.12.1.19.14Z"/>
              <path class="cls-87" d="M85.56,43.67h13.87c.07-.05.14-.09.21-.14h-14.28c.07.05.14.09.21.14Z"/>
              <path class="cls-71" d="M85.79,43.81h13.41c.08-.05.15-.09.23-.14h-13.87c.07.05.15.09.23.14Z"/>
              <path class="cls-89" d="M86.02,43.95h12.95c.08-.05.15-.09.23-.14h-13.41c.08.05.15.09.23.14Z"/>
              <path class="cls-19" d="M86.25,44.09h12.5c.08-.04.15-.09.23-.14h-12.95c.08.05.15.09.23.14Z"/>
              <path class="cls-43" d="M86.48,44.23h12.04c.08-.04.15-.09.23-.14h-12.5c.08.04.15.1.23.14Z"/>
              <path class="cls-70" d="M86.76,44.37h11.47c.09-.05.19-.09.28-.14h-12.04c.09.05.19.09.28.14Z"/>
              <path class="cls-48" d="M87.05,44.51h10.89c.1-.05.19-.09.29-.14h-11.47c.09.05.19.09.29.14Z"/>
              <path class="cls-108" d="M87.34,44.65h10.32c.1-.04.19-.09.29-.14h-10.89c.1.05.19.1.29.14Z"/>
              <path class="cls-102" d="M87.64,44.78h9.72c.1-.04.2-.09.3-.14h-10.32c.1.05.2.1.3.14Z"/>
              <path class="cls-186" d="M88.02,44.92h8.96c.13-.05.26-.09.38-.14h-9.72c.12.05.25.09.38.14Z"/>
              <path class="cls-62" d="M88.4,45.06h8.2c.13-.04.25-.09.38-.14h-8.96c.13.05.25.1.38.14Z"/>
              <path class="cls-189" d="M88.79,45.2h7.41c.13-.04.26-.09.39-.14h-8.2c.13.05.26.1.39.14Z"/>
              <path class="cls-124" d="M89.33,45.34h6.33c.18-.05.36-.08.54-.14h-7.41c.18.05.36.09.54.14Z"/>
              <path class="cls-122" d="M89.87,45.48h5.25c.18-.04.36-.09.54-.14h-6.33c.18.05.36.1.54.14Z"/>
              <path class="cls-80" d="M90.73,45.62h3.55c.29-.04.57-.08.85-.14h-5.25c.28.06.57.1.85.14Z"/>
              <path class="cls-171" d="M92.5,45.76c.6,0,1.19-.06,1.77-.14h-3.55c.58.08,1.17.14,1.77.14Z"/>
            </g>
          </g>
        </g>
        <g id="body">
          <g>
            <path class="cls-33" d="M55.34,70.02c2.1.22,4.12.15,5.85-.25-1.26-4.29-.57-6.89.54-10.54-2.01,4.8-3.59,8.31-6.39,10.79Z"/>
            <path class="cls-33" d="M91.56,60.55c.65,2.44.96,5.87-.02,9.22,1.73.39,3.76.47,5.85.25-2.54-2.25-4.07-5.34-5.83-9.46Z"/>
          </g>
          <path class="cls-33" d="M64.1,70.32c.54.38,1.13.71,1.73,1-1.42-3.99-3.51-11.23-3.94-12.12,1.19,6.12.42,8.98,2.22,11.12Z"/>
          <path class="cls-33" d="M88.72,70.18c1.81-2.28.65-4.48,2.07-10.86-.51,1.23-2.5,8.05-3.87,11.92.78-.33,1.42-.69,1.8-1.06Z"/>
          <path class="cls-116" d="M48.79,18.2c.45-.4.9-.77,1.38-1.12.73-.53,1.48-1,2.26-1.41.26-.14.53-.27.8-.39.54-.25,1.09-.47,1.65-.65.57-.19,1.15-.35,1.73-.48,1.18-.26,2.4-.4,3.61-.4s2.43.13,3.62.4c.57.13,1.15.29,1.72.48.56.19,1.12.41,1.65.66.27.12.54.25.8.39.77.4,1.53.88,2.25,1.4.48.35.94.72,1.38,1.12,1.62,1.45,3,3.21,4.06,5.17.29.53,1.04.53,1.32,0,.5-.93,1.07-1.81,1.71-2.63.32-.41.65-.81,1-1.2l.08-.09c.41-.44.83-.86,1.27-1.26.23-.2.46-.4.69-.59.45-.36.93-.72,1.43-1.04,2.8-1.85,6.02-2.82,9.31-2.82,2.12,0,4.2.4,6.17,1.18.82.32,1.62.72,2.39,1.17.51.3,1,.63,1.48.98.48.35.94.72,1.38,1.12.96.86,1.83,1.85,2.61,2.91-.37-1.66-.87-3.27-1.49-4.79C101.09,6.62,91.99,0,76.3,0c-14.44,0-23.25,7.12-28,15.74-1.09,1.99-1.97,4.06-2.65,6.14.9-1.36,1.94-2.61,3.14-3.69Z"/>
          <path class="cls-92" d="M110.13,50.18v-8.93c-.18,0-.36-.02-.54-.06-.22-.05-.42-.13-.61-.23-2.76,6.97-9.12,11.74-16.48,11.74-6.33,0-11.96-3.62-15.16-9.1-.43-.73-1.52-.74-1.95,0-3.21,5.47-8.85,9.1-15.17,9.1-7.36,0-13.72-4.77-16.48-11.75-.17.09-.35.16-.54.2-.2.05-.41.08-.61.08-.04,0-.07-.01-.11-.01v8.78c0,3.63-2.36,7.34-1.19,11.76,1.46,5.51,7.84,7.59,14.05,8.24,2.81-2.48,4.38-5.98,6.39-10.79.02-.07.14-.1.16-.03.43.89,2.53,8.13,3.94,12.12,3.55,1.75,7.87,2.07,10.45,2.07s7.69-.89,10.65-2.15c1.37-3.88,3.35-10.69,3.87-11.92.03-.13.05-.25.08-.39.02-.07.14-.05.17.01.18.46.36,1.01.51,1.6,1.76,4.13,3.29,7.22,5.83,9.46,6.2-.66,13.09-2.39,13.95-8.02s-1.21-8.3-1.21-11.81Z"/>
        </g>
      </g>
      <g id="fog">
        <g id="right">
          <path class="cls-120" d="M124.42,24.25c.05-.32.09-.64.09-.97,0-3.3-2.7-6-6-6h-8.34c.46.72.81,1.42,1.06,2.11.4,1.1.91,2.88,1.44,5.02-.01-.05-.02-.11-.04-.15h11.79Z"/>
          <path class="cls-20" d="M113.53,28.3c-.03-.17-.07-.34-.1-.51.03.17.07.34.1.51Z"/>
          <path class="cls-20" d="M113.06,26.08c-.03-.12-.05-.22-.08-.34.03.11.05.22.08.34Z"/>
          <path class="cls-20" d="M113.43,27.79c-.12-.58-.25-1.15-.37-1.71.13.55.25,1.12.37,1.71Z"/>
          <path class="cls-20" d="M114.58,34.37c-.01-.09-.02-.18-.04-.27.01.09.02.18.04.27Z"/>
          <path class="cls-20" d="M115.07,39.34c-.01-.26-.03-.53-.05-.8.02.27.04.53.05.8Z"/>
          <path class="cls-20" d="M114.89,37.07c-.02-.24-.05-.48-.07-.72.03.24.05.48.07.72Z"/>
          <path class="cls-20" d="M112.98,25.74c-.11-.46-.21-.91-.32-1.34.11.43.21.88.32,1.34Z"/>
          <path class="cls-52" d="M118.71,31.64c4.6,0,8.38,3.63,8.66,8.16h9.62c4.28,0,7.78-3.5,7.78-7.78s-3.5-7.78-7.78-7.78h-12.57c-.47,2.84-2.94,5.03-5.91,5.03h-4.77c-.06-.33-.13-.65-.2-.98.22,1.09.44,2.22.63,3.36,0,0,0-.01,0-.02h4.55Z"/>
          <path class="cls-181" d="M118.51,29.28c2.97,0,5.45-2.19,5.91-5.03h-11.79s.02.1.04.15c.11.43.21.88.32,1.34.03.11.05.22.08.34.13.55.25,1.12.37,1.71.04.17.07.34.1.51.07.32.13.65.2.98h4.77Z"/>
          <path class="cls-20" d="M114.54,34.1c-.11-.81-.24-1.63-.38-2.44.14.81.26,1.63.38,2.44Z"/>
          <path class="cls-20" d="M114.82,36.35c-.07-.65-.15-1.31-.24-1.98.09.66.17,1.32.24,1.98Z"/>
          <path class="cls-175" d="M127.39,40.32c0-.18-.02-.35-.03-.52h-12.27c0-.15-.02-.31-.03-.46.03.66.06,1.3.06,1.91v2.04h11.72c.34-.93.54-1.93.54-2.98Z"/>
          <path class="cls-20" d="M115.02,38.55c-.03-.49-.08-.98-.12-1.48.05.5.09.99.12,1.48Z"/>
          <path class="cls-85" d="M127.37,39.8c-.27-4.53-4.06-8.16-8.66-8.16h-4.55s0,.01,0,.02c.14.81.26,1.63.38,2.44.01.09.02.18.04.27.09.67.17,1.32.24,1.98.03.24.05.48.07.72.05.5.09.99.12,1.48.02.27.04.53.05.8,0,.15.02.31.03.46h12.27Z"/>
          <path class="cls-78" d="M143.75,43.3h-16.9c-1.22,3.32-4.41,5.71-8.14,5.71h-3.58v1.17c0,.68.35,1.73.71,2.84-.15-.46-.29-.89-.41-1.31h14.72c4.06,0,7.42,3.16,7.74,7.14h5.86c4.28,0,7.78-3.5,7.78-7.78s-3.5-7.78-7.78-7.78Z"/>
          <path class="cls-20" d="M116.21,54.16c-.05-.16-.1-.31-.15-.47.05.15.1.31.15.47Z"/>
          <path class="cls-20" d="M117.04,58.85h0c-.02-1.64-.37-3.14-.76-4.45.39,1.31.74,2.81.76,4.45Z"/>
          <path class="cls-40" d="M126.85,43.3h-11.72v5.71h3.58c3.73,0,6.92-2.39,8.14-5.71Z"/>
          <path class="cls-121" d="M116.68,61.88c-.55,2.03-1.54,3.82-2.84,5.39h16.31c4.28,0,7.78-3.5,7.78-7.78h0c0-.22-.02-.43-.03-.64h-20.85c.01.97-.08,1.98-.36,3.03Z"/>
          <path class="cls-20" d="M116.06,53.69c-.07-.23-.15-.45-.22-.67.07.21.14.44.22.67Z"/>
          <path class="cls-20" d="M116.28,54.41c-.02-.08-.05-.17-.07-.25.03.08.05.16.07.25Z"/>
          <path class="cls-126" d="M130.14,51.71h-14.72c.12.41.26.85.41,1.31.07.22.14.44.22.67.05.15.1.31.15.47.03.08.05.16.07.25.4,1.31.74,2.81.76,4.45h20.85c-.33-3.98-3.68-7.14-7.74-7.14Z"/>
        </g>
        <g id="left">
          <path class="cls-181" d="M39.44,24.3c.5-1.86,1.1-3.5,1.79-4.75.38-.77.8-1.53,1.24-2.27h-4.27c-3.3,0-6,2.7-6,6,0,.33.03.65.09.97h7.16s0,.03-.01.05Z"/>
          <path class="cls-20" d="M39.02,25.97s-.01.05-.02.07c0-.02.01-.05.02-.07Z"/>
          <path class="cls-20" d="M37.62,36.33c-.01.21-.02.42-.03.63.01-.21.02-.42.03-.63Z"/>
          <path class="cls-20" d="M37.79,34.07c0,.06,0,.12-.01.18,0-.06,0-.12.01-.18Z"/>
          <path class="cls-85" d="M38.05,31.67c.24-1.95.56-3.86.96-5.62-.23,1.04-.44,2.12-.62,3.23h-.18c-2.97,0-5.45-2.19-5.91-5.03h-7.4c-4.15,0-7.55,3.29-7.76,7.39h20.92s0,.02,0,.03Z"/>
          <path class="cls-20" d="M37.51,38.54c0,.25-.02.5-.02.76,0-.25.01-.5.02-.76Z"/>
          <path class="cls-20" d="M39.44,24.3c-.15.54-.28,1.1-.41,1.68.13-.58.27-1.14.41-1.68Z"/>
          <path class="cls-52" d="M38.2,29.28h.18c.18-1.11.39-2.2.62-3.23,0-.02.01-.05.02-.07.13-.58.27-1.14.41-1.68,0-.02,0-.03.01-.05h-7.16c.47,2.84,2.94,5.03,5.91,5.03Z"/>
          <path class="cls-20" d="M37.77,34.25c-.06.7-.11,1.39-.16,2.08.04-.69.09-1.38.16-2.08Z"/>
          <path class="cls-20" d="M38.05,31.67c-.1.8-.19,1.6-.26,2.4.07-.8.16-1.6.26-2.4Z"/>
          <path class="cls-20" d="M37.58,36.95c-.03.53-.05,1.06-.07,1.58.02-.52.04-1.05.07-1.58Z"/>
          <path class="cls-40" d="M21.43,43.3h16.04v-2.06c0-.63,0-1.28.02-1.95,0,.17-.01.34-.01.51h-12.59c-4.28,0-7.78-3.5-7.78-7.78,0-.13.01-.26.02-.39h-4.02c-4.78,0-8.68,3.91-8.68,8.68s3.91,8.68,8.68,8.68h.84c.91-3.28,3.93-5.71,7.49-5.71Z"/>
          <path class="cls-175" d="M24.89,39.8h12.59c0-.17.01-.34.01-.51,0-.25.01-.5.02-.76.02-.52.04-1.05.07-1.58.01-.21.02-.42.03-.63.04-.69.09-1.38.16-2.08,0-.06,0-.12.01-.18.07-.8.16-1.6.26-2.4,0,0,0-.02,0-.03h-20.92c0,.13-.02.26-.02.39,0,4.28,3.5,7.78,7.78,7.78Z"/>
          <path class="cls-20" d="M36.31,53.99c-.04.13-.08.26-.12.39.04-.13.08-.26.12-.39Z"/>
          <path class="cls-20" d="M35.78,56.21c-.03.17-.05.34-.07.51.02-.17.05-.35.07-.51Z"/>
          <path class="cls-126" d="M36.84,52.42c.36-1,.64-1.79.64-2.41v-1H13.94c-.18.66-.29,1.35-.29,2.07,0,.22.02.43.03.64h23.4c-.08.22-.16.46-.25.7Z"/>
          <path class="cls-20" d="M35.64,57.27c-.02.18-.03.36-.04.54,0-.18.03-.36.04-.54Z"/>
          <path class="cls-20" d="M36.02,55.03c-.05.2-.09.4-.14.6.04-.21.09-.41.14-.6Z"/>
          <path class="cls-20" d="M36.58,53.15c-.03.1-.07.21-.1.31.03-.1.07-.21.1-.31Z"/>
          <path class="cls-78" d="M37.47,43.3h-16.04c-3.56,0-6.57,2.43-7.49,5.71h23.53v-5.71Z"/>
          <path class="cls-20" d="M35.7,56.72c-.02.18-.04.36-.06.55.02-.19.03-.37.06-.55Z"/>
          <path class="cls-140" d="M35.59,58.85h-14.16c-4.06,0-7.42-3.16-7.74-7.14h-5.91c-4.28,0-7.78,3.5-7.78,7.78h0c0,4.28,3.5,7.78,7.78,7.78h31.1c-1.3-1.57-2.29-3.37-2.83-5.41-.39-1.48-.49-2.82-.44-4.04-.02.34-.02.68,0,1.04Z"/>
          <path class="cls-20" d="M36.84,52.42c-.08.23-.17.48-.26.73.09-.25.17-.5.26-.73Z"/>
          <path class="cls-20" d="M35.89,55.63c-.04.19-.08.38-.11.58.03-.2.07-.39.11-.58Z"/>
          <path class="cls-20" d="M36.48,53.46c-.06.17-.11.35-.17.53.06-.18.11-.36.17-.53Z"/>
          <path class="cls-20" d="M36.19,54.39c-.06.21-.11.42-.17.64.05-.22.11-.43.17-.64Z"/>
          <path class="cls-121" d="M21.43,58.85h14.16c-.01-.36,0-.7,0-1.04,0-.19.03-.36.04-.54.02-.19.03-.37.06-.55.02-.17.05-.35.07-.51.03-.2.07-.39.11-.58.04-.21.09-.41.14-.6.05-.22.11-.43.17-.64.04-.13.08-.26.12-.39.06-.18.11-.36.17-.53.03-.11.07-.21.1-.31.09-.25.17-.5.26-.73.09-.25.17-.48.25-.7H13.69c.33,3.98,3.68,7.14,7.74,7.14Z"/>
        </g>
      </g>
    </g>
  </g>
</svg>