<?xml version="1.0" encoding="UTF-8"?>
<svg id="Layer_2" data-name="Layer 2" xmlns="http://www.w3.org/2000/svg" viewBox="0 0 562.95 562.95">
  <defs>
    <style>
      .cls-1 {
        fill: #00a39b;
      }

      .cls-2 {
        fill: #91c7c4;
      }

      .cls-3 {
        fill: #faf8fe;
      }

      .cls-4 {
        fill: #eeb569;
      }
    </style>
  </defs>
  <g id="for_export" data-name="for export">
    <g>
      <path class="cls-3" d="M281.48,0h0C436.83,0,562.95,126.13,562.95,281.48h0c0,155.35-126.13,281.48-281.48,281.48h0C126.12,562.95,0,436.83,0,281.48H0C0,126.12,126.12,0,281.48,0Z"/>
      <rect class="cls-1" x="262.72" y="377.94" width="41.16" height="41.16" rx="15.78" ry="15.78"/>
      <path class="cls-1" d="M275.91,161.51c16.39,0,29,.47,39.41,1.14-1.56-15.18-8.54-26.88-17.55-26.88h-28.94c-9.06,0-16.06,11.84-17.57,27.15,6.8-.9,14.64-1.36,23.83-1.41.27,0,.55,0,.83,0Z"/>
      <path class="cls-4" d="M305.43,326.12l-1.46,18.1c5.73,1.31,10.91,2.38,15.02,3.2,5.33,1.05,10.58-2.05,11.6-6.84l.11-.54c.97-4.59-2.31-9.04-7.41-10.05-4.74-.94-10.97-2.24-17.79-3.85h0s-.05-.01-.07-.02Z"/>
      <path class="cls-4" d="M311.83,227.4l-1.36,18.26c2.92.84,5.67,1.78,8.09,2.86,8.65,3.86,9.74,7.74,9.63,11.35-.05,1.59-.14,4.56-8.3,7.08-3.31,1.02-7.17,1.7-11.14,2.2-2.33.29-4.71.52-7.03.7-2.32.19-4.59.34-6.72.48-4.22.28-7.88.52-10.99.96-1.87.27-3.53.6-5,1.06-.37.12-.79.23-1.27.35s-1.01.24-1.57.36c-.28.06-.57.12-.87.18-.89.19-1.85.38-2.83.57-.54.11-1.09.22-1.64.33-2.79.56-5.81,1.2-8.9,2.03-1.24.33-2.48.7-3.73,1.11-2.88.94-5.78,2.09-8.55,3.56-9.95,5.27-15.75,13.44-16.77,23.64-.83,8.31,5.15,15.86,17.79,22.45,3.32,1.73,7.2,3.45,11.59,5.15l-.67-7.34c-.23-3.12-.86-7.69-1.32-13.45h0c-.16-.09-.34-.18-.49-.26-5.83-3.18-5.92-11.61-.07-14.76.04-.02.09-.05.14-.07,4.83-2.56,11.27-3.83,16.95-4.96,3.21-.64,6.25-1.24,8.85-2.05,1.49-.45,6.88-.8,10.82-1.06,9.04-.59,20.29-1.33,29.94-4.31,17.57-5.41,21.53-15.74,21.76-23.46.46-15.14-10.99-23.47-20.67-27.79-4.77-2.13-10.07-3.77-15.5-5.12h0s0,0,0,0c-.05-.01-.11-.02-.16-.04Z"/>
      <path class="cls-4" d="M363.91,182.13c-4.99-2.4-8.82-4.62-9.74-5.89-5.36-4.75-7.56-8.91-25.51-12.54-4.07-.38-8.47-.74-13.34-1.05-10.41-.67-23.02-1.14-39.41-1.14-.28,0-.55,0-.83,0-9.19.04-17.03.5-23.83,1.41-5.73.76-10.72,1.84-15.13,3.26-21.14,6.81-24.3,20.49-24.3,28.03,0,13.8,7.78,24.65,23.12,32.26,6.29,3.12,13.36,5.43,20.33,7.28l-1.43-19.19s-.06-.02-.09-.03h0c-3.23-1.07-6.31-2.27-9.11-3.66-11.38-5.65-12.84-11.87-12.84-16.66,0-4.01,0-14.66,43.38-14.86.24,0,.49,0,.73,0,22.16,0,43.94,16.46,72.1,19.39,10.29,1.07,19.99-1.55,20.42-6.02.8-8.27-4.52-10.59-4.52-10.59ZM339.42,185.82c-3.13,0-5.67-2.54-5.67-5.67s2.54-5.67,5.67-5.67,5.67,2.54,5.67,5.67-2.54,5.67-5.67,5.67Z"/>
      <path class="cls-2" d="M364.54,88.76h-162.14c-61.56,0-111.65,50.09-111.65,111.65v162.14c0,61.56,50.09,111.65,111.65,111.65h162.14c61.56,0,111.65-50.09,111.65-111.65v-162.14c0-61.56-50.09-111.65-111.65-111.65ZM451.56,362.54c0,23.13-9.08,44.96-25.57,61.45-16.49,16.49-38.31,25.57-61.45,25.57h-162.14c-23.13,0-44.96-9.08-61.45-25.57-16.49-16.49-25.57-38.31-25.57-61.45v-162.14c0-23.13,9.08-44.96,25.57-61.45,16.49-16.49,38.31-25.57,61.45-25.57h162.14c23.13,0,44.96,9.08,61.45,25.57,16.49,16.49,25.57,38.31,25.57,61.45v162.14Z"/>
      <path class="cls-1" d="M253.84,214.56l1.43,19.19,1.84,24.63c.04.57.18,1.12.37,1.65l.7,17.25c1.25-.41,2.5-.77,3.73-1.11,3.09-.84,6.11-1.47,8.9-2.03.56-.11,1.11-.22,1.64-.33.98-.19,1.94-.38,2.83-.57.3-.06.59-.12.87-.18.56-.12,1.09-.24,1.57-.36s.91-.24,1.27-.35c1.47-.46,3.13-.8,5-1.06,3.11-.44,6.77-.68,10.99-.96,2.13-.14,4.4-.29,6.72-.48,2.32-.19,4.7-.41,7.03-.7l.37-9.01c.22-.56.37-1.15.42-1.75l.95-12.72,1.36-18.26c.05.01.11.02.16.04h0s1.2-18.22,1.2-18.22l.33-4.48c.02-.27.02-.54.01-.8v-.09c.32-4.73-3.13-8.9-7.84-9.44-10.82-1.25-22.19-2.18-32.12-2.18-.24,0-.48,0-.72,0-4.29.02-8.14.14-11.61.36-4.92.3-8.64,4.57-8.32,9.48l.17,2.64s0,.03,0,.04l.02.23.63,9.56h0s.06.02.09.03Z"/>
      <path class="cls-1" d="M262.25,332.08l1.93,21.05c.03.45.11.89.21,1.33.83,5.17,5.67,9.13,11.19,9.13h15.45c.92,0,1.82-.12,2.68-.33,2.69-.45,5.65-1.83,7.89-6.1,1.1-2.09,1.69-4.42,1.88-6.77l.5-6.16,1.46-18.1s.05.01.07.02h0l.34-5.12h0v-.02l.92-13.94c.24-3.72-3.22-6.75-7.32-6.43-1.93.15-3.8.27-5.58.39-3.89.26-9.21.61-10.68,1.06-2.56.82-5.56,1.42-8.73,2.05-3.08.62-6.38,1.28-9.52,2.18-2.52.72-4.31,2.67-4.67,4.97h0c.46,5.77,1.08,10.34,1.32,13.45l.67,7.34Z"/>
    </g>
  </g>
</svg>