<?xml version="1.0" encoding="UTF-8"?>
<svg id="Layer_2" data-name="Layer 2" xmlns="http://www.w3.org/2000/svg" viewBox="0 0 562.95 562.95">
  <defs>
    <style>
      .cls-1 {
        fill: #1e1d21;
      }

      .cls-2 {
        fill: #fff;
      }

      .cls-3 {
        fill: #faf8fe;
      }
    </style>
  </defs>
  <g id="for_export" data-name="for export">
    <g>
      <path class="cls-3" d="M281.48,0h0C436.83,0,562.95,126.13,562.95,281.48h0c0,155.35-126.13,281.48-281.48,281.48h0C126.12,562.95,0,436.83,0,281.48H0C0,126.12,126.12,0,281.48,0Z"/>
      <g>
        <path class="cls-1" d="M458.25,278.9c-3.59-.25-6.3-3.06-6.3-6.3s2.71-6.05,6.3-6.3l41.83-2.88c-9.09-109.95-100.17-197.57-211.54-201.14l-.77,40.49c-.25,3.59-3.06,6.3-6.3,6.3h0c-3.24,0-6.05-2.71-6.3-6.3l-.76-40.49c-111.22,3.57-202.21,90.96-211.5,200.71l48.13,3.32c3.59.25,6.3,3.06,6.3,6.3s-2.71,6.05-6.3,6.3l-48.91,3.37c.41,117.41,94.3,213.85,210.74,218.4l2.97-43.04c.25-3.59,3.06-6.3,6.3-6.3s6.05,2.71,6.3,6.3l2.96,42.99c115.98-5.23,209.26-101.62,209.44-218.79l-42.58-2.94Z"/>
        <g>
          <path class="cls-2" d="M313.36,313.85c-5.13-1.06-19.83-1.42-32.6-1.44-12.78-.02-20.53.69-27.02,1.65-6.49.97-20.37,2.31-24.53,33.44-1.89,14.19,11.47,26.17,14.55,29.9,3.08,3.74,7.92,9.87,9.24,12.53.72,1.46,2.51,3.56,7.23,5.21,3.9,1.36,9.79,2.41,18.76,2.53,9.81.13,15.3-.13,19.09-1.2,3.88-1.09,5.98-3.04,9.1-6.27,6.17-6.41,10.77-11.7,15.18-15.97,4.41-4.27,13.68-16.88,11.26-31.27-1.59-9.43-12.33-27.47-20.27-29.12ZM260.61,363.43c-4.79,0-8.67-3.88-8.67-8.67s3.88-8.67,8.67-8.67,8.67,3.88,8.67,8.67-3.88,8.67-8.67,8.67ZM302.39,363.43c-4.79,0-8.67-3.88-8.67-8.67s3.88-8.67,8.67-8.67,8.67,3.88,8.67,8.67-3.88,8.67-8.67,8.67Z"/>
          <path class="cls-2" d="M390.35,255.41c-.68-29.04-31.57-33.78-39.12-34.63-5.7-.64-13.22-1.58-23.04-1.6-6.38-.01-17.03-1.48-23.3,3.73-1.09.91-2.7-.13-2.33-1.5.19-.71.46-1.32.81-1.84,4.16-6.09,8.63-7.11,15.65-7.72,5.71-.41,10.57.37,12.3,1.1.07.03.41.16.49.16.69,0,1.32-2.87,1.59-3.5h0c.43-.98.72-2.02.86-3.08,1.52-11.6-3.34-14.65-9.21-20.66-1.45-1.49-2.97-3.02-4.47-4.71-4.78-5.37-13.14-25.01-19.89-37.91-.84-1.6-3.27-.93-3.18.88,0,0,.37,79.05.58,107.57,0,.01,0,.03,0,.04-1.47,4.9-4.45,5.84-11.56,5.84-9.01,0-16.32.03-22.3.2-.1,0-.15-.1-.1-.18.33-.54.53-1.18.54-1.88v-111.04c.06-2.42-3.2-3.25-4.29-1.09-2.24,4.44-4.8,9.31-6.47,11.78-6.24,9.25-8.99,17.32-19.49,25.45-.87.67-1.82,1.28-2.82,1.86-19.78,11.47-61.73,7.74-61.7,44.85.02,29.04,31.57,33.78,39.12,34.63,5.43.61,10.21,1.88,19.27,1.68.31,0,.61-.17.79-.42,2.57-3.57,5.37-5.61,7.15-6.76,2.47-1.58,2.8-3.02,8.64-3.86,3.77-.54,6.87.86,9.36,2.5,1.33.88.85,2.94-.73,3.1-7.52.75-11.7,2.17-14.5,4.88-2.26,2.19-3.62,5.2-5.13,9.38,0,0,0,.02,0,.02-2.23,13.77,3.22,18.34,9.12,29.21,1.85,3.4,1.56,6.64,4.28,6.64,0,0,21.2-4.64,34.19-4.61,12.76.02,33.76,4.41,34.5,4.57.02,0,.02,0,.04,0,.29-.05,3.02-1.23,9.81-6.37,18.26-13.81,65.8,7.82,64.52-46.71Z"/>
          <path class="cls-2" d="M392.97,354.37l-58.06-50.04c-2.13.63-3.99,1.45-5.47,2.57-3.11,2.35-5.46,3.97-7.27,5.09,3.47,2.89,6.47,6.79,8.71,10.2,4.42,6.72,7.73,14.29,8.66,19.78.27,1.62.42,3.21.46,4.79l40.03,24.95c4.22,3.15,10.55,1.94,14.11-2.8.03-.04.05-.07.08-.11.03-.04.05-.07.08-.11,3.52-4.77,2.88-11.18-1.34-14.32Z"/>
        </g>
        <circle cx="260.61" cy="355.39" r="10.39"/>
        <circle cx="302.39" cy="355.39" r="10.39"/>
      </g>
    </g>
  </g>
</svg>