<?xml version="1.0" encoding="UTF-8"?>
<svg id="Layer_2" data-name="Layer 2" xmlns="http://www.w3.org/2000/svg" viewBox="0 0 562.95 562.95">
  <defs>
    <style>
      .cls-1 {
        fill: #007d77;
      }

      .cls-2 {
        fill: #fff;
      }

      .cls-3 {
        fill: #00a39b;
      }

      .cls-4 {
        fill: #faf8fe;
      }
    </style>
  </defs>
  <g id="for_export" data-name="for export">
    <g id="DRAFT_04-C" data-name="DRAFT 04-C">
      <path class="cls-4" d="M281.48,0h0C436.83,0,562.95,126.13,562.95,281.48h0c0,155.35-126.13,281.48-281.48,281.48h0C126.12,562.95,0,436.83,0,281.48H0C0,126.12,126.12,0,281.48,0Z"/>
      <g id="DRAFT_04-C-2" data-name="DRAFT 04-C">
        <g id="the_CL0CK" data-name="the CL0CK">
          <circle class="cls-3" cx="280.84" cy="318.75" r="159.22"/>
          <path class="cls-1" d="M107.37,240.75c21.1-46.13,60.05-82.99,108.87-100.73-1.33-2.18-2.84-4.26-4.59-6.19-20.25-22.28-69.9-25.97-100.57,1.91-30.67,27.88-30.76,76.78-10.51,99.05,2.06,2.26,4.34,4.24,6.8,5.95Z"/>
          <path class="cls-1" d="M455.84,238.97c-21.74-45.83-61.19-82.15-110.26-99.21,1.3-2.2,2.78-4.3,4.5-6.25,19.94-22.56,70.47-30.18,101.53-2.73,31.06,27.45,30.88,79.59,10.94,102.14-2.03,2.29-4.28,4.3-6.71,6.05Z"/>
          <path class="cls-3" d="M254.13,124.54h11.81c.54,0,.99.44.99.99v4.27c0,.57.47,1.01,1.04.98,4.44-.26,8.89-.43,13.39-.43,4.14,0,8.26.14,12.35.36.56.03,1.03-.41,1.03-.98v-4.2c0-.54.44-.99.99-.99h12.86c5.31,0,9.66-4.35,9.66-9.66v-20.24c0-5.31-4.35-9.66-9.66-9.66h-54.45c-5.31,0-9.66,4.35-9.66,9.66v20.24c0,5.31,4.35,9.66,9.66,9.66Z"/>
        </g>
        <g>
          <g>
            <path class="cls-2" d="M276.24,351.76c3.83-1.12,9.04-1.44,15.65-1.85,2.84-.17,5.93-.36,9.06-.64,1.75-.15,3.1-1.34,3.18-2.8l.9-16.06c.12-2.06-1.51-3.91-3.91-4.43-4.89-1.06-10.01-1.93-14.82-2.75-4.13-.7-8.03-1.37-11.7-2.12-1.62-.33-3.32-.67-5.07-1.01-.02,0-.04,0-.06-.01-2.88-.57-5.61,1.32-5.48,3.78l1.49,26.49c.1,1.83,2.16,3.14,4.31,2.74.01,0,.03,0,.04,0,2.55-.47,4.97-.92,6.4-1.34Z"/>
            <path class="cls-2" d="M287.38,395.72h-9.56c-5,0-9.5,2.24-12.56,5.75,5.41,2.36,12.54,5.02,21.93,7.88,5.82,1.77,11.6,3.34,16.86,4.68v-1.65c0-9.17-7.5-16.67-16.67-16.67Z"/>
            <path class="cls-2" d="M280.09,424.4c-6.21-1.97-11.83-3.99-16.85-6.03v1c0,9.17,7.5,16.67,16.67,16.67h9.56c4.88,0,9.29-2.13,12.35-5.5-6.67-1.69-14.19-3.75-21.73-6.14Z"/>
            <path class="cls-2" d="M274.07,374.73c-1.25.28-2.53.56-3.83.87-1.15.27-1.48,1.73-.59,2.5,3.32,2.88,8.85,4.76,15.04,4.76h0c9.82,0,18-4.72,18.28-10.71h0c.04-.87-.7-1.58-1.57-1.5-2.82.27-5.54.47-8.09.66-3.85.28-9.13.67-10.59,1.16-2.54.89-5.51,1.55-8.66,2.25Z"/>
            <path class="cls-2" d="M259.92,230.41c3.86-.25,8.01-.39,12.49-.42.27,0,.54,0,.81,0,11.37,0,24.21,1.2,36.15,2.77l.79-16.83c.56-12.04-10.82-22.21-25.46-22.21h0c-14.63,0-26.02,10.16-25.46,22.21l.68,14.48Z"/>
          </g>
          <g>
            <path class="cls-2" d="M326.73,420.83c-.99,5.25-6.13,8.65-11.35,7.49-8.61-1.9-21.92-5.11-35.28-9.35-13.3-4.22-23.93-8.63-31.59-13.1-12.37-7.21-18.22-15.49-17.41-24.6,1-11.17,6.67-20.13,16.41-25.9,7.41-4.4,15.69-6.23,22.33-7.71,2.55-.57,4.97-1.1,6.4-1.61,3.83-1.35,9.04-1.73,15.65-2.22,7.72-.57,17.32-1.28,24.36-3.7,7.99-2.76,8.08-6.01,8.13-7.76.11-3.96-.96-8.21-9.42-12.44-7.76-3.88-18.86-6.15-28.65-8.16-4.13-.84-8.03-1.64-11.7-2.54-1.62-.4-3.32-.8-5.07-1.22-11.17-2.65-25.07-5.95-36.41-12.25-15.01-8.34-22.62-20.24-22.62-35.36,0-8.27,3.09-23.25,23.78-30.72,9.43-3.4,21.55-5.03,38.12-5.11.27,0,.54,0,.81,0,23.54,0,53.43,5.15,68.48,8.07,5.23,1.02,8.6,6.14,7.45,11.35l-.13.59c-1.11,5.02-6.01,8.24-11.05,7.27-14.39-2.78-43.06-7.73-64.74-7.73-.24,0-.48,0-.72,0-42.45.22-42.45,11.89-42.45,16.28,0,5.25,1.43,12.08,12.57,18.26,8.98,4.99,20.9,7.82,31.43,10.32,1.8.43,3.55.84,5.22,1.25,3.3.81,7.01,1.57,10.95,2.38,10.98,2.25,23.42,4.79,33.48,9.82,9.47,4.74,20.67,13.87,20.22,30.46-.23,8.46-4.11,19.79-21.3,25.71-9.45,3.26-20.46,4.07-29.3,4.72-3.85.28-9.13.67-10.59,1.16-2.54.89-5.51,1.55-8.66,2.25-5.56,1.23-11.87,2.63-16.59,5.44-.04.03-.09.05-.13.08-6.07,3.66-5.99,12.48.06,16.17,5.41,3.3,14.98,7.78,31.87,12.93,11.47,3.5,22.78,6.21,30.3,7.87,5,1.11,8.21,5.99,7.26,11.02l-.11.59Z"/>
            <path class="cls-2" d="M308.13,263.53c.18-3.51-2.69-6.55-6.58-6.97-9.65-1.03-19.56-1.75-28.33-1.75-.24,0-.48,0-.72,0-1.39,0-2.73.02-4.03.05-4.2.09-7.49,3.25-7.3,7.01l1.34,25.64c.05,1.02.36,1.98.87,2.84-.66,2.11-1.03,4.14-.99,5.45l2.39,42.25c.59,3.28,2.92,5.82,6.43,5.82h27.45c3.52,0,5.84-3.12,5.95-6.4l2.39-48.65c.02-.54-.03-1.06-.12-1.57l1.24-23.73Z"/>
          </g>
        </g>
      </g>
    </g>
  </g>
</svg>