<?xml version="1.0" encoding="UTF-8"?>
<svg id="Layer_2" data-name="Layer 2" xmlns="http://www.w3.org/2000/svg" viewBox="0 0 562.95 562.95">
  <defs>
    <style>
      .cls-1 {
        fill: #faf8fe;
      }
    </style>
  </defs>
  <g id="for_export" data-name="for export">
    <g>
      <path class="cls-1" d="M281.48,0h0C436.83,0,562.95,126.13,562.95,281.48h0c0,155.35-126.13,281.48-281.48,281.48h0C126.12,562.95,0,436.83,0,281.48H0C0,126.12,126.12,0,281.48,0Z"/>
      <g id="DRAFT_03_BRIAN_DRAFT" data-name="DRAFT 03 BRIAN DRAFT">
        <path d="M451.3,162.41c5.87,30.42-17.22,62.28-31.01,76.71-14.62,15.28-65.29,52.16-109.74,86.65l5.61,30.19c63.26-12.35,115.97-9.72,145.08,12.16,2.54,1.9,4.68,4.06,6.42,6.4,13.22-27.82,20.62-58.94,20.62-91.79,0-44.61-13.64-86.03-36.98-120.32Z"/>
        <path d="M355.17,204.91c21.83-21.98-25.39-24.35-69.88-14.89l12.78,68.69c25.56-23.46,49.58-46.23,57.1-53.8Z"/>
        <path d="M270.73,111.78c32.32-5.8,67.35-8.42,102.02-4.34,13.5,1.59,26.34,4.99,37.75,10.18-37.03-30.62-84.54-49.02-136.35-49.02-3.83,0-7.63.1-11.4.3-9.47.5-18.77,1.61-27.87,3.3-67.04,12.43-123.11,56.1-152.57,115.33,12.15-8.45,33.01-22.25,52.03-31.31,16.38-7.79,57.58-26.29,108.98-38.67l14.88,79.97c8.46-2.98,17.71-5.5,27.09-7.5l-14.56-78.24Z"/>
        <path d="M371.07,401.83c-3.35-5.73-18.84-1.03-36.52,2.82-2.19.48-5.27,1.05-9.03,1.59l-9.36-50.28c-3.62.7-7.27,1.46-10.95,2.26-5.51,1.2-10.94,3-16.11,5.32l8.33,44.79c-5,.04-10.21-.12-15.45-.54-18.36-1.48-32.12-8.83-20.48-23.51,6.83-8.61,16.62-15.83,27.6-20.74l-3.38-18.18c-13.99,11.29-26.26,21.74-35.06,30.35-8.75,8.57-23.19,31.36,10.64,43.3,11.02,3.9,24.77,4.59,38.77,3.46,9.36-.75,18.84-2.32,27.68-4.27,24.81-5.48,44.69-14.03,43.32-16.37Z"/>
        <g>
          <path d="M406.54,451.04c-16.47,6.82-36.85,13.23-62.1,18.74-2.31.5-4.58.98-6.83,1.44l2.83,15.18c24.21-7.87,46.53-19.95,66.1-35.36Z"/>
          <path d="M313.25,493.3c-7.14,1.32-14.4,2.28-21.77,2.87-3.31.27-6.65.46-10,.56-2.43.09-4.88.13-7.33.13-118.26,0-214.13-95.87-214.13-214.13,0-29.61,6.01-57.81,16.88-83.46,47.58,38.09,127.68,18.61,177.28-.28,1.32-.5,2.66-.99,4.02-1.47l15.5,83.29c-17.67,15.82-33.73,29.66-42.92,36.41-3.84,2.82-7.67,5.67-11.31,8.66-29.59,24.22-47.41,47.18-54.47,68.97-12.25,37.81,15.01,73.1,60.63,81.44,14.79,2.7,33.17,4.02,55.85,2.64,3.24-.2,6.57-.45,10-.76,5.91-.54,12.09-1.25,18.55-2.16l3.22,17.29Z"/>
        </g>
        <circle cx="144.08" cy="175.66" r="11.74"/>
        <g id="BRIAN_DRAFT" data-name="BRIAN DRAFT">
          <path class="cls-1" d="M103.67,303.76h-59.38c-2.76,0-5-2.24-5-5s2.24-5,5-5h59.38c2.76,0,5,2.24,5,5s-2.24,5-5,5Z"/>
          <path class="cls-1" d="M505.75,303.76h-59.38c-2.76,0-5-2.24-5-5s2.24-5,5-5h59.38c2.76,0,5,2.24,5,5s-2.24,5-5,5Z"/>
          <path class="cls-1" d="M257.52,91.99v-59.38c0-2.76,2.24-5,5-5s5,2.24,5,5v59.38c0,2.76-2.24,5-5,5s-5-2.24-5-5Z"/>
          <path d="M291.48,464.91v31.26c-3.31.27-6.65.46-10,.56v-31.82c0-2.77,2.24-5,5-5s5,2.23,5,5Z"/>
          <path class="cls-1" d="M62.54,353.75c-.35-.15-.65-.43-.81-.81-.32-.77.05-1.64.82-1.96l18.03-7.42c.77-.32,1.64.05,1.96.82s-.05,1.64-.82,1.96l-18.03,7.42c-.38.16-.79.15-1.15,0Z"/>
          <path class="cls-1" d="M130.27,454.77c-.38.05-.78-.05-1.11-.3-.66-.51-.78-1.45-.27-2.1l11.9-15.44c.51-.66,1.45-.78,2.1-.27s.78,1.45.27,2.1l-11.9,15.44c-.25.33-.61.52-1,.57Z"/>
        </g>
      </g>
    </g>
  </g>
</svg>