<?xml version="1.0" encoding="UTF-8"?>
<svg id="Layer_2" data-name="Layer 2" xmlns="http://www.w3.org/2000/svg" viewBox="0 0 562.95 562.95">
  <defs>
    <style>
      .cls-1 {
        fill: #8ec1b9;
      }

      .cls-2 {
        fill: #fff4db;
      }

      .cls-3 {
        fill: #eea23c;
      }

      .cls-4 {
        fill: #30363a;
      }

      .cls-5 {
        fill: #698f89;
      }

      .cls-6 {
        fill: #fff;
      }

      .cls-7 {
        fill: #ffcd5f;
      }

      .cls-8 {
        fill: #ffefcc;
      }

      .cls-9 {
        fill: #fff7e6;
      }

      .cls-10 {
        fill: #faf8fe;
      }

      .cls-11 {
        fill: #eeb569;
      }
    </style>
  </defs>
  <g id="for_export" data-name="for export">
    <g>
      <g>
        <path class="cls-4" d="M281.48,560.95c-74.65,0-144.83-29.07-197.62-81.86S2,356.13,2,281.48,31.07,136.64,83.86,83.86C136.64,31.07,206.83,2,281.48,2s144.83,29.07,197.62,81.86c52.79,52.79,81.86,122.97,81.86,197.62s-29.07,144.84-81.86,197.62-122.97,81.86-197.62,81.86h0Z"/>
        <path class="cls-10" d="M281.48,4c37.46,0,73.8,7.34,108,21.8,33.04,13.98,62.72,33.98,88.2,59.47,25.48,25.48,45.49,55.16,59.47,88.2,14.47,34.21,21.8,70.54,21.8,108.01s-7.34,73.8-21.8,108c-13.98,33.04-33.98,62.72-59.47,88.2-25.48,25.48-55.16,45.49-88.2,59.47-34.21,14.47-70.54,21.8-108.01,21.8s-73.8-7.34-108.01-21.8c-33.04-13.98-62.72-33.98-88.2-59.47-25.48-25.48-45.49-55.16-59.47-88.2-14.47-34.21-21.8-70.54-21.8-108.01s7.34-73.8,21.8-108.01c13.98-33.04,33.98-62.72,59.47-88.2,25.48-25.48,55.16-45.49,88.2-59.47,34.21-14.47,70.54-21.8,108.01-21.8h0M281.48,0h0C126.02,0,0,126.02,0,281.48h0c0,155.46,126.02,281.48,281.48,281.48h0c155.45,0,281.48-126.02,281.48-281.48h0C562.95,126.02,436.93,0,281.48,0h0Z"/>
      </g>
      <g>
        <g id="wing">
          <rect class="cls-8" x="104.7" y="236.32" width="142.6" height="36.1" rx="18.05" ry="18.05" transform="translate(352.01 508.74) rotate(180)"/>
          <rect class="cls-2" x="75.2" y="203.56" width="159.5" height="36.1" rx="18.05" ry="18.05" transform="translate(309.9 443.21) rotate(-180)"/>
          <path class="cls-9" d="M254.99,203.39c-.51-4.4-2.02-8.56-4.42-12.01-5.6-8.08-17.47-21.28-35.6-22.03-23.84-.99-153.7-.18-177.19-.02-2.39.02-4.26,2.47-3.88,5.2.53,3.8,2.55,9.56,8.8,16.81,11.75,13.61,10.6,15.27,26.36,14.94,15.11-.32,108.47-1.5,117.64-1.35,9.68.16,14.54.62,19.09,1.62,2.13.47,8.71,3.58,12.55,8.03,4.58,5.31,27.78,85.21,32.94,89.19.05.04,12.72,0,12.78,0,4.93-.48,8.21-1.12,6.85-6.52-1.09-4.34-3.41-9.51-5-16.27-3.51-14.93-9.03-61.2-10.92-77.58Z"/>
        </g>
        <g id="wing-2" data-name="wing">
          <rect class="cls-8" x="315.1" y="236.32" width="142.6" height="36.1" rx="18.05" ry="18.05"/>
          <rect class="cls-2" x="327.7" y="203.56" width="159.5" height="36.1" rx="18.05" ry="18.05"/>
          <path class="cls-9" d="M307.42,203.39c.51-4.4,2.02-8.56,4.42-12.01,5.6-8.08,17.47-21.28,35.6-22.03,23.84-.99,153.7-.18,177.19-.02,2.39.02,4.26,2.47,3.88,5.2-.53,3.8-2.55,9.56-8.8,16.81-11.75,13.61-10.6,15.27-26.36,14.94-15.11-.32-108.47-1.5-117.64-1.35-9.68.16-14.54.62-19.09,1.62-2.13.47-8.71,3.58-12.55,8.03-4.58,5.31-27.78,85.21-32.94,89.19-.05.04-12.72,0-12.78,0-4.93-.48-8.21-1.12-6.85-6.52,1.09-4.34,3.41-9.51,5-16.27,3.51-14.93,9.03-61.2,10.92-77.58Z"/>
        </g>
        <path class="cls-11" d="M263.54,119.62h35.87c5.63-4.97,9.19-12.24,9.19-20.34,0-14.98-12.14-27.12-27.12-27.12s-27.12,12.14-27.12,27.12c0,8.1,3.56,15.37,9.19,20.34Z"/>
        <path class="cls-5" d="M317.27,269.47c-2.57-2.28-15.81-9.66-18.23-9.66h-38.08c-.14,0-12.97,7.63-19.15,12.31-16.18,12.24-58.32-6.93-57.18,41.39.6,25.73,27.98,29.94,34.67,30.69,5.78.65,13.66,2.09,24.28,1.18,8.72-.75,13.73-1.01,17.49-2.87,3.47-1.71,3.63-8.04,3.72-10.38.46-11.41,1.09-20.54,11.84-20.54,38.97,0,48.87-.49,53.45-13.21,1.98-12.22-5.06-22.03-12.81-28.91Z"/>
        <g>
          <path class="cls-3" d="M263.12,394.52l2.65,114.22c.23,9.82,7.29,17.64,15.71,17.64s15.48-7.82,15.71-17.64l2.65-114.22h-36.71Z"/>
          <path class="cls-3" d="M300.35,372.23l4.72-203.37s-4.17-2.15-9.77-2.15h-27.65c-5.6,0-9.77,2.15-9.77,2.15l4.72,203.37h37.75Z"/>
        </g>
        <path class="cls-1" d="M260.62,390.04s-19.52-1.89-23.43,29.8c-1.95,12.54,10.16,23.19,12.9,26.5,2.73,3.31,7.02,8.74,8.19,11.11,1.17,2.37,5.47,6.62,23.04,6.86,17.57.24,19.52-.95,24.99-6.62,5.47-5.68,9.55-10.37,13.45-14.15,3.9-3.78,12.13-14.96,9.98-27.72-1.41-8.36-8.59-25.35-17.96-25.8-9.37-.45-51.15.02-51.15.02Z"/>
        <path class="cls-1" d="M249.41,379.42c1.64,3.02,1.38,5.89,3.8,5.89l60.89-.04c.14,0,2.53-.97,8.71-5.64,16.18-12.24,58.32,6.93,57.18-41.39-.6-25.73-27.98-29.94-34.67-30.69-5.78-.65-13.66-2.09-24.28-1.18-8.72.75-13.73,1.01-17.49,2.87-3.47,1.71-3.63,8.04-3.72,10.38-.46,11.41-1.09,20.54-11.84,20.54-38.97,0-42.08.64-46.66,13.37-1.98,12.22,2.85,16.27,8.08,25.9Z"/>
        <circle class="cls-6" cx="302.05" cy="426.28" r="7.68"/>
        <circle class="cls-6" cx="265.02" cy="426.28" r="7.68"/>
        <path class="cls-7" d="M309.26,119.62h-55.57c-14.1,0-25.64,11.54-25.64,25.64h0c0,14.1,11.54,25.64,25.64,25.64h55.57c14.1,0,25.64-11.54,25.64-25.64h0c0-14.1-11.54-25.64-25.64-25.64ZM308.87,164.12h-22.18c-1.17,0-2.11-.94-2.11-2.11v-33.49c0-1.17.94-2.11,2.11-2.11h22.62c10.98,0,19.8,9.43,18.78,20.62-.89,9.77-9.4,17.1-19.21,17.1Z"/>
        <path class="cls-8" d="M309.31,126.41h-22.62c-1.17,0-2.11.94-2.11,2.11v33.49c0,1.17.94,2.11,2.11,2.11h22.18c9.81,0,18.32-7.32,19.21-17.1,1.02-11.19-7.8-20.62-18.78-20.62Z"/>
      </g>
    </g>
  </g>
</svg>