<?xml version="1.0" encoding="UTF-8"?>
<svg id="Layer_2" data-name="Layer 2" xmlns="http://www.w3.org/2000/svg" viewBox="0 0 562.95 562.95">
  <defs>
    <style>
      .cls-1 {
        fill: #00a39b;
      }

      .cls-2 {
        fill: #faf8fe;
      }
    </style>
  </defs>
  <g id="for_export" data-name="for export">
    <g>
      <path class="cls-2" d="M281.48,0h0C436.83,0,562.95,126.13,562.95,281.48h0c0,155.35-126.13,281.48-281.48,281.48h0C126.12,562.95,0,436.83,0,281.48H0C0,126.12,126.12,0,281.48,0Z"/>
      <g id="DRAFT_04-A_BRIAN_S_SECOND_CONCEPT" data-name="DRAFT 04-A BRIAN&amp;apos;S SECOND CONCEPT">
        <path class="cls-1" d="M226.21,169.07c-2.66.81-9.58,4.06-10.05,7.42-.4,2.87.4,4.96,3.5,4.94,3.11-.03,6.44-2.51,6.45-6.08,0-3.64,5.37-7.87.1-6.28Z"/>
        <path class="cls-1" d="M298.85,376.9c-3.17-.83-6.76-1.3-10.58-1.56v10.24c15.44-1.05,14.29-7.71,10.58-8.68Z"/>
        <path class="cls-1" d="M274.26,374.93h.02v10.3h-.02c-22.2-2.02-35.05-9.59-37.1-25.68-2.38-18.68,15.8-33.5,37.1-45.08v24.16c-15.88,1.64-24.23,9.59-25.26,16.98-.85,6.11.45,14.21,9.55,16.89,3.68,1.08,10.73,2.1,15.71,2.42Z"/>
        <path class="cls-1" d="M392.91,295.84h24.05c-2.46,50.7-32.65,94.13-75.71,115.44,28.62-20.12,9.89-55.31-34.43-68.62-6.79-2.04-12.95-3.28-18.54-3.88v36.55h-.02v-119.21s.02-.01.02-.02v51.31c8.61-4.04,17.12-7.58,24.46-10.69,33.68-14.32,59.56-33.02,70.45-60.09,7.17-16.71.67-37.48-17.23-53.93,29.56,23.66,49.04,59.38,51,99.7h-24.05c-3.71,0-6.72,3.01-6.72,6.72s3.01,6.72,6.72,6.72Z"/>
        <path class="cls-1" d="M274.27,202.76v64.15s-.01,0-.02,0c-16.58,12.96-29.95,24.01-41.08,33.52-7.99,6.82-27.65,27.95-32.64,37.83-5.97,11.82-10.35,27.45-3.98,42.74,4.88,11.7,12.84,22.46,24.57,30.58-43.39-21.21-73.85-64.8-76.32-115.74h26.38c3.71,0,6.72-3.01,6.72-6.72s-3.01-6.72-6.72-6.72h-26.38c2.38-48.99,30.63-91.18,71.39-113.22-15.7,11.45-26.82,30.76-18.85,29.79,25.38-3.08,32.69,7.19,44.18,8.21,16.04,1.44,24.86-2.07,32.73-4.42,0,0,.01,0,.02,0Z"/>
        <path class="cls-1" d="M299.25,204.34c-4.21-1.9-7.76-2.9-10.97-3.28v55.05c4.51-3.44,9.22-7,14.16-10.68,14.7-10.96,9.95-35.15-3.19-41.09Z"/>
        <path class="cls-1" d="M216.33,122.8c-14.94-20.97-44.06-25.86-65.03-10.91-20.97,14.94-25.86,44.06-10.91,65.03.28.39.57.76.86,1.14,21.36-24.56,46.39-43.02,75.88-54.07-.26-.4-.52-.8-.8-1.19Z"/>
        <path class="cls-1" d="M344.83,124.76c14.99-20.93,44.12-25.75,65.05-10.76,20.93,14.99,25.75,44.12,10.76,65.05-.28.39-.57.76-.86,1.14-21.3-24.62-46.29-43.13-75.75-54.25.27-.4.52-.79.8-1.18Z"/>
        <path class="cls-1" d="M382.61,418.86c-.13-.13-.27-.26-.42-.37,5.06-3.99,9.92-8.3,14.54-12.93,30.89-30.89,47.9-71.96,47.9-115.65s-17.01-84.76-47.9-115.65c-30.89-30.89-71.96-47.9-115.65-47.9s-84.76,17.01-115.65,47.9c-30.89,30.89-47.9,71.96-47.9,115.65s17.01,84.76,47.9,115.65c2.94,2.94,5.98,5.76,9.1,8.45-.35.21-.69.46-.99.77l-21.67,21.67c-1.97,1.97-1.97,5.16,0,7.13.98.98,2.27,1.48,3.56,1.48s2.58-.49,3.56-1.48l21.67-21.67c.57-.57.96-1.23,1.2-1.94,28.36,21.73,62.88,33.5,99.2,33.5,33.83,0,66.09-10.21,93.27-29.16.25.61.62,1.19,1.11,1.69l21.67,21.67c.98.98,2.27,1.48,3.56,1.48s2.58-.49,3.56-1.48c1.97-1.97,1.97-5.16,0-7.13l-21.67-21.67ZM123.14,289.92c0-87.09,70.86-157.95,157.95-157.95s157.95,70.86,157.95,157.95-70.86,157.95-157.95,157.95-157.95-70.86-157.95-157.95Z"/>
        <path class="cls-1" d="M417.14,489.66H145.82c-39.99,0-72.53-32.54-72.53-72.53V145.82c0-39.99,32.54-72.53,72.53-72.53h271.32c39.99,0,72.53,32.54,72.53,72.53v271.32c0,39.99-32.54,72.53-72.53,72.53ZM145.82,78.89c-36.9,0-66.93,30.02-66.93,66.93v271.32c0,36.9,30.02,66.93,66.93,66.93h271.32c36.9,0,66.93-30.02,66.93-66.93V145.82c0-36.9-30.02-66.93-66.93-66.93H145.82Z"/>
        <g>
          <path class="cls-1" d="M288.26,256.12v119.21c-3.54-.24-7.27-.3-11.05-.3-.84,0-1.84-.03-2.93-.11v-36.3h-.02v-24.16s.01,0,.02-.01v-47.55c4.42-3.46,9.08-7.06,13.98-10.79Z"/>
          <rect class="cls-1" x="274.26" y="338.63" width=".02" height="46.6"/>
          <path class="cls-1" d="M288.26,168.7v87.42c-4.9,3.73-9.56,7.33-13.98,10.79v-64.15s-.01,0-.02,0v-34.07h14Z"/>
          <path class="cls-1" d="M274.27,202.76v111.7s-.01,0-.02.01v-111.7s.01,0,.02,0Z"/>
        </g>
      </g>
    </g>
  </g>
</svg>