<?xml version="1.0" encoding="UTF-8"?>
<svg id="Layer_2" data-name="Layer 2" xmlns="http://www.w3.org/2000/svg" viewBox="0 0 562.95 562.95">
  <defs>
    <style>
      .cls-1 {
        fill: #ffa82f;
      }

      .cls-2 {
        fill: #faf8fe;
      }

      .cls-3 {
        fill: #fecc7d;
      }
    </style>
  </defs>
  <g id="for_export" data-name="for export">
    <g>
      <path class="cls-2" d="M281.48,0h0C436.83,0,562.95,126.13,562.95,281.48h0c0,155.35-126.13,281.48-281.48,281.48h0C126.12,562.95,0,436.83,0,281.48H0C0,126.12,126.12,0,281.48,0Z"/>
      <g>
        <path class="cls-3" d="M236.31,343.65l-3.86-49.2s-5.9,1.51-5.57-3.29,52.23-4.3,67.57-5.63,96.67,4.09,101.62-39.92-42.73-60.08-57.93-64.94c-2.74,15.2-4.77,45.32-4.77,45.32,0,0,5.15,0,4.59,5.49-.56,5.49-29.07,6.41-57.78,7.03s-101.34-11.4-107.18,54.31,63.3,50.83,63.3,50.83Z"/>
        <path class="cls-1" d="M237.65,233.4s-7.25-102.82-7.25-129.84c15.82-15.16,34.99-21.09,49.79-21.09s41.17,9.89,52.37,21.09c0,23.07-20.43,270.24-20.43,270.24h-63.27s-7.54-84.97-11.2-140.39Z"/>
        <rect class="cls-1" x="249.86" y="418.2" width="62.29" height="62.29" rx="20.85" ry="20.85"/>
        <path class="cls-3" d="M281.48,406.72c41.43-3.13,87.48,6.42,100.85-49.73,13.37-56.14-54.54-64.17-54.54-64.17l-4.81,49.73s10.56,2.34,9.59,8.68c-.98,6.34-8.67,5.17-27.03,5.64s-62.13,2.35-72.49,2.82-31.54,8.47-27.77,30.6,15.23,21.05,76.21,16.43Z"/>
        <path class="cls-3" d="M392.8,130.95c-11.98-12.31-25.95-11.31-34.93-7.98-8.98,3.33-36.03,2.99-76.4-.33s-126.2-16.63-128.86,45.91c-2.62,61.6,28.9,57.76,71.37,59.5,1.04.04,1.89-.82,1.82-1.86l-2.49-38.24c-.06-.93-.85-1.66-1.78-1.63-4.83.13-18.42-.23-17.97-8.54.55-10.09,24.83-8.46,64.12-8.73,39.29-.27,63.02-5.73,83.76-1.36,20.74,4.37,67.97,10.17,73.3-5.79,5.32-15.97-19.96-18.63-31.94-30.94ZM365.73,149.16c-5.15,0-9.33-4.18-9.33-9.33s4.18-9.33,9.33-9.33,9.33,4.18,9.33,9.33-4.18,9.33-9.33,9.33Z"/>
      </g>
    </g>
  </g>
</svg>