<?xml version="1.0" encoding="UTF-8"?>
<svg id="Layer_2" data-name="Layer 2" xmlns="http://www.w3.org/2000/svg" viewBox="0 0 404.75 272.14">
  <defs>
    <style>
      .cls-1, .cls-2 {
        fill: none;
      }

      .cls-3 {
        fill: #ffd18c;
      }

      .cls-4 {
        fill: #fdc26a;
      }

      .cls-5 {
        fill: #e7e5eb;
      }

      .cls-6 {
        fill: #b8b6ba;
      }

      .cls-7 {
        fill: #7ab5b2;
      }

      .cls-8 {
        fill: #004541;
      }

      .cls-9 {
        fill: #feeae2;
      }

      .cls-10 {
        fill: #d3d1d6;
      }

      .cls-11 {
        fill: #a0a0a0;
      }

      .cls-12 {
        fill: #00948d;
      }

      .cls-13 {
        fill: #c9c9c9;
      }

      .cls-14 {
        fill: #19423f;
      }

      .cls-14, .cls-15 {
        opacity: .11;
      }

      .cls-16 {
        fill: #fef7f1;
      }

      .cls-17 {
        fill: #bcbcbc;
      }

      .cls-18 {
        fill: #00a39b;
      }

      .cls-2 {
        stroke: #00a39b;
        stroke-miterlimit: 10;
        stroke-width: 3.07px;
      }

      .cls-19 {
        fill: #fed3c3;
      }

      .cls-20 {
        fill: #deb8aa;
      }

      .cls-21 {
        fill: #ababab;
      }

      .cls-22 {
        opacity: .17;
      }

      .cls-22, .cls-23, .cls-15 {
        fill: #3f3318;
      }

      .cls-23 {
        opacity: .08;
      }

      .cls-24 {
        fill: #d1ebe9;
      }

      .cls-25 {
        fill: #faf8fe;
      }

      .cls-26 {
        fill: #e5e3eb;
      }

      .cls-27 {
        fill: #89ccc8;
      }

      .cls-28 {
        fill: #89ccc8;
      }

      .cls-29 {
        fill: #ffb057;
      }

      .cls-30 {
        fill: #cfcfcf;
      }
    </style>
  </defs>
  <g id="Layer_1-2" data-name="Layer 1">
    <g id="Get_Started_Graphic" data-name="Get Started Graphic">
      <g id="Background_Goop" data-name="Background Goop">
        <path class="cls-2" d="M99.28,79.8c-38.55-7.33-64.48,127.91-22.64,170.1,30.49,30.74,91.8-29.41,135.84-23.34,44.03,6.06,116.43,29.15,134,6.06,17.57-23.08,2.33-112.64-23.87-150.44-49.6-71.53-119.06,14-140.01,13.69-20.96-.32-37.32-7.33-83.31-16.08Z"/>
        <path class="cls-24" d="M198.16,239.79c-59.95.78-110.66-3.88-129.02-9.3-18.36-5.43-33.09-70.79,1.42-111.06,28.72-33.52,60.32-50.56,98.77-36.05,38.45,14.51,76.6-9.47,122.03-14.23,47.85-5.01,60.76,60.52,64.98,90.46,8.18,57.92,10.36,78-158.18,80.19Z"/>
      </g>
      <g id="Guy_" data-name="Guy!">
        <path class="cls-28" d="M249.31,120.38c5.75,1.53,14.43,1.71,17.42-.74,3.18,7.44,9.73,103.14,9.73,103.14l-18.08,1.29s-2.78-90.43-9.07-103.69Z"/>
        <path class="cls-7" d="M265.46,167.92c3.24.12,7.56-4.97,7.56-4.97l6.56,66.11-23.06,3.57,8.94-64.71Z"/>
        <g id="Right_arm" data-name="Right arm">
          <g>
            <path class="cls-5" d="M328.36,165.97c2.71-.52,5.43-1.03,7.4-2.4s2.98-3.6,5.63-4.11,6.85-1.13,6.64-2-3.72-1.39-6.84-.68c-3.12.72-11.93,3.41-13.75,4.34s-.87,4.9-.87,4.9l1.78-.05Z"/>
            <path class="cls-25" d="M326.97,166.77c3-.28,6.01-.57,8.33-1.99,2.32-1.42,3.71-4.01,6.65-4.29s7.56-.51,7.46-1.6-3.83-2.17-7.31-1.7-13.36,2.64-15.45,3.54-1.61,5.87-1.61,5.87l1.93.16Z"/>
            <path class="cls-5" d="M331.07,161.33c-1.83.23-5.24,2.07-5.73,1.23-.5-.84.21-4.22,2.14-4.34s3.81.76,5.07.09,2.26-.79,2.95-.52.48.76-.85,1.71-2.35,1.67-3.59,1.82Z"/>
          </g>
          <path class="cls-7" d="M322.61,160.42c1.45-.68,3.24-.92,3.24-.92,0,0,1.07,9.83,1.52,11.11-1.32,1.09-2.97,2.6-2.97,2.6l-1.8-12.79Z"/>
          <path class="cls-19" d="M289.99,125.62c-1.42-3.71-3.64,44.07-3.94,51.51-.3,7.45-4.45,21.51,18.89,10.93,17.33-7.86,22.14-15.84,22.14-15.84l-3.68-12.57s-12.47,5.62-17.74,7.66-7.32,2.41-7.32,2.41c0,0-4.61-34.36-8.34-44.09Z"/>
          <path class="cls-20" d="M291.36,189.92c.25-12.79-.5-53.88-1.12-57.31l-1.77,2.25c-1.13,13.49-2.22,37.2-2.43,42.27-.3,7.45-4.45,21.51,18.89,10.93,1.43-.65,2.74-1.29,4-1.94-8.7,3.26-17.7,6.26-17.57,3.79Z"/>
          <path class="cls-20" d="M286.96,174.12c3.53,1.96,7.79.17,7.05-.22-2.57-1.35.37-2.47,1.18-3.08s.9-1.26.9-1.54c0-.11-.09-.3-.22-.51-3.21.77-4.51.92-4.51.92,0,0-.2-.97-.55-2.5-1.97-1.08-5.45.2-6.41.74-1.14.63,2.56,6.2,2.56,6.2Z"/>
        </g>
        <path class="cls-9" d="M226.21,223.41c.06-13.5-2.45-98.17,0-99.06,1.82-.66,12.49-4.12,18.88-6.23s5.42-2.25,7.51,1.57c2.67,4.89,10.17,9.5,12.82,24.33,3.53,19.77-.64,74.58.63,82.5,1.27,7.92,1.76,14.72,1.76,14.72l-42.54,4.13s.87-7.77.94-21.95Z"/>
        <path class="cls-9" d="M267.62,116.29c9.04,2.74,20.48,7.91,22.26,9.19,1.04,4.63-.27,61.05-.93,74.82-.66,13.78.66,30.4,2.41,36.96-5.03,0-13.96,1.49-18.37,2.84-2.17-8.53-3.28-81.13-3.94-90.53-.57-8.14-1.82-23.79-3.55-31.27-.29-1.26.87-2.38,2.12-2.01Z"/>
        <path class="cls-20" d="M278.41,170.63c6.36.07,7.53-3.68,7.16-4.36-.37-.68-2.02-1.16-3.34-1.16-1.21,0-10.94-.49-12.6,1.04.04,1.35.08,2.76.12,4.21.92,3.66,3.48.21,8.66.26Z"/>
        <path class="cls-19" d="M249.73,142.77c.79-1.71.97-3.73,4.43-9.28-2.13-1.81-6.13-3.2-10.56-5.33.45-.89,1.86-4.07,3.15-7.35-2.95,3.68-4.85,6.79-5.95,7.94,4.02,1.71,8.45,4.01,9.42,4.98-1.65,2.2-3.78,9.09-4.01,10.12,2.91,1.05,8.43,4.57,10.81,9.62-2.02-4.75-4.65-9.49-7.28-10.7Z"/>
        <path class="cls-19" d="M274.92,131.22c.53-.4,3.34-3.32,5.49-4.02-.67-.46-5.14-4.72-8.14-7.19,2.12,2.54,4.01,5.42,4.76,6.76-2.74,1.73-4.85,3.38-6.15,4.59,3.41,1.73,6.57,6.41,7.53,7.88-.78,1.37-1.59,4.27-2.27,7.53.72-1.78,2.27-5.79,3.78-7.73-.64-1.35-2.73-6.26-5-7.82Z"/>
        <g id="Stethingscope">
          <g id="stethingscope">
            <path class="cls-11" d="M257.39,161.5c-.13-.02-1.14-.2-4.18-1.45-3.51-1.44-7.13-7.21-7.76-12.36l1.12-.13c.63,5.15,4.25,10.29,7.07,11.45,2.95,1.21,3.92,1.38,3.93,1.38l-.17,1.11h0Z"/>
            <path class="cls-11" d="M281.51,152.64l-.74-.17s.2-.86.41-2.53c.22-1.67.27-5.24.27-5.28h.76c0,.16-.06,3.67-.28,5.38-.22,1.71-.42,2.57-.43,2.6Z"/>
            <path class="cls-17" d="M251.7,163.72l-.73-.86s1.07-.9,2.06-2.22c.92-1.22,2.29-9.63,1.64-13.33l1.11-.2c.69,3.91-.67,12.63-1.84,14.2-1.07,1.43-2.19,2.37-2.23,2.41Z"/>
            <path class="cls-18" d="M280.32,130.3c-3.08-15.51-12.1-16.17-21.59-16.11h-.74c-6.41,0-14.6,2.82-17.53,7.65-1.7,2.79-1.56,6.13.4,9.91,4.17,8.04,5.7,11.12,6.25,12.26-.55.3-1.25.82-1.68,1.65-.48.93-.51,2.01-.11,3.18l.42,1.33,1.44-.46-.43-1.35c-.27-.78-.27-1.46.01-2,.44-.86,1.42-1.21,1.54-1.25.41-.09,5.1-.99,6.01,2.42.26,1.1.33,1.54.34,1.56l1.49-.24s-.07-.46-.36-1.68c-.96-3.6-4.85-3.98-7.23-3.63-.52-1.09-2.02-4.13-6.36-12.48-1.7-3.28-1.86-6.12-.45-8.42,2.63-4.32,10.23-6.92,16.23-6.92h.74c9.59-.06,17.27.61,20.11,14.89,2.96,14.9,2.21,16.7,2.19,16.78l1.48.32c.07-.31.84-2.13-2.19-17.39Z"/>
            <circle class="cls-18" cx="281.14" cy="152.91" r="2.91"/>
            <path class="cls-18" d="M250.52,162.8c.44-.52.9-.48,1.25-.18s.47.75.04,1.27-1.29.52-1.44.4c-.18-.15-.29-.96.15-1.48Z"/>
            <path class="cls-18" d="M257.5,161.67c-.67-.12-.86-.54-.78-1s.41-.78,1.08-.66,1.1.86,1.06,1.05c-.04.23-.69.73-1.36.61Z"/>
          </g>
        </g>
        <path class="cls-20" d="M275.23,126.33c-.76.29-3.69,2.16-6.38,4.62,2.57,1.81,5.44,5.69,7.62,8.83-.38,1.23-1,8-1.48,13.45.79-5.33,2.13-11.74,3.42-13.98-.96-1.47-4.12-6.15-7.53-7.88,1.3-1.21,3.41-2.86,6.15-4.59-1.13-1.99-4.76-7.44-7.94-10.03-.49-.16-.99-.32-1.47-.46,1.93,1.77,6.67,8.23,7.61,10.04Z"/>
        <path class="cls-20" d="M254.16,133.49c-3.46,5.54-3.64,7.57-4.43,9.28,5.33,2.45,10.63,19.32,10.97,21.58,0-7.24-6.5-22.02-7.46-22.37.69-2.86,2.6-7.98,3.29-9.02-1.88-1.65-7.78-4.51-10.61-5.72.81-1.75,3-7.6,3.92-10.59-.43.06-.98.22-1.74.46-1.43,4.2-3.89,9.81-4.51,11.05,4.42,2.13,8.42,3.52,10.56,5.33Z"/>
        <g>
          <g id="Head">
            <path class="cls-8" d="M265.81,118.72c-.24-1.03.56-1.95,1.53-1.94-.24-1.36-.48-2.8-.64-3.83.42-.03-1.96-1.81-.94-2.28,1.09-.5,7.06-.88,7.77-5.01,1.25-7.22-.36-11.33-.36-14.06s-4.13-7.71-6.03-10.36c-1.9-2.65,4.16-5.33,1.89-5.68-2.26-.35-4.89,1.06-9.29.92-4.4-.14-9.22,5.29-12.33,6.72-3.11,1.43-4.93,9.58-4.93,9.58,0,0-1.36-2.01-3.95-.92-2.59,1.09-2.99,4.49-1.93,7.79.88,2.72,1.41,3.41,2.52,4.07,2.45,1.43,2.77-1,5.71,3.48.66,1,1.25,1.23,2.25,6.01,0,.07,0,.15.01.22.05.71.23,3,.69,4.78,5.04-1.69,4.14-1.54,5.97,1.81.25.46.56.92.9,1.39,4.3.55,9.01.36,11.5-.96-.12-.62-.24-1.21-.36-1.74Z"/>
            <path id="Left_ear" data-name="Left ear" class="cls-6" d="M274.35,88.51c2.15-1.32,6.82-.43,3.33,6.6-1.04,2.09-.56,4.3-4.31,3.04s.98-9.64.98-9.64Z"/>
            <path class="cls-25" d="M265.81,118.72c-.27-1.18.81-2.15,1.96-1.8,0,0,.01,0,.02,0,.05.01.19.09.26.07-.41-1.4-1.19-3.91-1.27-5.25.54-.08,1.12-.11,2.69-.73,2.14-.84,3.83-2.63,4.78-6.72,1.44-6.21,1.57-9.21,1.57-11.94,0-2.73.87-9.53-.96-12.17-1.84-2.65-2.77-5.64-4.95-5.98-2.19-.35-4.72,1.06-8.97.92-4.25-.14-8.9,5.29-11.9,6.72-3,1.43-4.76,9.58-4.76,9.58,0,0-1.31-2.01-3.81-.92-2.5,1.09-2.89,4.49-1.86,7.79.85,2.72,1.36,3.41,2.44,4.07,2.37,1.43,2.67-1,5.51,3.48.63,1,1.21,1.23,2.17,6.01,0,.07,0,.15.01.22.06.99.37,5.02,1.32,6.51.49.77,1.23,1.66,2.05,2.4,4.82,1.01,11.07,1.07,14.07-.52-.12-.62-.24-1.21-.36-1.75Z"/>
            <path class="cls-5" d="M266.8,111.73c-1.34.19-3.27.66-5.46.62-3.12-.06-5.54-.57-6.26-1.15-1.23-.99-1.29-1.3-1.72-2.19,0,2.66,1.86,3.69,2.86,4.07s2.83,1.05,5.47,1.03,4.7-1,5.27-1.17c-.05-.41-.15-1.2-.15-1.2Z"/>
            <g id="Face_" data-name="Face!">
              <g id="Eyez_" data-name="Eyez!">
                <path class="cls-8" d="M271.04,90.42c.69.92-.17,2.27-1.25,2.66s-2.69-.1-2.66-1.25c.04-1.51.17-2.27,1.25-2.66s1.35-.49,2.66,1.25Z"/>
                <path class="cls-8" d="M257.28,93.19c.56,1.16-.68,2.46-1.95,2.66-1.27.19-2.94-.7-2.66-1.95.37-1.66.68-2.46,1.95-2.66s1.6-.24,2.66,1.95Z"/>
              </g>
              <path class="cls-12" d="M262.14,93.02c.76,3.58,1.95,3.21,2.43,4.1.39.73.21,1.3-.3,1.81-.47.47-.93.73-1.38.46.62.79,2.83.81,2.86-1.36.04-2.75-1.58-1.23-3.61-5.01Z"/>
              <path class="cls-12" d="M261.01,104.75c-.21-.18-.03-.61.36-.63.78-.04,1.17.07,2.96-.19,1.89-.28,1.78-.34,2.54-.51.36-.08.74.3.66.52-.24.67-1.24,1.82-2.92,2.02-2.09.24-2.88-.57-3.61-1.2Z"/>
            </g>
          </g>
          <g id="Eyes_Brows" data-name="Eyes Brows">
            <path class="cls-4" d="M270.21,87.45c-1.25.08-4.2.5-4.3-.75s1.05-1.49,3.32-1.51c2.27-.01,4.14,1.31,4.87,2.13s-2.74.05-3.89.13Z"/>
            <path class="cls-4" d="M252.34,89.71c1.49-.18,5.07-.36,4.92-1.79s-1.56-1.46-4.25-.98-4.61,2.39-5.29,3.48,3.24-.55,4.63-.71Z"/>
          </g>
          <g id="The_General_Hair_Region" data-name="The General Hair Region">
            <g>
              <path class="cls-4" d="M272.17,61.3c-.08-.21-.39-.18-.45.04-.25.93-.76,1.79-1.07,1.83-1.71.18-2.6-.54-3.55-1.3-.66-.53-1.34-1.07-2.24-1.21-2.14-.34-6.5,2.03-7.9,3.91-.05.07-.03.16.03.21l1.05.8c.07.05.16.04.21-.03,1.19-1.56,4.99-3.52,6.45-3.29.49.08.93.43,1.49.88,1,.79,2.36,1.88,4.69,1.64.06,0,.11-.01.17-.03,0,0,2.1-1.01,1.13-3.46Z"/>
              <path class="cls-29" d="M243.19,93.54c2.28-1.51,5.78-4.68,5.78-7.33,0-1.91-.31-3.06-.48-3.54-.05-.15.04-.3.19-.33,1.29-.17,6.31-.7,9.12,1.25.82.57,1.59,1.29,2.01,1.71.15.15.4.06.42-.15.08-.84.07-2.54-1.22-3.54-.18-.14-.07-.44.16-.44,3.7.03,8.95-1.32,9.88-1.56.09-.02.18,0,.24.07.62.71,3.93,4.68,4.17,7.85.23,3.01,2.48,1.04,3.1.44.1-.1.25-.09.35.01.26.28.71.96.81,2.4.04.58,3.64-5.19,3.03-9.77-.59-4.43-1.79-6.17-3.83-7.11-.12-.05-.16-.18-.12-.3.91-2.59-4.03-10.26-10.99-9.76-6.2.45-11.31-2.6-16.59-1.19-3.78,1.01-9.12,4.18-9.99,10.03-.02.1-.09.18-.19.2-1.63.43-5.54,4.71-6.86,7.49-2.65,5.58,1.57,9.42,3.27,13.56.85,2.07,3.46,1.33,4.29,1.03.14-.05.28.02.32.16.15.57.58,1.93,1.34,2.89.14.18.43.08.44-.15.05-1.43.31-3.23,1.37-3.93Z"/>
              <path class="cls-4" d="M242.39,73.81c-1.63-1.86-4.67-3.85-6.95-3.81-.24,0-.32.34-.11.46,2.74,1.65,4.36,3.47,4.44,4.71.08,1.17,2.1-.66,2.6-1.14.06-.06.07-.16.01-.22Z"/>
              <path class="cls-29" d="M241.55,76.24c-1.16-1.4-4.17-2.87-6.48-3.44-.24-.06-.22-.41.03-.43,3.39-.28,7.04-.21,8.31.52,1.52.88-1.87,3.34-1.87,3.34Z"/>
              <path class="cls-29" d="M257.62,64.45c-.67-1.92.32-3.43,1.65-4.36.86-.6,2.44-.75,3.39-.5.29.08.27.49-.02.56-1.5.35-3.22,1.52-2.94,2.68.33,1.36,1.53,4.32,1.53,4.32l-3.62-2.69Z"/>
            </g>
            <path class="cls-4" d="M266.06,79.52c-1.63.49-5.22,2.7-9.65,1.6,2.41,1.26,3.35,3.35,3.64,4.17.04.11-.08.21-.18.14-1.02-.7-4.86-2.89-13.3-3.11-10.07-.26-6.89-8.11-7.73-8.25s-1.76-1.78.95-6.54c2.71-4.76,9.69-7,15.5-4.99,5.81,2.02,6.34,1.06,8.72.84,2.38-.22,10.61,3.22,9.08,9.97,4.95,2.47,6.89,6.51,1.9,11.95-.08-2.4-.97-2.11-.97-2.11,0,0-2.82,2.9-3.01-.75-.11-2.1-4.95-2.94-4.95-2.94Z"/>
            <path class="cls-4" d="M240.36,72.89c-.06-.07-.17-.08-.24-.03-2.43,1.8-3.19,10.07-3.2,11.36,0,1.09.39,3.17.81,4.44.06.18.31.16.35-.03.66-3,4.73-6.98,6.65-7.89,1.91-.91-3.53-6.94-4.37-7.86Z"/>
            <g>
              <path class="cls-4" d="M241.65,81.01s-.01,0-.01-.01c.87.55,2.04.98,3.62,1.19-1.65-.21-2.94-.54-3.61-1.18Z"/>
              <path class="cls-4" d="M265.87,80.89c-.75.43-1.42.99-1.53,1.45-.04.18-.31.19-.36.01-.36-1.14,1.23-2.32,1.23-2.32,0,0,.68-1.19.63-.61,1.34-.47,2.46.4,3.21.18-1.4.44-2.57.93-3.18,1.28Z"/>
              <path class="cls-4" d="M257.22,81.12c.16.04.32.06.47.09-.29-.05-.47-.09-.47-.09Z"/>
              <path class="cls-4" d="M258.63,81.36s.04,0,.06,0c-.02,0-.04,0-.06,0Z"/>
              <path class="cls-4" d="M252.24,82.73s0,0,0,0c-2.57-.21-5.01-.29-6.95-.54.54.07,1.14.12,1.78.13,1.96.05,3.67.2,5.17.41Z"/>
              <path class="cls-4" d="M252.24,82.73c2.49.21,4.57.85,6.1,1.49-1.4-.54-3.39-1.12-6.1-1.49Z"/>
              <path class="cls-4" d="M245.28,82.19s-.01,0-.02,0c0,0,.01,0,.02,0Z"/>
              <path class="cls-4" d="M257.69,81.21c.24.04.57.1.93.14-.31-.03-.62-.08-.93-.14Z"/>
              <path class="cls-4" d="M241.28,80.74c.15.09.27.17.36.25-.13-.08-.24-.16-.36-.25Z"/>
              <path class="cls-4" d="M258.68,81.36c.1.01.21.02.32.03-.1,0-.21-.02-.32-.03Z"/>
              <path class="cls-3" d="M256.41,81.12c.15.04.31.06.46.09.24.04.55.1.91.14.02,0,.04,0,.05,0,.1.01.2.02.31.03.79.06,1.55.02,2.26-.07,1.44-.16,2.67-.38,3.02-.52.06-.02.12.02.13.09.04.52,0,.65.29,1.47.07.2.36.2.42,0,.43-1.31,1.58-2.68,1.79-2.83,2.04-1.85,2.41-4.37,3.35-5.71.02-.03.07-.04.1-.03,2.47.62-3.12-10.43-5.49-10.39-2.42.05-4.51.15-8.72-.84-6.53-1.53-11.89-.74-15.5,4.99-2.92,4.63-1.79,6.4-.95,6.54.61.1-.91,4.3,2.13,6.67.14.09.26.17.35.25.84.55,1.97.98,3.51,1.19,0,0,.01,0,.02,0,.53.07,1.1.12,1.73.13,1.9.05,3.56.2,5.01.41,2.41.21,4.42.85,5.91,1.49,1.24.49,2,.96,2.38,1.21.09.06.2-.03.17-.13-.51-1.37-1.58-3.2-3.63-4.19Z"/>
            </g>
          </g>
        </g>
        <g id="Left_Arm" data-name="Left Arm">
          <path class="cls-25" d="M287.16,179.73c4.5-.92,5.48-1.77,4.78-4.28s-1.58-4.5-1.13-5.46.56-1.04.1-2.44-1.93-2.46-4.21-1.8-2.9,3.08-3.07,4.17c-.17,1.09,2.25,10.07,3.53,9.81Z"/>
          <path class="cls-28" d="M282.23,166.55s.86-.07,1.71-.61c.89,1.15,2.22,5.34,2.68,8.04.47,2.71.54,5.92.54,6.46-1.09,0-3.54.32-3.54.32l-1.4-14.21Z"/>
          <path class="cls-20" d="M235.86,133.73c4.65,3.41,12.81,21.98,15.41,34.75,3.31,0,16.54-1.81,15.48,1.14-1.26,3.51-13.89,7.1-13.89,7.1,0,0-2.25,7.82-5.47-4.06s-8.96-31.59-11.53-38.94Z"/>
          <path class="cls-16" d="M226.36,123.93c3.38-1.66,11.67,9.85,15.92,27.47,4.25,17.62,5.1,21.27,5.1,21.27,0,0,30.2-4.84,34.73-6.67.21-.08.45,0,.55.2,1.22,2.22,1.7,12.27,1.88,15.53.03.47-.34.86-.81.89-6.31.4-29.1,9.08-36.96,11.2-18.94,5.1-14.81.9-22.59-17.09-7.78-17.99-9.5-47.08,2.17-52.79Z"/>
          <path class="cls-19" d="M247.39,172.67c-4.24.68-12.69,4.1-13.77,4.7s-1.62-.24-.3-1.2c1.32-.96,2.17-1.5,2.71-1.62-2.05.58-5.48,2.35-3.79-.06,1.69-2.41,3.52-3.36,4.44-3.66,4.47-15.89,1.31-26.99.6-34.17,5.74,11.47,8.9,28.78,10.11,36.02Z"/>
          <path class="cls-5" d="M292.88,174.95c.08-1.72-2.04-4.19-1.8-5.04s.31-.91-.02-2.34-1.27-2.73-2.65-2.51c-.45.07-.77.37-1.02.75.94-.39,2.22.3,2.48.56.25.27-.24.49-.57.64.53-.12,1.21.03,1.42.47.21.44-.48,1.52-.71,1.97-.23.46-.48.66-.48.66,0,0,1.01-.5,1.16.39s0,2.09-.65,2.6c.84.15,1.42.76,1.65,2.14.19,1.21.13,1.02-.37,3.09.94-.67,1.51-1.95,1.58-3.38Z"/>
        </g>
      </g>
      <g id="Girl_" data-name="Girl!">
        <path class="cls-10" d="M182.45,204.87c.94-2.64,4.72-1.87,6.51.22,1.79,2.09,5.31.95,5.69,2.24.38,1.28-2.59,2.17-4.25,1.99-1.66-.18-9.16-1.06-7.95-4.45Z"/>
        <path class="cls-25" d="M183.06,203.6c1.73,1.19,8.48,6.78,11.67,8.19,3.19,1.41,11.96,4.66,3.04,7.7-8.92,3.03-17.13-1.95-20.84-4.88-3.71-2.92-.67-6.7-.67-6.7l6.8-4.31Z"/>
        <g id="Hair">
          <path class="cls-4" d="M158.38,75.76l.72-.4c-.73-1.36-1.3-4.66-1.63-6.63-.12-.7-.21-1.25-.28-1.54-.03-.13-.06-.27-.1-.44-.27-1.3-.78-3.72-2.84-4.19-2.24-.51-5.21,4.01-5.54,4.53l.69.45c1.13-1.76,3.38-4.46,4.67-4.17,1.54.35.74,4,.99,5.2.04.17.07.32.1.46.07.28.16.81.27,1.48.37,2.15,2.15,3.76,2.95,5.24Z"/>
          <path class="cls-29" d="M182.53,100.04c.2-.23-.09-.56-.34-.39-2.11,1.44-5.59,2.9-6.84-1.96-.52-2.01.56-3.67.6-6.95.04-2.65.08-5.4-.63-8.37-3.04-12.79-14.62-13.96-14.74-13.97l-.07,2.76c.41.04,10.08,1.05,12.66,11.89.61,2.56.57,4.97.54,7.53-.05,3.4-1.32,5.31-.43,8.1,1.07,3.32,2.77,4.23,4.4,4.27,1.88.05,3.64-1.52,4.84-2.91Z"/>
          <path class="cls-29" d="M145.2,64.94s11.02-.72,15.28,2.03c4.26,2.75,7.97,8.11,9.55,12.04s2.84,19.66,12.3,29.88c7.42,8-5.96,19.39-9.53,21.64-3.57,2.25-23.11,5.42-30.75,4.91s-21.21-5.29-24.7-7.58-9.01-11.06-8.63-15.48c.38-4.42,7.71-9.05,11.86-15.91,4.15-6.86,5.28-23.88,7.46-25.64s7.3-6.29,17.16-5.88Z"/>
          <path class="cls-4" d="M150.66,60.48c.13-.17,0-.43-.22-.41-.75.09-1.74.65-2.06,2.35-.49,2.63,1.09,4.35,1.99,4.89l.53-1.73-.27.86.27-.86c-.15-.1-1.22-1.45-1.16-2.63.06-1.04.2-1.52.92-2.48Z"/>
          <path class="cls-29" d="M118.59,96.58c-.13.25.22.47.39.24,1.72-2.42,2.72-5.51,3.77-8.74.48-1.48.98-3.01,1.56-4.52,1.94-5.05,3.48-5.87,3.49-5.88l-.6-2.77c-.21.09-1.47,1.15-3.21,4.2-.8,1.4-2.27,6.84-2.92,9.66-.62,2.67-1.02,4.93-2.48,7.81Z"/>
          <path class="cls-4" d="M130.08,62.82c6.33-6.11,14.66-3.83,16.59-1.17,1.93,2.66,4.26,3.37,5.24,3.62.49.13,2.83,1.14,3.55,1.75,2.19.65,4.27,1.57,5.49,2.38,3.76,2.51,7.51,5.67,9.09,9.59.45,1.13,1.3,5.03,1.9,7.69-2.05-.66-4.31-1.62-5.86-2.52.03,2.77-.14,5.64.21,7.46.76,3.97,9.6,8.66,14.26,12.21,4.66,3.55,4.57,8.2,3.47,11.7-1.1,3.5-5.66,5.74-9.64,5.2-3.97-.53-8.65-4.49-8.65-4.49-2.35-2.22-4.98-7.08-2.72-9.95,1.96-2.48,14.24,5.7-1.45-6.59-3.35-2.63-5.94-12.82-8.09-19.7-1.06,1.26-2.27,2.11-2.27,2.11l-8.13-.36,1.53-14.7c-.52-.72-1.35-1.34-2.65-1.73-5.48-1.68-9.18,5.56-10.83,8.36-1.26,2.13-3.05,3.31-3.89,3.44-.51.08-.95.39-1.07.89-.5,2.14.07,6.52-.33,6.89-.49.46-.89-.09-.89-.09,0,0-2.45-4.48-2.25-9.29.18-4.38,1.62-7.18,7.37-12.72Z"/>
          <path class="cls-8" d="M123.79,89.91c-.26-1.49.59-3.22,2.09-3.8.25-.1.5-.11.74-.09l.07-.68c.54-5.39,1-10.05,4.09-13.8,2.58-3.14,6.9-3.03,8.16-2.92.71.06,3.08.35,3.81,1.56l.2.33c.98,1.61,2.62,4.3,3.22,8.93.54,4.24-.21,8.43-.63,10.04.03-.02.06-.04.1-.07.79-.72,2.34-1.51,3.42-.71.68.5,2.61,2.44,2.59,4.68-.02,2.52-1.04,4.21-2.94,4.88-.6.21-1.14.29-1.58.36-1.11.17-1.25.19-1.28,1.37-.02.83-.02,2.07-.02,3.45,0,3.06,0,6.87-.21,8.59-.03.26-.46,4.39-.98,6.89l-.12.58c-.43,2.14-.7,3.43-2.86,4.67l-.33.19c-1.37.79-2.32-1.46-4.04-1.53-.86-.04-1.74-.32-2.65-.99-1.72-1.27-.31-1.06-.79-1.57-.36-.39-2.86-2.09-2.76-2.72.1-.64,2.03,2.37,2.48,1.29.13-.32.31-.72.5-1.17.6-1.38,1.6-3.68,1.68-4.6.07-.8.02-1.81-.03-2.45-1.73-.24-9.42-2.71-10.46-10.94-.35-2.79-.2-4.28.16-6.21-.95-.9-1.44-2.4-1.64-3.54Z"/>
        </g>
        <path class="cls-28" d="M146.19,123.4c-3.9.85-8.56.53-10.23-.85-1.66-1.39-20.3,110.54-20.3,110.54l29.49,5.86,1.04-115.55Z"/>
        <path class="cls-7" d="M138.58,187.57c-8.45-1.61-15.32-8.33-15.32-8.33l-7.58,53.85,29.49,5.86-6.58-51.38Z"/>
        <path class="cls-28" d="M182.26,200.41c1.8,1.62,2.97,2.44,3.5,2.79-2.14,1.22-9.87,6.41-11.18,11.28-1.31,4.87-4.58-7.91-4.58-7.91l12.25-6.16Z"/>
        <g id="Right_Arm" data-name="Right Arm">
          <g id="Hand">
            <path class="cls-10" d="M86.68,176.33s-3.15-1.84-4.68-2.12c-3.91-.63-4.84-.21-6.53.04-1.69.25-7.7.01-8.66-.05-.97-.06-2.35.07-2.36.9s3.12,1.51,5.83,2.41,6.96,3.43,9.31,4.12c2.35.69,9.26,1.49,9.26,1.49,0,0-1.25-6.28-2.16-6.79Z"/>
            <path class="cls-25" d="M86.06,174.53s-3.28-1.92-4.82-2.03c-3.95-.18-4.85.54-6.52,1.16-1.67.62-7.69,1.33-8.66,1.41s-2.34.5-2.29,1.6c.05,1.1,3.22,1.49,5.99,2.22,2.77.73,7.19,3.4,9.58,3.92,2.39.52,9.35.42,9.35.42,0,0-1.68-8.17-2.62-8.69Z"/>
            <path class="cls-10" d="M86,174.44s-.93,1.85-2.39,2.09-2.81-.01-3.66-.45-1.58-1.08-2.57-1.23-3.69-.41-3.88-1.4,2.58-2.24,3.91-2.23c.53,0,3.43,1.02,4.06,1.08,1.66.16,4.6-1.34,4.53,2.14Z"/>
          </g>
          <path class="cls-19" d="M114.31,131.96c-3.27,5.46-9.62,15.79-11.45,35.26-.68,4.2.18,6.02-3.54,5.91s-11.62-.28-14.99-1.33c.76,2.47,2.4,9.25,1.55,17.8,3.74.51,27.56,3.9,27.56,3.9,0,0,5.75-52.85,4.55-56.78-1.2-3.93-3.68-4.77-3.68-4.77Z"/>
          <path class="cls-20" d="M85.98,188.37c6.36.2,19.2.81,19.37-.36.21-1.45,4.81-41.02,7.34-44.05l-1.12,49.27c-5.68-.81-22.59-3.21-25.69-3.63.04-.42.07-.82.1-1.23Z"/>
        </g>
        <g id="Left_Bod" data-name="Left Bod">
          <path class="cls-16" d="M170.44,131.31c5.93,5.64,7.96,15.91,9.37,34.52,1.41,18.61-.22,23.97-.48,26.28-.26,2.31,2.07,6.58,4.47,8.24-3.64,2.34-8.06,6.9-8.79,10.57s-.4,10.95-2.34,10.71c-1.94-.24-5.02-7.9-5.02-7.9,0,0,6.69,24.12,7.23,31.82-6.19-.28-34.37-1.54-34.37-1.54,0,0-2.91-17.65-4.07-36.39-1.16-18.74-2.74-36.26-2.29-44.58.45-8.32,9.8-37.38,11.68-46.25,0,0,3.29.24,3.62,2.41,6.63,1.88,13.53,5.02,20.99,12.11Z"/>
          <path class="cls-19" d="M170.68,156.98c1.07-8.44-1.11,30.35.02,33.96,1.13,3.62,1.79,2.18,5.21,1.67,3.42-.51,2.48.92.74,1.41s-.65.19.68.75c1.33.56,2.03.88.03.86s-5.06-.69-7.75.39-4.45,2.57-4.45,2.57c0,0,.99-11.2,2.04-19.17,1.06-7.97,2.94-18.29,3.46-22.44Z"/>
        </g>
        <g id="Right_bod_" data-name="Right bod!">
          <path class="cls-9" d="M137.42,115.71c-4.3.52-18.21,3.23-23.49,17.05-5.52,19.51-3.15,22.85-4.17,38.79-1.02,15.94-6.24,56.71-7.11,68.72l19.29.86s2.58-18.49,3.45-29.37c.87-10.87,5.06-57.45,6.45-65.88,1.31-8.01,6.5-22.43,4.06-23.25-.56-.19,2.1-6.99,1.52-6.92Z"/>
          <path class="cls-20" d="M128.72,139.28c-2.4,1.39-5.48,3.13-6.62,3.54,1.54,3.25,3.71,13.37,3.82,17.31-1.44-5.59-4.79-16.61-5.4-17.57,2.22-1.4,5.67-3.31,6.44-3.74-.85-1.91-2.53-8.26-3.06-9.04,1.77-1.83,7.3-9.5,9.89-13.42.68-.16,1.32-.29,1.89-.4-2.12,3.55-9.37,13.85-10.13,14.54,1.03,2,2.73,8.08,3.17,8.76Z"/>
        </g>
        <path class="cls-10" d="M185.19,216.09c2.79,2.14,6.09,3.74,6.79,3.26,1.1-.77-2.22-3.91-2.2-5.41.84,1.24,4.42,5.52,6.32,4.76,1.91-.76-2.15-3.59-3.76-5.43,2.12,1.43,6.02,3.66,7.11,3.22,1.09-.44-3.64-3.51-6.13-5.43h0c.52.31.99.56,1.41.75,3.19,1.41,11.96,4.66,3.04,7.7-8.57,2.91-13.47.23-17.33-2.49,2.09.79,4.18,1.9,7.14,2.43,2.37.42-1.07-1.25-2.39-3.35Z"/>
        <path class="cls-19" d="M151.75,144.68c1.89,1.82,6.68,5.73,7.64,6.24-3.46,1.84-14.24,9.12-16.5,12.27,2.62-3.5,7.01-8.68,13.11-12.56-3.37-1.94-7.53-5.8-8.34-6.43,2.46-1.2,11.72-6.23,12.84-6.98-1.4-2.46-7.84-14.12-8.72-17.32.58.19,1.17.4,1.76.62,5.27,8.08,9.35,16.22,10.33,17.44-5.03,3.48-11.34,6.52-12.1,6.72Z"/>
        <g>
          <path class="cls-20" d="M124.32,154.35s.02.06.02.08c.12.42.4.25.78-.33.45,2.4.75,4.62.79,6.03-.41-1.6-.98-3.65-1.6-5.78Z"/>
          <path class="cls-20" d="M135.69,115.97c-.08.13-.17.28-.26.42l.04-.38c.07-.01.15-.03.22-.04Z"/>
        </g>
        <g>
          <path class="cls-1" d="M133.87,116.35s-.05.01-.08.02c0,0,0,0,0,0,.03,0,.05,0,.08-.02Z"/>
          <path class="cls-19" d="M123.9,129.79c.53.77,2.21,7.12,3.06,9.04-.77.43-4.23,2.34-6.44,3.74.44.69,2.27,6.49,3.8,11.79-.88-3.05-4.38-9.88-5.71-12.2.53-.3,3.44-2.76,6.03-4.37-.31-.43-1.44-5.58-2.4-8.05.58-.53,8.38-10.85,10.61-13.12.32-.09.63-.16.94-.23-2.6,3.91-8.12,11.59-9.89,13.41Z"/>
          <path class="cls-9" d="M133.87,116.35c.57-.13,1.11-.25,1.59-.34h0c-.49.09-1.03.21-1.59.34Z"/>
        </g>
        <g>
          <path class="cls-19" d="M170.46,177.45c-.14,6.47-.16,12.2.25,13.49,1.13,3.62,1.79,2.18,5.21,1.67,3.42-.51,2.48.92.74,1.41s-.65.19.68.75c1.33.56,2.03.88.03.86-2-.02-5.06-.69-7.75.39-2.68,1.08-4.45,2.57-4.45,2.57l4.46-18.13s.32-1.15.83-3.01Z"/>
          <path class="cls-19" d="M170.98,156.39c-.1.2-.19.38-.29.59.18-1.43.27-1.48.29-.59Z"/>
          <path class="cls-20" d="M170.87,155.86c-.53,4.15-2.59,15.58-3.65,23.55-1.06,7.97-1.44,14.42.99,17.25-.17,2.05-3.28,5.63-4.04,7.08.26-15.16.77-27.64,6.7-47.88Z"/>
        </g>
        <g id="Stethingscope-2" data-name="Stethingscope">
          <polygon class="cls-13" points="118.56 146.42 119.73 146.57 120.83 137.23 119.66 137.08 118.56 146.42"/>
          <path class="cls-30" d="M151.7,164.34l.56-1.11c-1.45-.83-2.25-1.89-2.45-3.26-.53-3.54,3.2-7.8,3.24-7.84l-.86-.86c-.17.19-4.16,4.76-3.54,8.9.26,1.75,1.29,3.15,3.06,4.16Z"/>
          <path class="cls-21" d="M150.2,162.25c.53.07,1.07.05,1.62-.06,4.26-.81,7.39-6.58,7.52-6.82l-1.02-.62c-.03.06-2.99,5.5-6.7,6.21-1.4.27-2.7-.17-3.99-1.33l-.77.96c1.06.96,2.18,1.51,3.34,1.66Z"/>
          <ellipse class="cls-18" cx="119" cy="147.7" rx="3.22" ry="3.03" transform="translate(-33.86 259.99) rotate(-87.44)"/>
          <path class="cls-18" d="M121.12,127.91c1.58-7,7.17-13.6,14.81-12.66,16.95,2.24,20.79,4.49,25.09,7.93,4.22,3.38,4.36,7.21,4.41,8.65.07,1.86-.41,5.99-1.99,9.72-1.21,2.85-2.68,5.18-3.41,6.27.97,1.03,1.81,3.04.48,5.9-.54,1.17-1.55,2.62-1.59,2.68l-1.26-.99s.96-1.39,1.44-2.42c1.37-2.95-.35-4.16-.55-4.28l-.46-.28c-.55-.21-1.69-.28-3.24,1.68-1.67,2.12-2.21,2.84-2.22,2.85l-1.23-1.04s.54-.72,2.25-2.88c1.16-1.46,2.37-2.26,3.6-2.37.61-.05,1.09.08,1.46.24.68-1.01,2.13-3.29,3.29-6.03,1.64-3.88,1.89-7.79,1.85-8.97-.05-1.34-.16-4.48-3.79-7.39-3.53-2.82-6.58-5.26-24.33-7.61-7.51-.92-11.94,6.3-13.08,11.38-1.43,6.32-1.76,10.28-1.77,10.32l-1.57-.14c.01-.16.35-4.11,1.81-10.56Z"/>
          <path class="cls-18" d="M151.71,164.67c.36.29,1.31.47,1.58.08s-.23-1.2-.59-1.48-.88-.21-1.15.18-.2.93.16,1.22Z"/>
          <path class="cls-18" d="M147.76,159.42c-.34-.32-1.26-.6-1.57-.24s.12,1.21.46,1.54.85.29,1.16-.06.28-.91-.05-1.23Z"/>
        </g>
        <path class="cls-20" d="M147.66,144.2c.81.63,4.98,4.5,8.34,6.43-8.47,5.39-13.68,13.3-15.35,15.71.07-1.59.78-3.92,2.55-6.87,1.77-2.94,4.74-6.7,9.09-9.05-2.24-1.53-6.2-3.97-8.39-6.58,1.51-1.04,6.67-3.92,12.73-7.06-.66-3.51-5.36-12.59-7.16-17.59.77.25,1.53.41,2.31.71.88,3.19,7.33,14.86,8.72,17.32-1.12.75-10.37,5.78-12.84,6.98Z"/>
        <path class="cls-10" d="M130.07,88.81c-1.09-1-2.45-2.53-3.82-2s-2.34,2.15-1.9,3.46,1.3,4.18,3.98,3.55,1.74-5.01,1.74-5.01Z"/>
        <g id="Head-2" data-name="Head">
          <path class="cls-25" d="M149.89,113.36c-1.14,6.74-3.33,4.09-3.99,6.58s-.7,3.51-3.39,4.65-1.29,2-4.77.03c-2.32-1.31-1.08-1.24-1.62-1.68-.25-.2-.36-.51-.29-.83.12-.63.18-2.06.7-3.03.76-1.43.57-3.3.68-6.69.05-1.42-.16-3.31-.16-3.31,0,0-9.13-.1-10.82-9.35-.93-5.1.79-6.67,1.52-12.7.73-6.03.99-10.8,5.12-14.59,4.13-3.79,13.39-2.83,14.64-1.28,1.25,1.55,3.62,4.18,4.49,8.94s-.49,9.19-.75,9.89.61,1.21,1.47.62,2.59-1.22,3.65-.62,3.08,2.34,3.08,4-.62,3.36-3.21,4.03-4.34-.19-4.38,2.48-1.35,9.16-1.97,12.86Z"/>
          <path class="cls-8" d="M130.12,89.14c-.35,1.04.82,2.02,1.9,2.05s2.39-.9,2.02-1.93c-.48-1.37-.82-2.02-1.9-2.05s-1.36-.04-2.02,1.93Z"/>
          <path class="cls-8" d="M142.92,90.78c-.39,1.17.92,2.27,2.14,2.3s2.68-1.01,2.27-2.17c-.54-1.54-.92-2.27-2.14-2.3s-1.53-.04-2.27,2.17Z"/>
          <path class="cls-12" d="M135.98,92.63c.97-.79-.07-2.56,1.09-2.52.01,0,.02,0,.03,0-.87.64.45,2.36-.86,3.26-.77.53-1.65,1.72-.85,2.5.73.7,2.29.71,3.05-.13.07-.07.13-.15.2-.22-.05.51-.19.96-.48,1.28-.76.84-3.39.5-3.96-1-.63-1.66,1.05-2.57,1.78-3.16Z"/>
          <path class="cls-12" d="M136.02,103.16c1.55.15,2.87-.73,3.05-.98s-.14-1.12-.5-1.07-1.53,0-2.68-.14c-1.39-.16-1.65-.31-2.06-.47-.52-.05-.93.44-.89.73s.69,1.3,2.41,1.81c.22.07.44.11.66.13Z"/>
          <path class="cls-4" d="M133.92,82.33c.44-.01.59.12.63.69l-.02.55c-.01.29-.2.53-.42.52,0,0-.82-.22-1.89-.26s-2.58.1-2.58.1c-.22,0-.76-.15-.38-.55.16-.28,3.91-1.03,4.66-1.05Z"/>
          <path class="cls-4" d="M143.81,83.19c-.65-.12-.91,0-1.08.73l-.09.71c-.05.38.18.71.51.76,0,0,1.27-.09,2.87.12s3.82.73,3.82.73c.33.04,1.17-.01.68-.6-.18-.39-5.6-2.23-6.72-2.44Z"/>
          <path class="cls-3" d="M153.03,66.08c.35.42.38,1,.09,1.47-1.6,2.48-7.2,10.31-15.52,12.36-7.49,1.84-11.26,1.64-12.66,1.43-.4-.06-.69-.37-.73-.76-.17-2.02-.37-8.53,3.5-12.88,2.26-2.3,3.39-1.68,5.68-3.79,2.3-2.1,6.62-2.81,11.65-2.09,4.34.62,6.68,2.69,7.99,4.26Z"/>
          <path class="cls-26" d="M137.04,109.09c2.01-.03,5.65-.07,7.31-.37s2.36-.64,3.29-1.71c.42-.49.71-1.39.75-2.16.43,1.13-.06,3.53-.8,4.1s-3.02,1.28-4.24,1.39-6.16.22-6.16.22l-.16-1.46Z"/>
        </g>
      </g>
      <g id="Tablets">
        <g>
          <path class="cls-18" d="M364.11,132.41c-.14.29-.3.57-.47.85-.08.12-.16.24-.24.37-.1.16-.2.31-.31.46-.12.16-.25.32-.38.49-.08.11-.16.22-.25.32-.16.18-.32.36-.49.54-.07.08-.14.16-.22.24-.19.2-.4.39-.61.59-.06.06-.11.11-.18.17-.24.22-.49.43-.75.64-.03.03-.07.06-.1.09-.28.22-.58.44-.88.66-.01.01-.03.02-.04.03-2.87,2.02-6.63,3.57-10.98,4.36h0c-1.37,1.25-2.99,2.57-4.92,3.95-1.59,1.14-3.1,2.11-4.55,2.95.02-.02.04-.04.06-.06-.22.21-.44.41-.68.62-.49.44-.99.85-1.48,1.25,2.89.92,7.08,1.35,13.03.3,13.04-2.32,15.67-8.42,16.16-10.21.08-.3.09-.61.04-.91l-1.34-7.53s-.02-.04-.03-.06c-.08-.22-.31-.29-.41-.09Z"/>
          <path class="cls-28" d="M348.21,142.21h0c4.35-.79,8.12-2.34,10.98-4.36.01-.01.03-.02.04-.03.3-.21.6-.43.88-.66.03-.03.07-.06.1-.09.26-.21.51-.42.75-.64.06-.06.12-.11.18-.17.21-.19.41-.39.61-.59.08-.08.14-.16.22-.24.17-.18.34-.36.49-.54.09-.11.17-.21.25-.32.13-.16.26-.32.38-.49.11-.15.21-.31.31-.46.08-.12.17-.24.24-.37.17-.28.33-.57.47-.85.1-.2.33-.13.41.09,0-.08-.01-.17-.03-.25-.52-2.93-4.76-4.8-10.55-5.1l.14.13c.53.48.88,1.07,1,1.71.15.78.21,1.94-.15,3.43l2.69-.48c.41-.07.8.2.88.61s-.2.8-.61.88l-3.48.62c-.9,2.23-2.71,4.99-6.18,8.17Z"/>
          <path class="cls-18" d="M343.29,146.16c1.93-1.38,3.55-2.7,4.92-3.95-.04,0-.08.02-.12.02-1.25.22-2.48.36-3.68.43-.47.71-1.02,1.44-1.62,2.18,0,.01-.02.02-.03.04-.21.25-.42.51-.64.76-.02.03-.04.05-.07.08-.21.25-.44.5-.67.75-.03.04-.06.07-.1.11-.23.24-.46.49-.7.74-.04.04-.08.09-.13.13-.24.24-.48.49-.73.73-.05.05-.1.1-.15.14-.25.24-.51.49-.78.73-.02.02-.04.04-.06.06,1.44-.84,2.96-1.81,4.55-2.95Z"/>
          <path class="cls-15" d="M343.29,146.16c1.93-1.38,3.55-2.7,4.92-3.95-.04,0-.08.02-.12.02-1.25.22-2.48.36-3.68.43-.47.71-1.02,1.44-1.62,2.18,0,.01-.02.02-.03.04-.21.25-.42.51-.64.76-.02.03-.04.05-.07.08-.21.25-.44.5-.67.75-.03.04-.06.07-.1.11-.23.24-.46.49-.7.74-.04.04-.08.09-.13.13-.24.24-.48.49-.73.73-.05.05-.1.1-.15.14-.25.24-.51.49-.78.73-.02.02-.04.04-.06.06,1.44-.84,2.96-1.81,4.55-2.95Z"/>
          <path class="cls-28" d="M348.09,142.24s.08-.02.12-.02c3.47-3.18,5.29-5.94,6.18-8.17l-6.75,1.2h-.02s0,.03,0,.04c-.1.49-.22,1.01-.38,1.54-.02.06-.03.11-.05.17-.08.25-.16.49-.25.75,0,.02-.01.04-.02.06-.09.25-.19.51-.3.77-.04.09-.08.18-.12.28-.09.2-.18.41-.28.62-.05.1-.1.21-.15.32-.11.22-.22.45-.34.67-.06.12-.13.24-.2.36-.1.18-.21.36-.31.55-.09.15-.18.31-.28.47-.13.21-.27.43-.41.64-.04.06-.08.12-.12.19,1.2-.07,2.42-.21,3.68-.43Z"/>
          <path class="cls-15" d="M348.09,142.24s.08-.02.12-.02c3.47-3.18,5.29-5.94,6.18-8.17l-6.75,1.2h-.02s0,.03,0,.04c-.1.49-.22,1.01-.38,1.54-.02.06-.03.11-.05.17-.08.25-.16.49-.25.75,0,.02-.01.04-.02.06-.09.25-.19.51-.3.77-.04.09-.08.18-.12.28-.09.2-.18.41-.28.62-.05.1-.1.21-.15.32-.11.22-.22.45-.34.67-.06.12-.13.24-.2.36-.1.18-.21.36-.31.55-.09.15-.18.31-.28.47-.13.21-.27.43-.41.64-.04.06-.08.12-.12.19,1.2-.07,2.42-.21,3.68-.43Z"/>
          <path class="cls-28" d="M354.08,127.27l-.14-.13c-2.29-.12-4.81,0-7.45.41.14.19.26.38.38.58.02.04.04.07.06.11.1.18.19.35.28.54.04.1.08.19.12.29.06.14.11.28.16.42.08.26.15.52.2.78.17.9.27,2.05.16,3.4l7.08-1.26c.36-1.49.3-2.65.15-3.43-.12-.65-.47-1.24-1-1.71Z"/>
          <path class="cls-15" d="M354.08,127.27l-.14-.13c-2.29-.12-4.81,0-7.45.41.14.19.26.38.38.58.02.04.04.07.06.11.1.18.19.35.28.54.04.1.08.19.12.29.06.14.11.28.16.42.08.26.15.52.2.78.17.9.27,2.05.16,3.4l7.08-1.26c.36-1.49.3-2.65.15-3.43-.12-.65-.47-1.24-1-1.71Z"/>
        </g>
        <g>
          <path class="cls-29" d="M325.07,153.77c1.87-1.01,3.96-2.55,6.26-4.85,7.75-7.73,7.68-13.88,7.22-16.33-.07-.4-.18-.67-.36-1.02,0-.02.02-.05.03-.07-1.55,3.07-4.21,6.47-7.71,9.57-7.28,6.45-15.42,9.17-18.44,6.24,0,.02.02.03.03.05.02.03.03.07.06.1l4.72,5.33c.44.49,1,.86,1.63,1.06,1.3.41,3.72.8,7.11-.23-.18.06-.37.11-.55.15Z"/>
          <path class="cls-4" d="M330.51,141.07c3.5-3.1,6.16-6.5,7.71-9.57.97-2.37,1.04-4.51.05-5.82-.06-.08-.46-.83-1.02-1.23-1.2-.86-4.89-1.27-8.88-.46-2.62,1.27-5.43,3.14-8.11,5.52-7.43,6.58-11.13,14.53-8.27,17.76.03.04.07.07.11.1,0-.02-.02-.03-.03-.05,3.02,2.93,11.16.21,18.44-6.24ZM318.14,142.39l13.48-15.11c.28-.31.76-.34,1.07-.06.31.28.34.76.06,1.07l-13.48,15.11c-.28.31-.76.34-1.07.06-.31-.28-.34-.76-.06-1.07Z"/>
          <path class="cls-4" d="M337.26,124.45c.56.4.95,1.15,1.02,1.23.99,1.31.92,3.45-.05,5.82,1.65-3.27,2.04-6.17.77-7.92.01,0,.02.02.03.02-.04-.06-.09-.12-.13-.17-.16-.18-.34-.33-.53-.48-.04-.03-.09-.07-.14-.1-.19-.13-.4-.25-.62-.35-.04-.02-.08-.03-.12-.05-.19-.08-.4-.14-.61-.2-.07-.02-.13-.04-.2-.05-.24-.05-.49-.09-.76-.11-.09,0-.19-.01-.28-.01-.2,0-.4-.01-.61,0-.11,0-.21,0-.32,0-.26.02-.54.05-.81.08-.15.02-.3.05-.46.07-.17.03-.35.07-.53.11-.27.06-.55.13-.84.21-.15.04-.3.08-.46.13-.21.06-.42.13-.63.2-.12.04-.24.09-.36.13-.38.14-.77.29-1.16.46-.11.05-.23.1-.35.15-.24.11-.48.22-.73.34,0,0,0,0,0,0,3.99-.81,7.68-.4,8.88.46Z"/>
          <path class="cls-23" d="M337.26,124.45c.56.4.95,1.15,1.02,1.23.99,1.31.92,3.45-.05,5.82,1.65-3.27,2.04-6.17.77-7.92.01,0,.02.02.03.02-.04-.06-.09-.12-.13-.17-.16-.18-.34-.33-.53-.48-.04-.03-.09-.07-.14-.1-.19-.13-.4-.25-.62-.35-.04-.02-.08-.03-.12-.05-.19-.08-.4-.14-.61-.2-.07-.02-.13-.04-.2-.05-.24-.05-.49-.09-.76-.11-.09,0-.19-.01-.28-.01-.2,0-.4-.01-.61,0-.11,0-.21,0-.32,0-.26.02-.54.05-.81.08-.15.02-.3.05-.46.07-.17.03-.35.07-.53.11-.27.06-.55.13-.84.21-.15.04-.3.08-.46.13-.21.06-.42.13-.63.2-.12.04-.24.09-.36.13-.38.14-.77.29-1.16.46-.11.05-.23.1-.35.15-.24.11-.48.22-.73.34,0,0,0,0,0,0,3.99-.81,7.68-.4,8.88.46Z"/>
          <path class="cls-29" d="M338.99,123.58c1.26,1.75.88,4.64-.77,7.92,0,.02-.02.05-.03.07.18.35.29.62.36,1.02.46,2.45.53,8.6-7.22,16.33-2.3,2.3-4.4,3.84-6.26,4.85.18-.05.36-.1.55-.15,0,0,.02,0,.02,0,.18-.05.36-.11.54-.17.02,0,.04-.01.05-.02.17-.06.35-.12.53-.19.03,0,.05-.02.08-.03.17-.06.34-.13.52-.21.04-.02.07-.03.11-.05.17-.07.34-.14.51-.22.05-.02.1-.04.14-.07.16-.07.33-.15.5-.23.06-.03.12-.06.18-.09.16-.08.32-.16.48-.25.07-.04.14-.07.21-.11.15-.08.31-.17.47-.26.08-.05.16-.09.24-.14.15-.09.3-.17.45-.26.09-.06.18-.11.28-.17.15-.09.29-.18.44-.27.1-.07.21-.14.32-.21.14-.09.28-.18.42-.28.12-.08.24-.17.36-.25.13-.09.26-.18.4-.28.13-.09.27-.2.4-.29.12-.09.25-.18.37-.28.15-.11.3-.23.45-.35.11-.09.22-.17.34-.26.17-.14.35-.28.52-.43.1-.08.19-.16.29-.24.27-.23.55-.47.82-.71,8.99-7.97,9.06-14.16,8.6-16.61-.12-.65-.42-1.25-.85-1.74l-4.72-5.33s-.03-.02-.04-.03c-.01,0-.02-.02-.03-.02Z"/>
          <path class="cls-23" d="M338.99,123.58c1.26,1.75.88,4.64-.77,7.92,0,.02-.02.05-.03.07.18.35.29.62.36,1.02.46,2.45.53,8.6-7.22,16.33-2.3,2.3-4.4,3.84-6.26,4.85.18-.05.36-.1.55-.15,0,0,.02,0,.02,0,.18-.05.36-.11.54-.17.02,0,.04-.01.05-.02.17-.06.35-.12.53-.19.03,0,.05-.02.08-.03.17-.06.34-.13.52-.21.04-.02.07-.03.11-.05.17-.07.34-.14.51-.22.05-.02.1-.04.14-.07.16-.07.33-.15.5-.23.06-.03.12-.06.18-.09.16-.08.32-.16.48-.25.07-.04.14-.07.21-.11.15-.08.31-.17.47-.26.08-.05.16-.09.24-.14.15-.09.3-.17.45-.26.09-.06.18-.11.28-.17.15-.09.29-.18.44-.27.1-.07.21-.14.32-.21.14-.09.28-.18.42-.28.12-.08.24-.17.36-.25.13-.09.26-.18.4-.28.13-.09.27-.2.4-.29.12-.09.25-.18.37-.28.15-.11.3-.23.45-.35.11-.09.22-.17.34-.26.17-.14.35-.28.52-.43.1-.08.19-.16.29-.24.27-.23.55-.47.82-.71,8.99-7.97,9.06-14.16,8.6-16.61-.12-.65-.42-1.25-.85-1.74l-4.72-5.33s-.03-.02-.04-.03c-.01,0-.02-.02-.03-.02Z"/>
        </g>
      </g>
      <g id="Capsule">
        <path class="cls-28" d="M84.97,145.24h0c-2.68-5.43-9.31-7.69-14.75-5.01l-9.42,4.64c-.47.23-.67.81-.43,1.28l6.47,13.14-.9-1.83c-.23-.47-.04-1.05.43-1.28l18.11-8.92c.56-.27,1.24.05,1.36.66.93,4.81-1.55,9.94-6.32,12.29l-4.39,2.16,4.82-2.37c5.43-2.68,7.69-9.31,5.01-14.75Z"/>
        <path class="cls-29" d="M42.7,167.84l19.67-9.69c.47-.23,1.05-.04,1.28.43l-5.57-11.31c-.12-.24-.32-.4-.55-.48s-.49-.07-.73.05l-10.12,4.99c-.35.16-.69.33-1.02.51-.09.05-.18.1-.27.15-1.7.98-3.02,2.27-3.96,3.71-.09.14-.18.27-.26.41-.03.06-.06.12-.09.17-1.77,3.13-1.89,6.92-.27,10.21.17.35.37.69.57,1.02.07.1.14.2.21.3.15.22.3.44.46.64.07.09.15.17.22.25.18.21.36.42.55.62.05.05.1.09.15.14h.05c-.22-.2-.43-.42-.63-.64-.41-.47-.25-1.2.31-1.48Z"/>
        <path class="cls-28" d="M85.85,147.91c-.12-.61-.8-.93-1.36-.66l-18.11,8.92c-.47.23-.67.81-.43,1.28l.9,1.83,2.42,4.91c.06.12.14.22.23.3.19.16.43.25.68.23.12,0,.25-.04.37-.1l4.6-2.27,4.39-2.16c4.77-2.35,7.25-7.48,6.32-12.29Z"/>
        <path class="cls-22" d="M85.85,147.91c-.12-.61-.8-.93-1.36-.66l-18.11,8.92c-.47.23-.67.81-.43,1.28l.9,1.83,2.42,4.91c.06.12.14.22.23.3.19.16.43.25.68.23.12,0,.25-.04.37-.1l4.6-2.27,4.39-2.16c4.77-2.35,7.25-7.48,6.32-12.29Z"/>
        <path class="cls-29" d="M63.65,158.58c-.23-.47-.81-.67-1.28-.43l-19.67,9.69c-.56.27-.72,1.01-.31,1.48.2.23.41.45.63.66,2.88,2.74,7.2,3.76,11.22,2.51.25-.08.49-.16.74-.26.07-.03.13-.05.2-.08.27-.11.54-.22.8-.36l10.55-5.2c.12-.06.22-.14.3-.23.24-.28.31-.69.13-1.05l-3.32-6.74Z"/>
        <path class="cls-22" d="M63.65,158.58c-.23-.47-.81-.67-1.28-.43l-19.67,9.69c-.56.27-.72,1.01-.31,1.48.2.23.41.45.63.66,2.88,2.74,7.2,3.76,11.22,2.51.25-.08.49-.16.74-.26.07-.03.13-.05.2-.08.27-.11.54-.22.8-.36l10.55-5.2c.12-.06.22-.14.3-.23.24-.28.31-.69.13-1.05l-3.32-6.74Z"/>
      </g>
      <g id="Dropper">
        <path class="cls-28" d="M203.19,189.48h0s3.85.05,3.85.05l-.17-1.27c-.05-.36-.38-.66-.73-.67l-4.49-.05-6.01-.07c-.36,0-.69.28-.75.65l-.2,1.27,8.5.1Z"/>
        <path class="cls-14" d="M203.19,189.48h0s3.85.05,3.85.05l-.17-1.27c-.05-.36-.38-.66-.73-.67l-4.49-.05h.92c-.36,0-.69.3-.75.66l-.2,1.27,1.56.02Z"/>
        <path class="cls-18" d="M203.17,191.01l.02-1.53-8.5-.1-1.46-.02c-.23,0-.41.18-.41.4v.71c-.01.23.17.41.4.41l9.95.12h0Z"/>
        <path class="cls-28" d="M200.6,205.5l1.31-13.05.09-.57-3.12-.04h-.75c-.14-.01-.25.11-.23.25l1.9,13.7c.02.14.07.26.13.36.3-.06.6-.27.67-.65Z"/>
        <path class="cls-29" d="M194.65,160.7c-1.65-.02-3.02,1.31-3.04,2.97v.22s12.5.15,12.5.15l.04-3.23-9.5-.11Z"/>
        <path class="cls-29" d="M200.06,186l.02-1.32c0-.57.36-1.05.88-1.28,1.33-.59,2.39-1.68,2.95-3.03l-12.08-.14c.53,1.36,1.56,2.48,2.88,3.1.51.24.86.73.85,1.3l-.02,1.32c0,.36.29.66.65.66l3.2.04c.36,0,.66-.29.66-.65Z"/>
        <path class="cls-4" d="M203.94,178.27l.15-12.31-12.5-.15-.15,12.32c0,.06,0,.12.01.18l19.1.23h0s-6.61-.08-6.61-.08c0-.06,0-.12,0-.18Z"/>
        <path class="cls-4" d="M203.94,178.27c0,.06,0,.12,0,.18l6.61.08c0-.06.01-.12.02-.18h0s.15-12.32.15-12.32l-6.63-.08-.15,12.31Z"/>
        <path class="cls-22" d="M203.94,178.27c0,.06,0,.12,0,.18l6.61.08c0-.06.01-.12.02-.18h0s.15-12.32.15-12.32l-6.63-.08-.15,12.31Z"/>
        <path class="cls-29" d="M200.96,183.39c-.52.23-.88.71-.88,1.28l-.02,1.32c0,.36-.3.65-.66.65l6.21.07c.36,0,.66-.29.66-.65l.02-1.32c0-.14.03-.28.07-.41.09-.26.25-.48.46-.66.11-.09.23-.16.36-.22,1-.44,1.84-1.16,2.44-2.07.2-.3.37-.62.51-.96l-6.21-.07c-.56,1.35-1.62,2.44-2.95,3.03Z"/>
        <path class="cls-22" d="M200.96,183.39c-.52.23-.88.71-.88,1.28l-.02,1.32c0,.36-.3.65-.66.65l6.21.07c.36,0,.66-.29.66-.65l.02-1.32c0-.14.03-.28.07-.41.09-.26.25-.48.46-.66.11-.09.23-.16.36-.22,1-.44,1.84-1.16,2.44-2.07.2-.3.37-.62.51-.96l-6.21-.07c-.56,1.35-1.62,2.44-2.95,3.03Z"/>
        <path class="cls-29" d="M208.38,160.92c-.19-.04-.4-.07-.6-.07l-3.63-.04-.04,3.23,6.63.08v-.22c.02-1.44-1-2.67-2.36-2.97Z"/>
        <path class="cls-22" d="M208.38,160.92c-.19-.04-.4-.07-.6-.07l-3.63-.04-.04,3.23,6.63.08v-.22c.02-1.44-1-2.67-2.36-2.97Z"/>
        <path class="cls-28" d="M203.55,191.9h-.75s-.79-.02-.79-.02l-.09.57-1.31,13.05c-.06.38-.37.59-.67.65.05.08.1.15.17.2.02.02.05.03.08.05.05.03.1.06.16.09.04.02.09.03.14.04.04,0,.09.02.13.02.04,0,.09,0,.13,0,.05,0,.11-.01.16-.02.03,0,.07-.02.1-.03.06-.02.13-.06.18-.1.02-.01.04-.02.05-.04.06-.05.12-.12.17-.19,0-.01.02-.02.03-.03.05-.09.09-.2.11-.32l2.23-13.65c.02-.14-.08-.27-.22-.27Z"/>
        <path class="cls-14" d="M203.55,191.9h-.75s-.79-.02-.79-.02l-.09.57-1.31,13.05c-.06.38-.37.59-.67.65.05.08.1.15.17.2.02.02.05.03.08.05.05.03.1.06.16.09.04.02.09.03.14.04.04,0,.09.02.13.02.04,0,.09,0,.13,0,.05,0,.11-.01.16-.02.03,0,.07-.02.1-.03.06-.02.13-.06.18-.1.02-.01.04-.02.05-.04.06-.05.12-.12.17-.19,0-.01.02-.02.03-.03.05-.09.09-.2.11-.32l2.23-13.65c.02-.14-.08-.27-.22-.27Z"/>
        <path class="cls-18" d="M208.5,189.54l-1.44-.02h-.02s-3.85-.05-3.85-.05l-.02,1.53,5.31.06c.23,0,.41-.18.41-.4v-.71c0-.06,0-.11-.02-.16-.06-.15-.21-.25-.37-.25Z"/>
        <path class="cls-14" d="M208.5,189.54l-1.44-.02h-.02s-3.85-.05-3.85-.05l-.02,1.53,5.31.06c.23,0,.41-.18.41-.4v-.71c0-.06,0-.11-.02-.16-.06-.15-.21-.25-.37-.25Z"/>
      </g>
      <g>
        <path class="cls-29" d="M185.8,20.78l-2.44,2.85c-2.09,2.44-2.24,5.81-.44,7.61l4.75,4.75,6.67-6.67-8.54-8.54Z"/>
        <path class="cls-29" d="M213.93,9.74L204.41.22c-.4-.4-1.2-.22-1.72.38l-6.94,8.12,14.78,14.78-5.18-5.18,8.58-8.58Z"/>
        <polygon class="cls-4" points="195.57 28.09 204.17 19.49 194.73 10.06 186.87 19.39 199.86 32.37 209.19 24.51 199.86 32.37 195.57 28.09"/>
        <path class="cls-28" d="M183.22,36.93l-2.03-2.03-1.37,1.37c-.34.34-.34.9,0,1.25l1.41,1.41,1.99-1.99Z"/>
        <path class="cls-18" d="M184.96,35.19l-3.05-3.05-.84.84c-.5.5-.5,1.31,0,1.81l.11.11,2.04,2.04,1.74-1.74Z"/>
        <path class="cls-29" d="M187.67,35.99l.33.33c.79.79,1.87,1.2,3.05,1.24,0,0,0,0,0,0,.32.01.64,0,.97-.05.61-.08,1.24-.26,1.84-.53.61-.27,1.19-.64,1.73-1.1l1.31-1.13,1.53-1.31-4.12-4.12-6.67,6.67Z"/>
        <path class="cls-22" d="M187.67,35.99l.33.33c.79.79,1.87,1.2,3.05,1.24,0,0,0,0,0,0,.32.01.64,0,.97-.05.61-.08,1.24-.26,1.84-.53.61-.27,1.19-.64,1.73-1.1l1.31-1.13,1.53-1.31-4.12-4.12-6.67,6.67Z"/>
        <polygon class="cls-4" points="195.57 28.09 199.86 32.37 209.19 24.51 204.17 19.49 195.57 28.09"/>
        <polygon class="cls-22" points="195.57 28.09 199.86 32.37 209.19 24.51 204.17 19.49 195.57 28.09"/>
        <path class="cls-29" d="M219.19,15.1c-.04-.1-.09-.19-.17-.26l-5.1-5.1-8.58,8.58,5.18,5.18,8.12-6.94c.3-.26.5-.59.57-.9.02-.08.03-.16.03-.23,0-.11-.01-.22-.05-.32Z"/>
        <path class="cls-22" d="M219.19,15.1c-.04-.1-.09-.19-.17-.26l-5.1-5.1-8.58,8.58,5.18,5.18,8.12-6.94c.3-.26.5-.59.57-.9.02-.08.03-.16.03-.23,0-.11-.01-.22-.05-.32Z"/>
        <path class="cls-28" d="M181.23,38.92l.5.5c.34.34.9.34,1.25,0l.71-.71.65-.65-1.13-1.13-1.99,1.99Z"/>
        <path class="cls-14" d="M181.23,38.92l.5.5c.34.34.9.34,1.25,0l.71-.71.65-.65-1.13-1.13-1.99,1.99Z"/>
        <path class="cls-18" d="M183.22,36.93l1.13,1.13h0l.11.11c.25.25.58.37.9.37.16,0,.33-.03.48-.09.15-.06.3-.16.42-.28l.84-.84-2.14-2.14-1.74,1.74Z"/>
        <path class="cls-14" d="M183.22,36.93l1.13,1.13h0l.11.11c.25.25.58.37.9.37.16,0,.33-.03.48-.09.15-.06.3-.16.42-.28l.84-.84-2.14-2.14-1.74,1.74Z"/>
        <rect class="cls-18" x="5.48" y="209.4" width="1.68" height="6.34" rx=".84" ry=".84" transform="translate(65.81 8.4) rotate(17.95)"/>
        <rect class="cls-18" x="8.44" y="200.24" width="1.68" height="6.34" rx=".84" ry=".84" transform="translate(63.13 7.04) rotate(17.95)"/>
        <rect class="cls-18" x="11.63" y="206.25" width="1.68" height="6.34" rx=".84" ry=".84" transform="translate(215.54 262.09) rotate(107.95)"/>
        <rect class="cls-18" x="2.22" y="203.23" width="1.68" height="6.34" rx=".84" ry=".84" transform="translate(200.36 267.09) rotate(107.95)"/>
        <rect class="cls-18" x="394.7" y="192.48" width="1.68" height="6.34" rx=".84" ry=".84" transform="translate(79.54 -112.37) rotate(17.95)"/>
        <rect class="cls-18" x="397.66" y="183.32" width="1.68" height="6.34" rx=".84" ry=".84" transform="translate(76.86 -113.72) rotate(17.95)"/>
        <rect class="cls-18" x="400.85" y="189.33" width="1.68" height="6.34" rx=".84" ry=".84" transform="translate(708.6 -130.32) rotate(107.95)"/>
        <rect class="cls-18" x="391.44" y="186.31" width="1.68" height="6.34" rx=".84" ry=".84" transform="translate(693.42 -125.32) rotate(107.95)"/>
        <rect class="cls-18" x="333.52" y="40.81" width="1.05" height="3.95" rx=".52" ry=".52" transform="translate(-2.58 52.88) rotate(-9.02)"/>
        <rect class="cls-18" x="332.57" y="34.9" width="1.05" height="3.95" rx=".52" ry=".52" transform="translate(-1.66 52.66) rotate(-9.02)"/>
        <rect class="cls-18" x="336.04" y="37.33" width="1.05" height="3.95" rx=".52" ry=".52" transform="translate(322.63 -299.26) rotate(80.98)"/>
        <rect class="cls-18" x="329.97" y="38.31" width="1.05" height="3.95" rx=".52" ry=".52" transform="translate(318.47 -292.44) rotate(80.98)"/>
        <path class="cls-18" d="M81.62,43.11l.48,3c.17,1.09.81,2.05,1.75,2.62l2.58,1.59c.49.3.34,1.04-.23,1.13l-3,.48c-1.09.17-2.05.81-2.62,1.75l-1.59,2.58c-.3.49-1.04.34-1.13-.23l-.48-3c-.17-1.09-.81-2.05-1.75-2.62l-2.58-1.59c-.49-.3-.34-1.04.23-1.13l3-.48c1.09-.17,2.05-.81,2.62-1.75l1.59-2.58c.3-.49,1.04-.34,1.13.23Z"/>
        <path class="cls-27" d="M288.74,266.45h0c.17,1.07.8,2.01,1.72,2.58h0c.48.29.33,1.02-.22,1.11h0c-1.07.17-2.01.8-2.58,1.72h0c-.29.48-1.02.33-1.11-.22h0c-.17-1.07-.8-2.01-1.72-2.58h0c-.48-.29-.33-1.02.22-1.11h0c1.07-.17,2.01-.8,2.58-1.72h0c.29-.48,1.02-.33,1.11.22Z"/>
        <path class="cls-27" d="M380.75,137.91h0c.17,1.07.8,2.01,1.72,2.58h0c.48.29.33,1.02-.22,1.11h0c-1.07.17-2.01.8-2.58,1.72h0c-.29.48-1.02.33-1.11-.22h0c-.17-1.07-.8-2.01-1.72-2.58h0c-.48-.29-.33-1.02.22-1.11h0c1.07-.17,2.01-.8,2.58-1.72h0c.29-.48,1.02-.33,1.11.22Z"/>
        <path class="cls-27" d="M43.22,103.38v.05c.18,1.06.8,2,1.72,2.57l.04.02c.47.29.33,1.02-.22,1.1h-.05c-1.06.18-2,.8-2.57,1.72l-.02.04c-.29.47-1.02.33-1.1-.22v-.05c-.18-1.06-.8-2-1.72-2.57l-.04-.02c-.47-.29-.33-1.02.22-1.1h.05c1.06-.18,2-.8,2.57-1.72l.02-.04c.29-.47,1.02-.33,1.1.22Z"/>
      </g>
    </g>
  </g>
</svg>