<?xml version="1.0" encoding="UTF-8"?>
<svg id="Layer_2" data-name="Layer 2" xmlns="http://www.w3.org/2000/svg" viewBox="0 0 1621.78 385.44">
  <defs>
    <style>
      .cls-1 {
        fill: none;
      }

      .cls-2 {
        fill: #00a39b;
      }

      .cls-3 {
        fill: #91c7c4;
      }

      .cls-4 {
        fill: #faf8fe;
      }

      .cls-5 {
        fill: #eeb569;
      }
    </style>
  </defs>
  <g id="Layer_2-2" data-name="Layer 2">
    <g>
      <g id="for_export" data-name="for export">
        <g>
          <path class="cls-4" d="M88.27,19h208.46c38.23,0,69.27,31.04,69.27,69.27v208.46c0,38.23-31.04,69.27-69.27,69.27H88.27c-38.23,0-69.27-31.04-69.27-69.27V88.27c0-38.23,31.04-69.27,69.27-69.27Z"/>
          <path class="cls-1" d="M210.95,181.08c-2.32.19-4.59.34-6.72.48-4.22.28-7.88.52-10.99.96,3.11-.44,6.77-.68,10.99-.96,2.13-.14,4.4-.29,6.72-.48Z"/>
          <path class="cls-1" d="M184.53,184.48c-.89.19-1.85.38-2.83.57-.54.11-1.09.22-1.64.33.56-.11,1.11-.22,1.64-.33.98-.19,1.94-.38,2.83-.57Z"/>
          <path class="cls-1" d="M193.24,182.52c-1.87.27-3.53.6-5,1.06-.37.12-.79.23-1.27.35.48-.12.91-.24,1.27-.35,1.47-.46,3.13-.8,5-1.06Z"/>
          <path class="cls-1" d="M229.13,178.18c8.17-2.51,8.26-5.48,8.3-7.08.11-3.61-.98-7.49-9.63-11.35-2.42-1.08-5.17-2.02-8.09-2.86l-.95,12.72c-.05.61-.19,1.19-.42,1.75l-.37,9.01c-2.33.29-4.71.52-7.03.7,2.32-.19,4.7-.41,7.03-.7,3.97-.5,7.83-1.18,11.14-2.2h.02Z"/>
          <path class="cls-1" d="M273.79,24.63H111.65c-23.13,0-44.96,9.08-61.45,25.57s-25.57,38.31-25.57,61.45v162.14c0,23.13,9.08,44.96,25.57,61.45,16.49,16.49,38.31,25.57,61.45,25.57h162.14c23.13,0,44.96-9.08,61.45-25.57s25.57-38.31,25.57-61.45V111.65c0-23.13-9.08-44.96-25.57-61.45-16.49-16.49-38.31-25.57-61.45-25.57h0ZM213.12,314.55c0,8.68-7.1,15.78-15.78,15.78h-9.59c-8.68,0-15.78-7.1-15.78-15.78v-9.59c0-8.68,7.1-15.78,15.78-15.78h9.59c8.68,0,15.78,7.1,15.78,15.78v9.59ZM277.67,103.96c-.43,4.47-10.12,7.09-20.42,6.02-28.16-2.93-49.94-19.39-72.1-19.39h-.73c-43.38.2-43.38,10.85-43.38,14.86,0,4.79,1.46,11.02,12.84,16.66,2.8,1.39,5.88,2.59,9.11,3.66l-.63-9.56-.02-.23v-.04l-.17-2.64c-.32-4.92,3.4-9.18,8.32-9.48,3.47-.21,7.32-.34,11.61-.36h.72c9.92,0,21.3.93,32.12,2.18,4.71.55,8.16,4.71,7.85,9.44v.09c0,.27,0,.53-.02.8l-.33,4.48-1.2,18.22h0c5.43,1.35,10.73,2.99,15.5,5.12,9.68,4.32,21.13,12.65,20.67,27.79-.23,7.72-4.2,18.05-21.76,23.46-9.65,2.97-20.9,3.71-29.94,4.31-3.94.26-9.33.61-10.82,1.06-2.6.82-5.63,1.42-8.85,2.05-5.68,1.13-12.13,2.4-16.95,4.96-.05.02-.09.05-.14.07-5.85,3.15-5.76,11.58.07,14.76.16.09.33.17.49.26h0c.36-2.29,2.15-4.25,4.67-4.97,3.14-.9,6.44-1.56,9.52-2.18,3.17-.64,6.17-1.24,8.73-2.05,1.47-.45,6.79-.8,10.68-1.06,1.78-.12,3.66-.24,5.58-.39,4.1-.31,7.57,2.72,7.32,6.43l-.92,13.94h0v.02l-.34,5.12h0c6.83,1.61,13.05,2.91,17.79,3.85,5.11,1.01,8.39,5.46,7.41,10.05l-.11.54c-1.02,4.79-6.27,7.89-11.6,6.84-4.12-.81-9.29-1.89-15.02-3.2l-.5,6.16c-.19,2.36-.78,4.68-1.88,6.77-2.24,4.27-5.2,5.65-7.89,6.1-.87.21-1.76.33-2.68.33h-15.45c-5.52,0-10.36-3.96-11.19-9.13-.1-.43-.17-.88-.21-1.33l-1.93-21.05c-4.39-1.7-8.27-3.42-11.59-5.15-12.64-6.58-18.62-14.13-17.79-22.45,1.02-10.19,6.82-18.36,16.77-23.64,2.77-1.47,5.67-2.62,8.55-3.56,1.25-.41,2.5-.77,3.73-1.11-1.24.33-2.48.7-3.73,1.11l-.7-17.25c-.2-.53-.33-1.08-.37-1.65l-1.84-24.63c-6.97-1.85-14.04-4.16-20.33-7.28-15.34-7.61-23.12-18.46-23.12-32.26,0-7.54,3.16-21.22,24.3-28.03,4.41-1.42,9.4-2.5,15.13-3.26,1.51-15.31,8.52-27.15,17.57-27.15h28.94c9,0,15.98,11.7,17.55,26.88,4.87.31,9.27.67,13.34,1.05,17.95,3.63,20.15,7.79,25.51,12.54.91,1.27,4.74,3.49,9.74,5.89,0,0,5.32,2.32,4.52,10.59v.02Z"/>
          <circle class="cls-1" cx="248.66" cy="91.39" r="5.67"/>
          <rect class="cls-2" x="171.96" y="289.18" width="41.16" height="41.16" rx="15.78" ry="15.78"/>
          <path class="cls-2" d="M185.15,72.75c16.39,0,29,.47,39.41,1.14-1.56-15.18-8.54-26.88-17.55-26.88h-28.94c-9.06,0-16.06,11.84-17.57,27.15,6.8-.9,14.64-1.36,23.83-1.41h.83-.01Z"/>
          <path class="cls-5" d="M214.67,237.36l-1.46,18.1c5.73,1.31,10.91,2.38,15.02,3.2,5.33,1.05,10.58-2.05,11.6-6.84l.11-.54c.97-4.59-2.31-9.04-7.41-10.05-4.74-.94-10.97-2.24-17.79-3.85h0s-.05-.01-.07-.02h0Z"/>
          <path class="cls-5" d="M221.08,138.64l-1.36,18.26c2.92.84,5.67,1.78,8.09,2.86,8.65,3.86,9.74,7.74,9.63,11.35-.05,1.59-.14,4.56-8.3,7.08-3.31,1.02-7.17,1.7-11.14,2.2-2.33.29-4.71.52-7.03.7-2.32.19-4.59.34-6.72.48-4.22.28-7.88.52-10.99.96-1.87.27-3.53.6-5,1.06-.37.12-.79.23-1.27.35s-1.01.24-1.57.36c-.28.06-.57.12-.87.18-.89.19-1.85.38-2.83.57-.54.11-1.09.22-1.64.33-2.79.56-5.81,1.2-8.9,2.03-1.24.33-2.48.7-3.73,1.11-2.88.94-5.78,2.09-8.55,3.56-9.95,5.27-15.75,13.44-16.77,23.64-.83,8.31,5.15,15.86,17.79,22.45,3.32,1.73,7.2,3.45,11.59,5.15l-.67-7.34c-.23-3.12-.86-7.69-1.32-13.45h0c-.16-.09-.34-.18-.49-.26-5.83-3.18-5.92-11.61-.07-14.76.04-.02.09-.05.14-.07,4.83-2.56,11.27-3.83,16.95-4.96,3.21-.64,6.25-1.24,8.85-2.05,1.49-.45,6.88-.8,10.82-1.06,9.04-.59,20.29-1.33,29.94-4.31,17.57-5.41,21.53-15.74,21.76-23.46.46-15.14-10.99-23.47-20.67-27.79-4.77-2.13-10.07-3.77-15.5-5.12h0c-.05,0-.11-.02-.16-.04h0Z"/>
          <path class="cls-5" d="M273.15,93.37c-4.99-2.4-8.82-4.62-9.74-5.89-5.36-4.75-7.56-8.91-25.51-12.54-4.07-.38-8.47-.74-13.34-1.05-10.41-.67-23.02-1.14-39.41-1.14h-.83c-9.19.04-17.03.5-23.83,1.41-5.73.76-10.72,1.84-15.13,3.26-21.14,6.81-24.3,20.49-24.3,28.03,0,13.8,7.78,24.65,23.12,32.26,6.29,3.12,13.36,5.43,20.33,7.28l-1.43-19.19s-.06-.02-.09-.03h0c-3.23-1.07-6.31-2.27-9.11-3.66-11.38-5.65-12.84-11.87-12.84-16.66,0-4.01,0-14.66,43.38-14.86h.73c22.16,0,43.94,16.46,72.1,19.39,10.29,1.07,19.99-1.55,20.42-6.02.8-8.27-4.52-10.59-4.52-10.59h0ZM248.66,97.06c-3.13,0-5.67-2.54-5.67-5.67s2.54-5.67,5.67-5.67,5.67,2.54,5.67,5.67-2.54,5.67-5.67,5.67Z"/>
          <path class="cls-3" d="M273.79,0H111.65C50.09,0,0,50.09,0,111.65v162.14c0,61.56,50.09,111.65,111.65,111.65h162.14c61.56,0,111.65-50.09,111.65-111.65V111.65c0-61.56-50.09-111.65-111.65-111.65h0ZM360.8,273.79c0,23.13-9.08,44.96-25.57,61.45s-38.31,25.57-61.45,25.57H111.64c-23.13,0-44.96-9.08-61.45-25.57-16.49-16.49-25.57-38.31-25.57-61.45V111.65c0-23.13,9.08-44.96,25.57-61.45s38.31-25.57,61.45-25.57h162.14c23.13,0,44.96,9.08,61.45,25.57,16.49,16.49,25.57,38.31,25.57,61.45v162.14Z"/>
          <path class="cls-2" d="M163.08,125.8l1.43,19.19,1.84,24.63c.04.57.18,1.12.37,1.65l.7,17.25c1.25-.41,2.5-.77,3.73-1.11,3.09-.84,6.11-1.47,8.9-2.03.56-.11,1.11-.22,1.64-.33.98-.19,1.94-.38,2.83-.57.3-.06.59-.12.87-.18.56-.12,1.09-.24,1.57-.36s.91-.24,1.27-.35c1.47-.46,3.13-.8,5-1.06,3.11-.44,6.77-.68,10.99-.96,2.13-.14,4.4-.29,6.72-.48s4.7-.41,7.03-.7l.37-9.01c.22-.56.37-1.15.42-1.75l.95-12.72,1.36-18.26c.05,0,.11.02.16.04h0l1.2-18.22.33-4.48c.02-.27.02-.54,0-.8v-.09c.32-4.73-3.13-8.9-7.84-9.44-10.82-1.25-22.19-2.18-32.12-2.18h-.72c-4.29.02-8.14.14-11.61.36-4.92.3-8.64,4.57-8.32,9.48l.17,2.64v.04l.02.23.63,9.56h0s.06.02.09.03v-.02Z"/>
          <path class="cls-2" d="M171.49,243.32l1.93,21.05c.03.45.11.89.21,1.33.83,5.17,5.67,9.13,11.19,9.13h15.45c.92,0,1.82-.12,2.68-.33,2.69-.45,5.65-1.83,7.89-6.1,1.1-2.09,1.69-4.42,1.88-6.77l.5-6.16,1.46-18.1s.05.01.07.02h0l.34-5.12h0v-.02l.92-13.94c.24-3.72-3.22-6.75-7.32-6.43-1.93.15-3.8.27-5.58.39-3.89.26-9.21.61-10.68,1.06-2.56.82-5.56,1.42-8.73,2.05-3.08.62-6.38,1.28-9.52,2.18-2.52.72-4.31,2.67-4.67,4.97h0c.46,5.77,1.08,10.34,1.32,13.45l.67,7.34h0Z"/>
        </g>
      </g>
      <g>
        <g>
          <path class="cls-2" d="M463.09,247.6V117.43c0-13.87,7.73-21.87,20.54-21.87h50.68c44.81,0,67.75,18.67,67.75,53.88,0,24.81-12.54,42.14-36.54,48.81-2.67.8-5.6,1.33-8.54,1.6l45.34,54.95c1.6,1.87-5.87,14.4-22.67,14.4-11.47,0-17.6-4.8-25.87-16l-37.88-47.21h-13.6v45.34c0,11.2-5.87,17.87-17.34,17.87h-5.33c-10.67,0-16.54-7.74-16.54-21.6ZM562.85,152.11c0-17.07-10.67-25.87-32.01-25.87h-29.07v51.74h29.87c21.07,0,31.21-9.87,31.21-25.87Z"/>
          <path class="cls-2" d="M681.01,135.04c38.68,0,64.81,26.94,64.81,65.08v2.4c-.27,6.4-2.13,9.87-9.07,9.87h-90.15l.8,4.27c4,17.07,18.14,28.01,37.34,28.01s30.67-8.53,36.54-18.94c.27-.53,18.4,1.07,18.4,16,0,7.2-5.07,14.67-14.4,20.27-9.6,5.87-23.47,9.87-41.61,9.87-42.41,0-70.15-26.41-70.15-67.75s28.27-69.08,67.48-69.08ZM680.74,160.91c-17.87,0-31.21,12.8-33.61,30.94h64.01c-1.07-18.94-12.54-30.94-30.41-30.94Z"/>
          <path class="cls-2" d="M827.97,166.51c-10.67,0-20.27,6.67-25.61,16v68.82c0,13.6-6.93,17.87-16.54,17.87h-4c-10.13,0-17.07-4-17.07-17.87v-110.42c0-1.33,6.67-4.27,14.14-4.27,9.33,0,19.47,4,22.4,21.34,8.8-13.07,21.34-22.94,40.28-22.94,21.6,0,35.21,10.4,41.61,26.67,8.8-14.94,22.14-26.67,43.74-26.67,33.07,0,46.94,21.07,46.94,51.75v64.55c0,13.6-6.94,17.87-16.54,17.87h-4c-10.13,0-17.07-4-17.07-17.87v-58.68c0-17.07-7.47-26.14-22.67-26.14-10.67,0-20.27,6.67-25.61,16v68.82c0,13.6-6.93,17.87-16.54,17.87h-4c-9.87,0-17.07-4-17.07-17.87v-57.88c0-17.87-7.47-26.94-22.4-26.94Z"/>
          <path class="cls-2" d="M1060.29,135.04c38.68,0,64.81,26.94,64.81,65.08v2.4c-.27,6.4-2.13,9.87-9.07,9.87h-90.15l.8,4.27c4,17.07,18.14,28.01,37.34,28.01s30.67-8.53,36.54-18.94c.27-.53,18.4,1.07,18.4,16,0,7.2-5.07,14.67-14.4,20.27-9.6,5.87-23.47,9.87-41.61,9.87-42.41,0-70.15-26.41-70.15-67.75s28.27-69.08,67.48-69.08ZM1060.02,160.91c-17.87,0-31.21,12.8-33.61,30.94h64.01c-1.07-18.94-12.54-30.94-30.41-30.94Z"/>
          <path class="cls-2" d="M1139.5,203.32c0-41.34,24.54-68.28,60.55-68.28,18.67,0,33.61,8.54,41.08,19.74v-67.75c0-1.07,6.67-4.27,14.14-4.27,11.2,0,23.47,5.87,23.47,30.14v138.43c0,13.6-6.67,17.87-16.54,17.87h-3.73c-8.53,0-14.94-2.93-16.27-13.07-.27-2.93-.53-5.87-.53-9.07-8.8,15.2-23.2,24.81-42.41,24.81-35.21,0-59.75-27.74-59.75-68.55ZM1209.12,165.18c-20.27,0-33.87,14.67-33.87,38.14s13.87,38.41,33.34,38.41c17.87,0,32.81-12.54,32.81-31.21v-24.54c-5.6-12.8-16.27-20.8-32.27-20.8Z"/>
          <path class="cls-2" d="M1411.56,167.31h-10.4c-10.94,0-15.74-4.8-15.74-13.87v-2.4c0-8.53,4.8-13.07,15.74-13.07h10.67v-6.93c0-36.01,17.87-49.88,44.81-49.88,12.27,0,20.8,2.93,26.14,6.93,4.8,3.73,6.93,8.54,6.93,13.6,0,9.07-7.47,16-8,15.2-3.73-3.47-10.4-6.93-17.87-6.93-10.94,0-16,6.13-16,21.07v6.93h16.8c10.94,0,15.74,4.8,15.74,13.87v2.13c0,8.8-4.8,13.34-15.74,13.34h-15.47v84.02c0,13.87-6.67,17.87-16.54,17.87h-4c-9.6,0-17.07-4.27-17.07-17.87v-84.02Z"/>
          <path class="cls-2" d="M1521.18,308.94l21.34-49.08c-5.87-1.07-9.87-2.93-12-8.53l-44.81-103.76c-.8-2.13,9.07-10.94,20.54-11.2,9.07,0,16.54,4.53,21.34,18.94l27.74,74.68,25.07-74.42c4.53-14.67,12.54-19.2,21.07-19.2,10.4,0,21.07,8.8,20.27,10.67l-59.21,153.9c-5.6,14.14-13.07,18.4-21.34,18.4-10.94,0-20.8-8.53-20-10.4Z"/>
        </g>
        <path class="cls-5" d="M1335.33,270.8c-13.07,0-21.07-7.47-21.07-19.47s7.74-19.47,21.07-19.47,21.07,7.47,21.07,19.47-8,19.47-21.07,19.47ZM1337.46,212.66h-4c-9.87,0-16.8-4.27-16.8-18.14v-96.55c0-13.6,6.94-17.87,16.8-17.87h3.73c10.13,0,17.07,4,17.07,17.87v96.55c0,13.6-7.2,18.14-16.8,18.14Z"/>
      </g>
    </g>
  </g>
</svg>