<?xml version="1.0" encoding="UTF-8"?>
<svg id="Layer_2" data-name="Layer 2" xmlns="http://www.w3.org/2000/svg" viewBox="0 0 562.95 562.95">
  <defs>
    <style>
      .cls-1 {
        fill: #a8732b;
      }

      .cls-2 {
        fill: #8ec1b9;
      }

      .cls-3 {
        fill: #eea23c;
      }

      .cls-4 {
        fill: #f7edd4;
      }

      .cls-5 {
        fill: #30363a;
      }

      .cls-6 {
        fill: #f5e5c4;
      }

      .cls-7 {
        fill: #698f89;
      }

      .cls-8 {
        fill: #fff;
      }

      .cls-9 {
        fill: #f0e8d8;
      }

      .cls-10 {
        fill: #fff7e6;
      }

      .cls-11 {
        fill: #d49a4f;
      }

      .cls-12 {
        fill: #faf8fe;
      }

      .cls-13 {
        fill: #eeb569;
      }
    </style>
  </defs>
  <g id="for_export" data-name="for export">
    <g>
      <g>
        <path class="cls-5" d="M281.48,560.95c-74.65,0-144.83-29.07-197.62-81.86S2,356.13,2,281.48,31.07,136.64,83.86,83.86C136.64,31.07,206.83,2,281.48,2s144.83,29.07,197.62,81.86c52.79,52.79,81.86,122.97,81.86,197.62s-29.07,144.84-81.86,197.62-122.97,81.86-197.62,81.86h0Z"/>
        <path class="cls-12" d="M281.48,4c37.46,0,73.8,7.34,108,21.8,33.04,13.98,62.72,33.98,88.2,59.47,25.48,25.48,45.49,55.16,59.47,88.2,14.47,34.21,21.8,70.54,21.8,108.01s-7.34,73.8-21.8,108c-13.98,33.04-33.98,62.72-59.47,88.2-25.48,25.48-55.16,45.49-88.2,59.47-34.21,14.47-70.54,21.8-108.01,21.8s-73.8-7.34-108.01-21.8c-33.04-13.98-62.72-33.98-88.2-59.47-25.48-25.48-45.49-55.16-59.47-88.2-14.47-34.21-21.8-70.54-21.8-108.01s7.34-73.8,21.8-108.01c13.98-33.04,33.98-62.72,59.47-88.2,25.48-25.48,55.16-45.49,88.2-59.47,34.21-14.47,70.54-21.8,108.01-21.8h0M281.48,0h0C126.02,0,0,126.02,0,281.48h0c0,155.46,126.02,281.48,281.48,281.48h0c155.45,0,281.48-126.02,281.48-281.48h0C562.95,126.02,436.93,0,281.48,0h0Z"/>
      </g>
      <g>
        <path class="cls-6" d="M217.41,239.01h-100.71c-4.46,3.16-7.4,8.36-7.4,14.21h0c0,9.59,7.84,17.43,17.43,17.43h102.85c3.09,0,5.99-.82,8.51-2.25-3.65-10.87-7.51-22.68-10.83-32.47-2.81,1.94-6.2,3.08-9.85,3.08Z"/>
        <path class="cls-4" d="M227.26,235.93c-3.76-11.07-6.85-19.56-8.22-21.14-3.71-4.3-10.06-7.3-12.12-7.76-4.39-.96-9.09-1.41-18.43-1.56-7.23-.12-68.75.62-98.97,1.06-5.18,3.03-8.7,8.64-8.7,15.05h0c0,9.59,7.84,17.43,17.43,17.43h119.17c3.65,0,7.04-1.14,9.85-3.08Z"/>
        <path class="cls-10" d="M259.29,243.37c-2.06-15.4-3.93-31.22-4.87-39.38-.49-4.24-1.95-8.26-4.26-11.6-5.41-7.8-16.87-20.55-34.38-21.27-23.02-.95-148.42-.17-171.11-.02-2.3.02-4.11,2.39-3.75,5.02.51,3.67,2.46,9.23,8.5,16.23,11.34,13.14,10.24,14.75,25.46,14.43,2.67-.06,7.87-.14,14.63-.24,30.22-.44,91.74-1.18,98.97-1.06,9.35.15,14.04.6,18.43,1.56,2.06.45,8.41,3.46,12.12,7.76,1.37,1.59,4.46,10.07,8.22,21.14,3.33,9.79,7.18,21.6,10.83,32.47.4,1.19.8,2.38,1.2,3.55.85-.5,1.66-1.02,2.41-1.59,4.91-3.72,13.09-18.56,17.59-26.98Z"/>
        <path class="cls-6" d="M332.22,235.93c-3.33,9.79-7.18,21.6-10.83,32.47,2.52,1.42,5.42,2.25,8.51,2.25h102.85c9.59,0,17.43-7.84,17.43-17.43h0c0-5.85-2.93-11.05-7.4-14.21h-100.71c-3.65,0-7.04-1.14-9.85-3.08Z"/>
        <path class="cls-4" d="M371,205.47c-9.35.15-14.04.6-18.43,1.56-2.06.45-8.41,3.46-12.12,7.76-1.37,1.59-4.46,10.07-8.22,21.14,2.81,1.94,6.2,3.08,9.85,3.08h119.17c9.59,0,17.43-7.84,17.43-17.43h0c0-6.41-3.51-12.02-8.7-15.05-30.22-.44-91.74-1.18-98.97-1.06Z"/>
        <path class="cls-10" d="M514.81,171.09c-22.69-.15-148.08-.93-171.11.02-17.51.72-28.97,13.47-34.38,21.27-2.31,3.34-3.77,7.36-4.26,11.6-.57,4.9-1.47,12.58-2.55,21.27l-.42,17.96c4.21,9.33,8.35,21.81,13.34,27.42,1.28,1.44,2.58,2.75,3.82,4.03.7-2.04,1.41-4.14,2.13-6.28,3.65-10.87,7.51-22.68,10.83-32.47,3.76-11.07,6.85-19.56,8.22-21.14,3.71-4.3,10.06-7.3,12.12-7.76,4.39-.96,9.09-1.41,18.43-1.56,7.23-.12,68.75.62,98.97,1.06,6.76.1,11.96.18,14.63.24,15.22.32,14.11-1.28,25.46-14.43,6.04-6.99,7.99-12.56,8.5-16.23.36-2.64-1.44-5.01-3.75-5.02Z"/>
        <path class="cls-7" d="M259.88,242.28c-.19.35-.38.71-.58,1.09-4.5,8.42-12.68,23.27-17.59,26.98-.75.57-1.56,1.1-2.41,1.59-16.93,9.82-52.83,6.62-52.81,38.38.02,24.86,27.02,28.91,33.48,29.64,5.58.63,13.19,2.02,23.45,1.14.78-.07,1.51-.13,2.23-.19,2.86-2.76,7.38-3.97,16.43-4.49l-2.18-94.15Z"/>
        <path class="cls-7" d="M302.09,243.23l-1.47,63.41c.22-.17.45-.33.7-.45,3.64-1.79,8.47-2.05,16.89-2.77,1.28-.11,2.52-.18,3.71-.23,2.31-1.81,3.84-4.22,5.01-7.47,1.82-10.94-2.46-15.68-7.68-21.04-1.24-1.28-2.54-2.59-3.82-4.03-4.99-5.61-9.14-18.09-13.34-27.42Z"/>
        <path class="cls-11" d="M279.85,455.95c-7.67-.1-12.72-1-16.06-2.17l1.05,45.07c.22,9.48,7.04,17.04,15.17,17.04s14.95-7.55,15.17-17.04l1.02-43.93c-3.25.92-7.95,1.14-16.34,1.03Z"/>
        <path class="cls-3" d="M262.06,336.43c5.9-.34,13.71-.39,24.23-.39s10.99-8.81,11.44-19.84c.08-2.09.23-7.47,2.89-9.57l1.47-63.41.42-17.96,1.02-43.85c-6.57,3.99-14.28,6.29-22.53,6.29s-15.96-2.3-22.53-6.29l1.41,60.87,2.18,94.15Z"/>
        <path class="cls-2" d="M309.26,384.21c-9.05-.44-49.39.02-49.39.02,0,0-18.85-1.83-22.62,28.78-1.89,12.11,9.81,22.39,12.45,25.59,2.64,3.2,6.78,8.44,7.91,10.73.62,1.25,2.15,3.05,6.19,4.46,3.34,1.16,8.38,2.06,16.06,2.17,8.39.11,13.09-.11,16.34-1.03,3.32-.94,5.12-2.6,7.79-5.37,5.28-5.48,9.22-10.01,12.99-13.66,3.77-3.65,11.71-14.44,9.63-26.77-1.36-8.07-8.29-24.48-17.34-24.92ZM264.11,426.63c-4.1,0-7.42-3.32-7.42-7.42s3.32-7.42,7.42-7.42,7.42,3.32,7.42,7.42-3.32,7.42-7.42,7.42ZM299.87,426.63c-4.1,0-7.42-3.32-7.42-7.42s3.32-7.42,7.42-7.42,7.42,3.32,7.42,7.42-3.32,7.42-7.42,7.42Z"/>
        <path class="cls-2" d="M301.32,306.18c-.25.12-.48.28-.7.45-2.67,2.1-2.81,7.48-2.89,9.57-.45,11.02-1.05,19.84-11.44,19.84s-18.34.05-24.23.39c-9.05.52-13.57,1.73-16.43,4.49-1.94,1.87-3.11,4.46-4.4,8.04-1.91,11.8,2.75,15.71,7.8,25.01,1.58,2.91,1.33,5.69,3.67,5.69l58.8-.04c.14,0,2.45-.94,8.41-5.45,15.63-11.82,56.31,6.69,55.22-39.97-.58-24.85-27.02-28.91-33.48-29.64-4.88-.55-11.33-1.69-19.73-1.37-1.2.04-2.44.12-3.71.23-8.42.72-13.25.98-16.89,2.77Z"/>
        <path class="cls-8" d="M299.87,411.8c-4.1,0-7.42,3.32-7.42,7.42s3.32,7.42,7.42,7.42,7.42-3.32,7.42-7.42-3.32-7.42-7.42-7.42Z"/>
        <path class="cls-8" d="M264.11,411.8c-4.1,0-7.42,3.32-7.42,7.42s3.32,7.42,7.42,7.42,7.42-3.32,7.42-7.42-3.32-7.42-7.42-7.42Z"/>
        <path class="cls-13" d="M303.53,181.41c12.54-7.62,20.92-21.41,20.92-37.16,0-24-19.45-43.45-43.45-43.45s-43.45,19.45-43.45,43.45c0,15.75,8.38,29.54,20.92,37.16,6.57,3.99,14.28,6.29,22.53,6.29s15.96-2.3,22.53-6.29ZM256.66,169.27c-1.03-1-2-2.07-2.9-3.19-.04-.05-.08-.1-.12-.15-.42-.53-.82-1.07-1.21-1.62-.03-.05-.07-.09-.1-.14-3.94-5.65-6.25-12.52-6.25-19.93,0-19.28,15.63-34.91,34.91-34.91,6.84,0,13.22,1.98,18.61,5.38.09.05.17.11.26.17.62.4,1.23.81,1.82,1.25,0,0,.01,0,.02.01.61.45,1.21.93,1.79,1.42.07.06.13.11.2.17.51.44,1.01.89,1.49,1.36.07.07.14.14.22.21.54.52,1.06,1.06,1.56,1.62.02.03.04.05.07.08.46.52.91,1.05,1.34,1.59.09.11.18.22.26.34.89,1.15,1.71,2.36,2.46,3.62.08.14.16.27.24.41.31.54.61,1.09.89,1.65.05.1.11.21.16.31.32.65.62,1.31.89,1.98.06.14.11.27.16.41.22.56.43,1.12.62,1.69.06.17.12.34.17.51.22.69.43,1.39.61,2.1.02.08.04.16.06.24.16.63.29,1.28.41,1.93.04.2.07.4.11.6.11.65.2,1.3.28,1.96,0,.09.02.17.03.26.08.74.12,1.49.15,2.24,0,.2.01.4.02.6,0,.27.02.54.02.81,0,.35-.02.69-.03,1.03,0,.12,0,.24,0,.36,0,.07-.01.14-.01.21-.01.26-.03.52-.05.78-.02.32-.04.63-.07.95-.03.29-.06.57-.1.86-.03.27-.06.54-.1.81-.05.35-.11.69-.17,1.04-.03.19-.07.38-.1.57-.08.43-.18.86-.27,1.28-.02.09-.04.18-.06.27-3.22,13.42-14.18,23.82-27.9,26.22-.11.02-.21.04-.31.06-.38.06-.77.12-1.15.17-.22.03-.43.06-.65.08-.31.03-.62.06-.94.09-.28.02-.57.05-.85.06-.28.02-.56.03-.84.04-.18,0-.35.02-.53.02-.1,0-.2,0-.3,0-.16,0-.32.01-.48.01-.45,0-.9-.02-1.35-.03-.12,0-.24,0-.35,0-.72-.03-1.42-.09-2.13-.17-.19-.02-.37-.05-.56-.07-.53-.07-1.06-.15-1.59-.24-.21-.04-.41-.07-.62-.11-.61-.12-1.21-.25-1.81-.4-.08-.02-.16-.03-.24-.05-.68-.17-1.35-.37-2.01-.58-.16-.05-.32-.11-.48-.16-.52-.17-1.03-.36-1.53-.56-.17-.07-.34-.13-.5-.2-.62-.26-1.24-.52-1.85-.81-.01,0-.02,0-.03-.01-.64-.31-1.26-.63-1.88-.98-.12-.07-.24-.14-.35-.2-.5-.29-1-.59-1.49-.9-.12-.08-.24-.15-.35-.23-1.18-.77-2.31-1.62-3.38-2.53-.07-.06-.14-.13-.22-.19-.48-.41-.94-.83-1.4-1.27-.07-.06-.14-.13-.2-.19Z"/>
        <path class="cls-10" d="M305.4,119.3c.54.52,1.06,1.06,1.56,1.62-.5-.56-1.02-1.1-1.56-1.62Z"/>
        <path class="cls-10" d="M303.69,117.73c.51.44,1.01.89,1.49,1.36-.49-.47-.98-.92-1.49-1.36Z"/>
        <path class="cls-10" d="M315.28,150.87c-.08.43-.17.86-.27,1.28.1-.42.19-.85.27-1.28Z"/>
        <path class="cls-10" d="M315.55,149.26c-.05.35-.11.69-.17,1.04.06-.34.12-.69.17-1.04Z"/>
        <path class="cls-10" d="M311.32,126.96c.31.54.61,1.09.89,1.65-.28-.56-.58-1.11-.89-1.65Z"/>
        <path class="cls-10" d="M287.04,178.63c13.72-2.4,24.68-12.8,27.9-26.22-3.24,13.37-14.27,23.8-27.9,26.22Z"/>
        <path class="cls-10" d="M314.89,135.85c.16.63.29,1.28.41,1.93-.12-.65-.26-1.29-.41-1.93Z"/>
        <path class="cls-10" d="M308.63,122.92c.89,1.15,1.71,2.36,2.46,3.62-.74-1.26-1.56-2.47-2.46-3.62Z"/>
        <path class="cls-10" d="M307.03,121c.46.52.91,1.05,1.34,1.59-.43-.54-.87-1.08-1.34-1.59Z"/>
        <path class="cls-10" d="M287.43,143.47c.03.26.05.52.05.78,0,.21-.01.42-.03.63,2.61-3.35,4.48-7.01,5.95-10.85h0s-5.55,9.04-5.55,9.04c-.11.17-.25.31-.41.41Z"/>
        <path class="cls-10" d="M315.75,147.59c-.03.29-.06.57-.1.86.03-.29.07-.57.1-.86Z"/>
        <path class="cls-10" d="M252.78,159.62c6,.2,16.32-1.8,20.13-3.55,3.43-1.58,6.32-3.39,8.79-5.37-.23.02-.46.04-.7.04-3.58,0-6.48-2.9-6.48-6.48,0-.03,0-.06,0-.09-.09-.06-.17-.13-.24-.22l-7.91-9.52c-.85-1.02.27-2.48,1.47-1.93l11.28,5.1c.18.08.33.2.44.34.46-.11.94-.17,1.44-.17.16,0,.32.01.48.02.01-.01.02-.03.03-.04l13.61-12.07c.4-3.6.5-7.46.09-10.41-.19-1.37,1.23-2.36,2.44-1.7.66.36,1.31.75,1.94,1.15-5.39-3.4-11.77-5.38-18.61-5.38-19.28,0-34.91,15.63-34.91,34.91,0,7.41,2.31,14.28,6.25,19.93-.42-.6-.82-1.21-1.2-1.83-.75-1.23.21-2.77,1.64-2.73Z"/>
        <path class="cls-10" d="M315.41,138.37c.11.65.2,1.3.28,1.96-.07-.66-.17-1.32-.28-1.96Z"/>
        <path class="cls-10" d="M299.86,114.88c.62.4,1.23.81,1.82,1.25-.59-.44-1.2-.85-1.82-1.25Z"/>
        <path class="cls-10" d="M253.64,165.94c-.42-.53-.82-1.07-1.21-1.62.39.55.79,1.09,1.21,1.62Z"/>
        <path class="cls-10" d="M312.37,128.92c.32.65.62,1.31.89,1.98-.28-.67-.58-1.33-.89-1.98Z"/>
        <path class="cls-10" d="M315.87,145.86c-.01.26-.03.52-.05.78.02-.26.04-.52.05-.78Z"/>
        <path class="cls-10" d="M313.42,131.32c.22.56.43,1.12.62,1.69-.19-.57-.4-1.13-.62-1.69Z"/>
        <path class="cls-10" d="M256.66,169.27c-1.03-1-2-2.07-2.9-3.19.9,1.12,1.87,2.19,2.9,3.19Z"/>
        <path class="cls-10" d="M314.22,133.51c.22.69.43,1.39.61,2.1-.18-.71-.39-1.41-.61-2.1Z"/>
        <path class="cls-10" d="M315.72,140.6c.08.74.12,1.49.15,2.24-.03-.75-.08-1.5-.15-2.24Z"/>
        <path class="cls-10" d="M301.7,116.14c.61.45,1.21.93,1.79,1.42-.58-.49-1.18-.97-1.79-1.42Z"/>
        <path class="cls-10" d="M315.91,144.25c0-.27-.01-.54-.02-.81.01.61.01,1.23,0,1.85.01-.34.03-.69.03-1.03Z"/>
        <path class="cls-10" d="M276.61,178.88c-.53-.07-1.06-.15-1.59-.24.53.09,1.06.17,1.59.24Z"/>
        <path class="cls-10" d="M279.29,179.12c-.72-.03-1.42-.09-2.13-.17.7.08,1.41.14,2.13.17Z"/>
        <path class="cls-10" d="M267.82,176.58c-.62-.26-1.24-.52-1.85-.81.61.29,1.22.56,1.85.81Z"/>
        <path class="cls-10" d="M265.94,175.76c-.64-.31-1.26-.63-1.88-.98.62.34,1.24.67,1.88.98Z"/>
        <path class="cls-10" d="M283.14,179.09c-.28.02-.56.03-.84.04.28-.01.56-.02.84-.04Z"/>
        <path class="cls-10" d="M286.73,178.69c-.38.06-.77.12-1.15.17.39-.05.77-.1,1.15-.17Z"/>
        <path class="cls-10" d="M269.86,177.34c-.52-.17-1.03-.36-1.53-.56.51.2,1.02.38,1.53.56Z"/>
        <path class="cls-10" d="M284.93,178.94c-.31.04-.62.06-.94.09.31-.03.62-.05.94-.09Z"/>
        <path class="cls-10" d="M281,179.17c.16,0,.32-.01.48-.01-.61,0-1.22,0-1.83-.02.45.02.9.03,1.35.03Z"/>
        <path class="cls-10" d="M272.35,178.08c-.68-.17-1.35-.37-2.01-.58.66.21,1.33.41,2.01.58Z"/>
        <path class="cls-10" d="M258.26,170.74c-.48-.41-.94-.83-1.4-1.27.45.44.92.86,1.4,1.27Z"/>
        <path class="cls-10" d="M263.7,174.58c-.5-.29-1-.59-1.49-.9.49.31.98.61,1.49.9Z"/>
        <path class="cls-10" d="M274.4,178.53c-.61-.12-1.21-.25-1.81-.4.6.15,1.2.28,1.81.4Z"/>
        <path class="cls-10" d="M261.86,173.45c-1.18-.78-2.31-1.62-3.38-2.53,1.07.91,2.2,1.75,3.38,2.53Z"/>
        <path class="cls-9" d="M258.26,170.74c.07.06.14.13.22.19,1.07.91,2.21,1.75,3.38,2.53.12.08.23.15.35.23.49.31.98.61,1.49.9.12.07.23.14.35.2.62.34,1.24.67,1.88.98.01,0,.02,0,.03.01.61.29,1.22.56,1.85.81.17.07.34.13.5.2.51.2,1.02.38,1.53.56.16.05.32.11.48.16.66.21,1.33.41,2.01.58.08.02.16.04.24.05.6.15,1.2.28,1.81.4.2.04.41.07.62.11.53.09,1.06.17,1.59.24.19.02.37.05.56.07.7.08,1.41.14,2.13.17.12,0,.24,0,.35,0,.61.02,1.22.03,1.83.02.1,0,.2,0,.3,0,.18,0,.35-.02.53-.02.28-.01.56-.02.84-.04.29-.02.57-.04.85-.06.31-.03.62-.05.94-.09.22-.02.43-.05.65-.08.39-.05.77-.1,1.15-.17.11-.02.21-.04.31-.06,13.63-2.41,24.66-12.84,27.9-26.22.02-.09.04-.18.06-.27.1-.42.19-.85.27-1.28.04-.19.07-.38.1-.57.06-.34.12-.69.17-1.04.04-.27.07-.54.1-.81.03-.29.07-.57.1-.86.03-.31.05-.63.07-.95.02-.26.04-.52.05-.78,0-.07.01-.14.01-.21,0-.12,0-.24,0-.36.02-.62.02-1.23,0-1.85,0-.2,0-.4-.02-.6-.03-.75-.08-1.5-.15-2.24,0-.09-.02-.18-.03-.26-.07-.66-.17-1.32-.28-1.96-.03-.2-.07-.4-.11-.6-.12-.65-.26-1.29-.41-1.93-.02-.08-.04-.16-.06-.24-.18-.71-.39-1.41-.61-2.1-.05-.17-.11-.34-.17-.51-.19-.57-.4-1.13-.62-1.69-.05-.14-.11-.27-.16-.41-.28-.67-.58-1.33-.89-1.98-.05-.11-.11-.21-.16-.31-.28-.56-.58-1.11-.89-1.65-.08-.14-.16-.28-.24-.41-.74-1.26-1.56-2.47-2.46-3.62-.09-.11-.18-.22-.26-.34-.43-.54-.87-1.08-1.34-1.59-.02-.03-.04-.05-.07-.08-.5-.56-1.02-1.1-1.56-1.62-.07-.07-.14-.14-.22-.21-.49-.47-.98-.92-1.49-1.36-.07-.06-.13-.12-.2-.17-.58-.49-1.18-.97-1.79-1.42,0,0-.01,0-.02-.01-.59-.44-1.2-.85-1.82-1.25-.09-.06-.17-.11-.26-.17-.64-.4-1.28-.79-1.94-1.15-1.21-.66-2.63.34-2.44,1.7.41,2.95.31,6.81-.09,10.41l1.16-1.03c1.07-.95,2.64.36,1.89,1.59l-4.79,7.79h0c-1.46,3.85-3.34,7.51-5.95,10.86-.29,3.05-2.71,5.49-5.75,5.82-2.47,1.98-5.36,3.79-8.79,5.37-3.81,1.76-14.13,3.75-20.13,3.55-1.44-.05-2.39,1.5-1.64,2.73.38.62.78,1.24,1.2,1.83.03.05.07.09.1.14.39.55.79,1.09,1.21,1.62.04.05.08.1.12.15.9,1.12,1.87,2.19,2.9,3.19.07.07.14.13.2.19.45.44.92.86,1.4,1.27Z"/>
        <path class="cls-13" d="M279.56,137.93c-.12-.14-.26-.26-.44-.34l-11.28-5.1c-1.21-.55-2.32.92-1.47,1.93l7.91,9.52c.07.09.15.16.24.22.04-3.05,2.18-5.58,5.04-6.23Z"/>
        <path class="cls-13" d="M281.48,137.79c3.09.23,5.58,2.62,5.95,5.68.16-.1.31-.23.41-.41l5.55-9.04,4.79-7.79c.75-1.22-.82-2.54-1.89-1.59l-1.16,1.03-13.61,12.07s-.02.03-.03.04Z"/>
        <path class="cls-1" d="M287.43,143.47c-.37-3.05-2.85-5.45-5.95-5.68-.16-.01-.32-.02-.48-.02-.5,0-.98.06-1.44.17-2.86.65-5,3.18-5.04,6.23,0,.03,0,.06,0,.09,0,3.58,2.9,6.48,6.48,6.48.24,0,.47-.01.7-.04,3.04-.33,5.46-2.76,5.75-5.82.02-.21.03-.42.03-.63,0-.27-.02-.53-.05-.78Z"/>
        <path class="cls-11" d="M236.6,124.14c5.38-11.77,15.32-21.18,27.78-25.71-.34-.56-.72-1.09-1.17-1.58-5.17-5.69-15.7-4.53-23.53,2.59-7.83,7.11-9.98,17.49-4.82,23.18.52.58,1.11,1.08,1.73,1.52Z"/>
        <path class="cls-11" d="M325.52,123.69c.62-.45,1.2-.96,1.71-1.54,5.09-5.76,2.79-16.1-5.14-23.11-7.93-7.01-18.48-8.02-23.56-2.26-.44.5-.82,1.03-1.15,1.6,12.52,4.35,22.59,13.62,28.14,25.32Z"/>
        <path class="cls-13" d="M274.05,94.49h3.01c.14,0,.25.11.25.25v1.09c0,.14.12.26.27.25,1.13-.07,2.27-.11,3.42-.11,1.06,0,2.11.03,3.15.09.14,0,.26-.11.26-.25v-1.07c0-.14.11-.25.25-.25h3.28c1.36,0,2.46-1.11,2.46-2.46v-5.17c0-1.36-1.11-2.46-2.46-2.46h-13.89c-1.36,0-2.46,1.11-2.46,2.46v5.17c0,1.36,1.11,2.46,2.46,2.46Z"/>
      </g>
    </g>
  </g>
</svg>