<?xml version="1.0" encoding="UTF-8"?>
<svg id="Layer_2" data-name="Layer 2" xmlns="http://www.w3.org/2000/svg" viewBox="0 0 608.05 119.82">
  <defs>
    <style>
      .cls-1 {
        fill: #00a39b;
      }

      .cls-2 {
        fill: #91c7c4;
      }

      .cls-3 {
        fill: #eeb569;
      }
    </style>
  </defs>
  <g id="Layer_1-2" data-name="Layer 1">
    <g>
      <g id="DRAFT_05_FULL_COLOR" data-name="DRAFT 05 FULL COLOR">
        <rect class="cls-1" x="53.45" y="89.89" width="12.79" height="12.79" rx="4.91" ry="4.91"/>
        <path class="cls-1" d="M57.55,22.62c5.09,0,9.01.15,12.25.35-.49-4.72-2.66-8.36-5.46-8.36h-9c-2.82,0-4.99,3.68-5.46,8.44,2.11-.28,4.55-.42,7.41-.44.09,0,.17,0,.26,0Z"/>
        <path class="cls-3" d="M66.73,73.79l-.45,5.63c1.78.41,3.39.74,4.67.99,1.66.33,3.29-.64,3.61-2.13l.04-.17c.3-1.43-.72-2.81-2.3-3.12-1.47-.29-3.41-.7-5.53-1.2h0s-.02,0-.02,0Z"/>
        <path class="cls-3" d="M68.72,43.1l-.42,5.68c.91.26,1.76.55,2.51.89,2.69,1.2,3.03,2.4,2.99,3.53-.02.5-.04,1.42-2.58,2.2-1.03.32-2.23.53-3.46.68-.73.09-1.46.16-2.19.22-.72.06-1.43.1-2.09.15-1.31.09-2.45.16-3.42.3-.58.08-1.1.19-1.55.33-.11.04-.25.07-.4.11s-.31.07-.49.11c-.09.02-.18.04-.27.06-.28.06-.58.12-.88.18-.17.03-.34.07-.51.1-.87.17-1.81.37-2.77.63-.38.1-.77.22-1.16.34-.9.29-1.8.65-2.66,1.11-3.09,1.64-4.89,4.18-5.21,7.35-.26,2.58,1.6,4.93,5.53,6.98,1.03.54,2.24,1.07,3.6,1.6l-.21-2.28c-.07-.97-.27-2.39-.41-4.18h0c-.05-.03-.1-.05-.15-.08-1.81-.99-1.84-3.61-.02-4.59.01,0,.03-.02.04-.02,1.5-.79,3.5-1.19,5.27-1.54,1-.2,1.94-.38,2.75-.64.46-.14,2.14-.25,3.36-.33,2.81-.18,6.31-.41,9.31-1.34,5.46-1.68,6.69-4.89,6.77-7.29.14-4.71-3.42-7.29-6.42-8.64-1.48-.66-3.13-1.17-4.82-1.59h0s0,0,0,0c-.02,0-.03,0-.05-.01Z"/>
        <path class="cls-3" d="M84.91,29.03c-1.55-.75-2.74-1.44-3.03-1.83-1.67-1.48-2.35-2.77-7.93-3.9-1.27-.12-2.63-.23-4.15-.33-3.24-.21-7.16-.35-12.25-.35-.09,0-.17,0-.26,0-2.86.01-5.29.16-7.41.44-1.78.24-3.33.57-4.7,1.01-6.57,2.12-7.55,6.37-7.55,8.71,0,4.29,2.42,7.66,7.19,10.03,1.96.97,4.15,1.69,6.32,2.26l-.45-5.96s-.02,0-.03,0h0c-1-.33-1.96-.71-2.83-1.14-3.54-1.76-3.99-3.69-3.99-5.18,0-1.25,0-4.56,13.48-4.62.08,0,.15,0,.23,0,6.89,0,13.66,5.12,22.41,6.03,3.2.33,6.21-.48,6.35-1.87.25-2.57-1.41-3.29-1.41-3.29ZM77.3,30.17c-.97,0-1.76-.79-1.76-1.76s.79-1.76,1.76-1.76,1.76.79,1.76,1.76-.79,1.76-1.76,1.76Z"/>
        <path class="cls-2" d="M85.11,0h-50.4C15.57,0,0,15.57,0,34.71v50.4c0,19.14,15.57,34.71,34.71,34.71h50.4c19.14,0,34.71-15.57,34.71-34.71v-50.4C119.82,15.57,104.25,0,85.11,0ZM112.16,85.11c0,7.19-2.82,13.97-7.95,19.1-5.13,5.13-11.91,7.95-19.1,7.95h-50.4c-7.19,0-13.97-2.82-19.1-7.95-5.13-5.13-7.95-11.91-7.95-19.1v-50.4c0-7.19,2.82-13.97,7.95-19.1,5.13-5.13,11.91-7.95,19.1-7.95h50.4c7.19,0,13.97,2.82,19.1,7.95,5.13,5.13,7.95,11.91,7.95,19.1v50.4Z"/>
        <path class="cls-1" d="M50.69,39.11l.45,5.96.57,7.66c.01.18.05.35.12.51l.22,5.36c.39-.13.78-.24,1.16-.34.96-.26,1.9-.46,2.77-.63.17-.03.34-.07.51-.1.3-.06.6-.12.88-.18.09-.02.18-.04.27-.06.18-.04.34-.08.49-.11s.28-.07.4-.11c.46-.14.97-.25,1.55-.33.97-.14,2.1-.21,3.42-.3.66-.04,1.37-.09,2.09-.15.72-.06,1.46-.13,2.19-.22l.11-2.8c.07-.17.11-.36.13-.55l.29-3.95.42-5.68s.03,0,.05.01h0s.37-5.66.37-5.66l.1-1.39c0-.08,0-.17,0-.25v-.03c.1-1.47-.97-2.77-2.44-2.93-3.36-.39-6.9-.68-9.98-.68-.08,0-.15,0-.22,0-1.33,0-2.53.05-3.61.11-1.53.09-2.69,1.42-2.58,2.95l.05.82s0,0,0,.01v.07s.2,2.97.2,2.97h0s.02,0,.03,0Z"/>
        <path class="cls-1" d="M53.31,75.64l.6,6.54c.01.14.03.28.06.41.26,1.61,1.76,2.84,3.48,2.84h4.8c.29,0,.56-.04.83-.1.84-.14,1.76-.57,2.45-1.89.34-.65.52-1.37.58-2.11l.15-1.92.45-5.63s.02,0,.02,0h0l.1-1.59h0s.29-4.34.29-4.34c.08-1.16-1-2.1-2.28-2-.6.05-1.18.08-1.74.12-1.21.08-2.86.19-3.32.33-.8.25-1.73.44-2.71.64-.96.19-1.98.4-2.96.68-.78.22-1.34.83-1.45,1.54h0c.14,1.79.34,3.21.41,4.18l.21,2.28Z"/>
      </g>
      <g>
        <g>
          <path class="cls-1" d="M149.44,81.76V30.25c0-5.49,3.06-8.66,8.13-8.66h20.06c17.74,0,26.81,7.39,26.81,21.33,0,9.82-4.96,16.68-14.46,19.32-1.06.32-2.22.53-3.38.63l17.95,21.75c.63.74-2.32,5.7-8.97,5.7-4.54,0-6.97-1.9-10.24-6.33l-14.99-18.69h-5.38v17.95c0,4.43-2.32,7.07-6.86,7.07h-2.11c-4.22,0-6.55-3.06-6.55-8.55ZM188.92,43.97c0-6.76-4.22-10.24-12.67-10.24h-11.51v20.48h11.82c8.34,0,12.35-3.91,12.35-10.24Z"/>
          <path class="cls-1" d="M235.69,37.21c15.31,0,25.65,10.66,25.65,25.76v.95c-.11,2.53-.84,3.91-3.59,3.91h-35.68l.32,1.69c1.58,6.76,7.18,11.08,14.78,11.08s12.14-3.38,14.46-7.5c.11-.21,7.28.42,7.28,6.33,0,2.85-2.01,5.81-5.7,8.02-3.8,2.32-9.29,3.91-16.47,3.91-16.79,0-27.76-10.45-27.76-26.81s11.19-27.34,26.71-27.34ZM235.58,47.45c-7.07,0-12.35,5.07-13.3,12.25h25.34c-.42-7.5-4.96-12.25-12.03-12.25Z"/>
          <path class="cls-1" d="M293.86,49.67c-4.22,0-8.02,2.64-10.13,6.33v27.24c0,5.38-2.74,7.07-6.55,7.07h-1.58c-4.01,0-6.76-1.58-6.76-7.07v-43.71c0-.53,2.64-1.69,5.6-1.69,3.69,0,7.71,1.58,8.87,8.45,3.48-5.17,8.45-9.08,15.94-9.08,8.55,0,13.94,4.12,16.47,10.56,3.48-5.91,8.76-10.56,17.31-10.56,13.09,0,18.58,8.34,18.58,20.48v25.55c0,5.38-2.75,7.07-6.55,7.07h-1.58c-4.01,0-6.76-1.58-6.76-7.07v-23.23c0-6.76-2.96-10.35-8.97-10.35-4.22,0-8.02,2.64-10.13,6.33v27.24c0,5.38-2.74,7.07-6.55,7.07h-1.58c-3.91,0-6.76-1.58-6.76-7.07v-22.91c0-7.07-2.96-10.66-8.87-10.66Z"/>
          <path class="cls-1" d="M385.81,37.21c15.31,0,25.65,10.66,25.65,25.76v.95c-.11,2.53-.84,3.91-3.59,3.91h-35.68l.32,1.69c1.58,6.76,7.18,11.08,14.78,11.08s12.14-3.38,14.46-7.5c.11-.21,7.28.42,7.28,6.33,0,2.85-2.01,5.81-5.7,8.02-3.8,2.32-9.29,3.91-16.47,3.91-16.79,0-27.76-10.45-27.76-26.81s11.19-27.34,26.71-27.34ZM385.7,47.45c-7.07,0-12.35,5.07-13.3,12.25h25.34c-.42-7.5-4.96-12.25-12.03-12.25Z"/>
          <path class="cls-1" d="M417.16,64.24c0-16.36,9.71-27.03,23.96-27.03,7.39,0,13.3,3.38,16.26,7.81v-26.81c0-.42,2.64-1.69,5.6-1.69,4.43,0,9.29,2.32,9.29,11.93v54.79c0,5.38-2.64,7.07-6.55,7.07h-1.48c-3.38,0-5.91-1.16-6.44-5.17-.11-1.16-.21-2.32-.21-3.59-3.48,6.02-9.18,9.82-16.79,9.82-13.94,0-23.65-10.98-23.65-27.13ZM444.71,49.14c-8.02,0-13.41,5.81-13.41,15.1s5.49,15.2,13.2,15.2c7.07,0,12.98-4.96,12.98-12.35v-9.71c-2.22-5.07-6.44-8.23-12.77-8.23Z"/>
          <path class="cls-1" d="M524.84,49.99h-4.12c-4.33,0-6.23-1.9-6.23-5.49v-.95c0-3.38,1.9-5.17,6.23-5.17h4.22v-2.74c0-14.25,7.07-19.74,17.74-19.74,4.86,0,8.23,1.16,10.35,2.74,1.9,1.48,2.74,3.38,2.74,5.38,0,3.59-2.96,6.33-3.17,6.02-1.48-1.37-4.12-2.74-7.07-2.74-4.33,0-6.33,2.43-6.33,8.34v2.74h6.65c4.33,0,6.23,1.9,6.23,5.49v.84c0,3.48-1.9,5.28-6.23,5.28h-6.12v33.25c0,5.49-2.64,7.07-6.55,7.07h-1.58c-3.8,0-6.76-1.69-6.76-7.07v-33.25Z"/>
          <path class="cls-1" d="M568.23,106.05l8.45-19.43c-2.32-.42-3.91-1.16-4.75-3.38l-17.74-41.07c-.32-.84,3.59-4.33,8.13-4.43,3.59,0,6.55,1.79,8.45,7.5l10.98,29.56,9.92-29.45c1.79-5.81,4.96-7.6,8.34-7.6,4.12,0,8.34,3.48,8.02,4.22l-23.44,60.91c-2.22,5.6-5.17,7.28-8.45,7.28-4.33,0-8.23-3.38-7.92-4.12Z"/>
        </g>
        <path class="cls-3" d="M494.67,90.95c-5.17,0-8.34-2.96-8.34-7.71s3.06-7.71,8.34-7.71,8.34,2.96,8.34,7.71-3.17,7.71-8.34,7.71ZM495.51,67.94h-1.58c-3.91,0-6.65-1.69-6.65-7.18V22.54c0-5.38,2.75-7.07,6.65-7.07h1.48c4.01,0,6.76,1.58,6.76,7.07v38.22c0,5.38-2.85,7.18-6.65,7.18Z"/>
      </g>
    </g>
  </g>
</svg>