<?xml version="1.0" encoding="UTF-8"?>
<svg id="Layer_2" data-name="Layer 2" xmlns="http://www.w3.org/2000/svg" viewBox="0 0 68.58 68.39">
  <defs>
    <style>
      .cls-1 {
        fill: #3f3318;
        opacity: .17;
      }

      .cls-2 {
        fill: #89ccc8;
      }

      .cls-3 {
        fill: #ffb057;
      }
    </style>
  </defs>
  <g id="MED_ICONS" data-name="MED ICONS">
    <g id="Capsule">
      <path class="cls-2" d="M63.24,5.34h0c-7.12-7.12-18.78-7.12-25.9,0l-12.34,12.34c-.62.62-.62,1.63,0,2.25l17.22,17.22-2.4-2.4c-.62-.62-.62-1.63,0-2.25l23.74-23.74c.73-.73,1.98-.59,2.49.31,4.03,7.07,2.87,16.48-3.38,22.73l-5.75,5.75,6.32-6.32c7.12-7.12,7.12-18.78,0-25.9Z"/>
      <path class="cls-3" d="M8.78,63.54l25.79-25.79c.62-.62,1.63-.62,2.25,0l-14.82-14.82c-.31-.31-.72-.47-1.12-.47s-.81.16-1.12.47l-13.27,13.27c-.47.44-.91.89-1.33,1.35-.11.12-.23.25-.34.38-2.15,2.46-3.54,5.18-4.25,7.97-.07.26-.14.52-.19.78-.02.11-.03.21-.06.32-1.12,5.88.73,11.91,5.04,16.22.46.46.95.89,1.45,1.3.16.13.32.23.48.35.35.27.71.53,1.07.77.16.1.32.19.48.28.4.24.79.47,1.2.68.1.05.2.09.3.14h.09c-.46-.22-.91-.45-1.35-.7-.9-.51-1.04-1.76-.31-2.49Z"/>
      <path class="cls-2" d="M66.05,9.07c-.51-.9-1.76-1.04-2.49-.31l-23.74,23.74c-.62.62-.62,1.63,0,2.25l2.4,2.4,6.43,6.43c.16.16.33.27.53.35.38.16.81.16,1.2,0,.19-.08.37-.19.53-.35l6.03-6.03,5.75-5.75c6.25-6.25,7.41-15.66,3.38-22.73Z"/>
      <path class="cls-1" d="M66.05,9.07c-.51-.9-1.76-1.04-2.49-.31l-23.74,23.74c-.62.62-.62,1.63,0,2.25l2.4,2.4,6.43,6.43c.16.16.33.27.53.35.38.16.81.16,1.2,0,.19-.08.37-.19.53-.35l6.03-6.03,5.75-5.75c6.25-6.25,7.41-15.66,3.38-22.73Z"/>
      <path class="cls-3" d="M36.82,37.75c-.62-.62-1.63-.62-2.25,0l-25.79,25.79c-.73.73-.59,1.98.31,2.49.44.25.89.48,1.35.69,6.01,2.77,13.35,2.06,19.02-2.05.35-.25.69-.52,1.03-.8.09-.07.18-.15.27-.23.37-.32.73-.64,1.07-.99l13.82-13.82c.16-.16.27-.33.35-.53.23-.57.12-1.26-.35-1.72l-8.83-8.83Z"/>
      <path class="cls-1" d="M36.82,37.75c-.62-.62-1.63-.62-2.25,0l-25.79,25.79c-.73.73-.59,1.98.31,2.49.44.25.89.48,1.35.69,6.01,2.77,13.35,2.06,19.02-2.05.35-.25.69-.52,1.03-.8.09-.07.18-.15.27-.23.37-.32.73-.64,1.07-.99l13.82-13.82c.16-.16.27-.33.35-.53.23-.57.12-1.26-.35-1.72l-8.83-8.83Z"/>
    </g>
  </g>
</svg>