<?xml version="1.0" encoding="UTF-8"?>
<svg id="Layer_2" data-name="Layer 2" xmlns="http://www.w3.org/2000/svg" viewBox="0 0 68.58 68.32">
  <defs>
    <style>
      .cls-1 {
        fill: #89ccc8;
      }

      .cls-2 {
        fill: #ffb057;
      }
    </style>
  </defs>
  <g id="MED_ICONS" data-name="MED ICONS">
    <g id="Capsule_NO_SHADOW" data-name="Capsule NO SHADOW">
      <path class="cls-1" d="M63.24,5.34h0c-7.12-7.12-18.78-7.12-25.9,0l-12.34,12.34c-.62.62-.62,1.63,0,2.25l17.22,17.22,6.43,6.43c.16.16.33.27.53.35.38.16.81.16,1.2,0,.19-.08.37-.19.53-.35l6.03-6.03,5.75-5.75h0s.56-.56.56-.56c7.12-7.12,7.12-18.78,0-25.9Z"/>
      <path class="cls-2" d="M45.65,46.59l-8.83-8.83-14.82-14.82c-.31-.31-.72-.47-1.12-.47s-.81.16-1.12.47l-13.27,13.27c-.47.44-.91.89-1.33,1.35-.11.12-.23.25-.34.38-2.15,2.46-3.54,5.18-4.25,7.97-.07.26-.14.52-.19.78-.02.11-.03.21-.06.32-1.12,5.88.73,11.91,5.04,16.22.46.46.95.89,1.45,1.3.16.13.32.23.48.35.35.27.71.53,1.07.77.16.1.32.19.48.28.4.24.79.47,1.2.68.1.05.2.09.3.14.4.19.83.35,1.28.48,0,0-1.06-.38,0,0,8.59,2.37,14.67.97,20.2-4.56l13.82-13.82c.16-.16.27-.33.35-.53.23-.57.12-1.26-.35-1.72Z"/>
    </g>
  </g>
</svg>