<?xml version="1.0" encoding="UTF-8"?>
<svg id="Layer_2" data-name="Layer 2" xmlns="http://www.w3.org/2000/svg" viewBox="0 0 138.39 237.51">
  <defs>
    <style>
      .cls-1 {
        fill: #b7dcfe;
      }

      .cls-2 {
        fill: #01a29b;
      }

      .cls-3 {
        fill: #89ccc8;
      }
    </style>
  </defs>
  <g id="SCAN_GRAPHICS" data-name="SCAN GRAPHICS">
    <g id="Dropper_Scan_Graphic" data-name="Dropper Scan Graphic">
      <g>
        <path class="cls-2" d="M124.83,0H13.56C6.08,0,0,5.91,0,13.18v211.14c0,7.27,6.08,13.18,13.56,13.18h111.27c7.48,0,13.56-5.91,13.56-13.18V13.18c0-7.27-6.08-13.18-13.56-13.18ZM98.88,6.59v6.81c0,2.73-2.29,4.95-5.1,4.95h-49.18c-2.81,0-5.1-2.22-5.1-4.95v-6.81h59.38ZM131.61,224.32c0,3.63-3.04,6.59-6.78,6.59H13.56c-3.74,0-6.78-2.96-6.78-6.59V13.18c0-3.63,3.04-6.59,6.78-6.59h19.16v6.81c0,6.37,5.33,11.55,11.88,11.55h49.18c6.55,0,11.88-5.18,11.88-11.55v-6.81h19.16c3.74,0,6.78,2.96,6.78,6.59v211.14Z"/>
        <path class="cls-1" d="M85.17,126.92v-4.32c2.67-.1,4.81-2.28,4.81-4.97v-6.52c0-2.75-2.24-4.99-4.99-4.99h-4.81v-14.96c0-4.99-4.06-9.05-9.05-9.05h-1.83c-4.99,0-9.05,4.06-9.05,9.05v14.96h-4.81c-2.75,0-4.99,2.24-4.99,4.99v6.52c0,2.69,2.14,4.87,4.81,4.97v4.32c-7.17,1.52-12.57,7.89-12.57,15.5v53.36c0,4.38,3.57,7.95,7.95,7.95h39.15c4.39,0,7.95-3.57,7.95-7.95v-53.36c0-7.61-5.4-13.99-12.57-15.5ZM90.38,152.8h-11.34c-1.44,0-2.6,1.16-2.6,2.6s1.16,2.6,2.6,2.6h11.34v5.6h-15.25c-1.43,0-2.6,1.16-2.6,2.6s1.16,2.6,2.6,2.6h15.25v2.03h-15.25c-1.43,0-2.6,1.16-2.6,2.6s1.16,2.6,2.6,2.6h15.25v8.58h-19c-2.85,0-5.16-2.31-5.16-5.16v-28.17c0-2.85,2.31-5.16,5.16-5.16h19v6.71ZM65.02,91.17c0-2.36,1.92-4.28,4.28-4.28h1.83c2.36,0,4.28,1.92,4.28,4.28v14.31h-10.4v-14.31ZM54.67,117.63v-6.52c0-.42.34-.76.76-.76h29.56c.42,0,.76.34.76.76v6.52c0,.42-.34.76-.76.76h-29.56c-.42,0-.76-.34-.76-.76ZM80.95,123v3.57h-21.46v-3.57h21.46ZM89.79,197.39h-39.15c-.87,0-1.61-.74-1.61-1.61v-53.36c0-5.24,4.27-9.51,9.51-9.51h23.35c4.32,0,7.97,2.89,9.12,6.84h-19.64c-6.34,0-11.5,5.16-11.5,11.5v28.17c0,6.34,5.16,11.5,11.5,11.5h20.02v4.85c0,.87-.74,1.61-1.61,1.61Z"/>
        <g>
          <path class="cls-3" d="M104.77,193.04h-9.61c-1.42,0-2.58,1.15-2.58,2.58h0c0,1.42,1.15,2.58,2.58,2.58h14.77c1.42,0,2.58-1.15,2.58-2.58v-14.77c0-1.42-1.15-2.58-2.58-2.58h0c-1.42,0-2.58,1.15-2.58,2.58v9.61c0,1.42-1.15,2.58-2.58,2.58Z"/>
          <path class="cls-3" d="M30.64,177.06h0c-1.42,0-2.58,1.15-2.58,2.58v15.98c0,1.42,1.15,2.58,2.58,2.58h14.77c1.42,0,2.58-1.15,2.58-2.58h0c0-1.42-1.15-2.58-2.58-2.58h-9.61c-1.42,0-2.58-1.15-2.58-2.58v-10.83c0-1.42-1.15-2.58-2.58-2.58Z"/>
          <path class="cls-3" d="M45.41,113.75h-14.77c-1.42,0-2.58,1.15-2.58,2.58v13.56c0,1.42,1.15,2.58,2.58,2.58h0c1.42,0,2.58-1.15,2.58-2.58v-8.4c0-1.42,1.15-2.58,2.58-2.58h9.61c1.42,0,2.58-1.15,2.58-2.58h0c0-1.42-1.15-2.58-2.58-2.58Z"/>
          <path class="cls-3" d="M92.58,116.33h0c0,1.42,1.15,2.58,2.58,2.58h9.61c1.42,0,2.58,1.15,2.58,2.58v9.61c0,1.42,1.15,2.58,2.58,2.58h0c1.42,0,2.58-1.15,2.58-2.58v-14.77c0-1.42-1.15-2.58-2.58-2.58h-14.77c-1.42,0-2.58,1.15-2.58,2.58Z"/>
        </g>
        <g>
          <circle class="cls-3" cx="78.78" cy="46.54" r="1.6"/>
          <path class="cls-3" d="M80.79,40.44h-2.92c-.92,0-1.66-.74-1.66-1.66v-1.02c0-.86-.7-1.55-1.55-1.55h-10.73c-.86,0-1.55.7-1.55,1.55v1.02c0,.92-.74,1.66-1.66,1.66h-2.92c-2.38,0-4.31,1.93-4.31,4.31v14.73c0,2.38,1.93,4.31,4.31,4.31h23c2.38,0,4.31-1.93,4.31-4.31v-14.73c0-2.38-1.93-4.31-4.31-4.31ZM64.4,37.98h9.78c.14,0,.26.12.26.26v1.94c0,.14-.12.26-.26.26h-9.78c-.14,0-.26-.12-.26-.26v-1.94c0-.14.12-.26.26-.26ZM83.33,59.48c0,1.4-1.14,2.54-2.54,2.54h-23c-1.4,0-2.54-1.14-2.54-2.54v-14.73c0-1.4,1.14-2.54,2.54-2.54h23c1.4,0,2.54,1.14,2.54,2.54v14.73Z"/>
          <path class="cls-3" d="M69.33,45.66c-3.64,0-6.59,2.96-6.59,6.59s2.96,6.59,6.59,6.59,6.59-2.96,6.59-6.59-2.96-6.59-6.59-6.59ZM69.33,57.07c-2.66,0-4.82-2.16-4.82-4.82s2.16-4.82,4.82-4.82,4.82,2.16,4.82,4.82-2.16,4.82-4.82,4.82Z"/>
        </g>
      </g>
    </g>
  </g>
</svg>