<?xml version="1.0" encoding="UTF-8"?>
<svg id="Layer_2" data-name="Layer 2" xmlns="http://www.w3.org/2000/svg" viewBox="0 0 22.59 72.05">
  <defs>
    <style>
      .cls-1 {
        fill: #fdc26a;
      }

      .cls-2 {
        fill: #00a39b;
      }

      .cls-3 {
        fill: #89ccc8;
      }

      .cls-4 {
        fill: #ffb057;
      }
    </style>
  </defs>
  <g id="MED_ICONS" data-name="MED ICONS">
    <g id="Dropped_NO_SHADOW" data-name="Dropped NO SHADOW">
      <path class="cls-3" d="M14.04,33.87h0s4.55,0,4.55,0l-.21-1.5c-.06-.43-.45-.78-.87-.78H5.09c-.42,0-.81.35-.87.78l-.21,1.5h10.04Z"/>
      <path class="cls-4" d="M14.76,23.1H.5c.65,1.6,1.88,2.9,3.44,3.62.61.28,1.03.86,1.03,1.53v1.56c0,.43.35.77.77.77h11.11c.43,0,.77-.35.77-.77v-1.56c0-.17.03-.33.07-.48.1-.31.28-.57.53-.78.12-.1.26-.19.42-.26,1.17-.53,2.16-1.4,2.85-2.48.23-.36.43-.74.59-1.14h-7.33Z"/>
      <path class="cls-1" d="M14.76,6.08H0v14.55c0,.07.01.14.02.21h22.56c0-.07.02-.14.02-.21h0V6.08h-7.83Z"/>
      <path class="cls-4" d="M19.76.07c-.23-.05-.47-.07-.71-.07H3.55C1.6,0,0,1.6,0,3.55v.26h22.59v-.26c0-1.71-1.22-3.14-2.83-3.47Z"/>
      <path class="cls-3" d="M14.49,36.72h-6.4c-.17,0-.29.15-.27.31l2.44,16.15c.03.17.09.3.16.42.06.09.12.17.2.23.03.02.06.03.09.05.06.04.12.07.19.1.05.02.11.03.16.04.05.01.1.02.15.02.05,0,.1,0,.16,0,.06,0,.13-.01.19-.03.04,0,.08-.02.11-.04.08-.03.15-.07.22-.12.02-.01.04-.03.06-.04.08-.06.14-.14.2-.23,0-.01.02-.03.03-.04.06-.11.11-.23.13-.38l2.44-16.15c.02-.16-.1-.31-.27-.31Z"/>
      <path class="cls-2" d="M20.76,34.17c-.07-.17-.25-.3-.45-.3H2.28c-.27,0-.48.22-.48.48v.84c0,.27.22.48.48.48h11.76s6.27,0,6.27,0c.27,0,.48-.22.48-.48v-.84c0-.07-.01-.13-.04-.19Z"/>
      <path class="cls-2" d="M15.46,67.27s-.01-.08-.02-.12c-.03-.18-.08-.35-.14-.52,0-.03-.02-.06-.03-.09-.05-.15-.12-.3-.19-.45-.02-.05-.04-.09-.06-.14-.08-.16-.17-.32-.26-.49-.05-.1-.11-.2-.17-.3-.03-.05-.06-.11-.1-.16-.46-.77-1.03-1.67-1.66-2.89,0,0,0,0,0,0h0c-.41-.79-.84-1.71-1.27-2.81-.1-.25-.45-.24-.54,0-2.16,5.61-4.38,6.54-3.87,9.31.14.73.48,1.4.94,1.95-.01,0-.02-.01-.03-.02.04.05.09.09.14.14.06.06.11.12.17.18.17.17.35.33.55.46.01,0,.02.02.03.02.14.1.3.18.45.26.03.01.05.03.08.04.18.08.37.16.56.21,2.86.82,5.46-1.3,5.46-4.03,0-.19-.02-.38-.05-.56Z"/>
    </g>
  </g>
</svg>