<?xml version="1.0" encoding="UTF-8"?>
<svg id="Layer_2" data-name="Layer 2" xmlns="http://www.w3.org/2000/svg" viewBox="0 0 75.48 75.48">
  <defs>
    <style>
      .cls-1 {
        fill: #ffe6c1;
      }

      .cls-2 {
        fill: #00a39b;
      }

      .cls-3 {
        fill: #89ccc8;
      }

      .cls-4 {
        fill: #ffb057;
      }
    </style>
  </defs>
  <g id="MED_ICONS" data-name="MED ICONS">
    <g id="Injection_NO_SHADOWS" data-name="Injection NO SHADOWS">
      <path class="cls-1" d="M20.2,59.76l-1.64-1.64-2.84-2.84c-.6-.6-1.58-.6-2.18,0l-6.97,6.97,3.93,3.93,1.74,1.74,1,1,6.97-6.97c.6-.6.6-1.58,0-2.18Z"/>
      <path class="cls-4" d="M15.06,70.75l-1.83-1.83-1-1-1.74-1.74-3.93-3.93-1.83-1.83c-.56-.56-1.47-.56-2.03,0l-2.28,2.28c-.56.56-.56,1.47,0,2.03l10.33,10.33c.56.56,1.47.56,2.03,0l2.28-2.28c.56-.56.56-1.47,0-2.03Z"/>
      <path class="cls-3" d="M75.03.06l-19.91,15.9-1.94-1.94c-.29-.29-.74-.3-1.01-.04l-1.19,1.19,4.84,4.84,4.5,4.5,1.19-1.19c.13-.13.2-.31.19-.5,0-.09-.02-.18-.06-.27-.04-.09-.09-.17-.16-.24l-1.94-1.94L75.43.45c.19-.24-.15-.59-.39-.39Z"/>
      <path class="cls-2" d="M60.59,24.77l-.27-.27-4.5-4.5-4.84-4.84-.27-.27c-.23-.23-.6-.23-.82,0l-1.25,1.25c-.23.23-.23.6,0,.82l9.87,9.87c.23.23.6.23.82,0l1.25-1.25c.23-.23.23-.6,0-.82Z"/>
      <path class="cls-4" d="M56.96,28.19l-2.05-2.05-1.45-1.45-6.16-6.16c-1.04-1.04-2.67-1.1-3.63-.13l-3.23,3.23,4.64,4.64c.61.61.65,1.58.08,2.15s-1.54.53-2.15-.08l-4.64-4.64-3.49,3.49,3.41,3.41c.39.39.42,1.02.05,1.38h0c-.37.37-.99.34-1.38-.05l-3.41-3.41-3.49,3.49,4.64,4.64c.61.61.65,1.58.08,2.15s-1.54.53-2.15-.08l-4.64-4.64-3.49,3.49,3.41,3.41c.39.39.42,1.02.05,1.38s-.99.34-1.38-.05l-3.41-3.41-3.49,3.49,4.64,4.64c.61.61.65,1.58.08,2.15h0c-.57.57-1.54.53-2.15-.08l-4.64-4.64-3.15,3.15c-.96.96-.9,2.6.13,3.63l7.61,7.61,2.05,2.05c1.04,1.04,2.67,1.1,3.63.13l29.22-29.22c.96-.96.9-2.6-.13-3.63Z"/>
    </g>
  </g>
</svg>