<?xml version="1.0" encoding="UTF-8"?>
<svg id="Layer_2" data-name="Layer 2" xmlns="http://www.w3.org/2000/svg" viewBox="0 0 138.39 237.51">
  <defs>
    <style>
      .cls-1 {
        fill: #b7dcfe;
      }

      .cls-2 {
        fill: #01a29b;
      }

      .cls-3 {
        fill: #89ccc8;
      }
    </style>
  </defs>
  <g id="SCAN_GRAPHICS" data-name="SCAN GRAPHICS">
    <g id="Injection_Scan_Graphic" data-name="Injection Scan Graphic">
      <g>
        <path class="cls-2" d="M124.83,0H13.56C6.08,0,0,5.91,0,13.18v211.14c0,7.27,6.08,13.18,13.56,13.18h111.27c7.48,0,13.56-5.91,13.56-13.18V13.18c0-7.27-6.08-13.18-13.56-13.18ZM98.88,6.59v6.81c0,2.73-2.29,4.95-5.1,4.95h-49.18c-2.81,0-5.1-2.22-5.1-4.95v-6.81h59.38ZM131.61,224.32c0,3.63-3.04,6.59-6.78,6.59H13.56c-3.74,0-6.78-2.96-6.78-6.59V13.18c0-3.63,3.04-6.59,6.78-6.59h19.16v6.81c0,6.37,5.33,11.55,11.88,11.55h49.18c6.55,0,11.88-5.18,11.88-11.55v-6.81h19.16c3.74,0,6.78,2.96,6.78,6.59v211.14Z"/>
        <path class="cls-1" d="M81.29,110.02c0-.12.04-.23.04-.35v-3.6c0-2.48-2.01-4.49-4.49-4.49h-1.5l-3.61-20.24c-.5-2.8-4.52-2.8-5.02,0l-3.61,20.24h-1.5c-2.48,0-4.49,2.01-4.49,4.49v3.6c0,.12.03.23.04.35-2.09.52-3.66,2.4-3.66,4.65v67.84c0,2.65,2.16,4.81,4.81,4.81h1.53v7.8c0,.26.03.52.08.76h-.28c-1.95,0-3.53,1.58-3.53,3.53v4.68c0,1.95,1.58,3.53,3.53,3.53h19.2c1.95,0,3.53-1.58,3.53-3.53v-4.68c0-1.95-1.58-3.53-3.53-3.53h-.28c.05-.25.08-.5.08-.76v-7.8h1.53c2.65,0,4.81-2.16,4.81-4.81v-67.84c0-2.25-1.56-4.13-3.65-4.65ZM68.77,90.73c.09-.5.8-.5.89,0l1.84,10.3c.05.28-.16.53-.45.53h-3.68c-.28,0-.5-.25-.45-.53l1.84-10.3ZM60.79,106.06c0-.44.37-.81.81-.81h15.24c.44,0,.81.37.81.81v3.6c0,.07-.02.13-.04.2h-16.77c-.02-.07-.04-.13-.04-.2v-3.6ZM78.66,199.57v4.36h-18.88v-4.36h18.88ZM64.29,194.57v-7.25h9.84v7.25h-9.84ZM80.04,182.42h-21.66v-67.66h5.79v52.23c0,4.42.12,8.02,8.02,8.02h7.85v7.41ZM72.2,171.33c-5.39,0-4.33-1.94-4.33-4.33v-52.23h12.18v8.57h-5.79c-.74,0-1.34.6-1.34,1.34h0c0,.74.6,1.34,1.34,1.34h5.79v6.29h-7.27c-.74,0-1.34.6-1.34,1.34s.6,1.34,1.34,1.34h7.27v2.88h-7.27c-.74,0-1.34.6-1.34,1.34s.6,1.34,1.34,1.34h7.27v2.88h-7.27c-.74,0-1.34.6-1.34,1.34s.6,1.34,1.34,1.34h7.27v2.88h-7.27c-.74,0-1.34.6-1.34,1.34s.6,1.34,1.34,1.34h7.27v2.88h-7.27c-.74,0-1.34.6-1.34,1.34s.6,1.34,1.34,1.34h7.27v14.08h-7.85Z"/>
        <g>
          <path class="cls-3" d="M104.77,193.04h-9.61c-1.42,0-2.58,1.15-2.58,2.58h0c0,1.42,1.15,2.58,2.58,2.58h14.77c1.42,0,2.58-1.15,2.58-2.58v-14.77c0-1.42-1.15-2.58-2.58-2.58h0c-1.42,0-2.58,1.15-2.58,2.58v9.61c0,1.42-1.15,2.58-2.58,2.58Z"/>
          <path class="cls-3" d="M30.64,177.06h0c-1.42,0-2.58,1.15-2.58,2.58v15.98c0,1.42,1.15,2.58,2.58,2.58h14.77c1.42,0,2.58-1.15,2.58-2.58h0c0-1.42-1.15-2.58-2.58-2.58h-9.61c-1.42,0-2.58-1.15-2.58-2.58v-10.83c0-1.42-1.15-2.58-2.58-2.58Z"/>
          <path class="cls-3" d="M45.41,113.75h-14.77c-1.42,0-2.58,1.15-2.58,2.58v13.56c0,1.42,1.15,2.58,2.58,2.58h0c1.42,0,2.58-1.15,2.58-2.58v-8.4c0-1.42,1.15-2.58,2.58-2.58h9.61c1.42,0,2.58-1.15,2.58-2.58h0c0-1.42-1.15-2.58-2.58-2.58Z"/>
          <path class="cls-3" d="M92.58,116.33h0c0,1.42,1.15,2.58,2.58,2.58h9.61c1.42,0,2.58,1.15,2.58,2.58v9.61c0,1.42,1.15,2.58,2.58,2.58h0c1.42,0,2.58-1.15,2.58-2.58v-14.77c0-1.42-1.15-2.58-2.58-2.58h-14.77c-1.42,0-2.58,1.15-2.58,2.58Z"/>
        </g>
        <g>
          <circle class="cls-3" cx="78.78" cy="46.54" r="1.6"/>
          <path class="cls-3" d="M80.79,40.44h-2.92c-.92,0-1.66-.74-1.66-1.66v-1.02c0-.86-.7-1.55-1.55-1.55h-10.73c-.86,0-1.55.7-1.55,1.55v1.02c0,.92-.74,1.66-1.66,1.66h-2.92c-2.38,0-4.31,1.93-4.31,4.31v14.73c0,2.38,1.93,4.31,4.31,4.31h23c2.38,0,4.31-1.93,4.31-4.31v-14.73c0-2.38-1.93-4.31-4.31-4.31ZM64.4,37.98h9.78c.14,0,.26.12.26.26v1.94c0,.14-.12.26-.26.26h-9.78c-.14,0-.26-.12-.26-.26v-1.94c0-.14.12-.26.26-.26ZM83.33,59.48c0,1.4-1.14,2.54-2.54,2.54h-23c-1.4,0-2.54-1.14-2.54-2.54v-14.73c0-1.4,1.14-2.54,2.54-2.54h23c1.4,0,2.54,1.14,2.54,2.54v14.73Z"/>
          <path class="cls-3" d="M69.33,45.66c-3.64,0-6.59,2.96-6.59,6.59s2.96,6.59,6.59,6.59,6.59-2.96,6.59-6.59-2.96-6.59-6.59-6.59ZM69.33,57.07c-2.66,0-4.82-2.16-4.82-4.82s2.16-4.82,4.82-4.82,4.82,2.16,4.82,4.82-2.16,4.82-4.82,4.82Z"/>
        </g>
      </g>
    </g>
  </g>
</svg>