<?xml version="1.0" encoding="UTF-8"?>
<svg id="Layer_2" data-name="Layer 2" xmlns="http://www.w3.org/2000/svg" viewBox="0 0 75.48 75.48">
  <defs>
    <style>
      .cls-1 {
        fill: #fdc26a;
      }

      .cls-2 {
        fill: #0f2825;
        opacity: .2;
      }

      .cls-3 {
        fill: #ffe6c1;
      }

      .cls-4 {
        fill: #19423f;
        opacity: .11;
      }

      .cls-5 {
        fill: #ebd4b2;
      }

      .cls-6 {
        fill: #00a39b;
      }

      .cls-7 {
        fill: #1e1307;
        opacity: .1;
      }

      .cls-8 {
        fill: #89ccc8;
      }

      .cls-9 {
        fill: #ffb057;
      }
    </style>
  </defs>
  <g id="MED_ICONS" data-name="MED ICONS">
    <g id="Injection">
      <path class="cls-3" d="M18.56,58.12l-2.84-2.84c-.6-.6-1.58-.6-2.18,0l-6.97,6.97,3.93,3.93,8.07-8.07Z"/>
      <path class="cls-1" d="M18.56,58.12l-8.07,8.07,1.74,1.74,1,1,6.97-6.97c.6-.6.6-1.58,0-2.18l-1.64-1.64Z"/>
      <path class="cls-5" d="M18.56,58.12l-8.07,8.07,1.74,1.74,1,1,6.97-6.97c.6-.6.6-1.58,0-2.18l-1.64-1.64Z"/>
      <path class="cls-9" d="M12.23,67.93l-1.74-1.74-3.93-3.93-1.83-1.83c-.56-.56-1.47-.56-2.03,0l-2.28,2.28c-.56.56-.56,1.47,0,2.03l10.33,10.33-2.83-2.83,4.31-4.31Z"/>
      <path class="cls-9" d="M7.92,72.24l2.83,2.83c.56.56,1.47.56,2.03,0l2.28-2.28c.56-.56.56-1.47,0-2.03l-1.83-1.83-1-1-4.31,4.31Z"/>
      <path class="cls-7" d="M7.92,72.24l2.83,2.83c.56.56,1.47.56,2.03,0l2.28-2.28c.56-.56.56-1.47,0-2.03l-1.83-1.83-1-1-4.31,4.31Z"/>
      <path class="cls-8" d="M75.45.38s0,.05-.02.07c.19-.24-.15-.59-.39-.39l-19.91,15.9-1.94-1.94c-.29-.29-.74-.3-1.01-.04l-1.19,1.19,4.84,4.84L75.45.38Z"/>
      <path class="cls-8" d="M59.52,20.37L75.43.45s.01-.05.02-.07l-19.63,19.63,4.5,4.5,1.19-1.19c.13-.13.2-.31.19-.5,0-.09-.02-.18-.06-.27-.04-.09-.09-.17-.16-.24l-1.94-1.94Z"/>
      <path class="cls-2" d="M59.52,20.37L75.43.45s.01-.05.02-.07l-19.63,19.63,4.5,4.5,1.19-1.19c.13-.13.2-.31.19-.5,0-.09-.02-.18-.06-.27-.04-.09-.09-.17-.16-.24l-1.94-1.94Z"/>
      <path class="cls-6" d="M50.98,15.17l-.27-.27c-.23-.23-.6-.23-.82,0l-1.25,1.25c-.23.23-.23.6,0,.82l9.87,9.87-3.27-3.27,2.08-2.08,3.27,3.27-.27-.27-4.5-4.5-4.84-4.84Z"/>
      <path class="cls-9" d="M20.73,57.4L53.45,24.68l-6.16-6.16c-1.04-1.04-2.67-1.1-3.63-.13l-3.23,3.23,4.64,4.64c.61.61.65,1.58.08,2.15s-1.54.53-2.15-.08l-4.64-4.64-3.49,3.49,3.41,3.41c.39.39.42,1.02.05,1.38h0c-.37.37-.99.34-1.38-.05l-3.41-3.41-3.49,3.49,4.64,4.64c.61.61.65,1.58.08,2.15s-1.54.53-2.15-.08l-4.64-4.64-3.49,3.49,3.41,3.41c.39.39.42,1.02.05,1.38s-.99.34-1.38-.05l-3.41-3.41-3.49,3.49,4.64,4.64c.61.61.65,1.58.08,2.15h0c-.57.57-1.54.53-2.15-.08l-4.64-4.64-3.15,3.15c-.96.96-.9,2.6.13,3.63l7.61,7.61h0l-1.45-1.45Z"/>
      <path class="cls-6" d="M55.24,23.57l3.27,3.27c.23.23.6.23.82,0l1.25-1.25c.23-.23.23-.6,0-.82l-3.27-3.27-2.08,2.08Z"/>
      <path class="cls-4" d="M55.24,23.57l3.27,3.27c.23.23.6.23.82,0l1.25-1.25c.23-.23.23-.6,0-.82l-3.27-3.27-2.08,2.08Z"/>
      <path class="cls-9" d="M56.96,28.19l-2.05-2.05-1.45-1.45L20.73,57.4l1.45,1.45,2.05,2.05c1.04,1.04,2.67,1.1,3.63.13l29.22-29.22c.96-.96.9-2.6-.13-3.63Z"/>
      <path class="cls-7" d="M56.96,28.19l-2.05-2.05-1.45-1.45L20.73,57.4l1.45,1.45,2.05,2.05c1.04,1.04,2.67,1.1,3.63.13l29.22-29.22c.96-.96.9-2.6-.13-3.63Z"/>
    </g>
  </g>
</svg>