<?xml version="1.0" encoding="UTF-8"?>
<svg id="Layer_2" data-name="Layer 2" xmlns="http://www.w3.org/2000/svg" viewBox="0 0 138.39 237.51">
  <defs>
    <style>
      .cls-1 {
        fill: #b7dcfe;
      }

      .cls-2 {
        fill: #01a29b;
      }

      .cls-3 {
        fill: #89ccc8;
      }
    </style>
  </defs>
  <g id="SCAN_GRAPHICS" data-name="SCAN GRAPHICS">
    <g id="Liquid_Scan_Graphic" data-name="Liquid Scan Graphic">
      <g>
        <path class="cls-2" d="M124.83,0H13.56C6.08,0,0,5.91,0,13.18v211.14c0,7.27,6.08,13.18,13.56,13.18h111.27c7.48,0,13.56-5.91,13.56-13.18V13.18c0-7.27-6.08-13.18-13.56-13.18ZM98.88,6.59v6.81c0,2.73-2.29,4.95-5.1,4.95h-49.18c-2.81,0-5.1-2.22-5.1-4.95v-6.81h59.38ZM131.61,224.32c0,3.63-3.04,6.59-6.78,6.59H13.56c-3.74,0-6.78-2.96-6.78-6.59V13.18c0-3.63,3.04-6.59,6.78-6.59h19.16v6.81c0,6.37,5.33,11.55,11.88,11.55h49.18c6.55,0,11.88-5.18,11.88-11.55v-6.81h19.16c3.74,0,6.78,2.96,6.78,6.59v211.14Z"/>
        <path class="cls-1" d="M103.5,138.24c-.35-7.87-2.36-21.45-11.9-24l-.11-.03c-.95-.25-3.68-.98-4.64-1.69-.07-3.79-.81-9.03-4.01-11.81.31-.79.49-1.66.49-2.58v-7.1c0-3.52-2.55-6.39-5.67-6.39h-15.33c-3.13,0-5.67,2.87-5.67,6.39v7.1c0,.82.14,1.61.4,2.33-2.83,2.09-4.3,6.16-4.37,12.2-.35.29-1.4.91-4.21,1.56-3.6.83-11.98,4.85-11.98,24.16v53.11c0,7.89,5.7,14.31,12.7,14.31h41.61c7,0,12.7-6.42,12.7-14.31v-53.25ZM61.74,91.03c0-.36.27-.67.59-.67h15.33c.32,0,.59.31.59.67v7.1c0,.36-.27.67-.59.67h-15.33c-.32,0-.59-.31-.59-.67v-7.1ZM98.42,191.49c0,4.73-3.42,8.58-7.62,8.58h-41.61c-4.2,0-7.62-3.85-7.62-8.58v-53.11c0-15.1,5.54-18.01,7.92-18.56,2.26-.52,8.27-1.91,8.27-6.72,0-7.92,2.4-8.58,4.85-8.58h14.76c1.43,0,4.4,0,4.4,8.58,0,4.39,5.14,5.76,8.54,6.67l.11.03c3.74,1,6.3,5.46,7.43,12.73h-26.87c-7.89,0-14.31,6.42-14.31,14.31v25.05c0,7.89,6.42,14.31,14.31,14.31h27.44v5.29ZM79.59,150.66h17.61v5.98h-24.48c-1.5,0-2.72,1.22-2.72,2.72s1.22,2.72,2.72,2.72h24.48v3.28h-24.48c-1.5,0-2.72,1.22-2.72,2.72s1.22,2.72,2.72,2.72h24.48v9.66h-26.22c-4.73,0-8.58-3.85-8.58-8.58v-25.05c0-4.73,3.85-8.58,8.58-8.58h26.22v6.96h-17.61c-1.5,0-2.72,1.22-2.72,2.72h0c0,1.5,1.22,2.72,2.72,2.72Z"/>
        <g>
          <path class="cls-3" d="M104.77,193.04h-9.61c-1.42,0-2.58,1.15-2.58,2.58h0c0,1.42,1.15,2.58,2.58,2.58h14.77c1.42,0,2.58-1.15,2.58-2.58v-14.77c0-1.42-1.15-2.58-2.58-2.58h0c-1.42,0-2.58,1.15-2.58,2.58v9.61c0,1.42-1.15,2.58-2.58,2.58Z"/>
          <path class="cls-3" d="M30.64,177.06h0c-1.42,0-2.58,1.15-2.58,2.58v15.98c0,1.42,1.15,2.58,2.58,2.58h14.77c1.42,0,2.58-1.15,2.58-2.58h0c0-1.42-1.15-2.58-2.58-2.58h-9.61c-1.42,0-2.58-1.15-2.58-2.58v-10.83c0-1.42-1.15-2.58-2.58-2.58Z"/>
          <path class="cls-3" d="M45.41,113.75h-14.77c-1.42,0-2.58,1.15-2.58,2.58v13.56c0,1.42,1.15,2.58,2.58,2.58h0c1.42,0,2.58-1.15,2.58-2.58v-8.4c0-1.42,1.15-2.58,2.58-2.58h9.61c1.42,0,2.58-1.15,2.58-2.58h0c0-1.42-1.15-2.58-2.58-2.58Z"/>
          <path class="cls-3" d="M92.58,116.33h0c0,1.42,1.15,2.58,2.58,2.58h9.61c1.42,0,2.58,1.15,2.58,2.58v9.61c0,1.42,1.15,2.58,2.58,2.58h0c1.42,0,2.58-1.15,2.58-2.58v-14.77c0-1.42-1.15-2.58-2.58-2.58h-14.77c-1.42,0-2.58,1.15-2.58,2.58Z"/>
        </g>
        <g>
          <circle class="cls-3" cx="78.78" cy="46.54" r="1.6"/>
          <path class="cls-3" d="M80.79,40.44h-2.92c-.92,0-1.66-.74-1.66-1.66v-1.02c0-.86-.7-1.55-1.55-1.55h-10.73c-.86,0-1.55.7-1.55,1.55v1.02c0,.92-.74,1.66-1.66,1.66h-2.92c-2.38,0-4.31,1.93-4.31,4.31v14.73c0,2.38,1.93,4.31,4.31,4.31h23c2.38,0,4.31-1.93,4.31-4.31v-14.73c0-2.38-1.93-4.31-4.31-4.31ZM64.4,37.98h9.78c.14,0,.26.12.26.26v1.94c0,.14-.12.26-.26.26h-9.78c-.14,0-.26-.12-.26-.26v-1.94c0-.14.12-.26.26-.26ZM83.33,59.48c0,1.4-1.14,2.54-2.54,2.54h-23c-1.4,0-2.54-1.14-2.54-2.54v-14.73c0-1.4,1.14-2.54,2.54-2.54h23c1.4,0,2.54,1.14,2.54,2.54v14.73Z"/>
          <path class="cls-3" d="M69.33,45.66c-3.64,0-6.59,2.96-6.59,6.59s2.96,6.59,6.59,6.59,6.59-2.96,6.59-6.59-2.96-6.59-6.59-6.59ZM69.33,57.07c-2.66,0-4.82-2.16-4.82-4.82s2.16-4.82,4.82-4.82,4.82,2.16,4.82,4.82-2.16,4.82-4.82,4.82Z"/>
        </g>
      </g>
    </g>
  </g>
</svg>