<?xml version="1.0" encoding="UTF-8"?>
<svg id="Layer_2" data-name="Layer 2" xmlns="http://www.w3.org/2000/svg" viewBox="0 0 87.54 73.93">
  <defs>
    <style>
      .cls-1 {
        fill: #fdc26a;
      }

      .cls-2 {
        fill: #19423f;
        opacity: .11;
      }

      .cls-3 {
        fill: #00a39b;
      }

      .cls-4 {
        opacity: .17;
      }

      .cls-4, .cls-5, .cls-6 {
        fill: #3f3318;
      }

      .cls-5 {
        opacity: .15;
      }

      .cls-6 {
        opacity: .16;
      }

      .cls-7 {
        fill: #89ccc8;
      }

      .cls-8 {
        fill: #ffb057;
      }
    </style>
  </defs>
  <g id="MED_ICONS" data-name="MED ICONS">
    <g id="Liquid">
      <path class="cls-7" d="M62.63,63.38c-.46-.17-1.12-.42-1.66-.64-1.22-.52-2.36-.84-4.38-.97-1.97-.13-2.88-.91-3.77-1.47-1.11-.7-2.29-2.54-3.28-5.41-.23-.65-.37-1.2-.47-1.7l-.49.49c-.13.13-.28.22-.44.29.28.46.63,1.18,1.01,2.35.92,2.82.55,5.93.36,6.58-.13.44-.58,1.23-.85,1.68-.09.15.02.34.2.34h12.99c.19,0,.37-.08.49-.22l.59-1.22-.04.09c-.06-.09-.14-.16-.26-.21Z"/>
      <path class="cls-7" d="M49.54,54.89c.99,2.87,2.17,4.71,3.28,5.41.89.56,1.79,1.34,3.77,1.47,2.02.13,3.16.45,4.38.97.54.23,1.2.48,1.66.64.12.04.2.12.26.21l.04-.09c.12-.26.01-.56-.25-.68-.4-.17-.97-.42-1.44-.64-1.06-.52-2.05-.84-3.79-.97-1.71-.13-2.49-.91-3.26-1.47-.96-.7-1.98-2.54-2.84-5.41-.36-1.22-.5-2.13-.58-2.84l-1.7,1.7c.11.49.25,1.04.47,1.7Z"/>
      <path class="cls-2" d="M49.54,54.89c.99,2.87,2.17,4.71,3.28,5.41.89.56,1.79,1.34,3.77,1.47,2.02.13,3.16.45,4.38.97.54.23,1.2.48,1.66.64.12.04.2.12.26.21l.04-.09c.12-.26.01-.56-.25-.68-.4-.17-.97-.42-1.44-.64-1.06-.52-2.05-.84-3.79-.97-1.71-.13-2.49-.91-3.26-1.47-.96-.7-1.98-2.54-2.84-5.41-.36-1.22-.5-2.13-.58-2.84l-1.7,1.7c.11.49.25,1.04.47,1.7Z"/>
      <path class="cls-3" d="M48.14,53.97c.16-.08.31-.16.44-.29l.49-.49,1.7-1.7-2.08,2.08-2.2-5.75-2.34,2.34c-.37.37-.37.96,0,1.32l2.18,2.18c.49.49,1.23.58,1.82.29Z"/>
      <path class="cls-8" d="M32.97,35.99c-1.27-.07-2.53-.57-3.5-1.54l-14.14-14.14c-2.1-2.1-2.1-5.51,0-7.6l6.4-6.4L19.41.19c-.61.19-1.19.5-1.68.99L1.2,17.72c-1.6,1.6-1.6,4.21,0,5.81l22.26,22.26c3.06,3.06,7.58,3.81,11.36,2.27.85-.35,1.76-.42,2.62-.27l-4.47-11.8h0Z"/>
      <path class="cls-1" d="M17.01,14.39c-1.17,1.17-1.17,3.06,0,4.23l14.14,14.14c.24.24.51.42.8.56l-9.3-24.57-5.64,5.64Z"/>
      <path class="cls-1" d="M55.22,72.51c4.99,0,9.13-2.66,9.93-6.16.06-.27,0-.53-.13-.75l.11-.15c.2-.26.53-.42.87-.42h19.46c.27,0,.49-.2.49-.46v-1.24h-19.18c-.33,0-.64.14-.85.38l-2.3,2.72s-.02.06-.04.09h-15.81c-.59,0-1.06.61-.92,1.25.29,1.27,1.04,2.42,2.09,3.39-.24-.22-.47-.45-.68-.69,1.81,1.26,4.24,2.04,6.93,2.04Z"/>
      <path class="cls-8" d="M25.2,2.83l-1.65-1.65c-.18-.18-.37-.33-.57-.46-.06-.04-.12-.08-.19-.12-.15-.09-.3-.17-.46-.24-.07-.03-.14-.07-.21-.09-.19-.07-.38-.13-.57-.17-.13-.03-.27-.05-.4-.06-.07,0-.13-.01-.2-.02-.27-.02-.53-.01-.8.02-.18.02-.35.07-.53.11-.07.02-.14.02-.22.05h0s2.31,6.12,2.31,6.12l3.47-3.47Z"/>
      <path class="cls-5" d="M25.2,2.83l-1.65-1.65c-.18-.18-.37-.33-.57-.46-.06-.04-.12-.08-.19-.12-.15-.09-.3-.17-.46-.24-.07-.03-.14-.07-.21-.09-.19-.07-.38-.13-.57-.17-.13-.03-.27-.05-.4-.06-.07,0-.13-.01-.2-.02-.27-.02-.53-.01-.8.02-.18.02-.35.07-.53.11-.07.02-.14.02-.22.05h0s2.31,6.12,2.31,6.12l3.47-3.47Z"/>
      <path class="cls-8" d="M49.66,42.96c.12-.18.21-.38.27-.59.12-.41.12-.86,0-1.27-.06-.21-.15-.41-.27-.59-.08-.12-.18-.24-.28-.35l-.28-.28h0c-1.33-1.33-1.73-3.33-1.02-5.07.17-.41.31-.84.42-1.26.16-.59.26-1.2.31-1.8.05-.61.05-1.22,0-1.82-.03-.3-.07-.61-.12-.91-.16-.9-.44-1.79-.84-2.63-.28-.59-.59-1.17-.99-1.72l-4.89,4.89-4.89,4.89s0,0,0,0c-.27.27-.57.51-.89.71-.05.03-.11.06-.17.09-.27.16-.55.31-.85.42-.03.01-.06.02-.09.03-.68.24-1.4.34-2.11.3h0l4.47,11.8c.45.08.88.23,1.29.44,0,0,.02,0,.02.01.18.1.36.21.53.33.02.02.05.03.07.05.19.14.37.29.54.46l.28.28c.65.65,1.61.81,2.41.49.27-.11.52-.27.74-.49l6.06-6.06c.11-.11.2-.23.28-.35Z"/>
      <path class="cls-4" d="M49.66,42.96c.12-.18.21-.38.27-.59.12-.41.12-.86,0-1.27-.06-.21-.15-.41-.27-.59-.08-.12-.18-.24-.28-.35l-.28-.28h0c-1.33-1.33-1.73-3.33-1.02-5.07.17-.41.31-.84.42-1.26.16-.59.26-1.2.31-1.8.05-.61.05-1.22,0-1.82-.03-.3-.07-.61-.12-.91-.16-.9-.44-1.79-.84-2.63-.28-.59-.59-1.17-.99-1.72l-4.89,4.89-4.89,4.89s0,0,0,0c-.27.27-.57.51-.89.71-.05.03-.11.06-.17.09-.27.16-.55.31-.85.42-.03.01-.06.02-.09.03-.68.24-1.4.34-2.11.3h0l4.47,11.8c.45.08.88.23,1.29.44,0,0,.02,0,.02.01.18.1.36.21.53.33.02.02.05.03.07.05.19.14.37.29.54.46l.28.28c.65.65,1.61.81,2.41.49.27-.11.52-.27.74-.49l6.06-6.06c.11-.11.2-.23.28-.35Z"/>
      <path class="cls-1" d="M22.66,8.75l9.3,24.57s0,0,0,0c.14.07.28.12.42.17,0,0,.02,0,.02,0,.4.12.82.16,1.23.11.04,0,.08,0,.12-.01.09-.01.18-.04.27-.06.09-.02.17-.05.26-.08.07-.03.14-.06.21-.09.1-.05.2-.1.3-.16.05-.03.11-.06.16-.1.15-.1.29-.21.42-.34,0,0,0,0,0,0l9.87-9.87L26.89,4.52l-4.23,4.23Z"/>
      <path class="cls-4" d="M22.66,8.75l9.3,24.57s0,0,0,0c.14.07.28.12.42.17,0,0,.02,0,.02,0,.4.12.82.16,1.23.11.04,0,.08,0,.12-.01.09-.01.18-.04.27-.06.09-.02.17-.05.26-.08.07-.03.14-.06.21-.09.1-.05.2-.1.3-.16.05-.03.11-.06.16-.1.15-.1.29-.21.42-.34,0,0,0,0,0,0l9.87-9.87L26.89,4.52l-4.23,4.23Z"/>
      <path class="cls-6" d="M66.54,68.42c.08-.21.14-.43.19-.65.03-.14.03-.27,0-.4.02.13.03.26,0,.4-.05.22-.11.43-.19.65Z"/>
      <path class="cls-1" d="M87.05,63.34h-1.09v1.24c0,.25-.22.46-.49.46h-19.46c-.35,0-.67.15-.87.42l-.11.15c.13.22.2.48.13.75-.81,3.49-4.95,6.16-9.93,6.16-2.69,0-5.13-.78-6.93-2.04.21.24.44.47.68.69.04.04.08.07.12.11.24.21.5.42.77.61,0,0,.01,0,.02.01.59.41,1.25.77,1.96,1.07.03.01.06.02.09.04.31.13.63.24.96.34.06.02.12.04.18.06.36.11.73.2,1.11.27.04,0,.09.01.13.02.33.06.66.11,1,.15.1.01.2.02.3.03.39.03.78.06,1.18.06,2.49,0,4.77-.67,6.53-1.77.44-.28.85-.58,1.22-.9s.7-.68.99-1.05.54-.76.74-1.17c.1-.2.19-.41.26-.62.08-.21.14-.43.19-.65.03-.14.03-.27,0-.4-.03-.13-.07-.25-.14-.36l.11-.15c.2-.26.53-.42.87-.42h19.46c.27,0,.49-.2.49-.46v-2.2c0-.25-.22-.46-.49-.46Z"/>
      <path class="cls-6" d="M87.05,63.34h-1.09v1.24c0,.25-.22.46-.49.46h-19.46c-.35,0-.67.15-.87.42l-.11.15c.13.22.2.48.13.75-.81,3.49-4.95,6.16-9.93,6.16-2.69,0-5.13-.78-6.93-2.04.21.24.44.47.68.69.04.04.08.07.12.11.24.21.5.42.77.61,0,0,.01,0,.02.01.59.41,1.25.77,1.96,1.07.03.01.06.02.09.04.31.13.63.24.96.34.06.02.12.04.18.06.36.11.73.2,1.11.27.04,0,.09.01.13.02.33.06.66.11,1,.15.1.01.2.02.3.03.39.03.78.06,1.18.06,2.49,0,4.77-.67,6.53-1.77.44-.28.85-.58,1.22-.9s.7-.68.99-1.05.54-.76.74-1.17c.1-.2.19-.41.26-.62.08-.21.14-.43.19-.65.03-.14.03-.27,0-.4-.03-.13-.07-.25-.14-.36l.11-.15c.2-.26.53-.42.87-.42h19.46c.27,0,.49-.2.49-.46v-2.2c0-.25-.22-.46-.49-.46Z"/>
      <path class="cls-3" d="M50.77,51.5l2.9-2.9c.64-.64.64-1.69,0-2.33l-2.13-2.13c-.38-.38-.98-.38-1.36,0l-3.7,3.7,2.2,5.75,2.08-2.08Z"/>
      <path class="cls-2" d="M50.77,51.5l2.9-2.9c.64-.64.64-1.69,0-2.33l-2.13-2.13c-.38-.38-.98-.38-1.36,0l-3.7,3.7,2.2,5.75,2.08-2.08Z"/>
    </g>
  </g>
</svg>