<?xml version="1.0" encoding="UTF-8"?>
<svg id="Layer_2" data-name="Layer 2" xmlns="http://www.w3.org/2000/svg" viewBox="0 0 82.95 76.15">
  <defs>
    <style>
      .cls-1 {
        fill: #fdc26a;
      }

      .cls-2 {
        fill: #19423f;
        opacity: .11;
      }

      .cls-3 {
        fill: #00a39b;
      }

      .cls-4 {
        fill: #3f3318;
        opacity: .17;
      }

      .cls-5 {
        fill: #89ccc8;
      }

      .cls-6 {
        fill: #ffb057;
      }
    </style>
  </defs>
  <g id="MED_ICONS" data-name="MED ICONS">
    <g id="Ointment_Cream" data-name="Ointment / Cream">
      <path class="cls-6" d="M27.87,34.24l-4.02,4.69c-3.45,4.02-3.7,9.57-.73,12.53l7.83,7.83,10.99-10.99-14.07-14.07Z"/>
      <path class="cls-6" d="M74.2,16.04L58.51.36c-.66-.66-1.98-.37-2.83.62l-11.43,13.37,24.35,24.35-8.53-8.53,14.13-14.13Z"/>
      <polygon class="cls-1" points="43.96 46.27 58.12 32.11 42.58 16.57 29.63 31.94 51.01 53.33 66.38 40.38 51.01 53.33 43.96 46.27"/>
      <path class="cls-5" d="M23.6,60.84l-3.35-3.35-2.25,2.25c-.57.57-.57,1.49,0,2.05l2.32,2.32,3.28-3.28Z"/>
      <path class="cls-3" d="M26.48,57.97l-5.03-5.03-1.38,1.38c-.82.82-.82,2.16,0,2.98l.18.18,3.35,3.35,2.87-2.87Z"/>
      <path class="cls-5" d="M18.17,71.44c-1.2-1.86-1.25-3.37-1.32-4.69-.19-.05-.39-.02-.54.13-.61.59-1.86,1.56-3.94,2.22-3.15.99-7.23.16-9.87,2.71-1.78,1.73-2.34,2.9-2.48,3.6-.09.41.24.79.66.73,1.84-.23,7.31-.85,10.88-.76,2.05.05,4.65.14,6.97.42.04-.08.08-.16.11-.24.47-1.44.78-2.19-.46-4.12Z"/>
      <path class="cls-6" d="M30.94,59.29l.55.55c1.3,1.3,3.09,1.98,5.03,2.05,0,0,0,0,0,0,.52.02,1.06-.01,1.6-.08,1.01-.13,2.04-.43,3.04-.88,1-.45,1.96-1.06,2.85-1.82l2.17-1.86,2.53-2.17-6.78-6.78-10.99,10.99Z"/>
      <path class="cls-4" d="M30.94,59.29l.55.55c1.3,1.3,3.09,1.98,5.03,2.05,0,0,0,0,0,0,.52.02,1.06-.01,1.6-.08,1.01-.13,2.04-.43,3.04-.88,1-.45,1.96-1.06,2.85-1.82l2.17-1.86,2.53-2.17-6.78-6.78-10.99,10.99Z"/>
      <polygon class="cls-1" points="43.96 46.27 51.01 53.33 66.38 40.38 58.12 32.11 43.96 46.27"/>
      <polygon class="cls-4" points="43.96 46.27 51.01 53.33 66.38 40.38 58.12 32.11 43.96 46.27"/>
      <path class="cls-6" d="M82.87,24.87c-.06-.16-.15-.31-.27-.43l-8.4-8.4-14.13,14.13,8.53,8.53,13.37-11.43c.5-.42.82-.97.93-1.48.03-.13.04-.26.05-.38,0-.19-.02-.37-.08-.53Z"/>
      <path class="cls-4" d="M82.87,24.87c-.06-.16-.15-.31-.27-.43l-8.4-8.4-14.13,14.13,8.53,8.53,13.37-11.43c.5-.42.82-.97.93-1.48.03-.13.04-.26.05-.38,0-.19-.02-.37-.08-.53Z"/>
      <path class="cls-5" d="M20.33,64.12l.83.83c.57.57,1.49.57,2.05,0l1.17-1.17,1.08-1.08-1.86-1.86-3.28,3.28Z"/>
      <path class="cls-2" d="M20.33,64.12l.83.83c.57.57,1.49.57,2.05,0l1.17-1.17,1.08-1.08-1.86-1.86-3.28,3.28Z"/>
      <path class="cls-3" d="M23.61,60.84l1.86,1.86h0l.18.18c.41.41.95.62,1.49.62.27,0,.54-.05.79-.15.25-.1.49-.26.7-.46l1.38-1.38-3.53-3.53-2.87,2.87Z"/>
      <path class="cls-2" d="M23.61,60.84l1.86,1.86h0l.18.18c.41.41.95.62,1.49.62.27,0,.54-.05.79-.15.25-.1.49-.26.7-.46l1.38-1.38-3.53-3.53-2.87,2.87Z"/>
      <path class="cls-5" d="M17.2,66.97c-.05-.06-.1-.11-.17-.15-.06-.03-.12-.06-.18-.08,0,0,0,0,0,0,.07,1.32.13,2.83,1.32,4.69,1.24,1.93.94,2.68.46,4.12-.03.09-.07.16-.11.24.34.04.67.09,1,.13.82.13,1.58-.46,1.72-1.28.23-1.35-.04-2.55-.99-3.93-.95-1.39-1.9-2.2-3.06-3.75Z"/>
      <path class="cls-2" d="M17.2,66.97c-.05-.06-.1-.11-.17-.15-.06-.03-.12-.06-.18-.08,0,0,0,0,0,0,.07,1.32.13,2.83,1.32,4.69,1.24,1.93.94,2.68.46,4.12-.03.09-.07.16-.11.24.34.04.67.09,1,.13.82.13,1.58-.46,1.72-1.28.23-1.35-.04-2.55-.99-3.93-.95-1.39-1.9-2.2-3.06-3.75Z"/>
    </g>
  </g>
</svg>