<?xml version="1.0" encoding="UTF-8"?>
<svg id="Layer_2" data-name="Layer 2" xmlns="http://www.w3.org/2000/svg" viewBox="0 0 138.39 237.51">
  <defs>
    <style>
      .cls-1 {
        fill: #b7dcfe;
      }

      .cls-2 {
        fill: #01a29b;
      }

      .cls-3 {
        fill: #89ccc8;
      }
    </style>
  </defs>
  <g id="SCAN_GRAPHICS" data-name="SCAN GRAPHICS">
    <g id="Ointment_Scan_Graphic" data-name="Ointment Scan Graphic">
      <g>
        <path class="cls-2" d="M124.83,0H13.56C6.08,0,0,5.91,0,13.18v211.14c0,7.27,6.08,13.18,13.56,13.18h111.27c7.48,0,13.56-5.91,13.56-13.18V13.18c0-7.27-6.08-13.18-13.56-13.18ZM98.88,6.59v6.81c0,2.73-2.29,4.95-5.1,4.95h-49.18c-2.81,0-5.1-2.22-5.1-4.95v-6.81h59.38ZM131.61,224.32c0,3.63-3.04,6.59-6.78,6.59H13.56c-3.74,0-6.78-2.96-6.78-6.59V13.18c0-3.63,3.04-6.59,6.78-6.59h19.16v6.81c0,6.37,5.33,11.55,11.88,11.55h49.18c6.55,0,11.88-5.18,11.88-11.55v-6.81h19.16c3.74,0,6.78,2.96,6.78,6.59v211.14Z"/>
        <path class="cls-1" d="M103.11,95.04c-1.3-1.44-3.1-2.24-5.05-2.24h-55.27c-1.96,0-3.75.79-5.05,2.24-1.36,1.51-2.02,3.59-1.8,5.71l7.47,73.12c.27,2.62,2.18,8.46,13.7,9.25,0,.05-.01.09-.01.14v8.92c0,2.54,2.06,4.61,4.6,4.64v3.7c0,2.73,2.22,4.95,4.95,4.95h7.57c2.73,0,4.95-2.22,4.95-4.95v-3.7c2.54-.03,4.6-2.09,4.6-4.64v-8.92s-.01-.09-.01-.14c11.09-.73,13.36-6.01,13.7-9.25l7.47-73.12c.22-2.12-.44-4.2-1.8-5.71ZM75.55,200.51c0,.73-.61,1.34-1.34,1.34h-7.57c-.74,0-1.34-.6-1.34-1.34v-3.69h10.25v3.69ZM78.34,191.4h-15.83v-7.36h15.83v7.36ZM95.9,121.31h-19.78c-1.08,0-1.96.88-1.96,1.96v.53c0,1.08.88,1.96,1.96,1.96h19.3l-.48,4.43h-18.82c-1.08,0-1.96.88-1.96,1.96v.53c0,1.08.88,1.96,1.96,1.96h18.33l-.48,4.43h-17.85c-1.08,0-1.96.88-1.96,1.96v.53c0,1.08.88,1.96,1.96,1.96h17.36l-.9,8.26h-11.46c-1.08,0-1.96.88-1.96,1.96v.53c0,1.08.88,1.96,1.96,1.96h10.97l-.85,7.77h-17.43c-4.59,0-8.33-3.43-8.33-7.64v-36.49c0-4.21,3.74-7.64,8.33-7.64h23.07l-.99,9.09ZM99.77,100.23l-.63,6.15c-.61-.08-1.22-.12-1.82-.12h-23.5c-7.89,0-14.3,6.11-14.3,13.61v36.49c0,7.51,6.42,13.61,14.3,13.61h18.82l-.34,3.37c-.42,4.09-7.23,4.7-11.25,4.7h-21.25c-6.74,0-10.95-1.76-11.25-4.7l-7.47-73.12c-.07-.67.11-1.29.5-1.72.22-.24.61-.53,1.22-.53h55.27c.61,0,1,.29,1.22.53.38.42.56,1.05.5,1.72Z"/>
        <g>
          <path class="cls-3" d="M104.77,193.04h-9.61c-1.42,0-2.58,1.15-2.58,2.58h0c0,1.42,1.15,2.58,2.58,2.58h14.77c1.42,0,2.58-1.15,2.58-2.58v-14.77c0-1.42-1.15-2.58-2.58-2.58h0c-1.42,0-2.58,1.15-2.58,2.58v9.61c0,1.42-1.15,2.58-2.58,2.58Z"/>
          <path class="cls-3" d="M30.64,177.06h0c-1.42,0-2.58,1.15-2.58,2.58v15.98c0,1.42,1.15,2.58,2.58,2.58h14.77c1.42,0,2.58-1.15,2.58-2.58h0c0-1.42-1.15-2.58-2.58-2.58h-9.61c-1.42,0-2.58-1.15-2.58-2.58v-10.83c0-1.42-1.15-2.58-2.58-2.58Z"/>
          <path class="cls-3" d="M45.41,113.75h-14.77c-1.42,0-2.58,1.15-2.58,2.58v13.56c0,1.42,1.15,2.58,2.58,2.58h0c1.42,0,2.58-1.15,2.58-2.58v-8.4c0-1.42,1.15-2.58,2.58-2.58h9.61c1.42,0,2.58-1.15,2.58-2.58h0c0-1.42-1.15-2.58-2.58-2.58Z"/>
          <path class="cls-3" d="M92.58,116.33h0c0,1.42,1.15,2.58,2.58,2.58h9.61c1.42,0,2.58,1.15,2.58,2.58v9.61c0,1.42,1.15,2.58,2.58,2.58h0c1.42,0,2.58-1.15,2.58-2.58v-14.77c0-1.42-1.15-2.58-2.58-2.58h-14.77c-1.42,0-2.58,1.15-2.58,2.58Z"/>
        </g>
        <g>
          <circle class="cls-3" cx="78.78" cy="46.54" r="1.6"/>
          <path class="cls-3" d="M80.79,40.44h-2.92c-.92,0-1.66-.74-1.66-1.66v-1.02c0-.86-.7-1.55-1.55-1.55h-10.73c-.86,0-1.55.7-1.55,1.55v1.02c0,.92-.74,1.66-1.66,1.66h-2.92c-2.38,0-4.31,1.93-4.31,4.31v14.73c0,2.38,1.93,4.31,4.31,4.31h23c2.38,0,4.31-1.93,4.31-4.31v-14.73c0-2.38-1.93-4.31-4.31-4.31ZM64.4,37.98h9.78c.14,0,.26.12.26.26v1.94c0,.14-.12.26-.26.26h-9.78c-.14,0-.26-.12-.26-.26v-1.94c0-.14.12-.26.26-.26ZM83.33,59.48c0,1.4-1.14,2.54-2.54,2.54h-23c-1.4,0-2.54-1.14-2.54-2.54v-14.73c0-1.4,1.14-2.54,2.54-2.54h23c1.4,0,2.54,1.14,2.54,2.54v14.73Z"/>
          <path class="cls-3" d="M69.33,45.66c-3.64,0-6.59,2.96-6.59,6.59s2.96,6.59,6.59,6.59,6.59-2.96,6.59-6.59-2.96-6.59-6.59-6.59ZM69.33,57.07c-2.66,0-4.82-2.16-4.82-4.82s2.16-4.82,4.82-4.82,4.82,2.16,4.82,4.82-2.16,4.82-4.82,4.82Z"/>
        </g>
      </g>
    </g>
  </g>
</svg>