<?xml version="1.0" encoding="UTF-8"?>
<svg id="Layer_2" data-name="Layer 2" xmlns="http://www.w3.org/2000/svg" viewBox="0 0 138.39 237.51">
  <defs>
    <style>
      .cls-1 {
        fill: #b7dcfe;
      }

      .cls-2 {
        fill: #01a29b;
      }

      .cls-3 {
        fill: #89ccc8;
      }
    </style>
  </defs>
  <g id="SCAN_GRAPHICS" data-name="SCAN GRAPHICS">
    <g id="Pill_Bottle_Scan_Graphic" data-name="Pill Bottle Scan Graphic">
      <g>
        <path class="cls-2" d="M124.83,0H13.56C6.08,0,0,5.91,0,13.18v211.14c0,7.27,6.08,13.18,13.56,13.18h111.27c7.48,0,13.56-5.91,13.56-13.18V13.18c0-7.27-6.08-13.18-13.56-13.18ZM98.88,6.59v6.81c0,2.73-2.29,4.95-5.1,4.95h-49.18c-2.81,0-5.1-2.22-5.1-4.95v-6.81h59.38ZM131.61,224.32c0,3.63-3.04,6.59-6.78,6.59H13.56c-3.74,0-6.78-2.96-6.78-6.59V13.18c0-3.63,3.04-6.59,6.78-6.59h19.16v6.81c0,6.37,5.33,11.55,11.88,11.55h49.18c6.55,0,11.88-5.18,11.88-11.55v-6.81h19.16c3.74,0,6.78,2.96,6.78,6.59v211.14Z"/>
        <g>
          <path class="cls-1" d="M101.19,85.92h-61.81c-3.44,0-6.23,3-6.23,6.68v15.27c0,3.68,1.48,6.68,4.37,6.68h.34v79.22c0,6.44,4.35,11.69,13.24,11.69h38.4c8.17,0,13.41-4.74,13.41-11.19v-79.72h.33c3.03,0,4.2-2.99,4.2-6.68v-15.27c0-3.68-2.8-6.68-6.23-6.68ZM91.58,90.6h6.09v19.27h-6.09v-19.27ZM83.8,90.6h5.68v19.27h-5.68v-19.27ZM75.76,90.6h5.41v19.27h-5.41v-19.27ZM67.71,90.6h5.41v19.27h-5.41v-19.27ZM59.67,90.6h5.41v19.27h-5.41v-19.27ZM51.36,90.6h5.68v19.27h-5.68v-19.27ZM43.17,90.6h6.09v19.27h-6.09v-19.27ZM41.35,109.87h-1.98c-1.03,0-1.87-.9-1.87-2v-15.27c0-1.1.84-2,1.87-2h1.98v19.27ZM97.54,144.54h-18.57c-1.32,0-2.4,1.07-2.4,2.4s1.07,2.4,2.4,2.4h18.57v7h-27.43c-1.32,0-2.4,1.07-2.4,2.4s1.07,2.4,2.4,2.4h27.43v3.79h-27.43c-1.32,0-2.4,1.07-2.4,2.4s1.07,2.4,2.4,2.4h27.43v14.48h-32.42c-3.61,0-6.55-3.15-6.55-7.01v-40.1c0-3.87,2.94-7.01,6.55-7.01h32.42v14.48ZM98.58,125.38h-33.45c-6.02,0-10.91,5.24-10.91,11.69v40.1c0,6.44,4.9,11.69,10.91,11.69h33.45v4.91c0,3.87-5.49,7.01-9.1,7.01h-38.4c-3.61,0-8.82-3.15-8.82-7.01v-79.22h56.32v10.83ZM103.06,107.87c0,1.1-.84,2-1.87,2h-1.7v-19.27h1.7c1.03,0,1.87.9,1.87,2v15.27Z"/>
          <g>
            <path class="cls-3" d="M104.77,193.04h-9.61c-1.42,0-2.58,1.15-2.58,2.58h0c0,1.42,1.15,2.58,2.58,2.58h14.77c1.42,0,2.58-1.15,2.58-2.58v-14.77c0-1.42-1.15-2.58-2.58-2.58h0c-1.42,0-2.58,1.15-2.58,2.58v9.61c0,1.42-1.15,2.58-2.58,2.58Z"/>
            <path class="cls-3" d="M30.64,177.06h0c-1.42,0-2.58,1.15-2.58,2.58v15.98c0,1.42,1.15,2.58,2.58,2.58h14.77c1.42,0,2.58-1.15,2.58-2.58h0c0-1.42-1.15-2.58-2.58-2.58h-9.61c-1.42,0-2.58-1.15-2.58-2.58v-10.83c0-1.42-1.15-2.58-2.58-2.58Z"/>
            <path class="cls-3" d="M45.41,113.75h-14.77c-1.42,0-2.58,1.15-2.58,2.58v13.56c0,1.42,1.15,2.58,2.58,2.58h0c1.42,0,2.58-1.15,2.58-2.58v-8.4c0-1.42,1.15-2.58,2.58-2.58h9.61c1.42,0,2.58-1.15,2.58-2.58h0c0-1.42-1.15-2.58-2.58-2.58Z"/>
            <path class="cls-3" d="M92.58,116.33h0c0,1.42,1.15,2.58,2.58,2.58h9.61c1.42,0,2.58,1.15,2.58,2.58v9.61c0,1.42,1.15,2.58,2.58,2.58h0c1.42,0,2.58-1.15,2.58-2.58v-14.77c0-1.42-1.15-2.58-2.58-2.58h-14.77c-1.42,0-2.58,1.15-2.58,2.58Z"/>
          </g>
        </g>
      </g>
      <g>
        <circle class="cls-3" cx="78.78" cy="46.54" r="1.6"/>
        <path class="cls-3" d="M80.79,40.44h-2.92c-.92,0-1.66-.74-1.66-1.66v-1.02c0-.86-.7-1.55-1.55-1.55h-10.73c-.86,0-1.55.7-1.55,1.55v1.02c0,.92-.74,1.66-1.66,1.66h-2.92c-2.38,0-4.31,1.93-4.31,4.31v14.73c0,2.38,1.93,4.31,4.31,4.31h23c2.38,0,4.31-1.93,4.31-4.31v-14.73c0-2.38-1.93-4.31-4.31-4.31ZM64.4,37.98h9.78c.14,0,.26.12.26.26v1.94c0,.14-.12.26-.26.26h-9.78c-.14,0-.26-.12-.26-.26v-1.94c0-.14.12-.26.26-.26ZM83.33,59.48c0,1.4-1.14,2.54-2.54,2.54h-23c-1.4,0-2.54-1.14-2.54-2.54v-14.73c0-1.4,1.14-2.54,2.54-2.54h23c1.4,0,2.54,1.14,2.54,2.54v14.73Z"/>
        <path class="cls-3" d="M69.33,45.66c-3.64,0-6.59,2.96-6.59,6.59s2.96,6.59,6.59,6.59,6.59-2.96,6.59-6.59-2.96-6.59-6.59-6.59ZM69.33,57.07c-2.66,0-4.82-2.16-4.82-4.82s2.16-4.82,4.82-4.82,4.82,2.16,4.82,4.82-2.16,4.82-4.82,4.82Z"/>
      </g>
    </g>
  </g>
</svg>