<?xml version="1.0" encoding="UTF-8"?>
<svg id="Layer_2" data-name="Layer 2" xmlns="http://www.w3.org/2000/svg" viewBox="0 0 40.19 76.96">
  <defs>
    <style>
      .cls-1 {
        fill: #fdc26a;
      }

      .cls-2 {
        fill: #00a39b;
      }

      .cls-3 {
        fill: #3f3318;
        opacity: .11;
      }

      .cls-4 {
        fill: #89ccc8;
      }

      .cls-5 {
        fill: #ffb057;
      }
    </style>
  </defs>
  <g id="MED_ICONS" data-name="MED ICONS">
    <g id="Spray">
      <path class="cls-4" d="M13.82,10.26V3.24h-3.1c-.82,0-1.5.67-1.5,1.5v5.59c.12-.03.24-.08.37-.08h4.22Z"/>
      <path class="cls-4" d="M14.94,10.26h2.19c.13,0,.25.04.37.08v-5.59c0-.82-.67-1.5-1.5-1.5h-2.18v7.02h1.12Z"/>
      <path class="cls-3" d="M14.94,10.26h2.19c.13,0,.25.04.37.08v-5.59c0-.82-.67-1.5-1.5-1.5h-2.18v7.02h1.12Z"/>
      <path class="cls-2" d="M8.65,14.7h6.29v-4.44h-5.34c-.13,0-.25.04-.37.08-.62.17-1.08.71-1.08,1.38v2.48c0,.28.23.51.51.51Z"/>
      <path class="cls-2" d="M14.94,10.26v4.44h3.14c.28,0,.51-.23.51-.51v-2.48c0-.67-.47-1.21-1.08-1.38-.12-.03-.24-.08-.37-.08h-2.19Z"/>
      <path class="cls-3" d="M14.94,10.26v4.44h3.14c.28,0,.51-.23.51-.51v-2.48c0-.67-.47-1.21-1.08-1.38-.12-.03-.24-.08-.37-.08h-2.19Z"/>
      <path class="cls-2" d="M30.01,6.37h-7.58c-.71,0-1.3.58-1.3,1.3s.58,1.3,1.3,1.3h7.58c.71,0,1.3-.58,1.3-1.3s-.58-1.3-1.3-1.3Z"/>
      <path class="cls-2" d="M22.16,5.42l5.05-1.14c.81-.18,1.3-.9,1.08-1.59-.21-.69-1.05-1.11-1.86-.93l-5.05,1.14c-.81.18-1.3.9-1.08,1.59.21.69,1.05,1.11,1.86.93Z"/>
      <path class="cls-4" d="M31,3.3l3.3-.74c.81-.18,1.3-.9,1.08-1.59-.21-.69-1.05-1.11-1.86-.93l-3.3.74c-.81.18-1.3.9-1.08,1.59.21.69,1.05,1.11,1.86.93Z"/>
      <path class="cls-2" d="M27.22,11.06l-5.05-1.14c-.81-.18-1.65.23-1.86.93s.27,1.4,1.08,1.59l5.05,1.14c.81.18,1.65-.23,1.86-.93.21-.69-.27-1.4-1.08-1.59Z"/>
      <path class="cls-4" d="M34.3,12.78l-3.3-.74c-.81-.18-1.64.23-1.86.93-.21.69.27,1.4,1.08,1.59l3.3.74c.81.18,1.64-.23,1.86-.93.21-.69-.27-1.4-1.08-1.59Z"/>
      <path class="cls-4" d="M38.9,6.37h-5.33c-.71,0-1.3.58-1.3,1.3s.58,1.3,1.3,1.3h5.33c.71,0,1.3-.58,1.3-1.3s-.58-1.3-1.3-1.3Z"/>
      <path class="cls-5" d="M14.59,23.04h-.08c-1,0-1.81-1.16-1.81-2.59v-1.42c0-1.01-.58-1.84-1.29-1.84h-3.78c-.94,0-1.71.78-1.71,1.73v1.42c0,1.5-1.2,2.71-2.69,2.71-3.23,0-3.23,2.61-3.23,7.41v4.48h16.87v-5.98c0-1.8.32-4.83-2.28-5.91Z"/>
      <rect class="cls-1" y="38.32" width="16.87" height="18.44"/>
      <path class="cls-5" d="M16.87,73.69v-13.52H0v13.52c0,1.8,1.46,3.27,3.23,3.27h11.35c1.25,0,2.28-1.47,2.28-3.27Z"/>
      <path class="cls-5" d="M26.17,24.48c-.23-.35-.53-.65-.88-.88-.26-.18-.54-.32-.85-.41-.3-.1-.63-.15-.96-.15h-.12c-.18,0-.35-.02-.52-.05-1.17-.24-2.05-1.29-2.05-2.54v-1.42c0-.38-.12-.73-.31-1.03-.33-.49-.89-.81-1.51-.81h-7.57c.71,0,1.29.83,1.29,1.84v1.42c0,1.43.81,2.59,1.81,2.59h.08c2.6,1.08,2.28,4.11,2.28,5.91v5.98h9.86v-8.62c0-.22-.02-.44-.07-.66-.09-.42-.26-.82-.49-1.17Z"/>
      <path class="cls-3" d="M26.17,24.48c-.23-.35-.53-.65-.88-.88-.26-.18-.54-.32-.85-.41-.3-.1-.63-.15-.96-.15h-.12c-.18,0-.35-.02-.52-.05-1.17-.24-2.05-1.29-2.05-2.54v-1.42c0-.38-.12-.73-.31-1.03-.33-.49-.89-.81-1.51-.81h-7.57c.71,0,1.29.83,1.29,1.84v1.42c0,1.43.81,2.59,1.81,2.59h.08c2.6,1.08,2.28,4.11,2.28,5.91v5.98h9.86v-8.62c0-.22-.02-.44-.07-.66-.09-.42-.26-.82-.49-1.17Z"/>
      <rect class="cls-1" x="16.87" y="38.32" width="9.86" height="18.44"/>
      <rect class="cls-3" x="16.87" y="38.32" width="9.86" height="18.44"/>
      <path class="cls-5" d="M16.87,73.69c0,1.8-1.03,3.27-2.28,3.27h8.91c.33,0,.66-.05.96-.15s.59-.24.85-.41c.34-.24.64-.54.88-.88.35-.52.55-1.15.55-1.82v-13.52h-9.86v13.52Z"/>
      <path class="cls-3" d="M16.87,73.69c0,1.8-1.03,3.27-2.28,3.27h8.91c.33,0,.66-.05.96-.15s.59-.24.85-.41c.34-.24.64-.54.88-.88.35-.52.55-1.15.55-1.82v-13.52h-9.86v13.52Z"/>
    </g>
  </g>
</svg>