<?xml version="1.0" encoding="UTF-8"?>
<svg id="Layer_2" data-name="Layer 2" xmlns="http://www.w3.org/2000/svg" viewBox="0 0 138.39 237.51">
  <defs>
    <style>
      .cls-1 {
        fill: #b7dcfe;
      }

      .cls-2 {
        fill: #01a29b;
      }

      .cls-3 {
        fill: #89ccc8;
      }
    </style>
  </defs>
  <g id="SCAN_GRAPHICS" data-name="SCAN GRAPHICS">
    <g id="Spray_Bottle_Scan_Graphic" data-name="Spray Bottle Scan Graphic">
      <g>
        <path class="cls-2" d="M124.83,0H13.56C6.08,0,0,5.91,0,13.18v211.14c0,7.27,6.08,13.18,13.56,13.18h111.27c7.48,0,13.56-5.91,13.56-13.18V13.18c0-7.27-6.08-13.18-13.56-13.18ZM98.88,6.59v6.81c0,2.73-2.29,4.95-5.1,4.95h-49.18c-2.81,0-5.1-2.22-5.1-4.95v-6.81h59.38ZM131.61,224.32c0,3.63-3.04,6.59-6.78,6.59H13.56c-3.74,0-6.78-2.96-6.78-6.59V13.18c0-3.63,3.04-6.59,6.78-6.59h19.16v6.81c0,6.37,5.33,11.55,11.88,11.55h49.18c6.55,0,11.88-5.18,11.88-11.55v-6.81h19.16c3.74,0,6.78,2.96,6.78,6.59v211.14Z"/>
        <path class="cls-1" d="M98.52,128.06v-4.54c0-5.77-5.01-10.46-11.16-10.46-.21,0-.33-.11-.34-.13v-3.71c0-3.62-2.81-6.62-6.47-7.18.05-.29.09-.59.09-.9v-12.35c0-2.84-2.31-5.15-5.15-5.15h-10.33c-2.84,0-5.15,2.31-5.15,5.15v12.35c0,.31.04.61.09.9-3.66.56-6.48,3.56-6.48,7.18v3.7s-.13.15-.34.15c-6.16,0-11.17,4.69-11.17,10.46v72.87c0,5.77,5.01,10.46,11.17,10.46h34.08c6.16,0,11.16-4.69,11.16-10.46v-3.07h.08v-65.26h-.08ZM65.24,88.79h10.16v1.88c-.3-.15-.63-.25-.99-.25-1.2,0-2.17.97-2.17,2.17s.97,2.17,2.17,2.17c.36,0,.69-.1.99-.25v1.88h-10.16v-7.6ZM93.92,146.99h-15.3c-1.35,0-2.46,1.11-2.46,2.46s1.11,2.46,2.46,2.46h15.3v7.24h-23.77c-1.35,0-2.46,1.11-2.46,2.46s1.11,2.46,2.46,2.46h23.77v3.95h-23.77c-1.35,0-2.46,1.11-2.46,2.46s1.11,2.46,2.46,2.46h23.77v15.74h-25.58c-2.98,0-5.41-2.42-5.41-5.41v-45.2c0-2.98,2.42-5.4,5.41-5.4h25.58v14.31ZM93.92,128.06h-25.58c-5.53,0-10.03,4.5-10.03,10.03v45.2c0,5.53,4.5,10.03,10.03,10.03h25.58v3.07c0,3.23-2.95,5.86-6.57,5.86h-34.08c-3.62,0-6.57-2.63-6.57-5.86v-72.87c0-3.23,2.95-5.86,6.57-5.86,2.72,0,4.94-2.12,4.94-4.73v-3.71c0-1.48,1.39-2.68,3.11-2.68h17.98c1.71,0,3.11,1.2,3.11,2.68v3.71c0,2.61,2.22,4.73,4.94,4.73,3.62,0,6.57,2.63,6.57,5.86v4.54Z"/>
        <g>
          <path class="cls-3" d="M104.77,193.04h-9.61c-1.42,0-2.58,1.15-2.58,2.58h0c0,1.42,1.15,2.58,2.58,2.58h14.77c1.42,0,2.58-1.15,2.58-2.58v-14.77c0-1.42-1.15-2.58-2.58-2.58h0c-1.42,0-2.58,1.15-2.58,2.58v9.61c0,1.42-1.15,2.58-2.58,2.58Z"/>
          <path class="cls-3" d="M30.64,177.06h0c-1.42,0-2.58,1.15-2.58,2.58v15.98c0,1.42,1.15,2.58,2.58,2.58h14.77c1.42,0,2.58-1.15,2.58-2.58h0c0-1.42-1.15-2.58-2.58-2.58h-9.61c-1.42,0-2.58-1.15-2.58-2.58v-10.83c0-1.42-1.15-2.58-2.58-2.58Z"/>
          <path class="cls-3" d="M45.41,113.75h-14.77c-1.42,0-2.58,1.15-2.58,2.58v13.56c0,1.42,1.15,2.58,2.58,2.58h0c1.42,0,2.58-1.15,2.58-2.58v-8.4c0-1.42,1.15-2.58,2.58-2.58h9.61c1.42,0,2.58-1.15,2.58-2.58h0c0-1.42-1.15-2.58-2.58-2.58Z"/>
          <path class="cls-3" d="M92.58,116.33h0c0,1.42,1.15,2.58,2.58,2.58h9.61c1.42,0,2.58,1.15,2.58,2.58v9.61c0,1.42,1.15,2.58,2.58,2.58h0c1.42,0,2.58-1.15,2.58-2.58v-14.77c0-1.42-1.15-2.58-2.58-2.58h-14.77c-1.42,0-2.58,1.15-2.58,2.58Z"/>
        </g>
        <g>
          <circle class="cls-3" cx="78.78" cy="46.54" r="1.6"/>
          <path class="cls-3" d="M80.79,40.44h-2.92c-.92,0-1.66-.74-1.66-1.66v-1.02c0-.86-.7-1.55-1.55-1.55h-10.73c-.86,0-1.55.7-1.55,1.55v1.02c0,.92-.74,1.66-1.66,1.66h-2.92c-2.38,0-4.31,1.93-4.31,4.31v14.73c0,2.38,1.93,4.31,4.31,4.31h23c2.38,0,4.31-1.93,4.31-4.31v-14.73c0-2.38-1.93-4.31-4.31-4.31ZM64.4,37.98h9.78c.14,0,.26.12.26.26v1.94c0,.14-.12.26-.26.26h-9.78c-.14,0-.26-.12-.26-.26v-1.94c0-.14.12-.26.26-.26ZM83.33,59.48c0,1.4-1.14,2.54-2.54,2.54h-23c-1.4,0-2.54-1.14-2.54-2.54v-14.73c0-1.4,1.14-2.54,2.54-2.54h23c1.4,0,2.54,1.14,2.54,2.54v14.73Z"/>
          <path class="cls-3" d="M69.33,45.66c-3.64,0-6.59,2.96-6.59,6.59s2.96,6.59,6.59,6.59,6.59-2.96,6.59-6.59-2.96-6.59-6.59-6.59ZM69.33,57.07c-2.66,0-4.82-2.16-4.82-4.82s2.16-4.82,4.82-4.82,4.82,2.16,4.82,4.82-2.16,4.82-4.82,4.82Z"/>
        </g>
      </g>
    </g>
  </g>
</svg>