<?xml version="1.0" encoding="UTF-8"?>
<svg id="Layer_2" data-name="Layer 2" xmlns="http://www.w3.org/2000/svg" viewBox="0 0 83.26 47.6">
  <defs>
    <style>
      .cls-1 {
        fill: #fdc26a;
      }

      .cls-2 {
        fill: #00a39b;
      }

      .cls-3 {
        opacity: .08;
      }

      .cls-3, .cls-4 {
        fill: #3f3318;
      }

      .cls-4 {
        opacity: .11;
      }

      .cls-5 {
        fill: #89ccc8;
      }

      .cls-6 {
        fill: #ffb057;
      }
    </style>
  </defs>
  <g id="MED_ICONS" data-name="MED ICONS">
    <g id="Tablets">
      <g>
        <path class="cls-2" d="M82.65,23.33c-.29.39-.6.78-.93,1.15-.15.17-.31.32-.46.48-.19.2-.38.41-.58.61-.22.21-.46.42-.7.63-.16.14-.3.28-.46.41-.28.23-.58.46-.88.68-.13.1-.25.2-.39.3-.34.25-.7.48-1.06.71-.1.07-.2.14-.31.21-.42.26-.85.51-1.29.75-.06.03-.11.07-.17.1-.48.26-.98.51-1.49.75-.02.01-.05.02-.07.04-4.82,2.26-10.87,3.58-17.58,3.6h0c-2.38,1.51-5.15,3.05-8.4,4.6-2.68,1.28-5.2,2.33-7.58,3.2.04-.02.07-.05.11-.07-.39.25-.77.5-1.18.74-.85.52-1.7,1-2.54,1.47,4.08,2.15,10.21,3.9,19.39,3.9,20.11,0,25.65-8.42,26.87-10.97.2-.42.3-.89.3-1.36v-11.61s-.02-.06-.02-.1c-.06-.35-.38-.52-.59-.24Z"/>
        <path class="cls-5" d="M56.29,33.76h0c6.71-.03,12.75-1.34,17.58-3.6.02-.01.05-.02.07-.04.51-.24,1.01-.49,1.49-.75.06-.03.11-.07.17-.1.44-.24.88-.49,1.29-.75.11-.07.2-.14.31-.21.36-.23.72-.47,1.06-.71.13-.1.26-.2.39-.3.3-.22.6-.45.88-.68.16-.13.31-.28.46-.41.23-.21.48-.41.7-.63.21-.2.39-.41.58-.61.15-.16.32-.32.46-.48.33-.37.64-.76.93-1.15.2-.28.53-.11.59.24,0-.13.02-.25.02-.38,0-4.52-5.84-8.44-14.42-10.43l.18.23c.67.85,1.03,1.83,1.04,2.83.01,1.2-.2,2.95-1.14,5.08h4.14c.63,0,1.15.52,1.15,1.15s-.52,1.15-1.15,1.15h-5.37c-1.93,3.09-5.37,6.73-11.41,10.57Z"/>
        <path class="cls-2" d="M47.89,38.35c3.25-1.55,6.02-3.09,8.4-4.6-.06,0-.13,0-.19,0-1.93,0-3.8-.12-5.61-.33-.9.93-1.9,1.88-3,2.83-.02.02-.04.03-.05.05-.37.32-.76.65-1.16.97-.04.03-.08.06-.12.1-.39.31-.79.63-1.2.94-.06.04-.12.09-.17.13-.4.3-.81.61-1.24.92-.07.05-.15.11-.22.16-.42.3-.85.6-1.29.9-.09.06-.17.12-.26.18-.44.3-.89.59-1.36.89-.04.02-.07.05-.11.07,2.38-.87,4.9-1.92,7.58-3.2Z"/>
        <path class="cls-4" d="M47.89,38.35c3.25-1.55,6.02-3.09,8.4-4.6-.06,0-.13,0-.19,0-1.93,0-3.8-.12-5.61-.33-.9.93-1.9,1.88-3,2.83-.02.02-.04.03-.05.05-.37.32-.76.65-1.16.97-.04.03-.08.06-.12.1-.39.31-.79.63-1.2.94-.06.04-.12.09-.17.13-.4.3-.81.61-1.24.92-.07.05-.15.11-.22.16-.42.3-.85.6-1.29.9-.09.06-.17.12-.26.18-.44.3-.89.59-1.36.89-.04.02-.07.05-.11.07,2.38-.87,4.9-1.92,7.58-3.2Z"/>
        <path class="cls-5" d="M56.09,33.76c.06,0,.13,0,.19,0,6.04-3.84,9.48-7.48,11.41-10.57h-10.44s-.02.04-.02.05c-.27.71-.6,1.45-.98,2.2-.04.08-.08.16-.12.24-.18.35-.36.7-.57,1.05-.02.03-.03.06-.05.09-.2.35-.42.71-.65,1.08-.08.13-.16.25-.25.38-.19.28-.38.57-.58.85-.1.14-.2.29-.31.43-.22.3-.45.61-.69.92-.13.16-.26.33-.39.49-.2.24-.4.49-.62.74-.18.21-.36.41-.54.62-.25.28-.51.57-.78.85-.08.08-.15.16-.23.25,1.81.21,3.67.33,5.61.33Z"/>
        <path class="cls-4" d="M56.09,33.76c.06,0,.13,0,.19,0,6.04-3.84,9.48-7.48,11.41-10.57h-10.44s-.02.04-.02.05c-.27.71-.6,1.45-.98,2.2-.04.08-.08.16-.12.24-.18.35-.36.7-.57,1.05-.02.03-.03.06-.05.09-.2.35-.42.71-.65,1.08-.08.13-.16.25-.25.38-.19.28-.38.57-.58.85-.1.14-.2.29-.31.43-.22.3-.45.61-.69.92-.13.16-.26.33-.39.49-.2.24-.4.49-.62.74-.18.21-.36.41-.54.62-.25.28-.51.57-.78.85-.08.08-.15.16-.23.25,1.81.21,3.67.33,5.61.33Z"/>
        <path class="cls-5" d="M69.02,12.98l-.18-.23c-3.39-.78-7.2-1.27-11.24-1.36.16.32.29.64.42.97.02.06.04.12.06.18.1.29.19.58.27.88.04.15.07.31.1.47.05.22.1.44.13.67.06.4.09.81.09,1.22.01,1.39-.15,3.13-.67,5.12h10.92c.94-2.13,1.15-3.88,1.14-5.08-.01-1-.37-1.97-1.04-2.83Z"/>
        <path class="cls-4" d="M69.02,12.98l-.18-.23c-3.39-.78-7.2-1.27-11.24-1.36.16.32.29.64.42.97.02.06.04.12.06.18.1.29.19.58.27.88.04.15.07.31.1.47.05.22.1.44.13.67.06.4.09.81.09,1.22.01,1.39-.15,3.13-.67,5.12h10.92c.94-2.13,1.15-3.88,1.14-5.08-.01-1-.37-1.97-1.04-2.83Z"/>
      </g>
      <g>
        <path class="cls-6" d="M18.63,44.88c3.06-1.02,6.6-2.76,10.65-5.58,13.64-9.5,15.17-18.71,15.14-22.49,0-.61-.09-1.05-.27-1.62.02-.03.04-.06.06-.1-3.13,4.18-8.01,8.56-14.07,12.26-12.59,7.7-25.49,9.61-29.21,4.43,0,.03.03.06.03.09.02.05.03.11.06.16l5.64,9.21c.52.85,1.26,1.55,2.15,2.01,1.83.96,5.35,2.18,10.68,1.55-.29.03-.58.06-.86.09Z"/>
        <path class="cls-1" d="M30.13,27.35c6.05-3.7,10.94-8.08,14.07-12.26,2.08-3.28,2.76-6.46,1.63-8.68-.07-.14-.46-1.36-1.19-2.11-1.57-1.61-6.96-3.2-13.15-3.05-4.26,1.2-8.94,3.25-13.59,6.09C5.04,15.2-2.6,26.1.81,31.68c.04.07.09.12.14.18,0-.03-.03-.06-.03-.09,3.73,5.18,16.62,3.28,29.21-4.43ZM11.29,26.04L35.45,7.04c.5-.39,1.22-.3,1.61.19.39.5.3,1.22-.19,1.61L12.71,27.84c-.5.39-1.22.3-1.61-.19-.39-.5-.3-1.22.19-1.61Z"/>
        <path class="cls-1" d="M44.63,4.3c.73.75,1.12,1.97,1.19,2.11,1.13,2.22.46,5.4-1.63,8.68,3.34-4.45,4.68-8.68,3.26-11.63.01.02.03.03.04.05-.05-.1-.1-.2-.16-.29-.19-.31-.42-.59-.67-.85-.06-.06-.12-.12-.18-.18-.25-.25-.53-.48-.84-.68-.05-.04-.12-.07-.17-.1-.27-.17-.56-.32-.86-.46-.1-.04-.19-.09-.29-.13-.35-.14-.71-.26-1.1-.37-.13-.04-.27-.06-.41-.1-.29-.07-.6-.12-.91-.17-.16-.02-.31-.05-.48-.07-.4-.05-.81-.07-1.24-.09C39.97,0,39.73,0,39.5,0c-.27,0-.54,0-.81.02-.43.02-.86.05-1.31.09-.24.02-.48.04-.72.07-.33.04-.66.08-.99.14-.19.03-.39.07-.58.1-.61.11-1.23.23-1.86.38-.18.04-.37.09-.56.13-.39.1-.78.2-1.18.31,0,0,0,0,0,0,6.18-.15,11.58,1.44,13.15,3.05Z"/>
        <path class="cls-3" d="M44.63,4.3c.73.75,1.12,1.97,1.19,2.11,1.13,2.22.46,5.4-1.63,8.68,3.34-4.45,4.68-8.68,3.26-11.63.01.02.03.03.04.05-.05-.1-.1-.2-.16-.29-.19-.31-.42-.59-.67-.85-.06-.06-.12-.12-.18-.18-.25-.25-.53-.48-.84-.68-.05-.04-.12-.07-.17-.1-.27-.17-.56-.32-.86-.46-.1-.04-.19-.09-.29-.13-.35-.14-.71-.26-1.1-.37-.13-.04-.27-.06-.41-.1-.29-.07-.6-.12-.91-.17-.16-.02-.31-.05-.48-.07-.4-.05-.81-.07-1.24-.09C39.97,0,39.73,0,39.5,0c-.27,0-.54,0-.81.02-.43.02-.86.05-1.31.09-.24.02-.48.04-.72.07-.33.04-.66.08-.99.14-.19.03-.39.07-.58.1-.61.11-1.23.23-1.86.38-.18.04-.37.09-.56.13-.39.1-.78.2-1.18.31,0,0,0,0,0,0,6.18-.15,11.58,1.44,13.15,3.05Z"/>
        <path class="cls-6" d="M47.46,3.46c1.42,2.94.08,7.17-3.26,11.63-.02.03-.04.06-.06.1.18.57.26,1.01.27,1.62.03,3.78-1.5,13-15.14,22.49-4.05,2.82-7.59,4.56-10.65,5.58.28-.02.57-.05.86-.09.01,0,.02,0,.04,0,.28-.03.56-.07.85-.11.03,0,.06,0,.08-.01.28-.04.56-.09.84-.14.04,0,.09-.02.13-.02.27-.05.55-.11.83-.17.06-.01.12-.03.18-.04.27-.06.54-.12.82-.19.08-.02.16-.04.23-.06.26-.07.53-.14.8-.22.09-.03.19-.06.29-.08.26-.08.52-.15.79-.24.11-.04.23-.07.34-.11.25-.08.51-.17.77-.26.13-.05.27-.1.4-.15.25-.09.49-.18.75-.28.15-.06.31-.12.46-.18.24-.1.48-.19.73-.29.17-.07.35-.15.53-.23.23-.1.46-.2.7-.3.2-.09.4-.18.6-.28.22-.1.44-.2.67-.31.22-.11.45-.22.67-.33.21-.1.42-.2.63-.31.25-.13.51-.27.77-.41.19-.1.38-.2.57-.3.29-.16.59-.33.89-.5.16-.09.33-.18.49-.28.47-.27.94-.55,1.42-.84,15.56-9.52,17.3-18.75,17.27-22.54,0-1-.29-1.97-.81-2.83l-5.64-9.21s-.03-.04-.05-.05c-.02-.01-.03-.03-.04-.05Z"/>
        <path class="cls-3" d="M47.46,3.46c1.42,2.94.08,7.17-3.26,11.63-.02.03-.04.06-.06.1.18.57.26,1.01.27,1.62.03,3.78-1.5,13-15.14,22.49-4.05,2.82-7.59,4.56-10.65,5.58.28-.02.57-.05.86-.09.01,0,.02,0,.04,0,.28-.03.56-.07.85-.11.03,0,.06,0,.08-.01.28-.04.56-.09.84-.14.04,0,.09-.02.13-.02.27-.05.55-.11.83-.17.06-.01.12-.03.18-.04.27-.06.54-.12.82-.19.08-.02.16-.04.23-.06.26-.07.53-.14.8-.22.09-.03.19-.06.29-.08.26-.08.52-.15.79-.24.11-.04.23-.07.34-.11.25-.08.51-.17.77-.26.13-.05.27-.1.4-.15.25-.09.49-.18.75-.28.15-.06.31-.12.46-.18.24-.1.48-.19.73-.29.17-.07.35-.15.53-.23.23-.1.46-.2.7-.3.2-.09.4-.18.6-.28.22-.1.44-.2.67-.31.22-.11.45-.22.67-.33.21-.1.42-.2.63-.31.25-.13.51-.27.77-.41.19-.1.38-.2.57-.3.29-.16.59-.33.89-.5.16-.09.33-.18.49-.28.47-.27.94-.55,1.42-.84,15.56-9.52,17.3-18.75,17.27-22.54,0-1-.29-1.97-.81-2.83l-5.64-9.21s-.03-.04-.05-.05c-.02-.01-.03-.03-.04-.05Z"/>
      </g>
    </g>
  </g>
</svg>