<?xml version="1.0" encoding="UTF-8"?>
<svg id="Layer_2" data-name="Layer 2" xmlns="http://www.w3.org/2000/svg" viewBox="0 0 83.26 47.61">
  <defs>
    <style>
      .cls-1 {
        fill: none;
      }

      .cls-2 {
        fill: #fdc26a;
      }

      .cls-3 {
        fill: #00a39b;
      }

      .cls-4 {
        fill: #89ccc8;
      }

      .cls-5 {
        fill: #ffb057;
      }
    </style>
  </defs>
  <g id="MED_ICONS" data-name="MED ICONS">
    <g id="Tablets_NO_SHADOWS" data-name="Tablets NO SHADOWS">
      <path class="cls-1" d="M12.71,27.86l24.15-19c.5-.39.58-1.12.19-1.61-.39-.5-1.12-.58-1.61-.19L11.29,26.05c-.5.39-.58,1.12-.19,1.61.39.5,1.12.58,1.61.19Z"/>
      <path class="cls-5" d="M54.14,15.83c0-1-.29-1.97-.81-2.83l-5.64-9.21s-.06-.06-.09-.1c2.76,5.71-4.82,16.24-17.33,23.89-12.59,7.7-25.49,9.61-29.21,4.43.02.08.05.17.1.25l5.64,9.21c.52.85,1.26,1.55,2.15,2.01,3.36,1.76,12.37,4.41,27.93-5.11,15.56-9.52,17.3-18.75,17.27-22.54Z"/>
      <path class="cls-3" d="M82.65,23.34c-4.64,6.29-14.54,10.43-26.56,10.43-1.93,0-3.8-.12-5.61-.33-2.76,2.87-6.42,5.84-11.25,8.79-.85.52-1.7,1-2.54,1.47,4.08,2.15,10.21,3.9,19.39,3.9,20.11,0,25.65-8.42,26.87-10.97.2-.42.3-.89.3-1.36v-11.61s-.02-.06-.02-.1c-.06-.35-.38-.52-.59-.24Z"/>
      <path class="cls-2" d="M30.27,27.58c12.51-7.65,20.08-18.18,17.33-23.89-.08-.16-.15-.31-.25-.46-3.42-5.59-16.6-3.74-29.45,4.12C5.04,15.21-2.6,26.11.81,31.7c.07.11.16.2.24.31,3.73,5.18,16.62,3.28,29.21-4.43ZM11.29,26.05L35.45,7.05c.5-.39,1.22-.3,1.61.19.39.5.3,1.22-.19,1.61L12.71,27.86c-.5.39-1.22.3-1.61-.19-.39-.5-.3-1.22.19-1.61Z"/>
      <path class="cls-4" d="M82.65,23.34c.2-.28.53-.11.59.24,0-.13.02-.25.02-.38,0-6.3-11.36-11.45-25.66-11.79.68,1.36,1.06,2.85,1.07,4.38.01,1.39-.15,3.13-.67,5.12h15.07c.63,0,1.15.52,1.15,1.15s-.52,1.15-1.15,1.15h-15.81c-1.17,3.06-3.23,6.56-6.77,10.24,1.81.21,3.67.33,5.61.33,12.02,0,21.92-4.14,26.56-10.43Z"/>
    </g>
  </g>
</svg>