<?xml version="1.0" encoding="UTF-8"?>
<svg id="Layer_2" data-name="Layer 2" xmlns="http://www.w3.org/2000/svg" viewBox="0 0 31.19 23.81">
  <defs>
    <style>
      .cls-1 {
        fill: #ededed;
      }
    </style>
  </defs>
  <g id="export">
    <path class="cls-1" d="M28.97,19.6s0,.07,0,.09l-8.54-7.24,8.55-7.26v14.4ZM26.86,21.66H4.33c-.38,0-.74-.1-1.05-.27l9.01-7.64.84.71c.7.59,1.59.9,2.46.9s1.76-.3,2.46-.9l.84-.71,9.01,7.64c-.3.17-.66.27-1.05.27M2.21,19.6V5.19l8.55,7.26-8.55,7.25v-.09M2.83,2.75c.39-.38.91-.6,1.5-.6h22.53c.59,0,1.11.22,1.49.6.07.07.14.14.19.22l-11.81,10.02c-.33.28-.73.41-1.14.41s-.81-.14-1.14-.41L2.65,2.96c.05-.07.11-.14.18-.21M31.1,3.39c-.14-.69-.45-1.32-.89-1.84-.09-.11-.19-.21-.3-.31-.78-.76-1.86-1.24-3.06-1.24H4.33c-1.19,0-2.28.47-3.06,1.24-.11.1-.2.2-.3.31-.44.53-.76,1.15-.89,1.84-.05.26-.08.54-.08.82v15.4c0,.59.13,1.16.36,1.67.21.49.53.93.91,1.3.09.09.19.18.3.27.75.6,1.71.97,2.76.97h22.53c1.05,0,2.02-.36,2.76-.97.11-.08.2-.17.3-.26.38-.37.7-.82.92-1.3h0c.23-.52.35-1.08.35-1.67V4.21c0-.28-.03-.55-.08-.82"/>
  </g>
</svg>