<?xml version="1.0" encoding="UTF-8"?>
<svg id="Layer_2" data-name="Layer 2" xmlns="http://www.w3.org/2000/svg" viewBox="0 0 31.9 31.26">
  <defs>
    <style>
      .cls-1 {
        fill: #ededed;
      }
    </style>
  </defs>
  <g id="export">
    <path class="cls-1" d="M6.97,3.91c-1.65,0-2.99,1.31-2.99,2.93s1.34,2.93,2.99,2.93,3-1.31,3-2.93-1.34-2.93-3-2.93M9.3,11.72h-4.65v14.98h4.65v-14.98ZM21.56,11.72c-2.26,0-3.82.98-4.5,2.12l-.12.2v-2.13h-4.32v14.98h4.65v-7.26c0-2.44.92-3.98,3.11-3.98,1.51,0,2.15,1.31,2.2,3.65v7.58h4.65v-8.28c0-4.47-1.09-6.9-5.68-6.9M29.23,0c1.47,0,2.67,1.17,2.67,2.61v26.04c0,1.44-1.19,2.61-2.67,2.61H2.67c-1.47,0-2.67-1.17-2.67-2.61V2.61C0,1.17,1.19,0,2.67,0h26.57Z"/>
  </g>
</svg>