<?xml version="1.0" encoding="UTF-8"?>
<svg id="Layer_2" data-name="Layer 2" xmlns="http://www.w3.org/2000/svg" viewBox="0 0 31.91 31.9">
  <defs>
    <style>
      .cls-1 {
        fill: #ededed;
      }
    </style>
  </defs>
  <g id="export">
    <path class="cls-1" d="M26.6,31.9C11.93,31.9,0,19.97,0,5.3c0-.7.02-1.34.07-1.97.05-.77.09-1.33.42-1.9.28-.48.73-.9,1.22-1.14.61-.29,1.16-.29,2.06-.29h4.61c.76,0,1.22,0,1.72.19.4.14.79.41,1.11.77.35.41.51.84.75,1.49l1.93,5.32c.28.75.49,1.31.44,1.93-.02.49-.2,1.01-.52,1.45-.34.48-.78.74-1.51,1.19l-1.32.79c1.75,3.33,4.47,6.04,7.79,7.79l.78-1.29c.43-.72.71-1.2,1.2-1.55.45-.31.95-.49,1.47-.52.59-.04,1.08.14,1.88.43l5.29,1.93c.65.23,1.13.4,1.54.77.35.3.62.69.79,1.13.19.48.19.94.19,1.7v4.62c0,.88,0,1.46-.29,2.05-.23.49-.66.95-1.15,1.22-.55.32-1.09.36-1.89.42-.66.04-1.32.07-1.97.07ZM3.77,2.42c-.45,0-.91,0-1.01.04-.04.02-.14.12-.18.18-.04.08-.07.48-.1.86-.04.58-.07,1.16-.07,1.8,0,13.33,10.85,24.18,24.19,24.18.6,0,1.2-.02,1.8-.06.4-.03.78-.06.87-.11.06-.03.14-.12.17-.17.05-.1.05-.6.05-1v-4.62c0-.37,0-.74-.03-.83-.03-.07-.07-.12-.12-.17-.09-.07-.5-.22-.77-.31l-5.26-1.92c-.43-.15-.83-.3-.94-.3-.07,0-.15.03-.22.08-.07.06-.32.48-.52.82l-1.35,2.24c-.32.53-.97.73-1.53.48-4.62-2.09-8.33-5.79-10.43-10.42-.25-.56-.05-1.22.48-1.54l2.24-1.35c.39-.23.76-.46.82-.54.05-.07.07-.13.08-.2,0-.16-.17-.61-.3-.94l-1.91-5.27c-.14-.37-.27-.73-.32-.79-.03-.04-.09-.08-.14-.1-.12-.04-.5-.04-.87-.04H3.77Z"/>
  </g>
</svg>